<svg width="448" height="320" viewBox="0 0 448 320" fill="none" xmlns="http://www.w3.org/2000/svg">
<rect x="24.0403" y="24.7942" width="399.334" height="271.12" fill="url(#paint0_linear_747_88893)" stroke="#0076BE" stroke-width="5.34226"/>
<line x1="26.1562" y1="26.1289" x2="26.1562" y2="176.491" stroke="#0076BE" stroke-width="0.667783"/>
<line x1="42.6327" y1="26.1289" x2="42.6327" y2="176.491" stroke="#0076BE" stroke-width="0.667783"/>
<line x1="59.1132" y1="26.1289" x2="59.1132" y2="176.491" stroke="#0076BE" stroke-width="0.667783"/>
<line x1="75.5917" y1="26.1289" x2="75.5917" y2="176.491" stroke="#0076BE" stroke-width="0.667783"/>
<line x1="92.0644" y1="26.1289" x2="92.0644" y2="176.491" stroke="#0076BE" stroke-width="0.667783"/>
<line x1="108.545" y1="26.1289" x2="108.545" y2="176.491" stroke="#0076BE" stroke-width="0.667783"/>
<line x1="125.021" y1="26.1289" x2="125.021" y2="176.491" stroke="#0076BE" stroke-width="0.667783"/>
<line x1="141.5" y1="26.1289" x2="141.5" y2="176.491" stroke="#0076BE" stroke-width="0.667783"/>
<line x1="157.978" y1="26.1289" x2="157.978" y2="176.491" stroke="#0076BE" stroke-width="0.667783"/>
<line x1="174.457" y1="26.1289" x2="174.457" y2="176.491" stroke="#0076BE" stroke-width="0.667783"/>
<line x1="190.934" y1="26.1289" x2="190.933" y2="176.491" stroke="#0076BE" stroke-width="0.667783"/>
<line x1="207.408" y1="26.1289" x2="207.408" y2="176.491" stroke="#0076BE" stroke-width="0.667783"/>
<line x1="223.889" y1="26.1289" x2="223.889" y2="176.491" stroke="#0076BE" stroke-width="0.667783"/>
<line x1="240.365" y1="26.1289" x2="240.365" y2="176.491" stroke="#0076BE" stroke-width="0.667783"/>
<line x1="256.846" y1="26.1289" x2="256.846" y2="176.491" stroke="#0076BE" stroke-width="0.667783"/>
<line x1="256.84" y1="26.1289" x2="256.84" y2="176.491" stroke="#0076BE" stroke-width="0.667783"/>
<line x1="273.316" y1="26.1289" x2="273.316" y2="176.491" stroke="#0076BE" stroke-width="0.667783"/>
<line x1="289.797" y1="26.1289" x2="289.797" y2="176.491" stroke="#0076BE" stroke-width="0.667783"/>
<line x1="306.275" y1="26.1289" x2="306.275" y2="176.491" stroke="#0076BE" stroke-width="0.667783"/>
<line x1="322.748" y1="26.1289" x2="322.748" y2="176.491" stroke="#0076BE" stroke-width="0.667783"/>
<line x1="339.228" y1="26.1289" x2="339.228" y2="176.491" stroke="#0076BE" stroke-width="0.667783"/>
<line x1="355.705" y1="26.1289" x2="355.705" y2="176.491" stroke="#0076BE" stroke-width="0.667783"/>
<line x1="372.184" y1="26.1289" x2="372.184" y2="176.491" stroke="#0076BE" stroke-width="0.667783"/>
<line x1="388.662" y1="26.1289" x2="388.662" y2="176.491" stroke="#0076BE" stroke-width="0.667783"/>
<line x1="405.141" y1="26.1289" x2="405.141" y2="176.491" stroke="#0076BE" stroke-width="0.667783"/>
<line x1="421.617" y1="26.1289" x2="421.617" y2="176.491" stroke="#0076BE" stroke-width="0.667783"/>
<line x1="25.8223" y1="25.795" x2="422.154" y2="25.795" stroke="#0076BE" stroke-width="0.667783"/>
<line x1="25.8223" y1="42.502" x2="422.154" y2="42.502" stroke="#0076BE" stroke-width="0.667783"/>
<line x1="25.8223" y1="59.211" x2="422.154" y2="59.211" stroke="#0076BE" stroke-width="0.667783"/>
<line x1="25.8223" y1="75.9142" x2="422.154" y2="75.9142" stroke="#0076BE" stroke-width="0.667783"/>
<line x1="25.8223" y1="92.6231" x2="422.154" y2="92.6231" stroke="#0076BE" stroke-width="0.667783"/>
<line x1="25.8223" y1="109.33" x2="422.154" y2="109.33" stroke="#0076BE" stroke-width="0.667783"/>
<line x1="25.8223" y1="126.039" x2="422.154" y2="126.039" stroke="#0076BE" stroke-width="0.667783"/>
<line x1="25.8223" y1="142.744" x2="422.154" y2="142.744" stroke="#0076BE" stroke-width="0.667783"/>
<line x1="25.8223" y1="159.453" x2="422.154" y2="159.453" stroke="#0076BE" stroke-width="0.667783"/>
<line x1="25.8223" y1="176.158" x2="422.154" y2="176.158" stroke="#0076BE" stroke-width="0.667783"/>
<line x1="26.1562" y1="176.66" x2="26.1562" y2="293.245" stroke="#0076BE" stroke-width="0.667783"/>
<line x1="42.6327" y1="176.66" x2="42.6327" y2="293.245" stroke="#0076BE" stroke-width="0.667783"/>
<line x1="59.1132" y1="176.66" x2="59.1132" y2="293.245" stroke="#0076BE" stroke-width="0.667783"/>
<line x1="75.5917" y1="176.66" x2="75.5917" y2="293.245" stroke="#0076BE" stroke-width="0.667783"/>
<line x1="92.0644" y1="176.66" x2="92.0644" y2="293.245" stroke="#0076BE" stroke-width="0.667783"/>
<line x1="108.545" y1="176.66" x2="108.545" y2="293.245" stroke="#0076BE" stroke-width="0.667783"/>
<line x1="125.021" y1="176.66" x2="125.021" y2="293.245" stroke="#0076BE" stroke-width="0.667783"/>
<line x1="141.5" y1="176.66" x2="141.5" y2="293.245" stroke="#0076BE" stroke-width="0.667783"/>
<line x1="157.978" y1="176.66" x2="157.978" y2="293.245" stroke="#0076BE" stroke-width="0.667783"/>
<line x1="174.457" y1="176.66" x2="174.457" y2="293.245" stroke="#0076BE" stroke-width="0.667783"/>
<line x1="190.934" y1="176.66" x2="190.933" y2="293.245" stroke="#0076BE" stroke-width="0.667783"/>
<line x1="207.408" y1="176.66" x2="207.408" y2="293.245" stroke="#0076BE" stroke-width="0.667783"/>
<line x1="223.889" y1="176.66" x2="223.889" y2="293.245" stroke="#0076BE" stroke-width="0.667783"/>
<line x1="240.365" y1="176.66" x2="240.365" y2="293.245" stroke="#0076BE" stroke-width="0.667783"/>
<line x1="256.844" y1="176.66" x2="256.844" y2="293.245" stroke="#0076BE" stroke-width="0.667783"/>
<line x1="256.84" y1="176.66" x2="256.84" y2="293.245" stroke="#0076BE" stroke-width="0.667783"/>
<line x1="273.316" y1="176.66" x2="273.316" y2="293.245" stroke="#0076BE" stroke-width="0.667783"/>
<line x1="289.797" y1="176.66" x2="289.797" y2="293.245" stroke="#0076BE" stroke-width="0.667783"/>
<line x1="306.275" y1="176.66" x2="306.275" y2="293.245" stroke="#0076BE" stroke-width="0.667783"/>
<line x1="322.748" y1="176.66" x2="322.748" y2="293.245" stroke="#0076BE" stroke-width="0.667783"/>
<line x1="339.228" y1="176.66" x2="339.228" y2="293.245" stroke="#0076BE" stroke-width="0.667783"/>
<line x1="355.705" y1="176.66" x2="355.705" y2="293.245" stroke="#0076BE" stroke-width="0.667783"/>
<line x1="372.184" y1="176.66" x2="372.184" y2="293.245" stroke="#0076BE" stroke-width="0.667783"/>
<line x1="388.662" y1="176.66" x2="388.662" y2="293.245" stroke="#0076BE" stroke-width="0.667783"/>
<line x1="405.141" y1="176.66" x2="405.141" y2="293.245" stroke="#0076BE" stroke-width="0.667783"/>
<line x1="421.617" y1="176.66" x2="421.617" y2="293.245" stroke="#0076BE" stroke-width="0.667783"/>
<line x1="25.8223" y1="176.326" x2="422.154" y2="176.326" stroke="#0076BE" stroke-width="0.667783"/>
<line x1="25.8223" y1="193.035" x2="422.154" y2="193.035" stroke="#0076BE" stroke-width="0.667783"/>
<line x1="25.8223" y1="209.742" x2="422.154" y2="209.742" stroke="#0076BE" stroke-width="0.667783"/>
<line x1="25.8223" y1="226.445" x2="422.154" y2="226.445" stroke="#0076BE" stroke-width="0.667783"/>
<line x1="25.8223" y1="243.154" x2="422.154" y2="243.154" stroke="#0076BE" stroke-width="0.667783"/>
<line x1="25.8223" y1="259.861" x2="422.154" y2="259.861" stroke="#0076BE" stroke-width="0.667783"/>
<line x1="25.8223" y1="276.57" x2="422.154" y2="276.57" stroke="#0076BE" stroke-width="0.667783"/>
<line x1="25.8223" y1="293.275" x2="422.154" y2="293.275" stroke="#0076BE" stroke-width="0.667783"/>
<rect x="434.506" y="242.494" width="12.9098" height="44.0736" fill="#0076BE"/>
<line x1="440.736" y1="313.279" x2="419.367" y2="313.279" stroke="#0076BE" stroke-width="2.67113"/>
<line x1="441.159" y1="242.494" x2="441.159" y2="198.421" stroke="#0076BE" stroke-width="2.67113" stroke-dasharray="5.34 5.34"/>
<line x1="440.738" y1="273.211" x2="440.738" y2="314.613" stroke="#0076BE" stroke-width="2.67113"/>
<rect y="50.1738" width="12.9098" height="44.0736" fill="#0076BE"/>
<rect x="19.4062" y="319.959" width="13.3556" height="42.6024" transform="rotate(-90 19.4062 319.959)" fill="#0076BE"/>
<rect x="13.627" y="239.822" width="12.9098" height="44.0736" transform="rotate(180 13.627 239.822)" fill="#0076BE"/>
<line x1="6.40858" y1="60.8594" x2="6.40857" y2="6.10121" stroke="#0076BE" stroke-width="2.67113"/>
<line x1="26.709" y1="313.279" x2="5.33995" y2="313.279" stroke="#0076BE" stroke-width="2.67113"/>
<line x1="6.11133" y1="7.43592" x2="14.9322" y2="7.43592" stroke="#0076BE" stroke-width="2.67113"/>
<line x1="14.9316" y1="7.43592" x2="38.4539" y2="7.43592" stroke="#0076BE" stroke-width="2.67113" stroke-dasharray="5.34 5.34"/>
<line x1="108.789" y1="6.09803" x2="238.162" y2="6.09803" stroke="#0076BE" stroke-width="2.67113" stroke-dasharray="12.02 12.02"/>
<line x1="232.285" y1="313.28" x2="399.881" y2="313.28" stroke="#0076BE" stroke-width="2.67113" stroke-dasharray="9.35 9.35"/>
<line x1="6.67615" y1="313.279" x2="6.67616" y2="237.152" stroke="#0076BE" stroke-width="2.67113" stroke-dasharray="5.34 5.34"/>
<line x1="6.26916" y1="74.2129" x2="6.26916" y2="127.635" stroke="#0076BE" stroke-width="2.67113" stroke-dasharray="5.34 5.34"/>
<rect x="345.555" y="14.1133" width="13.3556" height="42.6024" transform="rotate(-90 345.555 14.1133)" fill="#0076BE"/>
<line x1="440.025" y1="6.09961" x2="440.025" y2="50.1732" stroke="#0076BE" stroke-width="2.67113"/>
<line x1="440.025" y1="58.1875" x2="440.025" y2="102.261" stroke="#0076BE" stroke-width="2.67113" stroke-dasharray="5.34 5.34"/>
<line x1="407.521" y1="7.43517" x2="388.116" y2="7.43518" stroke="#0076BE" stroke-width="2.67113"/>
<line x1="422.223" y1="7.43592" x2="439.864" y2="7.43592" stroke="#0076BE" stroke-width="2.67113"/>
<defs>
<linearGradient id="paint0_linear_747_88893" x1="229.283" y1="289.826" x2="224.275" y2="34.242" gradientUnits="userSpaceOnUse">
<stop stop-color="#0076BE" stop-opacity="0.22"/>
<stop offset="1" stop-color="#2B2A2B" stop-opacity="0"/>
</linearGradient>
</defs>
</svg>
