<svg width="448" height="159" viewBox="0 0 448 159" fill="none" xmlns="http://www.w3.org/2000/svg">
<rect x="21.7051" y="17.1328" width="404.676" height="120.201" fill="#D65B34"/>
<rect x="434.764" y="63.2949" width="12.9861" height="44.0736" fill="#0076BE"/>
<line x1="441.863" y1="152.25" x2="422.343" y2="152.25" stroke="#0076BE" stroke-width="2.67113"/>
<line x1="441.463" y1="130.074" x2="441.463" y2="113.936" stroke="#0076BE" stroke-width="2.67113" stroke-dasharray="5.34 5.34"/>
<line x1="443.076" y1="136.957" x2="443.076" y2="153.586" stroke="#0076BE" stroke-width="2.67113"/>
<rect x="0.335938" y="16.623" width="12.9861" height="44.0736" fill="#0076BE"/>
<rect x="27.6504" y="158.93" width="13.3556" height="42.854" transform="rotate(-90 27.6504 158.93)" fill="#0076BE"/>
<line x1="6.44568" y1="20.0449" x2="6.44568" y2="2.44012" stroke="#0076BE" stroke-width="2.67113"/>
<line x1="27.8926" y1="151.986" x2="6.5975" y2="151.986" stroke="#0076BE" stroke-width="2.67113"/>
<line x1="5.18555" y1="2.0824" x2="14.0585" y2="2.0824" stroke="#0076BE" stroke-width="2.67113"/>
<line x1="17.9531" y1="2.0824" x2="41.6143" y2="2.0824" stroke="#0076BE" stroke-width="2.67113" stroke-dasharray="5.34 5.34"/>
<line x1="109.771" y1="2.0824" x2="239.908" y2="2.0824" stroke="#0076BE" stroke-width="2.67113" stroke-dasharray="12.02 12.02"/>
<line x1="233.99" y1="152.965" x2="402.576" y2="152.965" stroke="#0076BE" stroke-width="2.67113" stroke-dasharray="9.35 9.35"/>
<line x1="6.79139" y1="153.584" x2="6.79139" y2="128.208" stroke="#0076BE" stroke-width="2.67113" stroke-dasharray="5.34 5.34"/>
<line x1="4.03674" y1="25.4219" x2="4.03674" y2="44.9828" stroke="#0076BE" stroke-width="2.67113" stroke-dasharray="5.34 5.34"/>
<line x1="441.654" y1="3.41797" x2="441.654" y2="19.5557" stroke="#0076BE" stroke-width="2.67113"/>
<line x1="441.654" y1="19.5586" x2="441.654" y2="35.6963" stroke="#0076BE" stroke-width="2.67113" stroke-dasharray="5.34 5.34"/>
<line x1="410.268" y1="3.77502" x2="390.747" y2="3.77502" stroke="#0076BE" stroke-width="2.67113"/>
<line x1="425.055" y1="2.0824" x2="442.801" y2="2.0824" stroke="#0076BE" stroke-width="2.67113"/>
</svg>
