<svg width="444" height="252" viewBox="0 0 444 252" fill="none" xmlns="http://www.w3.org/2000/svg">
<rect x="24.0163" y="24.3327" width="395.375" height="201.718" fill="url(#paint0_linear_747_88995)" stroke="#0076BE" stroke-width="5.29439"/>
<line x1="25.9207" y1="25.459" x2="25.9207" y2="174.474" stroke="#0076BE" stroke-width="0.661799"/>
<line x1="42.2508" y1="25.459" x2="42.2508" y2="174.474" stroke="#0076BE" stroke-width="0.661799"/>
<line x1="58.5809" y1="25.459" x2="58.5809" y2="174.474" stroke="#0076BE" stroke-width="0.661799"/>
<line x1="74.911" y1="25.459" x2="74.911" y2="174.474" stroke="#0076BE" stroke-width="0.661799"/>
<line x1="91.2391" y1="25.459" x2="91.2391" y2="174.474" stroke="#0076BE" stroke-width="0.661799"/>
<line x1="107.571" y1="25.459" x2="107.571" y2="174.474" stroke="#0076BE" stroke-width="0.661799"/>
<line x1="123.899" y1="25.459" x2="123.899" y2="174.474" stroke="#0076BE" stroke-width="0.661799"/>
<line x1="140.229" y1="25.459" x2="140.229" y2="174.474" stroke="#0076BE" stroke-width="0.661799"/>
<line x1="156.561" y1="25.459" x2="156.561" y2="174.474" stroke="#0076BE" stroke-width="0.661799"/>
<line x1="172.889" y1="25.459" x2="172.889" y2="174.474" stroke="#0076BE" stroke-width="0.661799"/>
<line x1="189.225" y1="25.459" x2="189.225" y2="174.474" stroke="#0076BE" stroke-width="0.661799"/>
<line x1="205.548" y1="25.459" x2="205.548" y2="174.474" stroke="#0076BE" stroke-width="0.661799"/>
<line x1="221.878" y1="25.459" x2="221.878" y2="174.474" stroke="#0076BE" stroke-width="0.661799"/>
<line x1="238.214" y1="25.459" x2="238.214" y2="174.474" stroke="#0076BE" stroke-width="0.661799"/>
<line x1="254.542" y1="25.459" x2="254.542" y2="174.474" stroke="#0076BE" stroke-width="0.661799"/>
<line x1="254.54" y1="25.459" x2="254.54" y2="174.474" stroke="#0076BE" stroke-width="0.661799"/>
<line x1="270.87" y1="25.459" x2="270.87" y2="174.474" stroke="#0076BE" stroke-width="0.661799"/>
<line x1="287.2" y1="25.459" x2="287.2" y2="174.474" stroke="#0076BE" stroke-width="0.661799"/>
<line x1="303.53" y1="25.459" x2="303.53" y2="174.474" stroke="#0076BE" stroke-width="0.661799"/>
<line x1="319.858" y1="25.459" x2="319.858" y2="174.474" stroke="#0076BE" stroke-width="0.661799"/>
<line x1="336.19" y1="25.459" x2="336.19" y2="174.474" stroke="#0076BE" stroke-width="0.661799"/>
<line x1="352.518" y1="25.459" x2="352.518" y2="174.474" stroke="#0076BE" stroke-width="0.661799"/>
<line x1="368.848" y1="25.459" x2="368.848" y2="174.474" stroke="#0076BE" stroke-width="0.661799"/>
<line x1="385.181" y1="25.459" x2="385.181" y2="174.474" stroke="#0076BE" stroke-width="0.661799"/>
<line x1="401.509" y1="25.459" x2="401.509" y2="174.474" stroke="#0076BE" stroke-width="0.661799"/>
<line x1="417.845" y1="25.459" x2="417.845" y2="174.474" stroke="#0076BE" stroke-width="0.661799"/>
<line x1="25.5898" y1="25.1281" x2="418.37" y2="25.1281" stroke="#0076BE" stroke-width="0.661799"/>
<line x1="25.5898" y1="41.6867" x2="418.37" y2="41.6867" stroke="#0076BE" stroke-width="0.661799"/>
<line x1="25.5898" y1="58.2433" x2="418.37" y2="58.2433" stroke="#0076BE" stroke-width="0.661799"/>
<line x1="25.5898" y1="74.798" x2="418.37" y2="74.798" stroke="#0076BE" stroke-width="0.661799"/>
<line x1="25.5898" y1="91.3566" x2="418.37" y2="91.3566" stroke="#0076BE" stroke-width="0.661799"/>
<line x1="25.5898" y1="107.913" x2="418.37" y2="107.913" stroke="#0076BE" stroke-width="0.661799"/>
<line x1="25.5898" y1="124.472" x2="418.37" y2="124.472" stroke="#0076BE" stroke-width="0.661799"/>
<line x1="25.5898" y1="141.028" x2="418.37" y2="141.028" stroke="#0076BE" stroke-width="0.661799"/>
<line x1="25.5898" y1="157.583" x2="418.37" y2="157.583" stroke="#0076BE" stroke-width="0.661799"/>
<line x1="25.5898" y1="174.142" x2="418.37" y2="174.142" stroke="#0076BE" stroke-width="0.661799"/>
<line x1="25.9207" y1="174.637" x2="25.9207" y2="228.694" stroke="#0076BE" stroke-width="0.661799"/>
<line x1="42.2508" y1="174.637" x2="42.2508" y2="228.694" stroke="#0076BE" stroke-width="0.661799"/>
<line x1="58.5809" y1="174.637" x2="58.5809" y2="228.694" stroke="#0076BE" stroke-width="0.661799"/>
<line x1="74.911" y1="174.637" x2="74.911" y2="228.694" stroke="#0076BE" stroke-width="0.661799"/>
<line x1="91.2391" y1="174.637" x2="91.2391" y2="228.694" stroke="#0076BE" stroke-width="0.661799"/>
<line x1="107.571" y1="174.637" x2="107.571" y2="228.694" stroke="#0076BE" stroke-width="0.661799"/>
<line x1="123.899" y1="174.637" x2="123.899" y2="228.694" stroke="#0076BE" stroke-width="0.661799"/>
<line x1="140.229" y1="174.637" x2="140.229" y2="228.694" stroke="#0076BE" stroke-width="0.661799"/>
<line x1="156.561" y1="174.637" x2="156.561" y2="228.694" stroke="#0076BE" stroke-width="0.661799"/>
<line x1="172.889" y1="174.637" x2="172.889" y2="228.694" stroke="#0076BE" stroke-width="0.661799"/>
<line x1="189.225" y1="174.637" x2="189.225" y2="228.694" stroke="#0076BE" stroke-width="0.661799"/>
<line x1="205.548" y1="174.637" x2="205.548" y2="228.694" stroke="#0076BE" stroke-width="0.661799"/>
<line x1="221.878" y1="174.637" x2="221.878" y2="228.694" stroke="#0076BE" stroke-width="0.661799"/>
<line x1="238.214" y1="174.637" x2="238.214" y2="228.694" stroke="#0076BE" stroke-width="0.661799"/>
<line x1="254.538" y1="174.637" x2="254.538" y2="228.694" stroke="#0076BE" stroke-width="0.661799"/>
<line x1="254.54" y1="174.637" x2="254.54" y2="228.694" stroke="#0076BE" stroke-width="0.661799"/>
<line x1="270.87" y1="174.637" x2="270.87" y2="228.694" stroke="#0076BE" stroke-width="0.661799"/>
<line x1="287.2" y1="174.637" x2="287.2" y2="228.694" stroke="#0076BE" stroke-width="0.661799"/>
<line x1="303.53" y1="174.637" x2="303.53" y2="228.694" stroke="#0076BE" stroke-width="0.661799"/>
<line x1="319.858" y1="174.637" x2="319.858" y2="228.694" stroke="#0076BE" stroke-width="0.661799"/>
<line x1="336.19" y1="174.637" x2="336.19" y2="228.694" stroke="#0076BE" stroke-width="0.661799"/>
<line x1="352.518" y1="174.637" x2="352.518" y2="228.694" stroke="#0076BE" stroke-width="0.661799"/>
<line x1="368.848" y1="174.637" x2="368.848" y2="228.694" stroke="#0076BE" stroke-width="0.661799"/>
<line x1="385.181" y1="174.637" x2="385.181" y2="228.694" stroke="#0076BE" stroke-width="0.661799"/>
<line x1="401.509" y1="174.637" x2="401.509" y2="228.694" stroke="#0076BE" stroke-width="0.661799"/>
<line x1="417.845" y1="174.637" x2="417.845" y2="228.694" stroke="#0076BE" stroke-width="0.661799"/>
<line x1="25.5898" y1="174.306" x2="418.37" y2="174.306" stroke="#0076BE" stroke-width="0.661799"/>
<line x1="25.5898" y1="190.864" x2="418.37" y2="190.864" stroke="#0076BE" stroke-width="0.661799"/>
<line x1="25.5898" y1="207.421" x2="418.37" y2="207.421" stroke="#0076BE" stroke-width="0.661799"/>
<line x1="25.5898" y1="223.976" x2="418.37" y2="223.976" stroke="#0076BE" stroke-width="0.661799"/>
<rect x="430.611" y="172.072" width="12.7942" height="43.6787" fill="#0076BE"/>
<line x1="436.787" y1="242.226" x2="415.61" y2="242.226" stroke="#0076BE" stroke-width="2.6472"/>
<line x1="437.206" y1="172.072" x2="437.206" y2="128.394" stroke="#0076BE" stroke-width="2.6472" stroke-dasharray="5.29 5.29"/>
<line x1="436.788" y1="202.518" x2="436.788" y2="243.549" stroke="#0076BE" stroke-width="2.6472"/>
<rect y="49.2852" width="12.7942" height="43.6787" fill="#0076BE"/>
<rect x="19.2344" y="251.51" width="13.236" height="42.2207" transform="rotate(-90 19.2344 251.51)" fill="#0076BE"/>
<rect x="13.5078" y="172.096" width="12.7942" height="43.6787" transform="rotate(180 13.5078 172.096)" fill="#0076BE"/>
<line x1="6.35218" y1="59.877" x2="6.35218" y2="5.60942" stroke="#0076BE" stroke-width="2.6472"/>
<line x1="26.4746" y1="244.896" x2="5.29704" y2="244.896" stroke="#0076BE" stroke-width="2.6472"/>
<line x1="6.05664" y1="6.93226" x2="14.7985" y2="6.93226" stroke="#0076BE" stroke-width="2.6472"/>
<line x1="14.7969" y1="6.93226" x2="38.1084" y2="6.93226" stroke="#0076BE" stroke-width="2.6472" stroke-dasharray="5.29 5.29"/>
<line x1="107.816" y1="5.61195" x2="236.03" y2="5.61195" stroke="#0076BE" stroke-width="2.6472" stroke-dasharray="11.91 11.91"/>
<line x1="230.205" y1="242.223" x2="396.3" y2="242.223" stroke="#0076BE" stroke-width="2.6472" stroke-dasharray="9.27 9.27"/>
<line x1="6.62171" y1="244.895" x2="6.62172" y2="169.449" stroke="#0076BE" stroke-width="2.6472" stroke-dasharray="5.29 5.29"/>
<line x1="6.21032" y1="73.1133" x2="6.21032" y2="126.057" stroke="#0076BE" stroke-width="2.6472" stroke-dasharray="5.29 5.29"/>
<rect x="342.461" y="13.5527" width="13.236" height="42.2207" transform="rotate(-90 342.461 13.5527)" fill="#0076BE"/>
<line x1="436.083" y1="5.60938" x2="436.083" y2="49.2881" stroke="#0076BE" stroke-width="2.6472"/>
<line x1="436.083" y1="57.2324" x2="436.083" y2="100.911" stroke="#0076BE" stroke-width="2.6472" stroke-dasharray="5.29 5.29"/>
<line x1="403.873" y1="6.93297" x2="384.641" y2="6.93298" stroke="#0076BE" stroke-width="2.6472"/>
<line x1="418.438" y1="6.93226" x2="435.921" y2="6.93226" stroke="#0076BE" stroke-width="2.6472"/>
<defs>
<linearGradient id="paint0_linear_747_88995" x1="227.224" y1="222.139" x2="224.388" y2="30.7287" gradientUnits="userSpaceOnUse">
<stop stop-color="#0076BE" stop-opacity="0.22"/>
<stop offset="1" stop-color="#2B2A2B" stop-opacity="0"/>
</linearGradient>
</defs>
</svg>
