<svg width="598" height="318" viewBox="0 0 598 318" fill="none" xmlns="http://www.w3.org/2000/svg">
<rect x="27.9031" y="24.4436" width="538.187" height="270.419" fill="url(#paint0_linear_729_14855)" stroke="#0076BE" stroke-width="5.30233"/>
<line x1="26.0267" y1="25.7695" x2="26.0267" y2="175.008" stroke="#0076BE" stroke-width="0.662792"/>
<line x1="42.3822" y1="25.7695" x2="42.3822" y2="175.008" stroke="#0076BE" stroke-width="0.662792"/>
<line x1="58.7357" y1="25.7695" x2="58.7357" y2="175.008" stroke="#0076BE" stroke-width="0.662792"/>
<line x1="75.0912" y1="25.7695" x2="75.0912" y2="175.008" stroke="#0076BE" stroke-width="0.662792"/>
<line x1="91.4447" y1="25.7695" x2="91.4447" y2="175.008" stroke="#0076BE" stroke-width="0.662792"/>
<line x1="107.8" y1="25.7695" x2="107.8" y2="175.008" stroke="#0076BE" stroke-width="0.662792"/>
<line x1="124.154" y1="25.7695" x2="124.154" y2="175.008" stroke="#0076BE" stroke-width="0.662792"/>
<line x1="140.509" y1="25.7695" x2="140.509" y2="175.008" stroke="#0076BE" stroke-width="0.662792"/>
<line x1="156.865" y1="25.7695" x2="156.865" y2="175.008" stroke="#0076BE" stroke-width="0.662792"/>
<line x1="173.218" y1="25.7695" x2="173.218" y2="175.008" stroke="#0076BE" stroke-width="0.662792"/>
<line x1="189.574" y1="25.7695" x2="189.574" y2="175.008" stroke="#0076BE" stroke-width="0.662792"/>
<line x1="205.925" y1="25.7695" x2="205.925" y2="175.008" stroke="#0076BE" stroke-width="0.662792"/>
<line x1="222.281" y1="25.7695" x2="222.281" y2="175.008" stroke="#0076BE" stroke-width="0.662792"/>
<line x1="238.634" y1="25.7695" x2="238.634" y2="175.008" stroke="#0076BE" stroke-width="0.662792"/>
<line x1="254.99" y1="25.7695" x2="254.99" y2="175.008" stroke="#0076BE" stroke-width="0.662792"/>
<line x1="254.988" y1="25.7695" x2="254.988" y2="175.008" stroke="#0076BE" stroke-width="0.662792"/>
<line x1="271.343" y1="25.7695" x2="271.343" y2="175.008" stroke="#0076BE" stroke-width="0.662792"/>
<line x1="287.697" y1="25.7695" x2="287.697" y2="175.008" stroke="#0076BE" stroke-width="0.662792"/>
<line x1="304.052" y1="25.7695" x2="304.052" y2="175.008" stroke="#0076BE" stroke-width="0.662792"/>
<line x1="320.406" y1="25.7695" x2="320.406" y2="175.008" stroke="#0076BE" stroke-width="0.662792"/>
<line x1="336.761" y1="25.7695" x2="336.761" y2="175.008" stroke="#0076BE" stroke-width="0.662792"/>
<line x1="353.115" y1="25.7695" x2="353.115" y2="175.008" stroke="#0076BE" stroke-width="0.662792"/>
<line x1="369.47" y1="25.7695" x2="369.47" y2="175.008" stroke="#0076BE" stroke-width="0.662792"/>
<line x1="385.826" y1="25.7695" x2="385.826" y2="175.008" stroke="#0076BE" stroke-width="0.662792"/>
<line x1="402.179" y1="25.7695" x2="402.179" y2="175.008" stroke="#0076BE" stroke-width="0.662792"/>
<line x1="418.535" y1="25.7695" x2="418.535" y2="175.008" stroke="#0076BE" stroke-width="0.662792"/>
<line x1="433.865" y1="25.7695" x2="433.865" y2="297.514" stroke="#0076BE" stroke-width="0.662792"/>
<line x1="450.22" y1="25.7695" x2="450.22" y2="297.514" stroke="#0076BE" stroke-width="0.662792"/>
<line x1="466.576" y1="25.7695" x2="466.576" y2="297.514" stroke="#0076BE" stroke-width="0.662792"/>
<line x1="482.929" y1="25.7695" x2="482.929" y2="297.514" stroke="#0076BE" stroke-width="0.662792"/>
<line x1="499.283" y1="25.7695" x2="499.283" y2="297.514" stroke="#0076BE" stroke-width="0.662792"/>
<line x1="515.638" y1="25.7695" x2="515.638" y2="297.514" stroke="#0076BE" stroke-width="0.662792"/>
<line x1="531.992" y1="25.7695" x2="531.992" y2="297.514" stroke="#0076BE" stroke-width="0.662792"/>
<line x1="548.347" y1="25.7695" x2="548.347" y2="297.514" stroke="#0076BE" stroke-width="0.662792"/>
<line x1="564.702" y1="25.7695" x2="564.702" y2="297.514" stroke="#0076BE" stroke-width="0.662792"/>
<line x1="25.6953" y1="25.4381" x2="564.766" y2="25.4381" stroke="#0076BE" stroke-width="0.662792"/>
<line x1="25.6953" y1="42.0207" x2="564.766" y2="42.0207" stroke="#0076BE" stroke-width="0.662792"/>
<line x1="25.6953" y1="58.6037" x2="564.766" y2="58.6037" stroke="#0076BE" stroke-width="0.662792"/>
<line x1="25.6953" y1="75.1837" x2="564.766" y2="75.1837" stroke="#0076BE" stroke-width="0.662792"/>
<line x1="25.6953" y1="91.7663" x2="564.766" y2="91.7663" stroke="#0076BE" stroke-width="0.662792"/>
<line x1="25.6953" y1="108.349" x2="564.766" y2="108.349" stroke="#0076BE" stroke-width="0.662792"/>
<line x1="25.6953" y1="124.932" x2="564.766" y2="124.932" stroke="#0076BE" stroke-width="0.662792"/>
<line x1="25.6953" y1="141.512" x2="564.766" y2="141.512" stroke="#0076BE" stroke-width="0.662792"/>
<line x1="25.6953" y1="158.095" x2="564.766" y2="158.095" stroke="#0076BE" stroke-width="0.662792"/>
<line x1="25.6953" y1="174.678" x2="564.766" y2="174.678" stroke="#0076BE" stroke-width="0.662792"/>
<line x1="26.0267" y1="175.171" x2="26.0267" y2="297.513" stroke="#0076BE" stroke-width="0.662792"/>
<line x1="42.3822" y1="175.171" x2="42.3822" y2="297.513" stroke="#0076BE" stroke-width="0.662792"/>
<line x1="58.7357" y1="175.171" x2="58.7357" y2="297.513" stroke="#0076BE" stroke-width="0.662792"/>
<line x1="75.0912" y1="175.171" x2="75.0912" y2="297.513" stroke="#0076BE" stroke-width="0.662792"/>
<line x1="91.4466" y1="175.171" x2="91.4466" y2="297.513" stroke="#0076BE" stroke-width="0.662792"/>
<line x1="107.802" y1="175.171" x2="107.802" y2="297.513" stroke="#0076BE" stroke-width="0.662792"/>
<line x1="124.154" y1="175.171" x2="124.154" y2="297.513" stroke="#0076BE" stroke-width="0.662792"/>
<line x1="140.509" y1="175.171" x2="140.509" y2="297.513" stroke="#0076BE" stroke-width="0.662792"/>
<line x1="156.865" y1="175.171" x2="156.865" y2="297.513" stroke="#0076BE" stroke-width="0.662792"/>
<line x1="173.218" y1="175.171" x2="173.218" y2="297.513" stroke="#0076BE" stroke-width="0.662792"/>
<line x1="189.574" y1="175.171" x2="189.574" y2="297.513" stroke="#0076BE" stroke-width="0.662792"/>
<line x1="205.925" y1="175.171" x2="205.925" y2="297.513" stroke="#0076BE" stroke-width="0.662792"/>
<line x1="222.285" y1="175.171" x2="222.285" y2="297.513" stroke="#0076BE" stroke-width="0.662792"/>
<line x1="238.634" y1="175.171" x2="238.634" y2="297.513" stroke="#0076BE" stroke-width="0.662792"/>
<line x1="254.988" y1="175.171" x2="254.988" y2="297.513" stroke="#0076BE" stroke-width="0.662792"/>
<line x1="254.988" y1="175.171" x2="254.988" y2="297.513" stroke="#0076BE" stroke-width="0.662792"/>
<line x1="271.343" y1="175.171" x2="271.343" y2="297.513" stroke="#0076BE" stroke-width="0.662792"/>
<line x1="287.697" y1="175.171" x2="287.697" y2="297.513" stroke="#0076BE" stroke-width="0.662792"/>
<line x1="304.052" y1="175.171" x2="304.052" y2="297.513" stroke="#0076BE" stroke-width="0.662792"/>
<line x1="320.408" y1="175.171" x2="320.408" y2="297.513" stroke="#0076BE" stroke-width="0.662792"/>
<line x1="336.763" y1="175.171" x2="336.763" y2="297.513" stroke="#0076BE" stroke-width="0.662792"/>
<line x1="353.115" y1="175.171" x2="353.115" y2="297.513" stroke="#0076BE" stroke-width="0.662792"/>
<line x1="369.47" y1="175.171" x2="369.47" y2="297.513" stroke="#0076BE" stroke-width="0.662792"/>
<line x1="385.826" y1="175.171" x2="385.826" y2="297.513" stroke="#0076BE" stroke-width="0.662792"/>
<line x1="402.179" y1="175.171" x2="402.179" y2="297.513" stroke="#0076BE" stroke-width="0.662792"/>
<line x1="418.535" y1="175.171" x2="418.535" y2="297.513" stroke="#0076BE" stroke-width="0.662792"/>
<line x1="25.6953" y1="174.84" x2="564.766" y2="174.84" stroke="#0076BE" stroke-width="0.662792"/>
<line x1="25.6953" y1="191.423" x2="564.766" y2="191.423" stroke="#0076BE" stroke-width="0.662792"/>
<line x1="25.6953" y1="208.006" x2="564.766" y2="208.006" stroke="#0076BE" stroke-width="0.662792"/>
<line x1="25.6953" y1="224.586" x2="564.766" y2="224.586" stroke="#0076BE" stroke-width="0.662792"/>
<line x1="25.6953" y1="241.168" x2="564.766" y2="241.168" stroke="#0076BE" stroke-width="0.662792"/>
<line x1="25.6953" y1="257.751" x2="564.766" y2="257.751" stroke="#0076BE" stroke-width="0.662792"/>
<line x1="25.6953" y1="274.334" x2="564.766" y2="274.334" stroke="#0076BE" stroke-width="0.662792"/>
<rect x="580.656" y="252.22" width="17.2502" height="37.0842" fill="#0076BE"/>
<line x1="588.982" y1="311.981" x2="560.429" y2="311.981" stroke="#0076BE" stroke-width="2.65117"/>
<line x1="590.003" y1="260.173" x2="590.003" y2="223.089" stroke="#0076BE" stroke-width="2.65117" stroke-dasharray="5.3 5.3"/>
<line x1="588.521" y1="278.066" x2="588.521" y2="312.903" stroke="#0076BE" stroke-width="2.65117"/>
<rect x="0.0664062" y="42.1626" width="17.2502" height="37.0842" fill="#0076BE"/>
<rect x="25.998" y="317.398" width="11.2376" height="56.9257" transform="rotate(-90 25.998 317.398)" fill="#0076BE"/>
<rect x="18.2754" y="249.972" width="17.2502" height="37.0842" transform="rotate(180 18.2754 249.972)" fill="#0076BE"/>
<line x1="9.09239" y1="51.1533" x2="9.09238" y2="5.07898" stroke="#0076BE" stroke-width="2.65117"/>
<line x1="35.7598" y1="311.981" x2="7.20631" y2="311.981" stroke="#0076BE" stroke-width="2.65117"/>
<line x1="8.23242" y1="6.00059" x2="20.0189" y2="6.00059" stroke="#0076BE" stroke-width="2.65117"/>
<line x1="20.0156" y1="6.00059" x2="51.4463" y2="6.00059" stroke="#0076BE" stroke-width="2.65117" stroke-dasharray="5.3 5.3"/>
<line x1="145.436" y1="4.87705" x2="318.304" y2="4.87705" stroke="#0076BE" stroke-width="2.65117" stroke-dasharray="11.93 11.93"/>
<line x1="310.445" y1="311.578" x2="534.389" y2="311.578" stroke="#0076BE" stroke-width="2.65117" stroke-dasharray="9.28 9.28"/>
<line x1="9.44981" y1="311.779" x2="9.44981" y2="247.725" stroke="#0076BE" stroke-width="2.65117" stroke-dasharray="5.3 5.3"/>
<line x1="7.98379" y1="62.3911" x2="7.98379" y2="107.342" stroke="#0076BE" stroke-width="2.65117" stroke-dasharray="5.3 5.3"/>
<rect x="461.801" y="11.8218" width="11.2376" height="56.9257" transform="rotate(-90 461.801 11.8218)" fill="#0076BE"/>
<line x1="587.576" y1="5.07861" x2="587.576" y2="42.1628" stroke="#0076BE" stroke-width="2.65117"/>
<line x1="587.576" y1="48.9053" x2="587.576" y2="85.9895" stroke="#0076BE" stroke-width="2.65117" stroke-dasharray="5.3 5.3"/>
<line x1="544.602" y1="6.4042" x2="518.671" y2="6.4042" stroke="#0076BE" stroke-width="2.65117"/>
<line x1="564.246" y1="6.00059" x2="587.819" y2="6.00059" stroke="#0076BE" stroke-width="2.65117"/>
<defs>
<linearGradient id="paint0_linear_729_14855" x1="304.484" y1="288.778" x2="300.775" y2="33.835" gradientUnits="userSpaceOnUse">
<stop stop-color="#0076BE" stop-opacity="0.22"/>
<stop offset="1" stop-color="#2B2A2B" stop-opacity="0"/>
</linearGradient>
</defs>
</svg>
