<svg width="445" height="384" viewBox="0 0 445 384" fill="none" xmlns="http://www.w3.org/2000/svg">
<rect x="24.5535" y="23.9798" width="396.349" height="335.373" fill="url(#paint0_linear_729_15384)" stroke="#0076BE" stroke-width="5.30233"/>
<line x1="26.6517" y1="25.3042" x2="26.6517" y2="174.543" stroke="#0076BE" stroke-width="0.662792"/>
<line x1="43.0072" y1="25.3042" x2="43.0072" y2="174.543" stroke="#0076BE" stroke-width="0.662792"/>
<line x1="59.3607" y1="25.3042" x2="59.3607" y2="174.543" stroke="#0076BE" stroke-width="0.662792"/>
<line x1="75.7162" y1="25.3042" x2="75.7162" y2="174.543" stroke="#0076BE" stroke-width="0.662792"/>
<line x1="92.0697" y1="25.3042" x2="92.0697" y2="174.543" stroke="#0076BE" stroke-width="0.662792"/>
<line x1="108.425" y1="25.3042" x2="108.425" y2="174.543" stroke="#0076BE" stroke-width="0.662792"/>
<line x1="124.779" y1="25.3042" x2="124.779" y2="174.543" stroke="#0076BE" stroke-width="0.662792"/>
<line x1="141.134" y1="25.3042" x2="141.134" y2="174.543" stroke="#0076BE" stroke-width="0.662792"/>
<line x1="157.49" y1="25.3042" x2="157.49" y2="174.543" stroke="#0076BE" stroke-width="0.662792"/>
<line x1="173.843" y1="25.3042" x2="173.843" y2="174.543" stroke="#0076BE" stroke-width="0.662792"/>
<line x1="190.199" y1="25.3042" x2="190.199" y2="174.543" stroke="#0076BE" stroke-width="0.662792"/>
<line x1="206.55" y1="25.3042" x2="206.55" y2="174.543" stroke="#0076BE" stroke-width="0.662792"/>
<line x1="222.906" y1="25.3042" x2="222.906" y2="174.543" stroke="#0076BE" stroke-width="0.662792"/>
<line x1="239.259" y1="25.3042" x2="239.259" y2="174.543" stroke="#0076BE" stroke-width="0.662792"/>
<line x1="255.615" y1="25.3042" x2="255.615" y2="174.543" stroke="#0076BE" stroke-width="0.662792"/>
<line x1="255.615" y1="25.3042" x2="255.615" y2="174.543" stroke="#0076BE" stroke-width="0.662792"/>
<line x1="271.97" y1="25.3042" x2="271.97" y2="174.543" stroke="#0076BE" stroke-width="0.662792"/>
<line x1="288.324" y1="25.3042" x2="288.324" y2="174.543" stroke="#0076BE" stroke-width="0.662792"/>
<line x1="304.679" y1="25.3042" x2="304.679" y2="174.543" stroke="#0076BE" stroke-width="0.662792"/>
<line x1="321.033" y1="25.3042" x2="321.033" y2="174.543" stroke="#0076BE" stroke-width="0.662792"/>
<line x1="337.388" y1="25.3042" x2="337.388" y2="174.543" stroke="#0076BE" stroke-width="0.662792"/>
<line x1="353.742" y1="25.3042" x2="353.742" y2="174.543" stroke="#0076BE" stroke-width="0.662792"/>
<line x1="370.097" y1="25.3042" x2="370.097" y2="174.543" stroke="#0076BE" stroke-width="0.662792"/>
<line x1="386.452" y1="25.3042" x2="386.452" y2="174.543" stroke="#0076BE" stroke-width="0.662792"/>
<line x1="402.808" y1="25.3042" x2="402.808" y2="174.543" stroke="#0076BE" stroke-width="0.662792"/>
<line x1="419.161" y1="25.3042" x2="419.161" y2="174.543" stroke="#0076BE" stroke-width="0.662792"/>
<line x1="26.3203" y1="24.9728" x2="419.69" y2="24.9728" stroke="#0076BE" stroke-width="0.662792"/>
<line x1="26.3203" y1="41.5553" x2="419.69" y2="41.5553" stroke="#0076BE" stroke-width="0.662792"/>
<line x1="26.3203" y1="58.1383" x2="419.69" y2="58.1383" stroke="#0076BE" stroke-width="0.662792"/>
<line x1="26.3203" y1="74.7184" x2="419.69" y2="74.7184" stroke="#0076BE" stroke-width="0.662792"/>
<line x1="26.3203" y1="91.3009" x2="419.69" y2="91.3009" stroke="#0076BE" stroke-width="0.662792"/>
<line x1="26.3203" y1="107.883" x2="419.69" y2="107.883" stroke="#0076BE" stroke-width="0.662792"/>
<line x1="26.3203" y1="124.467" x2="419.69" y2="124.467" stroke="#0076BE" stroke-width="0.662792"/>
<line x1="26.3203" y1="141.047" x2="419.69" y2="141.047" stroke="#0076BE" stroke-width="0.662792"/>
<line x1="26.3203" y1="157.63" x2="419.69" y2="157.63" stroke="#0076BE" stroke-width="0.662792"/>
<line x1="26.3203" y1="174.213" x2="419.69" y2="174.213" stroke="#0076BE" stroke-width="0.662792"/>
<line x1="26.6517" y1="174.708" x2="26.6517" y2="323.946" stroke="#0076BE" stroke-width="0.662792"/>
<line x1="43.0072" y1="174.708" x2="43.0072" y2="323.946" stroke="#0076BE" stroke-width="0.662792"/>
<line x1="59.3607" y1="174.708" x2="59.3607" y2="323.946" stroke="#0076BE" stroke-width="0.662792"/>
<line x1="75.7162" y1="174.708" x2="75.7162" y2="323.946" stroke="#0076BE" stroke-width="0.662792"/>
<line x1="92.0697" y1="174.708" x2="92.0697" y2="323.946" stroke="#0076BE" stroke-width="0.662792"/>
<line x1="108.425" y1="174.708" x2="108.425" y2="323.946" stroke="#0076BE" stroke-width="0.662792"/>
<line x1="124.779" y1="174.708" x2="124.779" y2="323.946" stroke="#0076BE" stroke-width="0.662792"/>
<line x1="141.134" y1="174.708" x2="141.134" y2="323.946" stroke="#0076BE" stroke-width="0.662792"/>
<line x1="157.49" y1="174.708" x2="157.49" y2="323.946" stroke="#0076BE" stroke-width="0.662792"/>
<line x1="173.843" y1="174.708" x2="173.843" y2="323.946" stroke="#0076BE" stroke-width="0.662792"/>
<line x1="190.199" y1="174.708" x2="190.199" y2="323.946" stroke="#0076BE" stroke-width="0.662792"/>
<line x1="206.55" y1="174.708" x2="206.55" y2="323.946" stroke="#0076BE" stroke-width="0.662792"/>
<line x1="222.906" y1="174.708" x2="222.906" y2="323.946" stroke="#0076BE" stroke-width="0.662792"/>
<line x1="239.259" y1="174.708" x2="239.259" y2="323.946" stroke="#0076BE" stroke-width="0.662792"/>
<line x1="255.615" y1="174.708" x2="255.615" y2="323.946" stroke="#0076BE" stroke-width="0.662792"/>
<line x1="255.615" y1="174.708" x2="255.615" y2="323.946" stroke="#0076BE" stroke-width="0.662792"/>
<line x1="271.97" y1="174.708" x2="271.97" y2="323.946" stroke="#0076BE" stroke-width="0.662792"/>
<line x1="288.324" y1="174.708" x2="288.324" y2="323.946" stroke="#0076BE" stroke-width="0.662792"/>
<line x1="304.679" y1="174.708" x2="304.679" y2="323.946" stroke="#0076BE" stroke-width="0.662792"/>
<line x1="321.033" y1="174.708" x2="321.033" y2="323.946" stroke="#0076BE" stroke-width="0.662792"/>
<line x1="337.388" y1="174.708" x2="337.388" y2="323.946" stroke="#0076BE" stroke-width="0.662792"/>
<line x1="353.742" y1="174.708" x2="353.742" y2="323.946" stroke="#0076BE" stroke-width="0.662792"/>
<line x1="370.097" y1="174.708" x2="370.097" y2="323.946" stroke="#0076BE" stroke-width="0.662792"/>
<line x1="386.452" y1="174.708" x2="386.452" y2="323.946" stroke="#0076BE" stroke-width="0.662792"/>
<line x1="402.808" y1="174.708" x2="402.808" y2="323.946" stroke="#0076BE" stroke-width="0.662792"/>
<line x1="419.161" y1="174.708" x2="419.161" y2="323.946" stroke="#0076BE" stroke-width="0.662792"/>
<line x1="26.3203" y1="174.376" x2="419.69" y2="174.376" stroke="#0076BE" stroke-width="0.662792"/>
<line x1="26.3203" y1="190.959" x2="419.69" y2="190.959" stroke="#0076BE" stroke-width="0.662792"/>
<line x1="26.3203" y1="207.542" x2="419.69" y2="207.542" stroke="#0076BE" stroke-width="0.662792"/>
<line x1="26.3203" y1="224.122" x2="419.69" y2="224.122" stroke="#0076BE" stroke-width="0.662792"/>
<line x1="26.3203" y1="240.704" x2="419.69" y2="240.704" stroke="#0076BE" stroke-width="0.662792"/>
<line x1="26.3203" y1="257.287" x2="419.69" y2="257.287" stroke="#0076BE" stroke-width="0.662792"/>
<line x1="26.3203" y1="273.87" x2="419.69" y2="273.87" stroke="#0076BE" stroke-width="0.662792"/>
<line x1="26.3203" y1="290.45" x2="419.69" y2="290.45" stroke="#0076BE" stroke-width="0.662792"/>
<line x1="26.3203" y1="307.033" x2="419.69" y2="307.033" stroke="#0076BE" stroke-width="0.662792"/>
<line x1="26.3203" y1="323.616" x2="419.69" y2="323.616" stroke="#0076BE" stroke-width="0.662792"/>
<line x1="26.6517" y1="324.113" x2="26.6517" y2="356.701" stroke="#0076BE" stroke-width="0.662792"/>
<line x1="43.0072" y1="324.113" x2="43.0072" y2="356.701" stroke="#0076BE" stroke-width="0.662792"/>
<line x1="59.3607" y1="324.113" x2="59.3607" y2="356.701" stroke="#0076BE" stroke-width="0.662792"/>
<line x1="75.7162" y1="324.113" x2="75.7162" y2="356.701" stroke="#0076BE" stroke-width="0.662792"/>
<line x1="92.0716" y1="324.113" x2="92.0716" y2="356.701" stroke="#0076BE" stroke-width="0.662792"/>
<line x1="108.427" y1="324.113" x2="108.427" y2="356.701" stroke="#0076BE" stroke-width="0.662792"/>
<line x1="124.779" y1="324.113" x2="124.779" y2="356.701" stroke="#0076BE" stroke-width="0.662792"/>
<line x1="141.134" y1="324.113" x2="141.134" y2="356.701" stroke="#0076BE" stroke-width="0.662792"/>
<line x1="157.49" y1="324.113" x2="157.49" y2="356.701" stroke="#0076BE" stroke-width="0.662792"/>
<line x1="173.843" y1="324.113" x2="173.843" y2="356.701" stroke="#0076BE" stroke-width="0.662792"/>
<line x1="190.199" y1="324.113" x2="190.199" y2="356.701" stroke="#0076BE" stroke-width="0.662792"/>
<line x1="206.55" y1="324.113" x2="206.55" y2="356.701" stroke="#0076BE" stroke-width="0.662792"/>
<line x1="222.91" y1="324.113" x2="222.91" y2="356.701" stroke="#0076BE" stroke-width="0.662792"/>
<line x1="239.259" y1="324.113" x2="239.259" y2="356.701" stroke="#0076BE" stroke-width="0.662792"/>
<line x1="255.613" y1="324.113" x2="255.613" y2="356.701" stroke="#0076BE" stroke-width="0.662792"/>
<line x1="255.615" y1="324.113" x2="255.615" y2="356.701" stroke="#0076BE" stroke-width="0.662792"/>
<line x1="271.97" y1="324.113" x2="271.97" y2="356.701" stroke="#0076BE" stroke-width="0.662792"/>
<line x1="288.324" y1="324.113" x2="288.324" y2="356.701" stroke="#0076BE" stroke-width="0.662792"/>
<line x1="304.679" y1="324.113" x2="304.679" y2="356.701" stroke="#0076BE" stroke-width="0.662792"/>
<line x1="321.035" y1="324.113" x2="321.035" y2="356.701" stroke="#0076BE" stroke-width="0.662792"/>
<line x1="337.39" y1="324.113" x2="337.39" y2="356.701" stroke="#0076BE" stroke-width="0.662792"/>
<line x1="353.742" y1="324.113" x2="353.742" y2="356.701" stroke="#0076BE" stroke-width="0.662792"/>
<line x1="370.097" y1="324.113" x2="370.097" y2="356.701" stroke="#0076BE" stroke-width="0.662792"/>
<line x1="386.452" y1="324.113" x2="386.452" y2="356.701" stroke="#0076BE" stroke-width="0.662792"/>
<line x1="402.808" y1="324.113" x2="402.808" y2="356.701" stroke="#0076BE" stroke-width="0.662792"/>
<line x1="419.161" y1="324.113" x2="419.161" y2="356.701" stroke="#0076BE" stroke-width="0.662792"/>
<line x1="26.3203" y1="323.781" x2="419.69" y2="323.781" stroke="#0076BE" stroke-width="0.662792"/>
<line x1="26.3203" y1="340.364" x2="419.69" y2="340.364" stroke="#0076BE" stroke-width="0.662792"/>
<line x1="26.3203" y1="356.947" x2="419.69" y2="356.947" stroke="#0076BE" stroke-width="0.662792"/>
<rect x="431.949" y="306.329" width="12.8133" height="43.7443" fill="#0076BE"/>
<line x1="438.135" y1="376.584" x2="416.925" y2="376.584" stroke="#0076BE" stroke-width="2.65117"/>
<line x1="438.553" y1="306.329" x2="438.553" y2="262.585" stroke="#0076BE" stroke-width="2.65117" stroke-dasharray="5.3 5.3"/>
<line x1="438.134" y1="336.817" x2="438.134" y2="377.91" stroke="#0076BE" stroke-width="2.65117"/>
<rect x="0.691406" y="49.1655" width="12.8133" height="43.7443" fill="#0076BE"/>
<rect x="19.9551" y="383.213" width="13.2558" height="42.284" transform="rotate(-90 19.9551 383.213)" fill="#0076BE"/>
<rect x="14.2168" y="303.678" width="12.8133" height="43.7443" transform="rotate(180 14.2168 303.678)" fill="#0076BE"/>
<line x1="7.05332" y1="59.77" x2="7.05332" y2="5.4211" stroke="#0076BE" stroke-width="2.65117"/>
<line x1="27.2051" y1="376.584" x2="5.99575" y2="376.584" stroke="#0076BE" stroke-width="2.65117"/>
<line x1="6.75781" y1="6.74717" x2="15.5127" y2="6.74717" stroke="#0076BE" stroke-width="2.65117"/>
<line x1="15.5117" y1="6.74717" x2="38.8582" y2="6.74717" stroke="#0076BE" stroke-width="2.65117" stroke-dasharray="5.3 5.3"/>
<line x1="108.67" y1="5.42149" x2="237.076" y2="5.42149" stroke="#0076BE" stroke-width="2.65117" stroke-dasharray="11.93 11.93"/>
<line x1="231.24" y1="376.585" x2="397.584" y2="376.585" stroke="#0076BE" stroke-width="2.65117" stroke-dasharray="9.28 9.28"/>
<line x1="7.31895" y1="376.584" x2="7.31895" y2="301.026" stroke="#0076BE" stroke-width="2.65117" stroke-dasharray="5.3 5.3"/>
<line x1="6.91347" y1="73.0259" x2="6.91347" y2="126.049" stroke="#0076BE" stroke-width="2.65117" stroke-dasharray="5.3 5.3"/>
<rect x="343.666" y="13.375" width="13.2558" height="42.284" transform="rotate(-90 343.666 13.375)" fill="#0076BE"/>
<line x1="437.427" y1="5.42139" x2="437.427" y2="49.1656" stroke="#0076BE" stroke-width="2.65117"/>
<line x1="437.427" y1="57.1191" x2="437.427" y2="100.863" stroke="#0076BE" stroke-width="2.65117" stroke-dasharray="5.3 5.3"/>
<line x1="405.168" y1="6.74697" x2="385.907" y2="6.74697" stroke="#0076BE" stroke-width="2.65117"/>
<line x1="419.76" y1="6.74717" x2="437.27" y2="6.74717" stroke="#0076BE" stroke-width="2.65117"/>
<defs>
<linearGradient id="paint0_linear_729_15384" x1="228.262" y1="351.21" x2="220.602" y2="36.3278" gradientUnits="userSpaceOnUse">
<stop stop-color="#0076BE" stop-opacity="0.22"/>
<stop offset="1" stop-color="#2B2A2B" stop-opacity="0"/>
</linearGradient>
</defs>
</svg>
