<svg width="445" height="158" viewBox="0 0 445 158" fill="none" xmlns="http://www.w3.org/2000/svg">
<rect x="431.736" y="62.5225" width="12.889" height="43.7443" fill="#0076BE"/>
<line x1="438.781" y1="150.811" x2="419.407" y2="150.811" stroke="#0076BE" stroke-width="2.65117"/>
<line x1="438.385" y1="128.801" x2="438.385" y2="112.784" stroke="#0076BE" stroke-width="2.65117" stroke-dasharray="5.3 5.3"/>
<line x1="439.986" y1="135.634" x2="439.986" y2="152.138" stroke="#0076BE" stroke-width="2.65117"/>
<rect x="0.554688" y="16.1968" width="12.889" height="43.7443" fill="#0076BE"/>
<rect x="27.6641" y="157.438" width="13.2558" height="42.5337" transform="rotate(-90 27.6641 157.438)" fill="#0076BE"/>
<line x1="6.61778" y1="19.5938" x2="6.61778" y2="2.12052" stroke="#0076BE" stroke-width="2.65117"/>
<line x1="27.9043" y1="150.549" x2="6.76838" y2="150.549" stroke="#0076BE" stroke-width="2.65117"/>
<line x1="5.36914" y1="1.76573" x2="14.1758" y2="1.76573" stroke="#0076BE" stroke-width="2.65117"/>
<line x1="18.041" y1="1.76573" x2="41.5254" y2="1.76573" stroke="#0076BE" stroke-width="2.65117" stroke-dasharray="5.3 5.3"/>
<line x1="109.172" y1="1.76573" x2="238.336" y2="1.76573" stroke="#0076BE" stroke-width="2.65117" stroke-dasharray="11.93 11.93"/>
<line x1="232.461" y1="151.521" x2="399.787" y2="151.521" stroke="#0076BE" stroke-width="2.65117" stroke-dasharray="9.28 9.28"/>
<line x1="6.96348" y1="152.137" x2="6.96348" y2="126.951" stroke="#0076BE" stroke-width="2.65117" stroke-dasharray="5.3 5.3"/>
<line x1="4.22988" y1="24.9321" x2="4.22988" y2="44.3468" stroke="#0076BE" stroke-width="2.65117" stroke-dasharray="5.3 5.3"/>
<line x1="438.576" y1="3.09131" x2="438.576" y2="19.1084" stroke="#0076BE" stroke-width="2.65117"/>
<line x1="438.576" y1="19.1094" x2="438.576" y2="35.1265" stroke="#0076BE" stroke-width="2.65117" stroke-dasharray="5.3 5.3"/>
<line x1="407.42" y1="3.4457" x2="388.045" y2="3.4457" stroke="#0076BE" stroke-width="2.65117"/>
<line x1="422.098" y1="1.76573" x2="439.711" y2="1.76573" stroke="#0076BE" stroke-width="2.65117"/>
</svg>
