<svg width="668" height="318" viewBox="0 0 668 318" fill="none" xmlns="http://www.w3.org/2000/svg">
<rect x="28.2059" y="24.4441" width="612.419" height="270.419" fill="url(#paint0_linear_729_15103)" stroke="#0076BE" stroke-width="5.30233"/>
<line x1="26.3294" y1="25.77" x2="26.3294" y2="175.009" stroke="#0076BE" stroke-width="0.662792"/>
<line x1="42.6849" y1="25.77" x2="42.6849" y2="175.009" stroke="#0076BE" stroke-width="0.662792"/>
<line x1="59.0384" y1="25.77" x2="59.0384" y2="175.009" stroke="#0076BE" stroke-width="0.662792"/>
<line x1="75.3939" y1="25.77" x2="75.3939" y2="175.009" stroke="#0076BE" stroke-width="0.662792"/>
<line x1="91.7474" y1="25.77" x2="91.7474" y2="175.009" stroke="#0076BE" stroke-width="0.662792"/>
<line x1="108.103" y1="25.77" x2="108.103" y2="175.009" stroke="#0076BE" stroke-width="0.662792"/>
<line x1="124.456" y1="25.77" x2="124.456" y2="175.009" stroke="#0076BE" stroke-width="0.662792"/>
<line x1="140.812" y1="25.77" x2="140.812" y2="175.009" stroke="#0076BE" stroke-width="0.662792"/>
<line x1="157.167" y1="25.77" x2="157.167" y2="175.009" stroke="#0076BE" stroke-width="0.662792"/>
<line x1="173.523" y1="25.77" x2="173.523" y2="175.009" stroke="#0076BE" stroke-width="0.662792"/>
<line x1="189.876" y1="25.77" x2="189.876" y2="175.009" stroke="#0076BE" stroke-width="0.662792"/>
<line x1="206.228" y1="25.77" x2="206.228" y2="175.009" stroke="#0076BE" stroke-width="0.662792"/>
<line x1="222.583" y1="25.77" x2="222.583" y2="175.009" stroke="#0076BE" stroke-width="0.662792"/>
<line x1="238.937" y1="25.77" x2="238.937" y2="175.009" stroke="#0076BE" stroke-width="0.662792"/>
<line x1="255.292" y1="25.77" x2="255.292" y2="175.009" stroke="#0076BE" stroke-width="0.662792"/>
<line x1="255.292" y1="25.7695" x2="255.292" y2="175.008" stroke="#0076BE" stroke-width="0.662792"/>
<line x1="271.648" y1="25.7695" x2="271.648" y2="175.008" stroke="#0076BE" stroke-width="0.662792"/>
<line x1="288.001" y1="25.7695" x2="288.001" y2="175.008" stroke="#0076BE" stroke-width="0.662792"/>
<line x1="304.357" y1="25.7695" x2="304.357" y2="175.008" stroke="#0076BE" stroke-width="0.662792"/>
<line x1="320.71" y1="25.7695" x2="320.71" y2="175.008" stroke="#0076BE" stroke-width="0.662792"/>
<line x1="337.066" y1="25.7695" x2="337.066" y2="175.008" stroke="#0076BE" stroke-width="0.662792"/>
<line x1="353.419" y1="25.7695" x2="353.419" y2="175.008" stroke="#0076BE" stroke-width="0.662792"/>
<line x1="369.775" y1="25.7695" x2="369.775" y2="175.008" stroke="#0076BE" stroke-width="0.662792"/>
<line x1="386.13" y1="25.7695" x2="386.13" y2="175.008" stroke="#0076BE" stroke-width="0.662792"/>
<line x1="402.484" y1="25.7695" x2="402.484" y2="175.008" stroke="#0076BE" stroke-width="0.662792"/>
<line x1="418.839" y1="25.7695" x2="418.839" y2="175.008" stroke="#0076BE" stroke-width="0.662792"/>
<line x1="434.165" y1="25.77" x2="434.165" y2="297.515" stroke="#0076BE" stroke-width="0.662792"/>
<line x1="450.521" y1="25.77" x2="450.521" y2="297.515" stroke="#0076BE" stroke-width="0.662792"/>
<line x1="466.874" y1="25.77" x2="466.874" y2="297.515" stroke="#0076BE" stroke-width="0.662792"/>
<line x1="483.23" y1="25.77" x2="483.23" y2="297.515" stroke="#0076BE" stroke-width="0.662792"/>
<line x1="499.583" y1="25.77" x2="499.583" y2="297.515" stroke="#0076BE" stroke-width="0.662792"/>
<line x1="515.939" y1="25.77" x2="515.939" y2="297.515" stroke="#0076BE" stroke-width="0.662792"/>
<line x1="532.292" y1="25.77" x2="532.292" y2="297.515" stroke="#0076BE" stroke-width="0.662792"/>
<line x1="548.648" y1="25.77" x2="548.648" y2="297.515" stroke="#0076BE" stroke-width="0.662792"/>
<line x1="565.003" y1="25.77" x2="565.003" y2="297.515" stroke="#0076BE" stroke-width="0.662792"/>
<line x1="516.351" y1="23.1187" x2="516.351" y2="294.863" stroke="#0076BE" stroke-width="0.662792"/>
<line x1="532.706" y1="23.1187" x2="532.706" y2="294.863" stroke="#0076BE" stroke-width="0.662792"/>
<line x1="549.06" y1="23.1187" x2="549.06" y2="294.863" stroke="#0076BE" stroke-width="0.662792"/>
<line x1="565.415" y1="23.1187" x2="565.415" y2="294.863" stroke="#0076BE" stroke-width="0.662792"/>
<line x1="581.769" y1="23.1187" x2="581.769" y2="294.863" stroke="#0076BE" stroke-width="0.662792"/>
<line x1="598.124" y1="23.1187" x2="598.124" y2="294.863" stroke="#0076BE" stroke-width="0.662792"/>
<line x1="614.478" y1="23.1187" x2="614.478" y2="294.863" stroke="#0076BE" stroke-width="0.662792"/>
<line x1="630.833" y1="23.1187" x2="630.833" y2="294.863" stroke="#0076BE" stroke-width="0.662792"/>
<line x1="25.998" y1="25.4386" x2="639.302" y2="25.4386" stroke="#0076BE" stroke-width="0.662792"/>
<line x1="25.998" y1="42.0211" x2="639.302" y2="42.0211" stroke="#0076BE" stroke-width="0.662792"/>
<line x1="25.998" y1="58.6037" x2="639.302" y2="58.6037" stroke="#0076BE" stroke-width="0.662792"/>
<line x1="25.998" y1="75.1842" x2="639.302" y2="75.1842" stroke="#0076BE" stroke-width="0.662792"/>
<line x1="25.998" y1="91.7667" x2="639.302" y2="91.7667" stroke="#0076BE" stroke-width="0.662792"/>
<line x1="25.998" y1="108.349" x2="639.302" y2="108.349" stroke="#0076BE" stroke-width="0.662792"/>
<line x1="25.998" y1="124.933" x2="639.302" y2="124.933" stroke="#0076BE" stroke-width="0.662792"/>
<line x1="25.998" y1="141.513" x2="639.302" y2="141.513" stroke="#0076BE" stroke-width="0.662792"/>
<line x1="25.998" y1="158.095" x2="639.302" y2="158.095" stroke="#0076BE" stroke-width="0.662792"/>
<line x1="25.998" y1="174.678" x2="639.302" y2="174.678" stroke="#0076BE" stroke-width="0.662792"/>
<line x1="26.3294" y1="175.172" x2="26.3294" y2="297.514" stroke="#0076BE" stroke-width="0.662792"/>
<line x1="42.6849" y1="175.172" x2="42.6849" y2="297.514" stroke="#0076BE" stroke-width="0.662792"/>
<line x1="59.0384" y1="175.172" x2="59.0384" y2="297.514" stroke="#0076BE" stroke-width="0.662792"/>
<line x1="75.3939" y1="175.172" x2="75.3939" y2="297.514" stroke="#0076BE" stroke-width="0.662792"/>
<line x1="91.7494" y1="175.172" x2="91.7494" y2="297.514" stroke="#0076BE" stroke-width="0.662792"/>
<line x1="108.105" y1="175.172" x2="108.105" y2="297.514" stroke="#0076BE" stroke-width="0.662792"/>
<line x1="124.456" y1="175.172" x2="124.456" y2="297.514" stroke="#0076BE" stroke-width="0.662792"/>
<line x1="140.812" y1="175.172" x2="140.812" y2="297.514" stroke="#0076BE" stroke-width="0.662792"/>
<line x1="157.167" y1="175.172" x2="157.167" y2="297.514" stroke="#0076BE" stroke-width="0.662792"/>
<line x1="173.523" y1="175.172" x2="173.523" y2="297.514" stroke="#0076BE" stroke-width="0.662792"/>
<line x1="189.876" y1="175.172" x2="189.876" y2="297.514" stroke="#0076BE" stroke-width="0.662792"/>
<line x1="206.228" y1="175.172" x2="206.228" y2="297.514" stroke="#0076BE" stroke-width="0.662792"/>
<line x1="222.587" y1="175.172" x2="222.587" y2="297.514" stroke="#0076BE" stroke-width="0.662792"/>
<line x1="238.937" y1="175.172" x2="238.937" y2="297.514" stroke="#0076BE" stroke-width="0.662792"/>
<line x1="255.29" y1="175.172" x2="255.29" y2="297.514" stroke="#0076BE" stroke-width="0.662792"/>
<line x1="255.292" y1="175.172" x2="255.292" y2="297.514" stroke="#0076BE" stroke-width="0.662792"/>
<line x1="271.648" y1="175.172" x2="271.648" y2="297.514" stroke="#0076BE" stroke-width="0.662792"/>
<line x1="288.001" y1="175.172" x2="288.001" y2="297.514" stroke="#0076BE" stroke-width="0.662792"/>
<line x1="304.357" y1="175.172" x2="304.357" y2="297.514" stroke="#0076BE" stroke-width="0.662792"/>
<line x1="320.712" y1="175.172" x2="320.712" y2="297.514" stroke="#0076BE" stroke-width="0.662792"/>
<line x1="337.068" y1="175.172" x2="337.068" y2="297.514" stroke="#0076BE" stroke-width="0.662792"/>
<line x1="353.419" y1="175.172" x2="353.419" y2="297.514" stroke="#0076BE" stroke-width="0.662792"/>
<line x1="369.775" y1="175.172" x2="369.775" y2="297.514" stroke="#0076BE" stroke-width="0.662792"/>
<line x1="386.13" y1="175.172" x2="386.13" y2="297.514" stroke="#0076BE" stroke-width="0.662792"/>
<line x1="402.484" y1="175.172" x2="402.484" y2="297.514" stroke="#0076BE" stroke-width="0.662792"/>
<line x1="418.839" y1="175.172" x2="418.839" y2="297.514" stroke="#0076BE" stroke-width="0.662792"/>
<line x1="25.998" y1="174.84" x2="639.302" y2="174.84" stroke="#0076BE" stroke-width="0.662792"/>
<line x1="25.998" y1="191.423" x2="639.302" y2="191.423" stroke="#0076BE" stroke-width="0.662792"/>
<line x1="25.998" y1="208.006" x2="639.302" y2="208.006" stroke="#0076BE" stroke-width="0.662792"/>
<line x1="25.998" y1="224.586" x2="639.302" y2="224.586" stroke="#0076BE" stroke-width="0.662792"/>
<line x1="25.998" y1="241.169" x2="639.302" y2="241.169" stroke="#0076BE" stroke-width="0.662792"/>
<line x1="25.998" y1="257.751" x2="639.302" y2="257.751" stroke="#0076BE" stroke-width="0.662792"/>
<line x1="25.998" y1="274.335" x2="639.302" y2="274.335" stroke="#0076BE" stroke-width="0.662792"/>
<rect x="649.891" y="252.22" width="17.2502" height="37.0842" fill="#0076BE"/>
<line x1="658.217" y1="311.981" x2="629.663" y2="311.981" stroke="#0076BE" stroke-width="2.65117"/>
<line x1="659.235" y1="252.22" x2="659.235" y2="215.135" stroke="#0076BE" stroke-width="2.65117" stroke-dasharray="5.3 5.3"/>
<line x1="657.753" y1="278.066" x2="657.753" y2="312.903" stroke="#0076BE" stroke-width="2.65117"/>
<rect x="0.369141" y="42.1626" width="17.2502" height="37.0842" fill="#0076BE"/>
<rect x="26.3008" y="317.398" width="11.2376" height="56.9257" transform="rotate(-90 26.3008 317.398)" fill="#0076BE"/>
<rect x="18.5781" y="249.972" width="17.2502" height="37.0842" transform="rotate(180 18.5781 249.972)" fill="#0076BE"/>
<line x1="9.39512" y1="51.1533" x2="9.39512" y2="5.07898" stroke="#0076BE" stroke-width="2.65117"/>
<line x1="36.0625" y1="311.981" x2="7.50904" y2="311.981" stroke="#0076BE" stroke-width="2.65117"/>
<line x1="8.53516" y1="6.00059" x2="20.3216" y2="6.00059" stroke="#0076BE" stroke-width="2.65117"/>
<line x1="20.3184" y1="6.00059" x2="51.749" y2="6.00059" stroke="#0076BE" stroke-width="2.65117" stroke-dasharray="5.3 5.3"/>
<line x1="145.738" y1="4.87705" x2="318.607" y2="4.87705" stroke="#0076BE" stroke-width="2.65117" stroke-dasharray="11.93 11.93"/>
<line x1="379.678" y1="311.578" x2="603.621" y2="311.578" stroke="#0076BE" stroke-width="2.65117" stroke-dasharray="9.28 9.28"/>
<line x1="9.75254" y1="311.779" x2="9.75255" y2="247.725" stroke="#0076BE" stroke-width="2.65117" stroke-dasharray="5.3 5.3"/>
<line x1="8.28652" y1="62.3911" x2="8.28652" y2="107.342" stroke="#0076BE" stroke-width="2.65117" stroke-dasharray="5.3 5.3"/>
<rect x="531.035" y="11.8218" width="11.2376" height="56.9257" transform="rotate(-90 531.035 11.8218)" fill="#0076BE"/>
<line x1="656.808" y1="5.07861" x2="656.808" y2="42.1628" stroke="#0076BE" stroke-width="2.65117"/>
<line x1="656.808" y1="48.9053" x2="656.808" y2="85.9895" stroke="#0076BE" stroke-width="2.65117" stroke-dasharray="5.3 5.3"/>
<line x1="613.834" y1="6.4042" x2="587.904" y2="6.4042" stroke="#0076BE" stroke-width="2.65117"/>
<line x1="633.48" y1="6.00059" x2="657.053" y2="6.00059" stroke="#0076BE" stroke-width="2.65117"/>
<defs>
<linearGradient id="paint0_linear_729_15103" x1="342.926" y1="288.778" x2="339.662" y2="33.8233" gradientUnits="userSpaceOnUse">
<stop stop-color="#0076BE" stop-opacity="0.22"/>
<stop offset="1" stop-color="#2B2A2B" stop-opacity="0"/>
</linearGradient>
</defs>
</svg>
