<svg width="445" height="524" viewBox="0 0 445 524" fill="none" xmlns="http://www.w3.org/2000/svg">
<rect x="431.625" y="446.82" width="12.8133" height="43.7443" fill="#0076BE"/>
<line x1="437.811" y1="517.077" x2="416.601" y2="517.077" stroke="#0076BE" stroke-width="2.65117"/>
<line x1="438.231" y1="446.82" x2="438.231" y2="403.076" stroke="#0076BE" stroke-width="2.65117" stroke-dasharray="5.3 5.3"/>
<line x1="437.812" y1="477.309" x2="437.812" y2="518.402" stroke="#0076BE" stroke-width="2.65117"/>
<rect x="0.369141" y="49.1455" width="12.8133" height="43.7443" fill="#0076BE"/>
<rect x="19.6328" y="523.704" width="13.2558" height="42.284" transform="rotate(-90 19.6328 523.704)" fill="#0076BE"/>
<rect x="13.8945" y="444.169" width="12.8133" height="43.7443" transform="rotate(180 13.8945 444.169)" fill="#0076BE"/>
<line x1="6.73106" y1="59.75" x2="6.73105" y2="5.40108" stroke="#0076BE" stroke-width="2.65117"/>
<line x1="26.8809" y1="517.077" x2="5.67153" y2="517.077" stroke="#0076BE" stroke-width="2.65117"/>
<line x1="6.43555" y1="6.72715" x2="15.1905" y2="6.72715" stroke="#0076BE" stroke-width="2.65117"/>
<line x1="15.1895" y1="6.72715" x2="38.5359" y2="6.72715" stroke="#0076BE" stroke-width="2.65117" stroke-dasharray="5.3 5.3"/>
<line x1="108.348" y1="5.40098" x2="236.753" y2="5.40098" stroke="#0076BE" stroke-width="2.65117" stroke-dasharray="11.93 11.93"/>
<line x1="230.918" y1="517.076" x2="397.262" y2="517.076" stroke="#0076BE" stroke-width="2.65117" stroke-dasharray="9.28 9.28"/>
<line x1="6.99668" y1="517.076" x2="6.99669" y2="441.518" stroke="#0076BE" stroke-width="2.65117" stroke-dasharray="5.3 5.3"/>
<line x1="6.59121" y1="73.0059" x2="6.59121" y2="126.029" stroke="#0076BE" stroke-width="2.65117" stroke-dasharray="5.3 5.3"/>
<rect x="343.344" y="13.3545" width="13.2558" height="42.284" transform="rotate(-90 343.344 13.3545)" fill="#0076BE"/>
<line x1="437.103" y1="5.40137" x2="437.103" y2="49.1456" stroke="#0076BE" stroke-width="2.65117"/>
<line x1="437.103" y1="57.0986" x2="437.103" y2="100.843" stroke="#0076BE" stroke-width="2.65117" stroke-dasharray="5.3 5.3"/>
<line x1="404.846" y1="6.72695" x2="385.585" y2="6.72695" stroke="#0076BE" stroke-width="2.65117"/>
<line x1="419.438" y1="6.72715" x2="436.947" y2="6.72715" stroke="#0076BE" stroke-width="2.65117"/>
</svg>
