<svg width="706" height="928" viewBox="0 0 706 928" fill="none" xmlns="http://www.w3.org/2000/svg">
<rect x="688.549" y="822.858" width="17.2326" height="43.7443" fill="#0076BE"/>
<line x1="698.516" y1="917.694" x2="664.341" y2="917.694" stroke="#0076BE" stroke-width="2.65117"/>
<line x1="700.001" y1="822.858" x2="700.001" y2="763.515" stroke="#0076BE" stroke-width="2.65117" stroke-dasharray="5.3 5.3"/>
<line x1="697.706" y1="864.219" x2="697.706" y2="919.965" stroke="#0076BE" stroke-width="2.65117"/>
<rect y="65.7866" width="17.2326" height="43.7443" fill="#0076BE"/>
<rect x="32.6211" y="927.159" width="17.2326" height="43.7443" transform="rotate(-90 32.6211 927.159)" fill="#0076BE"/>
<rect x="23.3828" y="819.262" width="17.2326" height="43.7443" transform="rotate(180 23.3828 819.262)" fill="#0076BE"/>
<line x1="11.0631" y1="80.1729" x2="11.0631" y2="6.4437" stroke="#0076BE" stroke-width="2.65117"/>
<line x1="44.3066" y1="917.694" x2="10.1315" y2="917.694" stroke="#0076BE" stroke-width="2.65117"/>
<line x1="9.77148" y1="8.71446" x2="23.8785" y2="8.71446" stroke="#0076BE" stroke-width="2.65117"/>
<line x1="23.8809" y1="8.71446" x2="61.4997" y2="8.71446" stroke="#0076BE" stroke-width="2.65117" stroke-dasharray="5.3 5.3"/>
<line x1="173.988" y1="6.91612" x2="380.892" y2="6.91612" stroke="#0076BE" stroke-width="2.65117" stroke-dasharray="11.93 11.93"/>
<line x1="365.141" y1="918.639" x2="633.174" y2="918.639" stroke="#0076BE" stroke-width="2.65117" stroke-dasharray="9.28 9.28"/>
<line x1="13.0748" y1="918.167" x2="13.0748" y2="815.665" stroke="#0076BE" stroke-width="2.65117" stroke-dasharray="5.3 5.3"/>
<line x1="9.21426" y1="98.1548" x2="9.21425" y2="170.086" stroke="#0076BE" stroke-width="2.65117" stroke-dasharray="5.3 5.3"/>
<rect x="552.643" y="17.2324" width="17.2326" height="43.7443" transform="rotate(-90 552.643 17.2324)" fill="#0076BE"/>
<line x1="702.917" y1="6.44385" x2="702.917" y2="65.7868" stroke="#0076BE" stroke-width="2.65117"/>
<line x1="697.829" y1="378.686" x2="697.829" y2="684.392" stroke="#0076BE" stroke-width="2.65117"/>
<line x1="702.917" y1="76.5767" x2="702.917" y2="135.92" stroke="#0076BE" stroke-width="2.65117" stroke-dasharray="5.3 5.3"/>
<line x1="651.744" y1="7.76943" x2="620.709" y2="7.76944" stroke="#0076BE" stroke-width="2.65117"/>
<line x1="675.258" y1="8.71446" x2="703.472" y2="8.71446" stroke="#0076BE" stroke-width="2.65117"/>
</svg>
