<svg width="874" height="169" viewBox="0 0 874 169" fill="none" xmlns="http://www.w3.org/2000/svg">
<rect x="24.6004" y="18.8382" width="832.466" height="125.93" stroke="#0076BE" stroke-width="5.30233"/>
<line x1="6.73183" y1="87.769" x2="6.73184" y2="162.002" stroke="#0076BE" stroke-width="2.65117"/>
<line x1="5.40625" y1="162.002" x2="55.5845" y2="162.002" stroke="#0076BE" stroke-width="2.65117"/>
<line x1="758.08" y1="162.002" x2="872.44" y2="162.002" stroke="#0076BE" stroke-width="2.65117"/>
<line x1="872.28" y1="163.327" x2="872.28" y2="106.327" stroke="#0076BE" stroke-width="2.65117"/>
<line x1="6.57422" y1="1.60606" x2="81.2581" y2="1.60606" stroke="#0076BE" stroke-width="2.65117" stroke-dasharray="10.6 10.6"/>
<line x1="350.822" y1="162.002" x2="425.506" y2="162.002" stroke="#0076BE" stroke-width="2.65117" stroke-dasharray="10.6 10.6"/>
<line x1="595.875" y1="1.60606" x2="670.559" y2="1.60606" stroke="#0076BE" stroke-width="2.65117" stroke-dasharray="10.6 10.6"/>
<line x1="872.599" y1="2.93164" x2="872.599" y2="98.3736" stroke="#0076BE" stroke-width="2.65117" stroke-dasharray="10.6 10.6"/>
<line x1="6.4166" y1="42.6987" x2="6.4166" y2="0.280067" stroke="#0076BE" stroke-width="2.65117" stroke-dasharray="10.6 10.6"/>
<line x1="55.584" y1="162.002" x2="130.268" y2="162.002" stroke="#0076BE" stroke-width="2.65117" stroke-dasharray="10.6 10.6"/>
<rect x="793.086" y="168.63" width="13.2558" height="38.5089" transform="rotate(-90 793.086 168.63)" fill="#0076BE"/>
<rect x="0.738281" y="22.8154" width="11.6694" height="43.7443" fill="#0076BE"/>
<line x1="828.096" y1="1.60606" x2="873.606" y2="1.60606" stroke="#0076BE" stroke-width="2.65117"/>
<line x1="327.482" y1="1.60606" x2="464.014" y2="1.60606" stroke="#0076BE" stroke-width="2.65117"/>
</svg>
