<svg width="491" height="213" viewBox="0 0 491 213" fill="none" xmlns="http://www.w3.org/2000/svg">
<rect x="11.5543" y="9.55431" width="466.891" height="191.891" stroke="#0076BE" stroke-width="3.10862"/>
<rect x="483.984" y="65.314" width="7" height="26" fill="#0076BE"/>
<line x1="487.5" y1="209.777" x2="466.5" y2="209.777" stroke="#0076BE" stroke-width="1.55431"/>
<line x1="487.018" y1="104.394" x2="487.018" y2="94.9499" stroke="#0076BE" stroke-width="1.55431" stroke-dasharray="3.11 3.11"/>
<line x1="486.777" y1="192" x2="486.777" y2="210" stroke="#0076BE" stroke-width="1.55431"/>
<rect y="14" width="7" height="26" fill="#0076BE"/>
<rect x="29" y="213" width="7" height="26" transform="rotate(-90 29 213)" fill="#0076BE"/>
<line x1="3.22285" y1="19" x2="3.22285" y2="1" stroke="#0076BE" stroke-width="1.55431"/>
<line x1="29.5" y1="209.777" x2="2.5" y2="209.777" stroke="#0076BE" stroke-width="1.55431"/>
<line x1="3" y1="1.5" x2="30" y2="1.5" stroke="#0076BE" stroke-dasharray="3.11 3.11"/>
<line x1="288.488" y1="1.22285" x2="366.369" y2="1.22285" stroke="#0076BE" stroke-width="1.55431" stroke-dasharray="6.99 6.99"/>
<line x1="257" y1="209.823" x2="444" y2="209.823" stroke="#0076BE" stroke-width="1.55431" stroke-dasharray="5.44 5.44"/>
<line x1="3.22285" y1="210" x2="3.22285" y2="183" stroke="#0076BE" stroke-width="1.55431" stroke-dasharray="3.11 3.11"/>
<line x1="2.77715" y1="77" x2="2.77715" y2="98" stroke="#0076BE" stroke-width="1.55431" stroke-dasharray="3.11 3.11"/>
<line x1="486.777" y1="1" x2="486.777" y2="10.4439" stroke="#0076BE" stroke-width="1.55431"/>
<line x1="486.777" y1="10" x2="486.777" y2="19.4439" stroke="#0076BE" stroke-width="1.55431" stroke-dasharray="3.11 3.11"/>
<line x1="468.322" y1="1.17706" x2="457.322" y2="1.17706" stroke="#0076BE" stroke-width="1.55431"/>
<line x1="477" y1="1.22285" x2="487.62" y2="1.22285" stroke="#0076BE" stroke-width="1.55431"/>
</svg>
