<svg width="344" height="156" viewBox="0 0 344 156" fill="none" xmlns="http://www.w3.org/2000/svg">
<rect x="18" y="14" width="309" height="124" stroke="#0076BE" stroke-width="4"/>
<rect x="334" y="84" width="10" height="33" fill="#0076BE"/>
<line x1="340" y1="151" x2="325" y2="151" stroke="#0076BE" stroke-width="2"/>
<line x1="340" y1="134" x2="340" y2="122" stroke="#0076BE" stroke-width="2" stroke-dasharray="4 4"/>
<line x1="340" y1="139" x2="340" y2="152" stroke="#0076BE" stroke-width="2"/>
<rect y="11" width="10" height="33" fill="#0076BE"/>
<rect x="21.0312" y="156" width="10.057" height="33" transform="rotate(-90 21.0312 156)" fill="#0076BE"/>
<line x1="5" y1="13" x2="5" stroke="#0076BE" stroke-width="2"/>
<line x1="21.2188" y1="151" x2="4.82034" y2="151" stroke="#0076BE" stroke-width="2"/>
<line x1="6" y1="1" x2="46" y2="1" stroke="#0076BE" stroke-width="2" stroke-dasharray="4 4"/>
<line x1="84" y1="1" x2="184" y2="1" stroke="#0076BE" stroke-width="2" stroke-dasharray="9 9"/>
<line x1="179" y1="151" x2="309" y2="151" stroke="#0076BE" stroke-width="2" stroke-dasharray="7 7"/>
<line x1="5" y1="152" x2="5" y2="118" stroke="#0076BE" stroke-width="2" stroke-dasharray="4 4"/>
<line x1="5" y1="55" x2="5" y2="69.7296" stroke="#0076BE" stroke-width="2" stroke-dasharray="4 4"/>
<line x1="340" y1="3.53368e-08" x2="340" y2="13" stroke="#0076BE" stroke-width="2"/>
<line x1="340" y1="13" x2="340" y2="25" stroke="#0076BE" stroke-width="2" stroke-dasharray="4 4"/>
<line x1="315" y1="1" x2="299.968" y2="1" stroke="#0076BE" stroke-width="2"/>
<line x1="327" y1="1" x2="341" y2="1" stroke="#0076BE" stroke-width="2"/>
</svg>
