<svg width="444" height="192" viewBox="0 0 444 192" fill="none" xmlns="http://www.w3.org/2000/svg">
<rect x="24.2293" y="24.2825" width="396.349" height="141.837" stroke="#0076BE" stroke-width="5.30233"/>
<rect x="430.301" y="114.422" width="12.8133" height="43.7443" fill="#0076BE"/>
<line x1="436.486" y1="184.678" x2="415.277" y2="184.678" stroke="#0076BE" stroke-width="2.65117"/>
<line x1="436.905" y1="114.422" x2="436.905" y2="70.6781" stroke="#0076BE" stroke-width="2.65117" stroke-dasharray="5.3 5.3"/>
<line x1="436.486" y1="144.911" x2="436.486" y2="186.004" stroke="#0076BE" stroke-width="2.65117"/>
<rect x="0.369141" y="49.4688" width="12.8133" height="43.7443" fill="#0076BE"/>
<rect x="18.3066" y="191.306" width="13.2558" height="42.284" transform="rotate(-90 18.3066 191.306)" fill="#0076BE"/>
<line x1="6.73106" y1="60.0732" x2="6.73105" y2="5.72433" stroke="#0076BE" stroke-width="2.65117"/>
<line x1="25.5547" y1="184.678" x2="4.34536" y2="184.678" stroke="#0076BE" stroke-width="2.65117"/>
<line x1="6.43555" y1="7.0499" x2="15.1905" y2="7.0499" stroke="#0076BE" stroke-width="2.65117"/>
<line x1="15.1895" y1="7.0499" x2="38.5359" y2="7.0499" stroke="#0076BE" stroke-width="2.65117" stroke-dasharray="5.3 5.3"/>
<line x1="108.348" y1="5.72471" x2="236.753" y2="5.72471" stroke="#0076BE" stroke-width="2.65117" stroke-dasharray="11.93 11.93"/>
<line x1="229.592" y1="184.678" x2="395.936" y2="184.678" stroke="#0076BE" stroke-width="2.65117" stroke-dasharray="9.28 9.28"/>
<line x1="6.59121" y1="73.3286" x2="6.59121" y2="126.352" stroke="#0076BE" stroke-width="2.65117" stroke-dasharray="5.3 5.3"/>
<rect x="343.344" y="13.6777" width="13.2558" height="42.284" transform="rotate(-90 343.344 13.6777)" fill="#0076BE"/>
<line x1="437.103" y1="5.72461" x2="437.103" y2="49.4689" stroke="#0076BE" stroke-width="2.65117"/>
<line x1="437.103" y1="57.4219" x2="437.103" y2="101.166" stroke="#0076BE" stroke-width="2.65117" stroke-dasharray="5.3 5.3"/>
<line x1="404.846" y1="7.05019" x2="385.585" y2="7.0502" stroke="#0076BE" stroke-width="2.65117"/>
<line x1="419.438" y1="7.0499" x2="436.947" y2="7.04991" stroke="#0076BE" stroke-width="2.65117"/>
</svg>
