<svg width="880" height="206" viewBox="0 0 880 206" fill="none" xmlns="http://www.w3.org/2000/svg">
<rect x="24.7236" y="18.8496" width="833.119" height="160.521" stroke="#0076BE" stroke-width="5.30649"/>
<line x1="6.84225" y1="124.979" x2="6.84225" y2="199.27" stroke="#0076BE" stroke-width="2.65324"/>
<line x1="5.51562" y1="199.27" x2="55.7332" y2="199.27" stroke="#0076BE" stroke-width="2.65324"/>
<line x1="758.781" y1="199.27" x2="873.231" y2="199.27" stroke="#0076BE" stroke-width="2.65324"/>
<line x1="873.072" y1="200.597" x2="873.072" y2="143.552" stroke="#0076BE" stroke-width="2.65324"/>
<line x1="6.6875" y1="1.60355" x2="81.43" y2="1.60355" stroke="#0076BE" stroke-width="2.65324" stroke-dasharray="10.61 10.61"/>
<line x1="351.205" y1="199.27" x2="425.948" y2="199.27" stroke="#0076BE" stroke-width="2.65324" stroke-dasharray="10.61 10.61"/>
<line x1="596.451" y1="1.60355" x2="671.194" y2="1.60355" stroke="#0076BE" stroke-width="2.65324" stroke-dasharray="10.61 10.61"/>
<line x1="873.391" y1="2.93018" x2="873.391" y2="98.447" stroke="#0076BE" stroke-width="2.65324" stroke-dasharray="10.61 10.61"/>
<line x1="6.5308" y1="42.7289" x2="6.5308" y2="0.27697" stroke="#0076BE" stroke-width="2.65324" stroke-dasharray="10.61 10.61"/>
<line x1="55.7363" y1="199.27" x2="130.479" y2="199.27" stroke="#0076BE" stroke-width="2.65324" stroke-dasharray="10.61 10.61"/>
<line x1="873.076" y1="143.552" x2="873.076" y2="58.6483" stroke="#0076BE" stroke-width="2.65324" stroke-dasharray="10.61 10.61"/>
<rect x="793.816" y="205.903" width="13.2662" height="38.5391" transform="rotate(-90 793.816 205.903)" fill="#0076BE"/>
<rect x="0.845703" y="22.8295" width="11.6785" height="43.7785" fill="#0076BE"/>
<rect x="867.391" y="74.5678" width="11.6785" height="43.7785" fill="#0076BE"/>
<line x1="828.852" y1="1.60355" x2="874.398" y2="1.60355" stroke="#0076BE" stroke-width="2.65324"/>
<line x1="327.846" y1="1.60355" x2="464.484" y2="1.60355" stroke="#0076BE" stroke-width="2.65324"/>
</svg>
