<svg width="594" height="188" viewBox="0 0 594 188" fill="none" xmlns="http://www.w3.org/2000/svg">
<rect x="24.3976" y="17.3976" width="549.205" height="149.205" stroke="#0076BE" stroke-width="4.79512"/>
<rect x="581" y="102" width="13" height="39" fill="#0076BE"/>
<line x1="588" y1="182.199" x2="569" y2="182.199" stroke="#0076BE" stroke-width="2.39756"/>
<line x1="588.801" y1="162" x2="588.801" y2="147" stroke="#0076BE" stroke-width="2.39756" stroke-dasharray="4.8 4.8"/>
<line x1="589.199" y1="168.4" x2="589.199" y2="183.4" stroke="#0076BE" stroke-width="2.39756"/>
<rect y="13.9998" width="17" height="40" fill="#0076BE"/>
<rect x="34" y="188" width="12" height="55" transform="rotate(-90 34 188)" fill="#0076BE"/>
<line x1="8.80122" y1="17.5" x2="8.80122" y2="0.5" stroke="#0076BE" stroke-width="2.39756"/>
<line x1="34.5996" y1="182.199" x2="7.59961" y2="182.199" stroke="#0076BE" stroke-width="2.39756"/>
<line x1="23" y1="1.80098" x2="53" y2="1.80098" stroke="#0076BE" stroke-width="2.39756" stroke-dasharray="4.8 4.8"/>
<line x1="252.408" y1="1.61006" x2="372.541" y2="1.61006" stroke="#0076BE" stroke-width="2.39756" stroke-dasharray="10.79 10.79"/>
<line x1="388" y1="182.201" x2="554" y2="182.201" stroke="#0076BE" stroke-width="2.39756" stroke-dasharray="8.39 8.39"/>
<line x1="8.80122" y1="183" x2="8.80122" y2="160" stroke="#0076BE" stroke-width="2.39756" stroke-dasharray="4.8 4.8"/>
<line x1="8.69878" y1="67" x2="8.69878" y2="85" stroke="#0076BE" stroke-width="2.39756" stroke-dasharray="4.8 4.8"/>
<line x1="589.199" y1="1.99976" x2="589.199" y2="15.9998" stroke="#0076BE" stroke-width="2.39756"/>
<line x1="589.199" y1="15.9998" x2="589.199" y2="30.9998" stroke="#0076BE" stroke-width="2.39756" stroke-dasharray="4.8 4.8"/>
<line x1="529.803" y1="2.12529" x2="511.783" y2="2.1253" stroke="#0076BE" stroke-width="2.39756"/>
<line x1="573.4" y1="1.80098" x2="590.4" y2="1.80098" stroke="#0076BE" stroke-width="2.39756"/>
</svg>
