<svg width="125" height="126" viewBox="0 0 125 126" fill="none" xmlns="http://www.w3.org/2000/svg">
<mask id="path-1-inside-1_590_616" fill="white">
<ellipse cx="70.6828" cy="74.0445" rx="2.68278" ry="2.69807"/>
</mask>
<path d="M69.3656 74.0445C69.3656 73.3469 69.9339 72.7426 70.6828 72.7426V80.7426C74.395 80.7426 77.3656 77.7223 77.3656 74.0445H69.3656ZM70.6828 72.7426C71.4317 72.7426 72 73.3469 72 74.0445H64C64 77.7223 66.9706 80.7426 70.6828 80.7426V72.7426ZM72 74.0445C72 74.7421 71.4317 75.3464 70.6828 75.3464V67.3464C66.9706 67.3464 64 70.3667 64 74.0445H72ZM70.6828 75.3464C69.9339 75.3464 69.3656 74.7421 69.3656 74.0445H77.3656C77.3656 70.3667 74.395 67.3464 70.6828 67.3464V75.3464Z" fill="#D65B34" mask="url(#path-1-inside-1_590_616)"/>
<mask id="path-3-inside-2_590_616" fill="white">
<ellipse cx="84.6828" cy="75.0501" rx="2.68278" ry="2.69807"/>
</mask>
<path d="M83.3656 75.0501C83.3656 74.3525 83.9339 73.7482 84.6828 73.7482V81.7482C88.395 81.7482 91.3656 78.7279 91.3656 75.0501H83.3656ZM84.6828 73.7482C85.4317 73.7482 86 74.3525 86 75.0501H78C78 78.7279 80.9706 81.7482 84.6828 81.7482V73.7482ZM86 75.0501C86 75.7477 85.4317 76.3521 84.6828 76.3521V68.3521C80.9706 68.3521 78 71.3723 78 75.0501H86ZM84.6828 76.3521C83.9339 76.3521 83.3656 75.7477 83.3656 75.0501H91.3656C91.3656 71.3723 88.395 68.3521 84.6828 68.3521V76.3521Z" fill="#D65B34" mask="url(#path-3-inside-2_590_616)"/>
<mask id="path-5-inside-3_590_616" fill="white">
<ellipse cx="72.6828" cy="96.1641" rx="2.68278" ry="2.69807"/>
</mask>
<path d="M71.3656 96.1641C71.3656 95.4666 71.9339 94.8622 72.6828 94.8622V102.862C76.395 102.862 79.3656 99.8419 79.3656 96.1641H71.3656ZM72.6828 94.8622C73.4317 94.8622 74 95.4666 74 96.1641H66C66 99.8419 68.9706 102.862 72.6828 102.862V94.8622ZM74 96.1641C74 96.8617 73.4317 97.4661 72.6828 97.4661V89.4661C68.9706 89.4661 66 92.4863 66 96.1641H74ZM72.6828 97.4661C71.9339 97.4661 71.3656 96.8617 71.3656 96.1641H79.3656C79.3656 92.4863 76.395 89.4661 72.6828 89.4661V97.4661Z" fill="#D65B34" mask="url(#path-5-inside-3_590_616)"/>
<mask id="path-7-inside-4_590_616" fill="white">
<ellipse cx="91.6828" cy="97.1812" rx="2.68278" ry="2.69807"/>
</mask>
<path d="M90.3656 97.1812C90.3656 96.4836 90.9339 95.8793 91.6828 95.8793V103.879C95.395 103.879 98.3656 100.859 98.3656 97.1812H90.3656ZM91.6828 95.8793C92.4317 95.8793 93 96.4836 93 97.1812H85C85 100.859 87.9706 103.879 91.6828 103.879V95.8793ZM93 97.1812C93 97.8788 92.4317 98.4832 91.6828 98.4832V90.4832C87.9706 90.4832 85 93.5034 85 97.1812H93ZM91.6828 98.4832C90.9339 98.4832 90.3656 97.8788 90.3656 97.1812H98.3656C98.3656 93.5034 95.395 90.4832 91.6828 90.4832V98.4832Z" fill="#D65B34" mask="url(#path-7-inside-4_590_616)"/>
<mask id="path-9-inside-5_590_616" fill="white">
<ellipse cx="79.6828" cy="84.1014" rx="2.68278" ry="2.69807"/>
</mask>
<path d="M78.3656 84.1014C78.3656 83.4038 78.9339 82.7995 79.6828 82.7995V90.7995C83.395 90.7995 86.3656 87.7792 86.3656 84.1014H78.3656ZM79.6828 82.7995C80.4317 82.7995 81 83.4038 81 84.1014H73C73 87.7792 75.9706 90.7995 79.6828 90.7995V82.7995ZM81 84.1014C81 84.799 80.4317 85.4033 79.6828 85.4033V77.4033C75.9706 77.4033 73 80.4236 73 84.1014H81ZM79.6828 85.4033C78.9339 85.4033 78.3656 84.799 78.3656 84.1014H86.3656C86.3656 80.4236 83.395 77.4033 79.6828 77.4033V85.4033Z" fill="#D65B34" mask="url(#path-9-inside-5_590_616)"/>
</svg>
