<svg width="1430" height="896" viewBox="0 0 1430 896" fill="none" xmlns="http://www.w3.org/2000/svg">
<line x1="674.475" y1="8.17686" x2="869.105" y2="8.17686" stroke="#0076BE" stroke-width="2.65117" stroke-dasharray="10.6 10.6"/>
<line x1="1422.67" y1="7.44678" x2="1422.67" y2="116.145" stroke="#0076BE" stroke-width="2.65117" stroke-dasharray="9.28 9.28"/>
<line x1="1268.66" y1="8.17666" x2="1153.1" y2="8.17665" stroke="#0076BE" stroke-width="2.65117" stroke-dasharray="9.28 9.28"/>
<rect x="1311.93" y="0.818359" width="13.2558" height="44.0302" transform="rotate(90 1311.93 0.818359)" fill="#0076BE"/>
<rect x="1429.35" y="159.889" width="13.3425" height="43.7443" transform="rotate(-180 1429.35 159.889)" fill="#0076BE"/>
<line x1="1422.15" y1="8.77236" x2="1306.59" y2="8.77236" stroke="#0076BE" stroke-width="2.65117"/>
<line x1="6.61133" y1="8.17686" x2="125.214" y2="8.17686" stroke="#0076BE" stroke-width="2.65117"/>
<line x1="125.213" y1="8.17686" x2="243.816" y2="8.17686" stroke="#0076BE" stroke-width="2.65117" stroke-dasharray="9.28 9.28"/>
<line x1="8.38535" y1="94.9351" x2="8.38535" y2="7.44656" stroke="#0076BE" stroke-width="2.65117" stroke-dasharray="9.28 9.28"/>
<line x1="7.95762" y1="219.348" x2="7.95762" y2="111.624" stroke="#0076BE" stroke-width="2.65117" stroke-dasharray="9.28 9.28"/>
<line x1="7.95762" y1="772.036" x2="7.95762" y2="664.312" stroke="#0076BE" stroke-width="2.65117" stroke-dasharray="9.28 9.28"/>
<line x1="187.738" y1="889.555" x2="303.3" y2="889.555" stroke="#0076BE" stroke-width="2.65117" stroke-dasharray="9.28 9.28"/>
<rect x="0.371094" y="91.6753" width="13.3425" height="43.7443" fill="#0076BE"/>
<rect x="112.447" y="895.587" width="13.2558" height="44.0302" transform="rotate(-90 112.447 895.587)" fill="#0076BE"/>
<line x1="7.95176" y1="890.878" x2="7.95177" y2="754.806" stroke="#0076BE" stroke-width="2.65117"/>
<line x1="6.23438" y1="889.552" x2="121.796" y2="889.552" stroke="#0076BE" stroke-width="2.65117"/>
<line x1="1421.34" y1="891.611" x2="1182.51" y2="891.611" stroke="#0076BE" stroke-width="2.65117" stroke-dasharray="9.28 9.28"/>
<line x1="1420.02" y1="732.346" x2="1420.02" y2="624.622" stroke="#0076BE" stroke-width="2.65117" stroke-dasharray="9.28 9.28"/>
<rect x="1428.02" y="797.554" width="13.3425" height="43.7443" transform="rotate(180 1428.02 797.554)" fill="#0076BE"/>
<line x1="1421.35" y1="892.936" x2="1421.35" y2="797.494" stroke="#0076BE" stroke-width="2.65117"/>
<line x1="443.35" y1="889.555" x2="637.98" y2="889.555" stroke="#0076BE" stroke-width="2.65117" stroke-dasharray="10.6 10.6"/>
</svg>
