<svg width="1430" height="886" viewBox="0 0 1430 886" fill="none" xmlns="http://www.w3.org/2000/svg">
<line x1="674.748" y1="7.26914" x2="869.378" y2="7.26914" stroke="#0076BE" stroke-width="2.65117" stroke-dasharray="10.6 10.6"/>
<line x1="1422.94" y1="6.56006" x2="1422.94" y2="114.145" stroke="#0076BE" stroke-width="2.65117" stroke-dasharray="9.28 9.28"/>
<line x1="1268.94" y1="7.29629" x2="1153.38" y2="7.29628" stroke="#0076BE" stroke-width="2.65117" stroke-dasharray="9.28 9.28"/>
<rect x="1312.2" width="13.1201" height="44.0302" transform="rotate(90 1312.2 0)" fill="#0076BE"/>
<rect x="1429.62" y="157.441" width="13.3425" height="43.2964" transform="rotate(-180 1429.62 157.441)" fill="#0076BE"/>
<line x1="1422.43" y1="7.88564" x2="1306.86" y2="7.88564" stroke="#0076BE" stroke-width="2.65117"/>
<line x1="6.88477" y1="7.26914" x2="125.488" y2="7.26914" stroke="#0076BE" stroke-width="2.65117"/>
<line x1="125.486" y1="7.26914" x2="244.089" y2="7.26914" stroke="#0076BE" stroke-width="2.65117" stroke-dasharray="9.28 9.28"/>
<line x1="8.65879" y1="93.1528" x2="8.65879" y2="6.55999" stroke="#0076BE" stroke-width="2.65117" stroke-dasharray="9.28 9.28"/>
<line x1="8.23106" y1="216.292" x2="8.23106" y2="109.672" stroke="#0076BE" stroke-width="2.65117" stroke-dasharray="9.28 9.28"/>
<line x1="8.23106" y1="763.322" x2="8.23106" y2="656.701" stroke="#0076BE" stroke-width="2.65117" stroke-dasharray="9.28 9.28"/>
<line x1="188.012" y1="879.625" x2="303.573" y2="879.625" stroke="#0076BE" stroke-width="2.65117" stroke-dasharray="9.28 9.28"/>
<rect x="0.644531" y="89.9263" width="13.3425" height="43.2964" fill="#0076BE"/>
<rect x="112.721" y="885.608" width="13.1201" height="44.0302" transform="rotate(-90 112.721 885.608)" fill="#0076BE"/>
<line x1="8.2252" y1="880.948" x2="8.2252" y2="746.269" stroke="#0076BE" stroke-width="2.65117"/>
<line x1="6.50781" y1="879.622" x2="122.07" y2="879.622" stroke="#0076BE" stroke-width="2.65117"/>
<line x1="1421.62" y1="881.686" x2="1182.79" y2="881.686" stroke="#0076BE" stroke-width="2.65117" stroke-dasharray="9.28 9.28"/>
<line x1="1420.29" y1="724.039" x2="1420.29" y2="617.418" stroke="#0076BE" stroke-width="2.65117" stroke-dasharray="9.28 9.28"/>
<rect x="1428.29" y="788.578" width="13.3425" height="43.2964" transform="rotate(180 1428.29 788.578)" fill="#0076BE"/>
<line x1="1421.63" y1="882.985" x2="1421.63" y2="788.52" stroke="#0076BE" stroke-width="2.65117"/>
<line x1="443.623" y1="879.625" x2="638.253" y2="879.625" stroke="#0076BE" stroke-width="2.65117" stroke-dasharray="10.6 10.6"/>
</svg>
