<svg width="64" height="64" viewBox="0 0 64 64" fill="none" xmlns="http://www.w3.org/2000/svg">
<g clip-path="url(#clip0_746_86300)">
<rect width="64" height="64" rx="8" fill="#2B2A2B"/>
<rect x="3" y="3" width="58" height="58" rx="5" stroke="#0076BE" stroke-width="6"/>
<path d="M31.4531 15C34.9844 15 37.625 16.1019 39.375 18.3056C41.125 20.5093 42 23.5944 42 27.5611C42 32.1259 41.4063 35.762 40.2188 38.4694C39.0625 41.1769 37.2656 43.3176 34.8281 44.8917C32.4219 46.4343 29.0781 47.8037 24.7969 49L23.8594 45.9778C28.4531 44.75 31.9219 43.0657 34.2656 40.925C36.6094 38.7843 37.7969 35.8407 37.8281 32.0944C37.0156 33.2593 35.9531 34.2194 34.6406 34.975C33.3594 35.7306 31.875 36.1083 30.1875 36.1083C28.4063 36.1083 26.8125 35.6833 25.4063 34.8333C24.0313 33.9833 22.9531 32.787 22.1719 31.2444C21.3906 29.6704 21 27.8287 21 25.7194C21 23.4528 21.4531 21.5167 22.3594 19.9111C23.2969 18.3056 24.5469 17.0935 26.1094 16.275C27.7031 15.425 29.4844 15 31.4531 15ZM30.8438 32.8972C32.3437 32.8972 33.6719 32.5194 34.8281 31.7639C35.9844 31.0083 37.0156 29.938 37.9219 28.5528C37.9844 24.775 37.5 22.1148 36.4688 20.5722C35.4375 18.9981 33.7656 18.2111 31.4531 18.2111C29.3594 18.2111 27.7813 18.8565 26.7187 20.1472C25.6563 21.438 25.125 23.3426 25.125 25.8611C25.125 28.2537 25.6094 30.0324 26.5781 31.1972C27.5781 32.3306 29 32.8972 30.8438 32.8972Z" fill="white"/>
</g>
<defs>
<clipPath id="clip0_746_86300">
<rect width="64" height="64" rx="8" fill="white"/>
</clipPath>
</defs>
</svg>
