<svg width="100" height="100" viewBox="0 0 100 100" fill="none" xmlns="http://www.w3.org/2000/svg">
<g clip-path="url(#clip0_747_86346)">
<rect width="100" height="100" fill="#2B2A2B"/>
<rect x="4" y="4" width="92" height="92" stroke="#0076BE" stroke-width="8"/>
<path d="M46.9383 23.3494C50.6858 23.3494 53.9388 23.9479 56.6974 25.1451C59.508 26.2901 61.6419 27.9296 63.0993 30.0636C64.6087 32.1976 65.3634 34.6439 65.3634 37.4024C65.3634 40.5773 64.3224 43.1537 62.2405 45.1316C60.1586 47.0573 57.5041 48.2545 54.2771 48.7229C57.9205 49.0352 60.9913 50.3624 63.4896 52.7046C65.988 54.9947 67.2371 58.0916 67.2371 61.9952C67.2371 65.2222 66.4043 68.1108 64.7388 70.6612C63.0733 73.2116 60.679 75.2154 57.5561 76.6728C54.4333 78.1301 50.8159 78.8588 46.7041 78.8588C42.9046 78.8588 39.3653 78.2082 36.0863 76.907C32.8593 75.6058 30.0747 73.732 27.7325 71.2858L31.9484 67.4602C36.2164 71.2598 41.1349 73.1595 46.7041 73.1595C50.868 73.1595 54.0949 72.1966 56.3851 70.2708C58.7272 68.3451 59.8983 65.6646 59.8983 62.2294C59.8983 58.7942 58.7533 56.2439 56.4631 54.5783C54.173 52.8607 51.1282 52.0019 47.3287 52.0019H37.8819L38.6627 46.3026H46.8602C50.1393 46.3026 52.8718 45.574 55.0578 44.1166C57.2959 42.6072 58.4149 40.3952 58.4149 37.4805C58.4149 34.7219 57.3219 32.614 55.1359 31.1566C53.0019 29.6472 50.2174 28.8925 46.7822 28.8925C43.9716 28.8925 41.4472 29.3349 39.2092 30.2198C36.9711 31.0525 34.759 32.3277 32.573 34.0453L28.8255 30.0636C31.532 27.8255 34.3427 26.16 37.2573 25.067C40.2241 23.9219 43.4511 23.3494 46.9383 23.3494Z" fill="white"/>
</g>
<defs>
<clipPath id="clip0_747_86346">
<rect width="100" height="100" fill="white"/>
</clipPath>
</defs>
</svg>
