<svg width="100" height="100" viewBox="0 0 100 100" fill="none" xmlns="http://www.w3.org/2000/svg">
<g clip-path="url(#clip0_747_111379)">
<rect width="100" height="100" fill="#2B2A2B"/>
<rect x="4" y="4" width="92" height="92" stroke="#0076BE" stroke-width="8"/>
<path d="M60.4217 22.3494C66.147 22.3494 70.493 24.7436 73.4598 29.532C76.4786 34.2684 77.988 41.1128 77.988 50.0651C77.988 59.0694 76.4786 65.9658 73.4598 70.7542C70.493 75.4906 66.147 77.8588 60.4217 77.8588C54.6964 77.8588 50.3243 75.4906 47.3055 70.7542C44.3388 65.9658 42.8554 59.0694 42.8554 50.0651C42.8554 41.1128 44.3388 34.2684 47.3055 29.532C50.3243 24.7436 54.6964 22.3494 60.4217 22.3494ZM60.4217 27.6583C53.2911 27.6583 49.7258 35.1272 49.7258 50.0651C49.7258 65.0549 53.2911 72.5499 60.4217 72.5499C67.5523 72.5499 71.1176 65.0549 71.1176 50.0651C71.1176 35.1272 67.5523 27.6583 60.4217 27.6583ZM60.4217 44.9904C61.879 44.9904 63.1022 45.4848 64.0911 46.4737C65.08 47.4626 65.5745 48.6598 65.5745 50.0651C65.5745 51.5224 65.08 52.7455 64.0911 53.7345C63.1022 54.7234 61.879 55.2178 60.4217 55.2178C58.9643 55.2178 57.7412 54.7234 56.7523 53.7345C55.8154 52.7455 55.347 51.5224 55.347 50.0651C55.347 48.6598 55.8154 47.4626 56.7523 46.4737C57.7412 45.4848 58.9643 44.9904 60.4217 44.9904Z" fill="white"/>
<path d="M24.0978 36.3508C24.0978 34.6333 24.6964 33.1759 25.8935 31.9788C27.0906 30.7296 28.574 30.1051 30.3436 30.1051C32.1653 30.1051 33.6747 30.7296 34.8718 31.9788C36.0689 33.1759 36.6675 34.6333 36.6675 36.3508C36.6675 38.1205 36.0689 39.6299 34.8718 40.879C33.6747 42.1282 32.1653 42.7528 30.3436 42.7528C28.574 42.7528 27.0906 42.1282 25.8935 40.879C24.6964 39.6299 24.0978 38.1205 24.0978 36.3508ZM24.0978 64.5349C24.0978 62.8173 24.6964 61.334 25.8935 60.0848C27.0906 58.8357 28.574 58.2111 30.3436 58.2111C32.1653 58.2111 33.6747 58.8357 34.8718 60.0848C36.0689 61.2819 36.6675 62.7653 36.6675 64.5349C36.6675 66.3566 36.0689 67.866 34.8718 69.0631C33.6747 70.2602 32.1653 70.8588 30.3436 70.8588C28.574 70.8588 27.0906 70.2602 25.8935 69.0631C24.6964 67.866 24.0978 66.3566 24.0978 64.5349Z" fill="white"/>
</g>
<defs>
<clipPath id="clip0_747_111379">
<rect width="100" height="100" fill="white"/>
</clipPath>
</defs>
</svg>
