<svg width="445" height="318" viewBox="0 0 445 318" fill="none" xmlns="http://www.w3.org/2000/svg">
<rect x="24.2293" y="24.8465" width="396.349" height="269.093" fill="url(#paint0_linear_729_15662)" stroke="#0076BE" stroke-width="5.30233"/>
<line x1="26.3294" y1="26.1719" x2="26.3294" y2="175.411" stroke="#0076BE" stroke-width="0.662792"/>
<line x1="42.6849" y1="26.1719" x2="42.6849" y2="175.411" stroke="#0076BE" stroke-width="0.662792"/>
<line x1="59.0384" y1="26.1719" x2="59.0384" y2="175.411" stroke="#0076BE" stroke-width="0.662792"/>
<line x1="75.3939" y1="26.1719" x2="75.3939" y2="175.411" stroke="#0076BE" stroke-width="0.662792"/>
<line x1="91.7474" y1="26.1719" x2="91.7474" y2="175.411" stroke="#0076BE" stroke-width="0.662792"/>
<line x1="108.103" y1="26.1719" x2="108.103" y2="175.411" stroke="#0076BE" stroke-width="0.662792"/>
<line x1="124.456" y1="26.1719" x2="124.456" y2="175.411" stroke="#0076BE" stroke-width="0.662792"/>
<line x1="140.812" y1="26.1719" x2="140.812" y2="175.411" stroke="#0076BE" stroke-width="0.662792"/>
<line x1="157.167" y1="26.1719" x2="157.167" y2="175.411" stroke="#0076BE" stroke-width="0.662792"/>
<line x1="173.523" y1="26.1719" x2="173.523" y2="175.411" stroke="#0076BE" stroke-width="0.662792"/>
<line x1="189.876" y1="26.1719" x2="189.876" y2="175.411" stroke="#0076BE" stroke-width="0.662792"/>
<line x1="206.228" y1="26.1719" x2="206.228" y2="175.411" stroke="#0076BE" stroke-width="0.662792"/>
<line x1="222.583" y1="26.1719" x2="222.583" y2="175.411" stroke="#0076BE" stroke-width="0.662792"/>
<line x1="238.937" y1="26.1719" x2="238.937" y2="175.411" stroke="#0076BE" stroke-width="0.662792"/>
<line x1="255.292" y1="26.1719" x2="255.292" y2="175.411" stroke="#0076BE" stroke-width="0.662792"/>
<line x1="255.292" y1="26.1719" x2="255.292" y2="175.411" stroke="#0076BE" stroke-width="0.662792"/>
<line x1="271.648" y1="26.1719" x2="271.648" y2="175.411" stroke="#0076BE" stroke-width="0.662792"/>
<line x1="288.001" y1="26.1719" x2="288.001" y2="175.411" stroke="#0076BE" stroke-width="0.662792"/>
<line x1="304.357" y1="26.1719" x2="304.357" y2="175.411" stroke="#0076BE" stroke-width="0.662792"/>
<line x1="320.71" y1="26.1719" x2="320.71" y2="175.411" stroke="#0076BE" stroke-width="0.662792"/>
<line x1="337.066" y1="26.1719" x2="337.066" y2="175.411" stroke="#0076BE" stroke-width="0.662792"/>
<line x1="353.419" y1="26.1719" x2="353.419" y2="175.411" stroke="#0076BE" stroke-width="0.662792"/>
<line x1="369.775" y1="26.1719" x2="369.775" y2="175.411" stroke="#0076BE" stroke-width="0.662792"/>
<line x1="386.13" y1="26.1719" x2="386.13" y2="175.411" stroke="#0076BE" stroke-width="0.662792"/>
<line x1="402.484" y1="26.1719" x2="402.484" y2="175.411" stroke="#0076BE" stroke-width="0.662792"/>
<line x1="418.839" y1="26.1719" x2="418.839" y2="175.411" stroke="#0076BE" stroke-width="0.662792"/>
<line x1="25.998" y1="25.8405" x2="419.368" y2="25.8405" stroke="#0076BE" stroke-width="0.662792"/>
<line x1="25.998" y1="42.4235" x2="419.368" y2="42.4235" stroke="#0076BE" stroke-width="0.662792"/>
<line x1="25.998" y1="59.0055" x2="419.368" y2="59.0055" stroke="#0076BE" stroke-width="0.662792"/>
<line x1="25.998" y1="75.5866" x2="419.368" y2="75.5866" stroke="#0076BE" stroke-width="0.662792"/>
<line x1="25.998" y1="92.1686" x2="419.368" y2="92.1686" stroke="#0076BE" stroke-width="0.662792"/>
<line x1="25.998" y1="108.752" x2="419.368" y2="108.752" stroke="#0076BE" stroke-width="0.662792"/>
<line x1="25.998" y1="125.335" x2="419.368" y2="125.335" stroke="#0076BE" stroke-width="0.662792"/>
<line x1="25.998" y1="141.915" x2="419.368" y2="141.915" stroke="#0076BE" stroke-width="0.662792"/>
<line x1="25.998" y1="158.497" x2="419.368" y2="158.497" stroke="#0076BE" stroke-width="0.662792"/>
<line x1="25.998" y1="175.08" x2="419.368" y2="175.08" stroke="#0076BE" stroke-width="0.662792"/>
<line x1="26.3294" y1="175.575" x2="26.3294" y2="291.289" stroke="#0076BE" stroke-width="0.662792"/>
<line x1="42.6849" y1="175.575" x2="42.6849" y2="291.289" stroke="#0076BE" stroke-width="0.662792"/>
<line x1="59.0384" y1="175.575" x2="59.0384" y2="291.289" stroke="#0076BE" stroke-width="0.662792"/>
<line x1="75.3939" y1="175.575" x2="75.3939" y2="291.289" stroke="#0076BE" stroke-width="0.662792"/>
<line x1="91.7474" y1="175.575" x2="91.7474" y2="291.289" stroke="#0076BE" stroke-width="0.662792"/>
<line x1="108.103" y1="175.575" x2="108.103" y2="291.289" stroke="#0076BE" stroke-width="0.662792"/>
<line x1="124.456" y1="175.575" x2="124.456" y2="291.289" stroke="#0076BE" stroke-width="0.662792"/>
<line x1="140.812" y1="175.575" x2="140.812" y2="291.289" stroke="#0076BE" stroke-width="0.662792"/>
<line x1="157.167" y1="175.575" x2="157.167" y2="291.289" stroke="#0076BE" stroke-width="0.662792"/>
<line x1="173.523" y1="175.575" x2="173.523" y2="291.289" stroke="#0076BE" stroke-width="0.662792"/>
<line x1="189.876" y1="175.575" x2="189.876" y2="291.289" stroke="#0076BE" stroke-width="0.662792"/>
<line x1="206.228" y1="175.575" x2="206.228" y2="291.289" stroke="#0076BE" stroke-width="0.662792"/>
<line x1="222.583" y1="175.575" x2="222.583" y2="291.289" stroke="#0076BE" stroke-width="0.662792"/>
<line x1="238.937" y1="175.575" x2="238.937" y2="291.289" stroke="#0076BE" stroke-width="0.662792"/>
<line x1="255.29" y1="175.575" x2="255.29" y2="291.289" stroke="#0076BE" stroke-width="0.662792"/>
<line x1="255.292" y1="175.575" x2="255.292" y2="291.289" stroke="#0076BE" stroke-width="0.662792"/>
<line x1="271.648" y1="175.575" x2="271.648" y2="291.289" stroke="#0076BE" stroke-width="0.662792"/>
<line x1="288.001" y1="175.575" x2="288.001" y2="291.289" stroke="#0076BE" stroke-width="0.662792"/>
<line x1="304.357" y1="175.575" x2="304.357" y2="291.289" stroke="#0076BE" stroke-width="0.662792"/>
<line x1="320.71" y1="175.575" x2="320.71" y2="291.289" stroke="#0076BE" stroke-width="0.662792"/>
<line x1="337.066" y1="175.575" x2="337.066" y2="291.289" stroke="#0076BE" stroke-width="0.662792"/>
<line x1="353.419" y1="175.575" x2="353.419" y2="291.289" stroke="#0076BE" stroke-width="0.662792"/>
<line x1="369.775" y1="175.575" x2="369.775" y2="291.289" stroke="#0076BE" stroke-width="0.662792"/>
<line x1="386.13" y1="175.575" x2="386.13" y2="291.289" stroke="#0076BE" stroke-width="0.662792"/>
<line x1="402.484" y1="175.575" x2="402.484" y2="291.289" stroke="#0076BE" stroke-width="0.662792"/>
<line x1="418.839" y1="175.575" x2="418.839" y2="291.289" stroke="#0076BE" stroke-width="0.662792"/>
<line x1="25.998" y1="175.244" x2="419.368" y2="175.244" stroke="#0076BE" stroke-width="0.662792"/>
<line x1="25.998" y1="191.827" x2="419.368" y2="191.827" stroke="#0076BE" stroke-width="0.662792"/>
<line x1="25.998" y1="208.409" x2="419.368" y2="208.409" stroke="#0076BE" stroke-width="0.662792"/>
<line x1="25.998" y1="224.99" x2="419.368" y2="224.99" stroke="#0076BE" stroke-width="0.662792"/>
<line x1="25.998" y1="241.572" x2="419.368" y2="241.572" stroke="#0076BE" stroke-width="0.662792"/>
<line x1="25.998" y1="258.155" x2="419.368" y2="258.155" stroke="#0076BE" stroke-width="0.662792"/>
<line x1="25.998" y1="274.737" x2="419.368" y2="274.737" stroke="#0076BE" stroke-width="0.662792"/>
<line x1="25.998" y1="291.318" x2="419.368" y2="291.318" stroke="#0076BE" stroke-width="0.662792"/>
<rect x="431.625" y="240.917" width="12.8133" height="43.7443" fill="#0076BE"/>
<line x1="437.811" y1="311.173" x2="416.601" y2="311.173" stroke="#0076BE" stroke-width="2.65117"/>
<line x1="438.231" y1="240.917" x2="438.231" y2="197.173" stroke="#0076BE" stroke-width="2.65117" stroke-dasharray="5.3 5.3"/>
<line x1="437.812" y1="271.406" x2="437.812" y2="312.499" stroke="#0076BE" stroke-width="2.65117"/>
<rect x="0.369141" y="50.0332" width="12.8133" height="43.7443" fill="#0076BE"/>
<rect x="19.6328" y="317.801" width="13.2558" height="42.284" transform="rotate(-90 19.6328 317.801)" fill="#0076BE"/>
<rect x="13.8945" y="238.267" width="12.8133" height="43.7443" transform="rotate(180 13.8945 238.267)" fill="#0076BE"/>
<line x1="6.73106" y1="60.6377" x2="6.73105" y2="6.28878" stroke="#0076BE" stroke-width="2.65117"/>
<line x1="26.8809" y1="311.173" x2="5.67153" y2="311.173" stroke="#0076BE" stroke-width="2.65117"/>
<line x1="6.43555" y1="7.61485" x2="15.1905" y2="7.61485" stroke="#0076BE" stroke-width="2.65117"/>
<line x1="15.1895" y1="7.61485" x2="38.5359" y2="7.61485" stroke="#0076BE" stroke-width="2.65117" stroke-dasharray="5.3 5.3"/>
<line x1="108.348" y1="6.28965" x2="236.753" y2="6.28965" stroke="#0076BE" stroke-width="2.65117" stroke-dasharray="11.93 11.93"/>
<line x1="230.918" y1="311.173" x2="397.262" y2="311.173" stroke="#0076BE" stroke-width="2.65117" stroke-dasharray="9.28 9.28"/>
<line x1="6.99668" y1="311.173" x2="6.99669" y2="235.615" stroke="#0076BE" stroke-width="2.65117" stroke-dasharray="5.3 5.3"/>
<line x1="6.59121" y1="73.8945" x2="6.59121" y2="126.918" stroke="#0076BE" stroke-width="2.65117" stroke-dasharray="5.3 5.3"/>
<rect x="343.344" y="14.2432" width="13.2558" height="42.284" transform="rotate(-90 343.344 14.2432)" fill="#0076BE"/>
<line x1="437.103" y1="6.28906" x2="437.103" y2="50.0333" stroke="#0076BE" stroke-width="2.65117"/>
<line x1="437.103" y1="57.9863" x2="437.103" y2="101.731" stroke="#0076BE" stroke-width="2.65117" stroke-dasharray="5.3 5.3"/>
<line x1="404.846" y1="7.61465" x2="385.585" y2="7.61465" stroke="#0076BE" stroke-width="2.65117"/>
<line x1="419.438" y1="7.61485" x2="436.947" y2="7.61485" stroke="#0076BE" stroke-width="2.65117"/>
<defs>
<linearGradient id="paint0_linear_729_15662" x1="227.938" y1="287.897" x2="222.967" y2="34.2237" gradientUnits="userSpaceOnUse">
<stop stop-color="#0076BE" stop-opacity="0.22"/>
<stop offset="1" stop-color="#2B2A2B" stop-opacity="0"/>
</linearGradient>
</defs>
</svg>
