<svg width="1430" height="923" viewBox="0 0 1430 923" fill="none" xmlns="http://www.w3.org/2000/svg">
<line x1="674.748" y1="8.18516" x2="869.378" y2="8.18516" stroke="#0076BE" stroke-width="2.65117" stroke-dasharray="10.6 10.6"/>
<line x1="1422.94" y1="7.39258" x2="1422.94" y2="119.402" stroke="#0076BE" stroke-width="2.65117" stroke-dasharray="9.28 9.28"/>
<line x1="1268.94" y1="8.1039" x2="1153.38" y2="8.1039" stroke="#0076BE" stroke-width="2.65117" stroke-dasharray="9.28 9.28"/>
<rect x="1312.2" y="0.5625" width="13.6597" height="44.0302" transform="rotate(90 1312.2 0.5625)" fill="#0076BE"/>
<rect x="1429.62" y="164.479" width="13.3425" height="45.077" transform="rotate(-180 1429.62 164.479)" fill="#0076BE"/>
<line x1="1422.43" y1="8.71816" x2="1306.86" y2="8.71816" stroke="#0076BE" stroke-width="2.65117"/>
<line x1="6.88477" y1="8.18516" x2="125.488" y2="8.18516" stroke="#0076BE" stroke-width="2.65117"/>
<line x1="125.486" y1="8.18516" x2="244.089" y2="8.18516" stroke="#0076BE" stroke-width="2.65117" stroke-dasharray="9.28 9.28"/>
<line x1="8.65879" y1="97.5459" x2="8.65879" y2="7.39186" stroke="#0076BE" stroke-width="2.65117" stroke-dasharray="9.28 9.28"/>
<line x1="8.23106" y1="225.75" x2="8.23106" y2="114.744" stroke="#0076BE" stroke-width="2.65117" stroke-dasharray="9.28 9.28"/>
<line x1="8.23106" y1="795.276" x2="8.23106" y2="684.271" stroke="#0076BE" stroke-width="2.65117" stroke-dasharray="9.28 9.28"/>
<line x1="188.012" y1="916.416" x2="303.573" y2="916.416" stroke="#0076BE" stroke-width="2.65117" stroke-dasharray="9.28 9.28"/>
<rect x="0.644531" y="94.1875" width="13.3425" height="45.077" fill="#0076BE"/>
<rect x="112.721" y="922.593" width="13.6597" height="44.0302" transform="rotate(-90 112.721 922.593)" fill="#0076BE"/>
<line x1="8.2252" y1="917.739" x2="8.2252" y2="777.521" stroke="#0076BE" stroke-width="2.65117"/>
<line x1="6.50781" y1="916.414" x2="122.07" y2="916.414" stroke="#0076BE" stroke-width="2.65117"/>
<line x1="1421.62" y1="918.454" x2="1182.79" y2="918.453" stroke="#0076BE" stroke-width="2.65117" stroke-dasharray="9.28 9.28"/>
<line x1="1420.29" y1="754.378" x2="1420.29" y2="643.372" stroke="#0076BE" stroke-width="2.65117" stroke-dasharray="9.28 9.28"/>
<rect x="1428.29" y="821.572" width="13.3425" height="45.077" transform="rotate(180 1428.29 821.572)" fill="#0076BE"/>
<line x1="1421.63" y1="919.861" x2="1421.63" y2="821.511" stroke="#0076BE" stroke-width="2.65117"/>
<line x1="443.623" y1="916.416" x2="638.253" y2="916.416" stroke="#0076BE" stroke-width="2.65117" stroke-dasharray="10.6 10.6"/>
</svg>
