<svg width="445" height="620" viewBox="0 0 445 620" fill="none" xmlns="http://www.w3.org/2000/svg">
<rect x="431.809" y="541.636" width="12.8133" height="43.7443" fill="#0076BE"/>
<line x1="437.994" y1="611.891" x2="416.785" y2="611.891" stroke="#0076BE" stroke-width="2.65117"/>
<line x1="438.415" y1="541.636" x2="438.415" y2="497.891" stroke="#0076BE" stroke-width="2.65117" stroke-dasharray="5.3 5.3"/>
<line x1="437.996" y1="572.124" x2="437.996" y2="613.217" stroke="#0076BE" stroke-width="2.65117"/>
<rect x="0.552734" y="49.8438" width="12.8133" height="43.7443" fill="#0076BE"/>
<rect x="19.8164" y="619.845" width="13.2558" height="42.284" transform="rotate(-90 19.8164 619.845)" fill="#0076BE"/>
<rect x="14.0781" y="444.867" width="12.8133" height="43.7443" transform="rotate(180 14.0781 444.867)" fill="#0076BE"/>
<line x1="6.91465" y1="60.4482" x2="6.91465" y2="6.09933" stroke="#0076BE" stroke-width="2.65117"/>
<line x1="6.9166" y1="418.355" x2="6.9166" y2="364.007" stroke="#0076BE" stroke-width="2.65117"/>
<line x1="27.0645" y1="613.216" x2="5.85512" y2="613.216" stroke="#0076BE" stroke-width="2.65117"/>
<line x1="6.61914" y1="7.42442" x2="15.3741" y2="7.42442" stroke="#0076BE" stroke-width="2.65117"/>
<line x1="15.373" y1="7.42442" x2="38.7195" y2="7.42442" stroke="#0076BE" stroke-width="2.65117" stroke-dasharray="5.3 5.3"/>
<line x1="108.531" y1="6.09922" x2="236.937" y2="6.09922" stroke="#0076BE" stroke-width="2.65117" stroke-dasharray="11.93 11.93"/>
<line x1="231.102" y1="611.89" x2="397.445" y2="611.89" stroke="#0076BE" stroke-width="2.65117" stroke-dasharray="9.28 9.28"/>
<line x1="7.18028" y1="613.216" x2="7.18028" y2="537.658" stroke="#0076BE" stroke-width="2.65117" stroke-dasharray="5.3 5.3"/>
<line x1="8.09902" y1="73.7041" x2="8.09902" y2="126.727" stroke="#0076BE" stroke-width="2.65117" stroke-dasharray="5.3 5.3"/>
<rect x="343.527" y="14.0527" width="13.2558" height="42.284" transform="rotate(-90 343.527 14.0527)" fill="#0076BE"/>
<line x1="437.288" y1="6.09961" x2="437.288" y2="49.8439" stroke="#0076BE" stroke-width="2.65117"/>
<line x1="436.669" y1="244.704" x2="436.669" y2="401.123" stroke="#0076BE" stroke-width="2.65117"/>
<line x1="437.288" y1="57.7969" x2="437.288" y2="101.541" stroke="#0076BE" stroke-width="2.65117" stroke-dasharray="5.3 5.3"/>
<line x1="405.029" y1="7.42519" x2="385.768" y2="7.4252" stroke="#0076BE" stroke-width="2.65117"/>
<line x1="419.621" y1="7.42442" x2="437.131" y2="7.42442" stroke="#0076BE" stroke-width="2.65117"/>
</svg>
