<svg width="972" height="929" viewBox="0 0 972 929" fill="none" xmlns="http://www.w3.org/2000/svg">
<rect x="954.311" y="823.771" width="17.2326" height="43.7443" fill="#0076BE"/>
<line x1="962.951" y1="918.608" x2="928.776" y2="918.608" stroke="#0076BE" stroke-width="2.65117"/>
<line x1="961.784" y1="823.771" x2="961.784" y2="764.429" stroke="#0076BE" stroke-width="2.65117" stroke-dasharray="5.3 5.3"/>
<line x1="962.142" y1="863.806" x2="962.142" y2="919.552" stroke="#0076BE" stroke-width="2.65117"/>
<rect x="0.644531" y="66.6992" width="17.2326" height="43.7443" fill="#0076BE"/>
<rect x="33.2656" y="928.071" width="17.2326" height="43.7443" transform="rotate(-90 33.2656 928.071)" fill="#0076BE"/>
<rect x="24.0273" y="820.176" width="17.2326" height="43.7443" transform="rotate(180 24.0273 820.176)" fill="#0076BE"/>
<line x1="11.7076" y1="81.0859" x2="11.7076" y2="7.35679" stroke="#0076BE" stroke-width="2.65117"/>
<line x1="44.9512" y1="918.608" x2="10.776" y2="918.608" stroke="#0076BE" stroke-width="2.65117"/>
<line x1="10.416" y1="8.30235" x2="24.5231" y2="8.30235" stroke="#0076BE" stroke-width="2.65117"/>
<line x1="24.5254" y1="8.30235" x2="62.1442" y2="8.30235" stroke="#0076BE" stroke-width="2.65117" stroke-dasharray="5.3 5.3"/>
<line x1="174.633" y1="7.82871" x2="381.536" y2="7.82871" stroke="#0076BE" stroke-width="2.65117" stroke-dasharray="11.93 11.93"/>
<line x1="625.6" y1="919.552" x2="893.633" y2="919.552" stroke="#0076BE" stroke-width="2.65117" stroke-dasharray="9.28 9.28"/>
<line x1="13.7193" y1="919.08" x2="13.7193" y2="816.579" stroke="#0076BE" stroke-width="2.65117" stroke-dasharray="5.3 5.3"/>
<line x1="9.85879" y1="99.0684" x2="9.85878" y2="170.999" stroke="#0076BE" stroke-width="2.65117" stroke-dasharray="5.3 5.3"/>
<rect x="811.777" y="18.1455" width="17.2326" height="43.7443" transform="rotate(-90 811.777 18.1455)" fill="#0076BE"/>
<line x1="962.05" y1="8.68262" x2="962.05" y2="68.0256" stroke="#0076BE" stroke-width="2.65117"/>
<line x1="959.04" y1="380.029" x2="959.04" y2="602.727" stroke="#0076BE" stroke-width="2.65117"/>
<line x1="962.05" y1="77.4893" x2="962.05" y2="136.832" stroke="#0076BE" stroke-width="2.65117" stroke-dasharray="5.3 5.3"/>
<line x1="910.879" y1="8.68203" x2="879.843" y2="8.68203" stroke="#0076BE" stroke-width="2.65117"/>
<line x1="934.391" y1="9.62754" x2="962.605" y2="9.62755" stroke="#0076BE" stroke-width="2.65117"/>
</svg>
