<svg width="445" height="285" viewBox="0 0 445 285" fill="none" xmlns="http://www.w3.org/2000/svg">
<rect x="24.4168" y="24.7742" width="396.349" height="235.954" fill="url(#paint0_linear_729_15972)" stroke="#0076BE" stroke-width="5.30233"/>
<line x1="26.5189" y1="26.1006" x2="26.5189" y2="175.339" stroke="#0076BE" stroke-width="0.662792"/>
<line x1="42.8744" y1="26.1006" x2="42.8744" y2="175.339" stroke="#0076BE" stroke-width="0.662792"/>
<line x1="59.2279" y1="26.1006" x2="59.2279" y2="175.339" stroke="#0076BE" stroke-width="0.662792"/>
<line x1="75.5833" y1="26.1006" x2="75.5833" y2="175.339" stroke="#0076BE" stroke-width="0.662792"/>
<line x1="91.9369" y1="26.1006" x2="91.9369" y2="175.339" stroke="#0076BE" stroke-width="0.662792"/>
<line x1="108.292" y1="26.1006" x2="108.292" y2="175.339" stroke="#0076BE" stroke-width="0.662792"/>
<line x1="124.646" y1="26.1006" x2="124.646" y2="175.339" stroke="#0076BE" stroke-width="0.662792"/>
<line x1="141.001" y1="26.1006" x2="141.001" y2="175.339" stroke="#0076BE" stroke-width="0.662792"/>
<line x1="157.357" y1="26.1006" x2="157.357" y2="175.339" stroke="#0076BE" stroke-width="0.662792"/>
<line x1="173.71" y1="26.1006" x2="173.71" y2="175.339" stroke="#0076BE" stroke-width="0.662792"/>
<line x1="190.066" y1="26.1006" x2="190.066" y2="175.339" stroke="#0076BE" stroke-width="0.662792"/>
<line x1="206.417" y1="26.1006" x2="206.417" y2="175.339" stroke="#0076BE" stroke-width="0.662792"/>
<line x1="222.773" y1="26.1006" x2="222.773" y2="175.339" stroke="#0076BE" stroke-width="0.662792"/>
<line x1="239.126" y1="26.1006" x2="239.126" y2="175.339" stroke="#0076BE" stroke-width="0.662792"/>
<line x1="255.482" y1="26.1006" x2="255.482" y2="175.339" stroke="#0076BE" stroke-width="0.662792"/>
<line x1="255.482" y1="26.1006" x2="255.482" y2="175.339" stroke="#0076BE" stroke-width="0.662792"/>
<line x1="271.837" y1="26.1006" x2="271.837" y2="175.339" stroke="#0076BE" stroke-width="0.662792"/>
<line x1="288.191" y1="26.1006" x2="288.191" y2="175.339" stroke="#0076BE" stroke-width="0.662792"/>
<line x1="304.546" y1="26.1006" x2="304.546" y2="175.339" stroke="#0076BE" stroke-width="0.662792"/>
<line x1="320.9" y1="26.1006" x2="320.9" y2="175.339" stroke="#0076BE" stroke-width="0.662792"/>
<line x1="337.255" y1="26.1006" x2="337.255" y2="175.339" stroke="#0076BE" stroke-width="0.662792"/>
<line x1="353.609" y1="26.1006" x2="353.609" y2="175.339" stroke="#0076BE" stroke-width="0.662792"/>
<line x1="369.964" y1="26.1006" x2="369.964" y2="175.339" stroke="#0076BE" stroke-width="0.662792"/>
<line x1="386.32" y1="26.1006" x2="386.32" y2="175.339" stroke="#0076BE" stroke-width="0.662792"/>
<line x1="402.673" y1="26.1006" x2="402.673" y2="175.339" stroke="#0076BE" stroke-width="0.662792"/>
<line x1="419.029" y1="26.1006" x2="419.029" y2="175.339" stroke="#0076BE" stroke-width="0.662792"/>
<line x1="26.1875" y1="25.7692" x2="419.557" y2="25.7692" stroke="#0076BE" stroke-width="0.662792"/>
<line x1="26.1875" y1="42.3522" x2="419.557" y2="42.3522" stroke="#0076BE" stroke-width="0.662792"/>
<line x1="26.1875" y1="58.9352" x2="419.557" y2="58.9352" stroke="#0076BE" stroke-width="0.662792"/>
<line x1="26.1875" y1="75.5153" x2="419.557" y2="75.5153" stroke="#0076BE" stroke-width="0.662792"/>
<line x1="26.1875" y1="92.0973" x2="419.557" y2="92.0973" stroke="#0076BE" stroke-width="0.662792"/>
<line x1="26.1875" y1="108.68" x2="419.557" y2="108.68" stroke="#0076BE" stroke-width="0.662792"/>
<line x1="26.1875" y1="125.263" x2="419.557" y2="125.263" stroke="#0076BE" stroke-width="0.662792"/>
<line x1="26.1875" y1="141.843" x2="419.557" y2="141.843" stroke="#0076BE" stroke-width="0.662792"/>
<line x1="26.1875" y1="158.425" x2="419.557" y2="158.425" stroke="#0076BE" stroke-width="0.662792"/>
<line x1="26.1875" y1="175.008" x2="419.557" y2="175.008" stroke="#0076BE" stroke-width="0.662792"/>
<line x1="26.5189" y1="175.503" x2="26.5189" y2="258.077" stroke="#0076BE" stroke-width="0.662792"/>
<line x1="42.8744" y1="175.503" x2="42.8744" y2="258.077" stroke="#0076BE" stroke-width="0.662792"/>
<line x1="59.2279" y1="175.503" x2="59.2279" y2="258.077" stroke="#0076BE" stroke-width="0.662792"/>
<line x1="75.5833" y1="175.503" x2="75.5833" y2="258.077" stroke="#0076BE" stroke-width="0.662792"/>
<line x1="91.9369" y1="175.503" x2="91.9369" y2="258.077" stroke="#0076BE" stroke-width="0.662792"/>
<line x1="108.292" y1="175.503" x2="108.292" y2="258.077" stroke="#0076BE" stroke-width="0.662792"/>
<line x1="124.646" y1="175.503" x2="124.646" y2="258.077" stroke="#0076BE" stroke-width="0.662792"/>
<line x1="141.001" y1="175.503" x2="141.001" y2="258.077" stroke="#0076BE" stroke-width="0.662792"/>
<line x1="157.357" y1="175.503" x2="157.357" y2="258.077" stroke="#0076BE" stroke-width="0.662792"/>
<line x1="173.71" y1="175.503" x2="173.71" y2="258.077" stroke="#0076BE" stroke-width="0.662792"/>
<line x1="190.066" y1="175.503" x2="190.066" y2="258.077" stroke="#0076BE" stroke-width="0.662792"/>
<line x1="206.417" y1="175.503" x2="206.417" y2="258.077" stroke="#0076BE" stroke-width="0.662792"/>
<line x1="222.773" y1="175.503" x2="222.773" y2="258.077" stroke="#0076BE" stroke-width="0.662792"/>
<line x1="239.126" y1="175.503" x2="239.126" y2="258.077" stroke="#0076BE" stroke-width="0.662792"/>
<line x1="255.48" y1="175.503" x2="255.48" y2="258.077" stroke="#0076BE" stroke-width="0.662792"/>
<line x1="255.482" y1="175.503" x2="255.482" y2="258.077" stroke="#0076BE" stroke-width="0.662792"/>
<line x1="271.837" y1="175.503" x2="271.837" y2="258.077" stroke="#0076BE" stroke-width="0.662792"/>
<line x1="288.191" y1="175.503" x2="288.191" y2="258.077" stroke="#0076BE" stroke-width="0.662792"/>
<line x1="304.546" y1="175.503" x2="304.546" y2="258.077" stroke="#0076BE" stroke-width="0.662792"/>
<line x1="320.9" y1="175.503" x2="320.9" y2="258.077" stroke="#0076BE" stroke-width="0.662792"/>
<line x1="337.255" y1="175.503" x2="337.255" y2="258.077" stroke="#0076BE" stroke-width="0.662792"/>
<line x1="353.609" y1="175.503" x2="353.609" y2="258.077" stroke="#0076BE" stroke-width="0.662792"/>
<line x1="369.964" y1="175.503" x2="369.964" y2="258.077" stroke="#0076BE" stroke-width="0.662792"/>
<line x1="386.32" y1="175.503" x2="386.32" y2="258.077" stroke="#0076BE" stroke-width="0.662792"/>
<line x1="402.673" y1="175.503" x2="402.673" y2="258.077" stroke="#0076BE" stroke-width="0.662792"/>
<line x1="419.029" y1="175.503" x2="419.029" y2="258.077" stroke="#0076BE" stroke-width="0.662792"/>
<line x1="26.1875" y1="175.172" x2="419.557" y2="175.172" stroke="#0076BE" stroke-width="0.662792"/>
<line x1="26.1875" y1="191.755" x2="419.557" y2="191.755" stroke="#0076BE" stroke-width="0.662792"/>
<line x1="26.1875" y1="208.338" x2="419.557" y2="208.338" stroke="#0076BE" stroke-width="0.662792"/>
<line x1="26.1875" y1="224.918" x2="419.557" y2="224.918" stroke="#0076BE" stroke-width="0.662792"/>
<line x1="26.1875" y1="241.5" x2="419.557" y2="241.5" stroke="#0076BE" stroke-width="0.662792"/>
<line x1="26.1875" y1="258.083" x2="419.557" y2="258.083" stroke="#0076BE" stroke-width="0.662792"/>
<rect x="431.811" y="207.705" width="12.8133" height="43.7443" fill="#0076BE"/>
<line x1="437.996" y1="277.961" x2="416.787" y2="277.961" stroke="#0076BE" stroke-width="2.65117"/>
<line x1="438.417" y1="207.705" x2="438.417" y2="163.961" stroke="#0076BE" stroke-width="2.65117" stroke-dasharray="5.3 5.3"/>
<line x1="437.997" y1="238.193" x2="437.997" y2="279.286" stroke="#0076BE" stroke-width="2.65117"/>
<rect x="0.554688" y="49.9609" width="12.8133" height="43.7443" fill="#0076BE"/>
<rect x="19.8184" y="284.589" width="13.2558" height="42.284" transform="rotate(-90 19.8184 284.589)" fill="#0076BE"/>
<rect x="14.0801" y="205.054" width="12.8133" height="43.7443" transform="rotate(180 14.0801 205.054)" fill="#0076BE"/>
<line x1="6.9166" y1="60.5654" x2="6.9166" y2="6.21651" stroke="#0076BE" stroke-width="2.65117"/>
<line x1="27.0664" y1="277.961" x2="5.85707" y2="277.961" stroke="#0076BE" stroke-width="2.65117"/>
<line x1="6.62109" y1="7.54258" x2="15.376" y2="7.54258" stroke="#0076BE" stroke-width="2.65117"/>
<line x1="15.375" y1="7.54258" x2="38.7215" y2="7.54258" stroke="#0076BE" stroke-width="2.65117" stroke-dasharray="5.3 5.3"/>
<line x1="108.533" y1="6.21641" x2="236.939" y2="6.21641" stroke="#0076BE" stroke-width="2.65117" stroke-dasharray="11.93 11.93"/>
<line x1="231.104" y1="277.961" x2="397.447" y2="277.961" stroke="#0076BE" stroke-width="2.65117" stroke-dasharray="9.28 9.28"/>
<line x1="7.18223" y1="277.961" x2="7.18223" y2="202.403" stroke="#0076BE" stroke-width="2.65117" stroke-dasharray="5.3 5.3"/>
<line x1="6.77676" y1="73.8213" x2="6.77675" y2="126.845" stroke="#0076BE" stroke-width="2.65117" stroke-dasharray="5.3 5.3"/>
<rect x="343.529" y="14.1699" width="13.2558" height="42.284" transform="rotate(-90 343.529 14.1699)" fill="#0076BE"/>
<line x1="437.29" y1="6.2168" x2="437.29" y2="49.961" stroke="#0076BE" stroke-width="2.65117"/>
<line x1="437.29" y1="57.9141" x2="437.29" y2="101.658" stroke="#0076BE" stroke-width="2.65117" stroke-dasharray="5.3 5.3"/>
<line x1="405.031" y1="7.54238" x2="385.77" y2="7.54238" stroke="#0076BE" stroke-width="2.65117"/>
<line x1="419.623" y1="7.54258" x2="437.133" y2="7.54258" stroke="#0076BE" stroke-width="2.65117"/>
<defs>
<linearGradient id="paint0_linear_729_15972" x1="228.125" y1="255.735" x2="224.283" y2="32.6793" gradientUnits="userSpaceOnUse">
<stop stop-color="#0076BE" stop-opacity="0.22"/>
<stop offset="1" stop-color="#2B2A2B" stop-opacity="0"/>
</linearGradient>
</defs>
</svg>
