<svg width="2617" height="22" viewBox="0 0 2617 22" fill="none" xmlns="http://www.w3.org/2000/svg">
<mask id="mask0_575_88" style="mask-type:alpha" maskUnits="userSpaceOnUse" x="0" y="0" width="1313" height="22">
<rect width="1313" height="22" fill="#D9D9D9"/>
</mask>
<g mask="url(#mask0_575_88)">
<mask id="mask1_575_88" style="mask-type:alpha" maskUnits="userSpaceOnUse" x="-30" y="-146" width="1385" height="377">
<line x1="-28.562" y1="31.1729" x2="230.438" y2="-144.827" stroke="#0076BE" stroke-width="2"/>
<line x1="187.438" y1="126.173" x2="446.438" y2="-49.8271" stroke="#0076BE" stroke-width="2"/>
<line x1="332.438" y1="108.173" x2="591.438" y2="-67.8271" stroke="#0076BE" stroke-width="2"/>
<line x1="-20.562" y1="39.1729" x2="238.438" y2="-136.827" stroke="#0076BE" stroke-width="2"/>
<line x1="195.438" y1="134.173" x2="454.438" y2="-41.8271" stroke="#0076BE" stroke-width="2"/>
<line x1="340.438" y1="116.173" x2="599.438" y2="-59.8271" stroke="#0076BE" stroke-width="2"/>
<line x1="-12.562" y1="47.1729" x2="246.438" y2="-128.827" stroke="#0076BE" stroke-width="2"/>
<line x1="203.438" y1="142.173" x2="462.438" y2="-33.8271" stroke="#0076BE" stroke-width="2"/>
<line x1="348.438" y1="124.173" x2="607.438" y2="-51.8271" stroke="#0076BE" stroke-width="2"/>
<line x1="-4.56205" y1="55.1729" x2="254.438" y2="-120.827" stroke="#0076BE" stroke-width="2"/>
<line x1="211.438" y1="150.173" x2="470.438" y2="-25.8271" stroke="#0076BE" stroke-width="2"/>
<line x1="356.438" y1="132.173" x2="615.438" y2="-43.8271" stroke="#0076BE" stroke-width="2"/>
<line x1="3.43795" y1="63.1729" x2="262.438" y2="-112.827" stroke="#0076BE" stroke-width="2"/>
<line x1="219.438" y1="158.173" x2="478.438" y2="-17.8271" stroke="#0076BE" stroke-width="2"/>
<line x1="364.438" y1="140.173" x2="623.438" y2="-35.8271" stroke="#0076BE" stroke-width="2"/>
<line x1="11.438" y1="71.1729" x2="270.438" y2="-104.827" stroke="#0076BE" stroke-width="2"/>
<line x1="227.438" y1="166.173" x2="486.438" y2="-9.8271" stroke="#0076BE" stroke-width="2"/>
<line x1="372.438" y1="148.173" x2="631.438" y2="-27.8271" stroke="#0076BE" stroke-width="2"/>
<line x1="19.438" y1="79.1729" x2="278.438" y2="-96.8271" stroke="#0076BE" stroke-width="2"/>
<line x1="235.438" y1="174.173" x2="494.438" y2="-1.8271" stroke="#0076BE" stroke-width="2"/>
<line x1="380.438" y1="156.173" x2="639.438" y2="-19.8271" stroke="#0076BE" stroke-width="2"/>
<line x1="27.438" y1="87.1729" x2="286.438" y2="-88.8271" stroke="#0076BE" stroke-width="2"/>
<line x1="243.438" y1="182.173" x2="502.438" y2="6.1729" stroke="#0076BE" stroke-width="2"/>
<line x1="388.438" y1="164.173" x2="647.438" y2="-11.8271" stroke="#0076BE" stroke-width="2"/>
<line x1="35.438" y1="95.1729" x2="294.438" y2="-80.8271" stroke="#0076BE" stroke-width="2"/>
<line x1="251.438" y1="190.173" x2="510.438" y2="14.1729" stroke="#0076BE" stroke-width="2"/>
<line x1="43.438" y1="103.173" x2="302.438" y2="-72.8271" stroke="#0076BE" stroke-width="2"/>
<line x1="259.438" y1="198.173" x2="518.438" y2="22.1729" stroke="#0076BE" stroke-width="2"/>
<line x1="51.438" y1="111.173" x2="310.438" y2="-64.8271" stroke="#0076BE" stroke-width="2"/>
<line x1="59.438" y1="119.173" x2="318.438" y2="-56.8271" stroke="#0076BE" stroke-width="2"/>
<line x1="67.438" y1="127.173" x2="326.438" y2="-48.8271" stroke="#0076BE" stroke-width="2"/>
<line x1="75.438" y1="135.173" x2="334.438" y2="-40.8271" stroke="#0076BE" stroke-width="2"/>
<line x1="83.438" y1="143.173" x2="342.438" y2="-32.8271" stroke="#0076BE" stroke-width="2"/>
<line x1="91.438" y1="151.173" x2="350.438" y2="-24.8271" stroke="#0076BE" stroke-width="2"/>
<line x1="99.438" y1="159.173" x2="358.438" y2="-16.8271" stroke="#0076BE" stroke-width="2"/>
<line x1="107.438" y1="167.173" x2="366.438" y2="-8.8271" stroke="#0076BE" stroke-width="2"/>
<line x1="503.438" y1="99.1729" x2="762.438" y2="-76.8271" stroke="#0076BE" stroke-width="2"/>
<line x1="511.438" y1="107.173" x2="770.438" y2="-68.8271" stroke="#0076BE" stroke-width="2"/>
<line x1="519.438" y1="115.173" x2="778.438" y2="-60.8271" stroke="#0076BE" stroke-width="2"/>
<line x1="527.438" y1="123.173" x2="786.438" y2="-52.8271" stroke="#0076BE" stroke-width="2"/>
<line x1="535.438" y1="131.173" x2="794.438" y2="-44.8271" stroke="#0076BE" stroke-width="2"/>
<line x1="543.438" y1="139.173" x2="802.438" y2="-36.8271" stroke="#0076BE" stroke-width="2"/>
<line x1="551.438" y1="147.173" x2="810.438" y2="-28.8271" stroke="#0076BE" stroke-width="2"/>
<line x1="559.438" y1="155.173" x2="818.438" y2="-20.8271" stroke="#0076BE" stroke-width="2"/>
<line x1="567.438" y1="163.173" x2="826.438" y2="-12.8271" stroke="#0076BE" stroke-width="2"/>
<line x1="575.438" y1="171.173" x2="834.438" y2="-4.8271" stroke="#0076BE" stroke-width="2"/>
<line x1="737.438" y1="74.1729" x2="996.438" y2="-101.827" stroke="#0076BE" stroke-width="2"/>
<line x1="745.438" y1="82.1729" x2="1004.44" y2="-93.8271" stroke="#0076BE" stroke-width="2"/>
<line x1="753.438" y1="90.1729" x2="1012.44" y2="-85.8271" stroke="#0076BE" stroke-width="2"/>
<line x1="761.438" y1="98.1729" x2="1020.44" y2="-77.8271" stroke="#0076BE" stroke-width="2"/>
<line x1="769.438" y1="106.173" x2="1028.44" y2="-69.8271" stroke="#0076BE" stroke-width="2"/>
<line x1="777.438" y1="114.173" x2="1036.44" y2="-61.8271" stroke="#0076BE" stroke-width="2"/>
<line x1="785.438" y1="122.173" x2="1044.44" y2="-53.8271" stroke="#0076BE" stroke-width="2"/>
<line x1="793.438" y1="130.173" x2="1052.44" y2="-45.8271" stroke="#0076BE" stroke-width="2"/>
<line x1="801.438" y1="138.173" x2="1060.44" y2="-37.8271" stroke="#0076BE" stroke-width="2"/>
<line x1="809.438" y1="146.173" x2="1068.44" y2="-29.8271" stroke="#0076BE" stroke-width="2"/>
<line x1="817.438" y1="154.173" x2="1076.44" y2="-21.8271" stroke="#0076BE" stroke-width="2"/>
<line x1="825.438" y1="162.173" x2="1084.44" y2="-13.8271" stroke="#0076BE" stroke-width="2"/>
<line x1="833.438" y1="170.173" x2="1092.44" y2="-5.8271" stroke="#0076BE" stroke-width="2"/>
<line x1="952.438" y1="103.173" x2="1211.44" y2="-72.8271" stroke="#0076BE" stroke-width="2"/>
<line x1="960.438" y1="111.173" x2="1219.44" y2="-64.8271" stroke="#0076BE" stroke-width="2"/>
<line x1="968.438" y1="119.173" x2="1227.44" y2="-56.8271" stroke="#0076BE" stroke-width="2"/>
<line x1="976.438" y1="127.173" x2="1235.44" y2="-48.8271" stroke="#0076BE" stroke-width="2"/>
<line x1="984.438" y1="135.173" x2="1243.44" y2="-40.8271" stroke="#0076BE" stroke-width="2"/>
<line x1="992.438" y1="143.173" x2="1251.44" y2="-32.8271" stroke="#0076BE" stroke-width="2"/>
<line x1="1000.44" y1="151.173" x2="1259.44" y2="-24.8271" stroke="#0076BE" stroke-width="2"/>
<line x1="1008.44" y1="159.173" x2="1267.44" y2="-16.8271" stroke="#0076BE" stroke-width="2"/>
<line x1="1016.44" y1="167.173" x2="1275.44" y2="-8.8271" stroke="#0076BE" stroke-width="2"/>
<line x1="1059.44" y1="151.173" x2="1318.44" y2="-24.8271" stroke="#0076BE" stroke-width="2"/>
<line x1="1067.44" y1="159.173" x2="1326.44" y2="-16.8271" stroke="#0076BE" stroke-width="2"/>
<line x1="1075.44" y1="167.173" x2="1334.44" y2="-8.8271" stroke="#0076BE" stroke-width="2"/>
<line x1="1083.44" y1="175.173" x2="1342.44" y2="-0.827102" stroke="#0076BE" stroke-width="2"/>
<line x1="1091.44" y1="183.173" x2="1350.44" y2="7.1729" stroke="#0076BE" stroke-width="2"/>
<line x1="1095.44" y1="187.173" x2="1354.44" y2="11.1729" stroke="#0076BE" stroke-width="2"/>
</mask>
<g mask="url(#mask1_575_88)">
<path d="M0 0H1313V22H0V0Z" fill="#0076BE"/>
</g>
</g>
<mask id="mask2_575_88" style="mask-type:alpha" maskUnits="userSpaceOnUse" x="1304" y="0" width="1313" height="22">
<rect x="1304" width="1313" height="22" fill="#D9D9D9"/>
</mask>
<g mask="url(#mask2_575_88)">
<mask id="mask3_575_88" style="mask-type:alpha" maskUnits="userSpaceOnUse" x="1274" y="-146" width="1385" height="377">
<line x1="1275.44" y1="31.1729" x2="1534.44" y2="-144.827" stroke="#0076BE" stroke-width="2"/>
<line x1="1491.44" y1="126.173" x2="1750.44" y2="-49.8271" stroke="#0076BE" stroke-width="2"/>
<line x1="1636.44" y1="108.173" x2="1895.44" y2="-67.8271" stroke="#0076BE" stroke-width="2"/>
<line x1="1283.44" y1="39.1729" x2="1542.44" y2="-136.827" stroke="#0076BE" stroke-width="2"/>
<line x1="1499.44" y1="134.173" x2="1758.44" y2="-41.8271" stroke="#0076BE" stroke-width="2"/>
<line x1="1644.44" y1="116.173" x2="1903.44" y2="-59.8271" stroke="#0076BE" stroke-width="2"/>
<line x1="1291.44" y1="47.1729" x2="1550.44" y2="-128.827" stroke="#0076BE" stroke-width="2"/>
<line x1="1507.44" y1="142.173" x2="1766.44" y2="-33.8271" stroke="#0076BE" stroke-width="2"/>
<line x1="1652.44" y1="124.173" x2="1911.44" y2="-51.8271" stroke="#0076BE" stroke-width="2"/>
<line x1="1299.44" y1="55.1729" x2="1558.44" y2="-120.827" stroke="#0076BE" stroke-width="2"/>
<line x1="1515.44" y1="150.173" x2="1774.44" y2="-25.8271" stroke="#0076BE" stroke-width="2"/>
<line x1="1660.44" y1="132.173" x2="1919.44" y2="-43.8271" stroke="#0076BE" stroke-width="2"/>
<line x1="1307.44" y1="63.1729" x2="1566.44" y2="-112.827" stroke="#0076BE" stroke-width="2"/>
<line x1="1523.44" y1="158.173" x2="1782.44" y2="-17.8271" stroke="#0076BE" stroke-width="2"/>
<line x1="1668.44" y1="140.173" x2="1927.44" y2="-35.8271" stroke="#0076BE" stroke-width="2"/>
<line x1="1315.44" y1="71.1729" x2="1574.44" y2="-104.827" stroke="#0076BE" stroke-width="2"/>
<line x1="1531.44" y1="166.173" x2="1790.44" y2="-9.8271" stroke="#0076BE" stroke-width="2"/>
<line x1="1676.44" y1="148.173" x2="1935.44" y2="-27.8271" stroke="#0076BE" stroke-width="2"/>
<line x1="1323.44" y1="79.1729" x2="1582.44" y2="-96.8271" stroke="#0076BE" stroke-width="2"/>
<line x1="1539.44" y1="174.173" x2="1798.44" y2="-1.8271" stroke="#0076BE" stroke-width="2"/>
<line x1="1684.44" y1="156.173" x2="1943.44" y2="-19.8271" stroke="#0076BE" stroke-width="2"/>
<line x1="1331.44" y1="87.1729" x2="1590.44" y2="-88.8271" stroke="#0076BE" stroke-width="2"/>
<line x1="1547.44" y1="182.173" x2="1806.44" y2="6.1729" stroke="#0076BE" stroke-width="2"/>
<line x1="1692.44" y1="164.173" x2="1951.44" y2="-11.8271" stroke="#0076BE" stroke-width="2"/>
<line x1="1339.44" y1="95.1729" x2="1598.44" y2="-80.8271" stroke="#0076BE" stroke-width="2"/>
<line x1="1555.44" y1="190.173" x2="1814.44" y2="14.1729" stroke="#0076BE" stroke-width="2"/>
<line x1="1347.44" y1="103.173" x2="1606.44" y2="-72.8271" stroke="#0076BE" stroke-width="2"/>
<line x1="1563.44" y1="198.173" x2="1822.44" y2="22.1729" stroke="#0076BE" stroke-width="2"/>
<line x1="1355.44" y1="111.173" x2="1614.44" y2="-64.8271" stroke="#0076BE" stroke-width="2"/>
<line x1="1363.44" y1="119.173" x2="1622.44" y2="-56.8271" stroke="#0076BE" stroke-width="2"/>
<line x1="1371.44" y1="127.173" x2="1630.44" y2="-48.8271" stroke="#0076BE" stroke-width="2"/>
<line x1="1379.44" y1="135.173" x2="1638.44" y2="-40.8271" stroke="#0076BE" stroke-width="2"/>
<line x1="1387.44" y1="143.173" x2="1646.44" y2="-32.8271" stroke="#0076BE" stroke-width="2"/>
<line x1="1395.44" y1="151.173" x2="1654.44" y2="-24.8271" stroke="#0076BE" stroke-width="2"/>
<line x1="1403.44" y1="159.173" x2="1662.44" y2="-16.8271" stroke="#0076BE" stroke-width="2"/>
<line x1="1411.44" y1="167.173" x2="1670.44" y2="-8.8271" stroke="#0076BE" stroke-width="2"/>
<line x1="1807.44" y1="99.1729" x2="2066.44" y2="-76.8271" stroke="#0076BE" stroke-width="2"/>
<line x1="1815.44" y1="107.173" x2="2074.44" y2="-68.8271" stroke="#0076BE" stroke-width="2"/>
<line x1="1823.44" y1="115.173" x2="2082.44" y2="-60.8271" stroke="#0076BE" stroke-width="2"/>
<line x1="1831.44" y1="123.173" x2="2090.44" y2="-52.8271" stroke="#0076BE" stroke-width="2"/>
<line x1="1839.44" y1="131.173" x2="2098.44" y2="-44.8271" stroke="#0076BE" stroke-width="2"/>
<line x1="1847.44" y1="139.173" x2="2106.44" y2="-36.8271" stroke="#0076BE" stroke-width="2"/>
<line x1="1855.44" y1="147.173" x2="2114.44" y2="-28.8271" stroke="#0076BE" stroke-width="2"/>
<line x1="1863.44" y1="155.173" x2="2122.44" y2="-20.8271" stroke="#0076BE" stroke-width="2"/>
<line x1="1871.44" y1="163.173" x2="2130.44" y2="-12.8271" stroke="#0076BE" stroke-width="2"/>
<line x1="1879.44" y1="171.173" x2="2138.44" y2="-4.8271" stroke="#0076BE" stroke-width="2"/>
<line x1="2041.44" y1="74.1729" x2="2300.44" y2="-101.827" stroke="#0076BE" stroke-width="2"/>
<line x1="2049.44" y1="82.1729" x2="2308.44" y2="-93.8271" stroke="#0076BE" stroke-width="2"/>
<line x1="2057.44" y1="90.1729" x2="2316.44" y2="-85.8271" stroke="#0076BE" stroke-width="2"/>
<line x1="2065.44" y1="98.1729" x2="2324.44" y2="-77.8271" stroke="#0076BE" stroke-width="2"/>
<line x1="2073.44" y1="106.173" x2="2332.44" y2="-69.8271" stroke="#0076BE" stroke-width="2"/>
<line x1="2081.44" y1="114.173" x2="2340.44" y2="-61.8271" stroke="#0076BE" stroke-width="2"/>
<line x1="2089.44" y1="122.173" x2="2348.44" y2="-53.8271" stroke="#0076BE" stroke-width="2"/>
<line x1="2097.44" y1="130.173" x2="2356.44" y2="-45.8271" stroke="#0076BE" stroke-width="2"/>
<line x1="2105.44" y1="138.173" x2="2364.44" y2="-37.8271" stroke="#0076BE" stroke-width="2"/>
<line x1="2113.44" y1="146.173" x2="2372.44" y2="-29.8271" stroke="#0076BE" stroke-width="2"/>
<line x1="2121.44" y1="154.173" x2="2380.44" y2="-21.8271" stroke="#0076BE" stroke-width="2"/>
<line x1="2129.44" y1="162.173" x2="2388.44" y2="-13.8271" stroke="#0076BE" stroke-width="2"/>
<line x1="2137.44" y1="170.173" x2="2396.44" y2="-5.8271" stroke="#0076BE" stroke-width="2"/>
<line x1="2256.44" y1="103.173" x2="2515.44" y2="-72.8271" stroke="#0076BE" stroke-width="2"/>
<line x1="2264.44" y1="111.173" x2="2523.44" y2="-64.8271" stroke="#0076BE" stroke-width="2"/>
<line x1="2272.44" y1="119.173" x2="2531.44" y2="-56.8271" stroke="#0076BE" stroke-width="2"/>
<line x1="2280.44" y1="127.173" x2="2539.44" y2="-48.8271" stroke="#0076BE" stroke-width="2"/>
<line x1="2288.44" y1="135.173" x2="2547.44" y2="-40.8271" stroke="#0076BE" stroke-width="2"/>
<line x1="2296.44" y1="143.173" x2="2555.44" y2="-32.8271" stroke="#0076BE" stroke-width="2"/>
<line x1="2304.44" y1="151.173" x2="2563.44" y2="-24.8271" stroke="#0076BE" stroke-width="2"/>
<line x1="2312.44" y1="159.173" x2="2571.44" y2="-16.8271" stroke="#0076BE" stroke-width="2"/>
<line x1="2320.44" y1="167.173" x2="2579.44" y2="-8.8271" stroke="#0076BE" stroke-width="2"/>
<line x1="2363.44" y1="151.173" x2="2622.44" y2="-24.8271" stroke="#0076BE" stroke-width="2"/>
<line x1="2371.44" y1="159.173" x2="2630.44" y2="-16.8271" stroke="#0076BE" stroke-width="2"/>
<line x1="2379.44" y1="167.173" x2="2638.44" y2="-8.8271" stroke="#0076BE" stroke-width="2"/>
<line x1="2387.44" y1="175.173" x2="2646.44" y2="-0.827102" stroke="#0076BE" stroke-width="2"/>
<line x1="2395.44" y1="183.173" x2="2654.44" y2="7.1729" stroke="#0076BE" stroke-width="2"/>
<line x1="2399.44" y1="187.173" x2="2658.44" y2="11.1729" stroke="#0076BE" stroke-width="2"/>
</mask>
<g mask="url(#mask3_575_88)">
<path d="M1304 0H2617V22H1304V0Z" fill="#0076BE"/>
</g>
</g>
</svg>
