<svg width="346" height="289" viewBox="0 0 346 289" fill="none" xmlns="http://www.w3.org/2000/svg">
<g clip-path="url(#clip0_935_1664)">
<path d="M326 18H16V272H326V18Z" fill="#2B2A2B"/>
<path d="M328 17.0859H18V80.4677H328V17.0859Z" fill="url(#paint0_linear_935_1664)"/>
<path fill-rule="evenodd" clip-rule="evenodd" d="M16 15.0859H330V82.4677H16V15.0859ZM20 19.0859V78.4677H326V19.0859H20Z" fill="#0076BE"/>
<path fill-rule="evenodd" clip-rule="evenodd" d="M20 82.4684V19.1094H20.5V82.4684H20Z" fill="#0076BE"/>
<path fill-rule="evenodd" clip-rule="evenodd" d="M32.7637 82.4684V19.1094H33.2637V82.4684H32.7637Z" fill="#0076BE"/>
<path fill-rule="evenodd" clip-rule="evenodd" d="M45.5273 82.4684V19.1094H46.0273V82.4684H45.5273Z" fill="#0076BE"/>
<path fill-rule="evenodd" clip-rule="evenodd" d="M58.291 82.4684V19.1094H58.791V82.4684H58.291Z" fill="#0076BE"/>
<path fill-rule="evenodd" clip-rule="evenodd" d="M71.0547 82.4684V19.1094H71.5547V82.4684H71.0547Z" fill="#0076BE"/>
<path fill-rule="evenodd" clip-rule="evenodd" d="M83.8184 82.4684V19.1094H84.3184V82.4684H83.8184Z" fill="#0076BE"/>
<path fill-rule="evenodd" clip-rule="evenodd" d="M96.582 82.4684V19.1094H97.082V82.4684H96.582Z" fill="#0076BE"/>
<path fill-rule="evenodd" clip-rule="evenodd" d="M109.346 82.4684V19.1094H109.846V82.4684H109.346Z" fill="#0076BE"/>
<path fill-rule="evenodd" clip-rule="evenodd" d="M122.109 82.4684V19.1094H122.609V82.4684H122.109Z" fill="#0076BE"/>
<path fill-rule="evenodd" clip-rule="evenodd" d="M134.873 82.4684V19.1094H135.373V82.4684H134.873Z" fill="#0076BE"/>
<path fill-rule="evenodd" clip-rule="evenodd" d="M147.637 82.4684V19.1094H148.137V82.4684H147.637Z" fill="#0076BE"/>
<path fill-rule="evenodd" clip-rule="evenodd" d="M160.4 82.4684V19.1094H160.9V82.4684H160.4Z" fill="#0076BE"/>
<path fill-rule="evenodd" clip-rule="evenodd" d="M173.164 82.4684V19.1094H173.664V82.4684H173.164Z" fill="#0076BE"/>
<path fill-rule="evenodd" clip-rule="evenodd" d="M185.928 82.4684V19.1094H186.428V82.4684H185.928Z" fill="#0076BE"/>
<path fill-rule="evenodd" clip-rule="evenodd" d="M198.69 82.4684V19.1094H199.19V82.4684H198.69Z" fill="#0076BE"/>
<path fill-rule="evenodd" clip-rule="evenodd" d="M198.691 82.4684V19.1094H199.191V82.4684H198.691Z" fill="#0076BE"/>
<path fill-rule="evenodd" clip-rule="evenodd" d="M211.455 82.4684V19.1094H211.955V82.4684H211.455Z" fill="#0076BE"/>
<path fill-rule="evenodd" clip-rule="evenodd" d="M224.219 82.4684V19.1094H224.719V82.4684H224.219Z" fill="#0076BE"/>
<path fill-rule="evenodd" clip-rule="evenodd" d="M236.982 82.4684V19.1094H237.482V82.4684H236.982Z" fill="#0076BE"/>
<path fill-rule="evenodd" clip-rule="evenodd" d="M249.746 82.4684V19.1094H250.246V82.4684H249.746Z" fill="#0076BE"/>
<path fill-rule="evenodd" clip-rule="evenodd" d="M262.51 82.4684V19.1094H263.01V82.4684H262.51Z" fill="#0076BE"/>
<path fill-rule="evenodd" clip-rule="evenodd" d="M275.273 82.4684V19.1094H275.773V82.4684H275.273Z" fill="#0076BE"/>
<path fill-rule="evenodd" clip-rule="evenodd" d="M288.037 82.4684V19.1094H288.537V82.4684H288.037Z" fill="#0076BE"/>
<path fill-rule="evenodd" clip-rule="evenodd" d="M300.801 82.4684V19.1094H301.301V82.4684H300.801Z" fill="#0076BE"/>
<path fill-rule="evenodd" clip-rule="evenodd" d="M313.564 82.4684V19.1094H314.064V82.4684H313.564Z" fill="#0076BE"/>
<path fill-rule="evenodd" clip-rule="evenodd" d="M326.328 82.4684V19.1094H326.828V82.4684H326.328Z" fill="#0076BE"/>
<path fill-rule="evenodd" clip-rule="evenodd" d="M327 19.3457H20V18.8457H327V19.3457Z" fill="#0076BE"/>
<path fill-rule="evenodd" clip-rule="evenodd" d="M327 31.9258H20V31.4258H327V31.9258Z" fill="#0076BE"/>
<path fill-rule="evenodd" clip-rule="evenodd" d="M327 44.5059H20V44.0059H327V44.5059Z" fill="#0076BE"/>
<path fill-rule="evenodd" clip-rule="evenodd" d="M327 57.0879H20V56.5879H327V57.0879Z" fill="#0076BE"/>
<path fill-rule="evenodd" clip-rule="evenodd" d="M327 69.668H20V69.168H327V69.668Z" fill="#0076BE"/>
<path fill-rule="evenodd" clip-rule="evenodd" d="M327 82.248H20V81.748H327V82.248Z" fill="#0076BE"/>
<path d="M328 80.4453H18V143.827H328V80.4453Z" fill="url(#paint1_linear_935_1664)"/>
<path fill-rule="evenodd" clip-rule="evenodd" d="M16 78.4453H330V145.827H16V78.4453ZM20 82.4453V141.827H326V82.4453H20Z" fill="#0076BE"/>
<path fill-rule="evenodd" clip-rule="evenodd" d="M20 145.826V82.4668H20.5V145.826H20Z" fill="#0076BE"/>
<path fill-rule="evenodd" clip-rule="evenodd" d="M32.7637 145.826V82.4668H33.2637V145.826H32.7637Z" fill="#0076BE"/>
<path fill-rule="evenodd" clip-rule="evenodd" d="M45.5273 145.826V82.4668H46.0273V145.826H45.5273Z" fill="#0076BE"/>
<path fill-rule="evenodd" clip-rule="evenodd" d="M58.291 145.826V82.4668H58.791V145.826H58.291Z" fill="#0076BE"/>
<path fill-rule="evenodd" clip-rule="evenodd" d="M71.0547 145.826V82.4668H71.5547V145.826H71.0547Z" fill="#0076BE"/>
<path fill-rule="evenodd" clip-rule="evenodd" d="M83.8184 145.826V82.4668H84.3184V145.826H83.8184Z" fill="#0076BE"/>
<path fill-rule="evenodd" clip-rule="evenodd" d="M96.582 145.826V82.4668H97.082V145.826H96.582Z" fill="#0076BE"/>
<path fill-rule="evenodd" clip-rule="evenodd" d="M109.346 145.826V82.4668H109.846V145.826H109.346Z" fill="#0076BE"/>
<path fill-rule="evenodd" clip-rule="evenodd" d="M122.109 145.826V82.4668H122.609V145.826H122.109Z" fill="#0076BE"/>
<path fill-rule="evenodd" clip-rule="evenodd" d="M134.873 145.826V82.4668H135.373V145.826H134.873Z" fill="#0076BE"/>
<path fill-rule="evenodd" clip-rule="evenodd" d="M147.637 145.826V82.4668H148.137V145.826H147.637Z" fill="#0076BE"/>
<path fill-rule="evenodd" clip-rule="evenodd" d="M160.4 145.826V82.4668H160.9V145.826H160.4Z" fill="#0076BE"/>
<path fill-rule="evenodd" clip-rule="evenodd" d="M173.164 145.826V82.4668H173.664V145.826H173.164Z" fill="#0076BE"/>
<path fill-rule="evenodd" clip-rule="evenodd" d="M185.928 145.826V82.4668H186.428V145.826H185.928Z" fill="#0076BE"/>
<path fill-rule="evenodd" clip-rule="evenodd" d="M198.69 145.826V82.4668H199.19V145.826H198.69Z" fill="#0076BE"/>
<path fill-rule="evenodd" clip-rule="evenodd" d="M198.691 145.826V82.4668H199.191V145.826H198.691Z" fill="#0076BE"/>
<path fill-rule="evenodd" clip-rule="evenodd" d="M211.455 145.826V82.4668H211.955V145.826H211.455Z" fill="#0076BE"/>
<path fill-rule="evenodd" clip-rule="evenodd" d="M224.219 145.826V82.4668H224.719V145.826H224.219Z" fill="#0076BE"/>
<path fill-rule="evenodd" clip-rule="evenodd" d="M236.982 145.826V82.4668H237.482V145.826H236.982Z" fill="#0076BE"/>
<path fill-rule="evenodd" clip-rule="evenodd" d="M249.746 145.826V82.4668H250.246V145.826H249.746Z" fill="#0076BE"/>
<path fill-rule="evenodd" clip-rule="evenodd" d="M262.51 145.826V82.4668H263.01V145.826H262.51Z" fill="#0076BE"/>
<path fill-rule="evenodd" clip-rule="evenodd" d="M275.273 145.826V82.4668H275.773V145.826H275.273Z" fill="#0076BE"/>
<path fill-rule="evenodd" clip-rule="evenodd" d="M288.037 145.826V82.4668H288.537V145.826H288.037Z" fill="#0076BE"/>
<path fill-rule="evenodd" clip-rule="evenodd" d="M300.801 145.826V82.4668H301.301V145.826H300.801Z" fill="#0076BE"/>
<path fill-rule="evenodd" clip-rule="evenodd" d="M313.564 145.826V82.4668H314.064V145.826H313.564Z" fill="#0076BE"/>
<path fill-rule="evenodd" clip-rule="evenodd" d="M326.328 145.826V82.4668H326.828V145.826H326.328Z" fill="#0076BE"/>
<path fill-rule="evenodd" clip-rule="evenodd" d="M327 82.7031H20V82.2031H327V82.7031Z" fill="#0076BE"/>
<path fill-rule="evenodd" clip-rule="evenodd" d="M327 95.2832H20V94.7832H327V95.2832Z" fill="#0076BE"/>
<path fill-rule="evenodd" clip-rule="evenodd" d="M327 107.863H20V107.363H327V107.863Z" fill="#0076BE"/>
<path fill-rule="evenodd" clip-rule="evenodd" d="M327 120.445H20V119.945H327V120.445Z" fill="#0076BE"/>
<path fill-rule="evenodd" clip-rule="evenodd" d="M327 133.025H20V132.525H327V133.025Z" fill="#0076BE"/>
<path fill-rule="evenodd" clip-rule="evenodd" d="M327 145.605H20V145.105H327V145.605Z" fill="#0076BE"/>
<path d="M345.533 239.004H335.533V272.192H345.533V239.004Z" fill="#0076BE"/>
<path fill-rule="evenodd" clip-rule="evenodd" d="M325 282.1H340V284.1H325V282.1Z" fill="#0076BE"/>
<path fill-rule="evenodd" clip-rule="evenodd" d="M340 284.613V247.402H342V284.613H340Z" fill="#0076BE"/>
<path fill-rule="evenodd" clip-rule="evenodd" d="M340 158.901V62.3535H342V158.901H340Z" fill="#0076BE"/>
<path d="M10 21.8633H0V55.0513H10V21.8633Z" fill="#0076BE"/>
<path d="M16.0322 278.078V288.135H49.0322V278.078H16.0322Z" fill="#0076BE"/>
<path fill-rule="evenodd" clip-rule="evenodd" d="M5.7334 4.65137V27.2656H3.7334V4.65137H5.7334Z" fill="#0076BE"/>
<path fill-rule="evenodd" clip-rule="evenodd" d="M4 282.602H95V284.602H4V282.602Z" fill="#0076BE"/>
<path fill-rule="evenodd" clip-rule="evenodd" d="M10.5661 5.9082H3.7334V3.9082H10.5661V5.9082Z" fill="#0076BE"/>
<path fill-rule="evenodd" clip-rule="evenodd" d="M12.844 5.9082H10.5664V3.9082H12.844V5.9082ZM21.9542 5.9082H17.3991V3.9082H21.9542V5.9082ZM28.7869 5.9082H26.5093V3.9082H28.7869V5.9082Z" fill="#0076BE"/>
<path fill-rule="evenodd" clip-rule="evenodd" d="M134.5 6.03516H130V4.03516H134.5V6.03516ZM152.5 6.03516H143.5V4.03516H152.5V6.03516ZM170.5 6.03516H161.5V4.03516H170.5V6.03516ZM184 6.03516H179.5V4.03516H184V6.03516Z" fill="#0076BE"/>
<path fill-rule="evenodd" clip-rule="evenodd" d="M182.533 282.605H178.927V280.605H182.533V282.605ZM196.957 282.605H189.745V280.605H196.957V282.605ZM211.382 282.605H204.17V280.605H211.382V282.605ZM225.806 282.605H218.594V280.605H225.806V282.605ZM240.231 282.605H233.018V280.605H240.231V282.605ZM254.655 282.605H247.443V280.605H254.655V282.605ZM269.08 282.605H261.867V280.605H269.08V282.605ZM283.504 282.605H276.292V280.605H283.504V282.605ZM297.928 282.605H290.716V280.605H297.928V282.605ZM308.747 282.605H305.141V280.605H308.747V282.605Z" fill="#0076BE"/>
<path fill-rule="evenodd" clip-rule="evenodd" d="M3.7334 259.955V257.861H5.7334V259.955H3.7334ZM3.7334 268.331V264.143H5.7334V268.331H3.7334ZM3.7334 276.706V272.519H5.7334V276.706H3.7334ZM3.7334 282.988V280.894H5.7334V282.988H3.7334Z" fill="#0076BE"/>
<path fill-rule="evenodd" clip-rule="evenodd" d="M4 83.4038V81.4609H6V83.4038H4ZM4 91.175V87.2894H6V91.175H4ZM4 98.9463V95.0607H6V98.9463H4ZM4 106.718V102.832H6V106.718H4ZM4 114.489V110.603H6V114.489H4ZM4 122.26V118.374H6V122.26H4ZM4 130.031V126.146H6V130.031H4ZM4 137.803V133.917H6V137.803H4ZM4 145.574V141.688H6V145.574H4ZM4 153.345V149.46H6V153.345H4ZM4 161.116V157.231H6V161.116H4ZM4 166.945V165.002H6V166.945H4Z" fill="#0076BE"/>
<path d="M268.669 -0.000366211V10.0566L301.669 10.0566V-0.000366211L268.669 -0.000366211Z" fill="#0076BE"/>
<path fill-rule="evenodd" clip-rule="evenodd" d="M339.811 25.6321V4.90234H341.811V25.6321H339.811Z" fill="#0076BE"/>
<path fill-rule="evenodd" clip-rule="evenodd" d="M339.811 27.3603V25.6328H341.811V27.3603H339.811ZM339.811 34.2702V30.8153H341.811V34.2702H339.811ZM339.811 41.1802V37.7252H341.811V41.1802H339.811ZM339.811 46.3626V44.6351H341.811V46.3626H339.811Z" fill="#0076BE"/>
<path fill-rule="evenodd" clip-rule="evenodd" d="M224 4.02345L317 4.02344V6.02344L224 6.02345V4.02345Z" fill="#0076BE"/>
<path fill-rule="evenodd" clip-rule="evenodd" d="M341.722 4.90235L328.057 4.90234V2.90234L341.722 2.90235L341.722 4.90235Z" fill="#0076BE"/>
<path d="M328 143.803H18V207.185H328V143.803Z" fill="url(#paint2_linear_935_1664)"/>
<path fill-rule="evenodd" clip-rule="evenodd" d="M16 141.803H330V209.185H16V141.803ZM20 145.803V205.185H326V145.803H20Z" fill="#0076BE"/>
<path fill-rule="evenodd" clip-rule="evenodd" d="M20 209.185V145.826H20.5V209.185H20Z" fill="#0076BE"/>
<path fill-rule="evenodd" clip-rule="evenodd" d="M32.7637 209.185V145.826H33.2637V209.185H32.7637Z" fill="#0076BE"/>
<path fill-rule="evenodd" clip-rule="evenodd" d="M45.5273 209.185V145.826H46.0273V209.185H45.5273Z" fill="#0076BE"/>
<path fill-rule="evenodd" clip-rule="evenodd" d="M58.291 209.185V145.826H58.791V209.185H58.291Z" fill="#0076BE"/>
<path fill-rule="evenodd" clip-rule="evenodd" d="M71.0547 209.185V145.826H71.5547V209.185H71.0547Z" fill="#0076BE"/>
<path fill-rule="evenodd" clip-rule="evenodd" d="M83.8184 209.185V145.826H84.3184V209.185H83.8184Z" fill="#0076BE"/>
<path fill-rule="evenodd" clip-rule="evenodd" d="M96.582 209.185V145.826H97.082V209.185H96.582Z" fill="#0076BE"/>
<path fill-rule="evenodd" clip-rule="evenodd" d="M109.346 209.185V145.826H109.846V209.185H109.346Z" fill="#0076BE"/>
<path fill-rule="evenodd" clip-rule="evenodd" d="M122.109 209.185V145.826H122.609V209.185H122.109Z" fill="#0076BE"/>
<path fill-rule="evenodd" clip-rule="evenodd" d="M134.873 209.185V145.826H135.373V209.185H134.873Z" fill="#0076BE"/>
<path fill-rule="evenodd" clip-rule="evenodd" d="M147.637 209.185V145.826H148.137V209.185H147.637Z" fill="#0076BE"/>
<path fill-rule="evenodd" clip-rule="evenodd" d="M160.4 209.185V145.826H160.9V209.185H160.4Z" fill="#0076BE"/>
<path fill-rule="evenodd" clip-rule="evenodd" d="M173.164 209.185V145.826H173.664V209.185H173.164Z" fill="#0076BE"/>
<path fill-rule="evenodd" clip-rule="evenodd" d="M185.928 209.185V145.826H186.428V209.185H185.928Z" fill="#0076BE"/>
<path fill-rule="evenodd" clip-rule="evenodd" d="M198.69 209.185V145.826H199.19V209.185H198.69Z" fill="#0076BE"/>
<path fill-rule="evenodd" clip-rule="evenodd" d="M198.691 209.185V145.826H199.191V209.185H198.691Z" fill="#0076BE"/>
<path fill-rule="evenodd" clip-rule="evenodd" d="M211.455 209.185V145.826H211.955V209.185H211.455Z" fill="#0076BE"/>
<path fill-rule="evenodd" clip-rule="evenodd" d="M224.219 209.185V145.826H224.719V209.185H224.219Z" fill="#0076BE"/>
<path fill-rule="evenodd" clip-rule="evenodd" d="M236.982 209.185V145.826H237.482V209.185H236.982Z" fill="#0076BE"/>
<path fill-rule="evenodd" clip-rule="evenodd" d="M249.746 209.185V145.826H250.246V209.185H249.746Z" fill="#0076BE"/>
<path fill-rule="evenodd" clip-rule="evenodd" d="M262.51 209.185V145.826H263.01V209.185H262.51Z" fill="#0076BE"/>
<path fill-rule="evenodd" clip-rule="evenodd" d="M275.273 209.185V145.826H275.773V209.185H275.273Z" fill="#0076BE"/>
<path fill-rule="evenodd" clip-rule="evenodd" d="M288.037 209.185V145.826H288.537V209.185H288.037Z" fill="#0076BE"/>
<path fill-rule="evenodd" clip-rule="evenodd" d="M300.801 209.185V145.826H301.301V209.185H300.801Z" fill="#0076BE"/>
<path fill-rule="evenodd" clip-rule="evenodd" d="M313.564 209.185V145.826H314.064V209.185H313.564Z" fill="#0076BE"/>
<path fill-rule="evenodd" clip-rule="evenodd" d="M326.328 209.185V145.826H326.828V209.185H326.328Z" fill="#0076BE"/>
<path fill-rule="evenodd" clip-rule="evenodd" d="M327 146.062H20V145.562H327V146.062Z" fill="#0076BE"/>
<path fill-rule="evenodd" clip-rule="evenodd" d="M327 158.643H20V158.143H327V158.643Z" fill="#0076BE"/>
<path fill-rule="evenodd" clip-rule="evenodd" d="M327 171.225H20V170.725H327V171.225Z" fill="#0076BE"/>
<path fill-rule="evenodd" clip-rule="evenodd" d="M327 183.805H20V183.305H327V183.805Z" fill="#0076BE"/>
<path fill-rule="evenodd" clip-rule="evenodd" d="M327 196.385H20V195.885H327V196.385Z" fill="#0076BE"/>
<path fill-rule="evenodd" clip-rule="evenodd" d="M327 208.965H20V208.465H327V208.965Z" fill="#0076BE"/>
<path d="M328 207.162H18V270.544H328V207.162Z" fill="url(#paint3_linear_935_1664)"/>
<path fill-rule="evenodd" clip-rule="evenodd" d="M16 205.162H330V272.544H16V205.162ZM20 209.162V268.544H326V209.162H20Z" fill="#0076BE"/>
<path fill-rule="evenodd" clip-rule="evenodd" d="M20 272.545V209.186H20.5V272.545H20Z" fill="#0076BE"/>
<path fill-rule="evenodd" clip-rule="evenodd" d="M32.7637 272.545V209.186H33.2637V272.545H32.7637Z" fill="#0076BE"/>
<path fill-rule="evenodd" clip-rule="evenodd" d="M45.5273 272.545V209.186H46.0273V272.545H45.5273Z" fill="#0076BE"/>
<path fill-rule="evenodd" clip-rule="evenodd" d="M58.291 272.545V209.186H58.791V272.545H58.291Z" fill="#0076BE"/>
<path fill-rule="evenodd" clip-rule="evenodd" d="M71.0547 272.545V209.186H71.5547V272.545H71.0547Z" fill="#0076BE"/>
<path fill-rule="evenodd" clip-rule="evenodd" d="M83.8184 272.545V209.186H84.3184V272.545H83.8184Z" fill="#0076BE"/>
<path fill-rule="evenodd" clip-rule="evenodd" d="M96.582 272.545V209.186H97.082V272.545H96.582Z" fill="#0076BE"/>
<path fill-rule="evenodd" clip-rule="evenodd" d="M109.346 272.545V209.186H109.846V272.545H109.346Z" fill="#0076BE"/>
<path fill-rule="evenodd" clip-rule="evenodd" d="M122.109 272.545V209.186H122.609V272.545H122.109Z" fill="#0076BE"/>
<path fill-rule="evenodd" clip-rule="evenodd" d="M134.873 272.545V209.186H135.373V272.545H134.873Z" fill="#0076BE"/>
<path fill-rule="evenodd" clip-rule="evenodd" d="M147.637 272.545V209.186H148.137V272.545H147.637Z" fill="#0076BE"/>
<path fill-rule="evenodd" clip-rule="evenodd" d="M160.4 272.545V209.186H160.9V272.545H160.4Z" fill="#0076BE"/>
<path fill-rule="evenodd" clip-rule="evenodd" d="M173.164 272.545V209.186H173.664V272.545H173.164Z" fill="#0076BE"/>
<path fill-rule="evenodd" clip-rule="evenodd" d="M185.928 272.545V209.186H186.428V272.545H185.928Z" fill="#0076BE"/>
<path fill-rule="evenodd" clip-rule="evenodd" d="M198.69 272.545V209.186H199.19V272.545H198.69Z" fill="#0076BE"/>
<path fill-rule="evenodd" clip-rule="evenodd" d="M198.691 272.545V209.186H199.191V272.545H198.691Z" fill="#0076BE"/>
<path fill-rule="evenodd" clip-rule="evenodd" d="M211.455 272.545V209.186H211.955V272.545H211.455Z" fill="#0076BE"/>
<path fill-rule="evenodd" clip-rule="evenodd" d="M224.219 272.545V209.186H224.719V272.545H224.219Z" fill="#0076BE"/>
<path fill-rule="evenodd" clip-rule="evenodd" d="M236.982 272.545V209.186H237.482V272.545H236.982Z" fill="#0076BE"/>
<path fill-rule="evenodd" clip-rule="evenodd" d="M249.746 272.545V209.186H250.246V272.545H249.746Z" fill="#0076BE"/>
<path fill-rule="evenodd" clip-rule="evenodd" d="M262.51 272.545V209.186H263.01V272.545H262.51Z" fill="#0076BE"/>
<path fill-rule="evenodd" clip-rule="evenodd" d="M275.273 272.545V209.186H275.773V272.545H275.273Z" fill="#0076BE"/>
<path fill-rule="evenodd" clip-rule="evenodd" d="M288.037 272.545V209.186H288.537V272.545H288.037Z" fill="#0076BE"/>
<path fill-rule="evenodd" clip-rule="evenodd" d="M300.801 272.545V209.186H301.301V272.545H300.801Z" fill="#0076BE"/>
<path fill-rule="evenodd" clip-rule="evenodd" d="M313.564 272.545V209.186H314.064V272.545H313.564Z" fill="#0076BE"/>
<path fill-rule="evenodd" clip-rule="evenodd" d="M326.328 272.545V209.186H326.828V272.545H326.328Z" fill="#0076BE"/>
<path fill-rule="evenodd" clip-rule="evenodd" d="M327 209.422H20V208.922H327V209.422Z" fill="#0076BE"/>
<path fill-rule="evenodd" clip-rule="evenodd" d="M327 222.002H20V221.502H327V222.002Z" fill="#0076BE"/>
<path fill-rule="evenodd" clip-rule="evenodd" d="M327 234.582H20V234.082H327V234.582Z" fill="#0076BE"/>
<path fill-rule="evenodd" clip-rule="evenodd" d="M327 247.164H20V246.664H327V247.164Z" fill="#0076BE"/>
<path fill-rule="evenodd" clip-rule="evenodd" d="M327 259.744H20V259.244H327V259.744Z" fill="#0076BE"/>
<path fill-rule="evenodd" clip-rule="evenodd" d="M327 272.324H20V271.824H327V272.324Z" fill="#0076BE"/>
</g>
<defs>
<linearGradient id="paint0_linear_935_1664" x1="177.326" y1="80.3328" x2="176.943" y2="18.0181" gradientUnits="userSpaceOnUse">
<stop stop-color="#0076BE" stop-opacity="0.22"/>
<stop offset="1" stop-color="#2B2A2B" stop-opacity="0"/>
</linearGradient>
<linearGradient id="paint1_linear_935_1664" x1="177.326" y1="143.692" x2="176.943" y2="81.3775" gradientUnits="userSpaceOnUse">
<stop stop-color="#0076BE" stop-opacity="0.22"/>
<stop offset="1" stop-color="#2B2A2B" stop-opacity="0"/>
</linearGradient>
<linearGradient id="paint2_linear_935_1664" x1="177.326" y1="207.05" x2="176.943" y2="144.735" gradientUnits="userSpaceOnUse">
<stop stop-color="#0076BE" stop-opacity="0.22"/>
<stop offset="1" stop-color="#2B2A2B" stop-opacity="0"/>
</linearGradient>
<linearGradient id="paint3_linear_935_1664" x1="177.326" y1="270.409" x2="176.943" y2="208.094" gradientUnits="userSpaceOnUse">
<stop stop-color="#0076BE" stop-opacity="0.22"/>
<stop offset="1" stop-color="#2B2A2B" stop-opacity="0"/>
</linearGradient>
<clipPath id="clip0_935_1664">
<rect width="346" height="289" fill="white"/>
</clipPath>
</defs>
</svg>
