<svg width="616" height="731" viewBox="0 0 616 731" fill="none" xmlns="http://www.w3.org/2000/svg">
<rect x="598.002" y="648.479" width="17.9087" height="46.6632" fill="#0076BE"/>
<line x1="606.646" y1="723.335" x2="577.003" y2="723.335" stroke="#0076BE" stroke-width="2.65324"/>
<line x1="607.757" y1="648.479" x2="607.757" y2="601.816" stroke="#0076BE" stroke-width="2.65324" stroke-dasharray="5.31 5.31"/>
<line x1="606.122" y1="681.002" x2="606.122" y2="724.837" stroke="#0076BE" stroke-width="2.65324"/>
<rect x="0.755859" y="53.1699" width="17.9087" height="46.6632" fill="#0076BE"/>
<rect x="29.0527" y="730.493" width="14.1404" height="59.0987" transform="rotate(-90 29.0527 730.493)" fill="#0076BE"/>
<rect x="21.0352" y="645.65" width="17.9087" height="46.6632" transform="rotate(180 21.0352 645.65)" fill="#0076BE"/>
<line x1="10.1753" y1="64.4822" x2="10.1753" y2="6.50673" stroke="#0076BE" stroke-width="2.65324"/>
<line x1="39.1875" y1="723.335" x2="9.54406" y2="723.335" stroke="#0076BE" stroke-width="2.65324"/>
<line x1="9.23047" y1="8.00834" x2="21.4669" y2="8.00834" stroke="#0076BE" stroke-width="2.65324"/>
<line x1="21.4688" y1="8.00834" x2="54.0992" y2="8.00834" stroke="#0076BE" stroke-width="2.65324" stroke-dasharray="5.31 5.31"/>
<line x1="151.672" y1="6.59428" x2="331.139" y2="6.59428" stroke="#0076BE" stroke-width="2.65324" stroke-dasharray="11.94 11.94"/>
<line x1="317.475" y1="723.51" x2="549.967" y2="723.51" stroke="#0076BE" stroke-width="2.65324" stroke-dasharray="9.29 9.29"/>
<line x1="11.9214" y1="723.422" x2="11.9214" y2="642.822" stroke="#0076BE" stroke-width="2.65324" stroke-dasharray="5.31 5.31"/>
<line x1="8.92623" y1="78.6226" x2="8.92623" y2="135.184" stroke="#0076BE" stroke-width="2.65324" stroke-dasharray="5.31 5.31"/>
<rect x="480.117" y="14.9912" width="14.1404" height="59.0987" transform="rotate(-90 480.117 14.9912)" fill="#0076BE"/>
<line x1="610.639" y1="6.50659" x2="610.639" y2="53.1698" stroke="#0076BE" stroke-width="2.65324"/>
<line x1="606.225" y1="299.212" x2="606.225" y2="539.598" stroke="#0076BE" stroke-width="2.65324"/>
<line x1="610.639" y1="61.6541" x2="610.639" y2="108.317" stroke="#0076BE" stroke-width="2.65324" stroke-dasharray="5.31 5.31"/>
<line x1="566.078" y1="7.83321" x2="539.158" y2="7.83322" stroke="#0076BE" stroke-width="2.65324"/>
<line x1="586.473" y1="8.00834" x2="610.945" y2="8.00834" stroke="#0076BE" stroke-width="2.65324"/>
</svg>
