<svg width="599" height="385" viewBox="0 0 599 385" fill="none" xmlns="http://www.w3.org/2000/svg">
<rect x="28.5087" y="24.7046" width="538.609" height="335.635" fill="url(#paint0_linear_729_1084)" stroke="#0076BE" stroke-width="5.30649"/>
<line x1="26.6344" y1="26.0312" x2="26.6344" y2="175.387" stroke="#0076BE" stroke-width="0.663311"/>
<line x1="43.0016" y1="26.0312" x2="43.0016" y2="175.387" stroke="#0076BE" stroke-width="0.663311"/>
<line x1="59.3707" y1="26.0312" x2="59.3707" y2="175.387" stroke="#0076BE" stroke-width="0.663311"/>
<line x1="75.7379" y1="26.0312" x2="75.7379" y2="175.387" stroke="#0076BE" stroke-width="0.663311"/>
<line x1="92.1031" y1="26.0312" x2="92.1031" y2="175.387" stroke="#0076BE" stroke-width="0.663311"/>
<line x1="108.47" y1="26.0312" x2="108.47" y2="175.387" stroke="#0076BE" stroke-width="0.663311"/>
<line x1="124.839" y1="26.0312" x2="124.839" y2="175.387" stroke="#0076BE" stroke-width="0.663311"/>
<line x1="141.207" y1="26.0312" x2="141.207" y2="175.387" stroke="#0076BE" stroke-width="0.663311"/>
<line x1="157.572" y1="26.0312" x2="157.572" y2="175.387" stroke="#0076BE" stroke-width="0.663311"/>
<line x1="173.943" y1="26.0312" x2="173.943" y2="175.387" stroke="#0076BE" stroke-width="0.663311"/>
<line x1="190.308" y1="26.0312" x2="190.308" y2="175.387" stroke="#0076BE" stroke-width="0.663311"/>
<line x1="206.675" y1="26.0312" x2="206.675" y2="175.387" stroke="#0076BE" stroke-width="0.663311"/>
<line x1="223.041" y1="26.0312" x2="223.041" y2="175.387" stroke="#0076BE" stroke-width="0.663311"/>
<line x1="239.412" y1="26.0312" x2="239.412" y2="175.387" stroke="#0076BE" stroke-width="0.663311"/>
<line x1="255.777" y1="26.0312" x2="255.777" y2="175.387" stroke="#0076BE" stroke-width="0.663311"/>
<line x1="255.777" y1="26.0312" x2="255.777" y2="175.387" stroke="#0076BE" stroke-width="0.663311"/>
<line x1="272.146" y1="26.0312" x2="272.146" y2="175.387" stroke="#0076BE" stroke-width="0.663311"/>
<line x1="288.513" y1="26.0312" x2="288.513" y2="175.387" stroke="#0076BE" stroke-width="0.663311"/>
<line x1="304.88" y1="26.0312" x2="304.88" y2="175.387" stroke="#0076BE" stroke-width="0.663311"/>
<line x1="321.246" y1="26.0312" x2="321.246" y2="175.387" stroke="#0076BE" stroke-width="0.663311"/>
<line x1="337.613" y1="26.0312" x2="337.613" y2="175.387" stroke="#0076BE" stroke-width="0.663311"/>
<line x1="353.982" y1="26.0312" x2="353.982" y2="175.387" stroke="#0076BE" stroke-width="0.663311"/>
<line x1="370.349" y1="26.0312" x2="370.349" y2="175.387" stroke="#0076BE" stroke-width="0.663311"/>
<line x1="386.716" y1="26.0312" x2="386.716" y2="175.387" stroke="#0076BE" stroke-width="0.663311"/>
<line x1="403.086" y1="26.0312" x2="403.086" y2="175.387" stroke="#0076BE" stroke-width="0.663311"/>
<line x1="419.451" y1="26.0312" x2="419.451" y2="175.387" stroke="#0076BE" stroke-width="0.663311"/>
<line x1="434.791" y1="26.0312" x2="434.791" y2="360.34" stroke="#0076BE" stroke-width="0.663311"/>
<line x1="451.158" y1="26.0312" x2="451.158" y2="360.34" stroke="#0076BE" stroke-width="0.663311"/>
<line x1="467.527" y1="26.0312" x2="467.527" y2="360.34" stroke="#0076BE" stroke-width="0.663311"/>
<line x1="483.894" y1="26.0312" x2="483.894" y2="360.34" stroke="#0076BE" stroke-width="0.663311"/>
<line x1="500.259" y1="26.0312" x2="500.259" y2="360.34" stroke="#0076BE" stroke-width="0.663311"/>
<line x1="516.627" y1="26.0312" x2="516.627" y2="360.34" stroke="#0076BE" stroke-width="0.663311"/>
<line x1="532.996" y1="26.0312" x2="532.996" y2="360.34" stroke="#0076BE" stroke-width="0.663311"/>
<line x1="549.363" y1="26.0312" x2="549.363" y2="360.34" stroke="#0076BE" stroke-width="0.663311"/>
<line x1="565.728" y1="26.0312" x2="565.728" y2="360.34" stroke="#0076BE" stroke-width="0.663311"/>
<line x1="26.3027" y1="25.6995" x2="565.796" y2="25.6995" stroke="#0076BE" stroke-width="0.663311"/>
<line x1="26.3027" y1="42.2952" x2="565.796" y2="42.2952" stroke="#0076BE" stroke-width="0.663311"/>
<line x1="26.3027" y1="58.891" x2="565.796" y2="58.891" stroke="#0076BE" stroke-width="0.663311"/>
<line x1="26.3027" y1="75.4841" x2="565.796" y2="75.4841" stroke="#0076BE" stroke-width="0.663311"/>
<line x1="26.3027" y1="92.0799" x2="565.796" y2="92.0799" stroke="#0076BE" stroke-width="0.663311"/>
<line x1="26.3027" y1="108.676" x2="565.796" y2="108.676" stroke="#0076BE" stroke-width="0.663311"/>
<line x1="26.3027" y1="125.271" x2="565.796" y2="125.271" stroke="#0076BE" stroke-width="0.663311"/>
<line x1="26.3027" y1="141.865" x2="565.796" y2="141.865" stroke="#0076BE" stroke-width="0.663311"/>
<line x1="26.3027" y1="158.46" x2="565.796" y2="158.46" stroke="#0076BE" stroke-width="0.663311"/>
<line x1="26.3027" y1="175.056" x2="565.796" y2="175.056" stroke="#0076BE" stroke-width="0.663311"/>
<line x1="26.6344" y1="175.551" x2="26.6344" y2="324.906" stroke="#0076BE" stroke-width="0.663311"/>
<line x1="43.0016" y1="175.551" x2="43.0016" y2="324.906" stroke="#0076BE" stroke-width="0.663311"/>
<line x1="59.3707" y1="175.551" x2="59.3707" y2="324.906" stroke="#0076BE" stroke-width="0.663311"/>
<line x1="75.7379" y1="175.551" x2="75.7379" y2="324.906" stroke="#0076BE" stroke-width="0.663311"/>
<line x1="92.1031" y1="175.551" x2="92.1031" y2="324.906" stroke="#0076BE" stroke-width="0.663311"/>
<line x1="108.47" y1="175.551" x2="108.47" y2="324.906" stroke="#0076BE" stroke-width="0.663311"/>
<line x1="124.839" y1="175.551" x2="124.839" y2="324.906" stroke="#0076BE" stroke-width="0.663311"/>
<line x1="141.207" y1="175.551" x2="141.207" y2="324.906" stroke="#0076BE" stroke-width="0.663311"/>
<line x1="157.572" y1="175.551" x2="157.572" y2="324.906" stroke="#0076BE" stroke-width="0.663311"/>
<line x1="173.943" y1="175.551" x2="173.943" y2="324.906" stroke="#0076BE" stroke-width="0.663311"/>
<line x1="190.308" y1="175.551" x2="190.308" y2="324.906" stroke="#0076BE" stroke-width="0.663311"/>
<line x1="206.675" y1="175.551" x2="206.675" y2="324.906" stroke="#0076BE" stroke-width="0.663311"/>
<line x1="223.041" y1="175.551" x2="223.041" y2="324.906" stroke="#0076BE" stroke-width="0.663311"/>
<line x1="239.412" y1="175.551" x2="239.412" y2="324.906" stroke="#0076BE" stroke-width="0.663311"/>
<line x1="255.777" y1="175.551" x2="255.777" y2="324.906" stroke="#0076BE" stroke-width="0.663311"/>
<line x1="255.777" y1="175.551" x2="255.777" y2="324.906" stroke="#0076BE" stroke-width="0.663311"/>
<line x1="272.146" y1="175.551" x2="272.146" y2="324.906" stroke="#0076BE" stroke-width="0.663311"/>
<line x1="288.513" y1="175.551" x2="288.513" y2="324.906" stroke="#0076BE" stroke-width="0.663311"/>
<line x1="304.88" y1="175.551" x2="304.88" y2="324.906" stroke="#0076BE" stroke-width="0.663311"/>
<line x1="321.246" y1="175.551" x2="321.246" y2="324.906" stroke="#0076BE" stroke-width="0.663311"/>
<line x1="337.613" y1="175.551" x2="337.613" y2="324.906" stroke="#0076BE" stroke-width="0.663311"/>
<line x1="353.982" y1="175.551" x2="353.982" y2="324.906" stroke="#0076BE" stroke-width="0.663311"/>
<line x1="370.349" y1="175.551" x2="370.349" y2="324.906" stroke="#0076BE" stroke-width="0.663311"/>
<line x1="386.716" y1="175.551" x2="386.716" y2="324.906" stroke="#0076BE" stroke-width="0.663311"/>
<line x1="403.086" y1="175.551" x2="403.086" y2="324.906" stroke="#0076BE" stroke-width="0.663311"/>
<line x1="419.451" y1="175.551" x2="419.451" y2="324.906" stroke="#0076BE" stroke-width="0.663311"/>
<line x1="26.3027" y1="175.219" x2="565.796" y2="175.219" stroke="#0076BE" stroke-width="0.663311"/>
<line x1="26.3027" y1="191.815" x2="565.796" y2="191.815" stroke="#0076BE" stroke-width="0.663311"/>
<line x1="26.3027" y1="208.411" x2="565.796" y2="208.411" stroke="#0076BE" stroke-width="0.663311"/>
<line x1="26.3027" y1="225.004" x2="565.796" y2="225.004" stroke="#0076BE" stroke-width="0.663311"/>
<line x1="26.3027" y1="241.599" x2="565.796" y2="241.6" stroke="#0076BE" stroke-width="0.663311"/>
<line x1="26.3027" y1="258.195" x2="565.796" y2="258.195" stroke="#0076BE" stroke-width="0.663311"/>
<line x1="26.3027" y1="274.791" x2="565.796" y2="274.791" stroke="#0076BE" stroke-width="0.663311"/>
<line x1="26.3027" y1="291.384" x2="565.796" y2="291.384" stroke="#0076BE" stroke-width="0.663311"/>
<line x1="26.3027" y1="307.98" x2="565.796" y2="307.98" stroke="#0076BE" stroke-width="0.663311"/>
<line x1="26.3027" y1="324.576" x2="565.796" y2="324.576" stroke="#0076BE" stroke-width="0.663311"/>
<line x1="26.6344" y1="325.073" x2="26.6344" y2="357.687" stroke="#0076BE" stroke-width="0.663311"/>
<line x1="43.0016" y1="325.073" x2="43.0016" y2="357.687" stroke="#0076BE" stroke-width="0.663311"/>
<line x1="59.3707" y1="325.073" x2="59.3707" y2="357.687" stroke="#0076BE" stroke-width="0.663311"/>
<line x1="75.7379" y1="325.073" x2="75.7379" y2="357.687" stroke="#0076BE" stroke-width="0.663311"/>
<line x1="92.1051" y1="325.073" x2="92.1051" y2="357.687" stroke="#0076BE" stroke-width="0.663311"/>
<line x1="108.474" y1="325.073" x2="108.474" y2="357.687" stroke="#0076BE" stroke-width="0.663311"/>
<line x1="124.839" y1="325.073" x2="124.839" y2="357.687" stroke="#0076BE" stroke-width="0.663311"/>
<line x1="141.207" y1="325.073" x2="141.207" y2="357.687" stroke="#0076BE" stroke-width="0.663311"/>
<line x1="157.572" y1="325.073" x2="157.572" y2="357.687" stroke="#0076BE" stroke-width="0.663311"/>
<line x1="173.943" y1="325.073" x2="173.943" y2="357.687" stroke="#0076BE" stroke-width="0.663311"/>
<line x1="190.308" y1="325.073" x2="190.308" y2="357.687" stroke="#0076BE" stroke-width="0.663311"/>
<line x1="206.675" y1="325.073" x2="206.675" y2="357.687" stroke="#0076BE" stroke-width="0.663311"/>
<line x1="223.045" y1="325.073" x2="223.045" y2="357.687" stroke="#0076BE" stroke-width="0.663311"/>
<line x1="239.412" y1="325.073" x2="239.412" y2="357.687" stroke="#0076BE" stroke-width="0.663311"/>
<line x1="255.775" y1="325.073" x2="255.775" y2="357.687" stroke="#0076BE" stroke-width="0.663311"/>
<line x1="255.777" y1="325.073" x2="255.777" y2="357.687" stroke="#0076BE" stroke-width="0.663311"/>
<line x1="272.146" y1="325.073" x2="272.146" y2="357.687" stroke="#0076BE" stroke-width="0.663311"/>
<line x1="288.513" y1="325.073" x2="288.513" y2="357.687" stroke="#0076BE" stroke-width="0.663311"/>
<line x1="304.88" y1="325.073" x2="304.88" y2="357.687" stroke="#0076BE" stroke-width="0.663311"/>
<line x1="321.248" y1="325.073" x2="321.248" y2="357.687" stroke="#0076BE" stroke-width="0.663311"/>
<line x1="337.617" y1="325.073" x2="337.617" y2="357.687" stroke="#0076BE" stroke-width="0.663311"/>
<line x1="353.982" y1="325.073" x2="353.982" y2="357.687" stroke="#0076BE" stroke-width="0.663311"/>
<line x1="370.349" y1="325.073" x2="370.349" y2="357.687" stroke="#0076BE" stroke-width="0.663311"/>
<line x1="386.716" y1="325.073" x2="386.716" y2="357.687" stroke="#0076BE" stroke-width="0.663311"/>
<line x1="403.086" y1="325.073" x2="403.086" y2="357.687" stroke="#0076BE" stroke-width="0.663311"/>
<line x1="419.451" y1="325.073" x2="419.451" y2="357.687" stroke="#0076BE" stroke-width="0.663311"/>
<line x1="26.3027" y1="324.741" x2="565.796" y2="324.741" stroke="#0076BE" stroke-width="0.663311"/>
<line x1="26.3027" y1="341.337" x2="565.796" y2="341.337" stroke="#0076BE" stroke-width="0.663311"/>
<line x1="26.3027" y1="357.933" x2="565.796" y2="357.933" stroke="#0076BE" stroke-width="0.663311"/>
<rect x="581.693" y="307.275" width="17.2637" height="43.7785" fill="#0076BE"/>
<line x1="590.027" y1="377.586" x2="561.451" y2="377.586" stroke="#0076BE" stroke-width="2.65324"/>
<line x1="591.048" y1="307.275" x2="591.048" y2="263.497" stroke="#0076BE" stroke-width="2.65324" stroke-dasharray="5.31 5.31"/>
<line x1="589.567" y1="337.787" x2="589.567" y2="378.913" stroke="#0076BE" stroke-width="2.65324"/>
<rect x="0.650391" y="49.9103" width="17.2637" height="43.7785" fill="#0076BE"/>
<rect x="26.6016" y="384.219" width="13.2662" height="56.9703" transform="rotate(-90 26.6016 384.219)" fill="#0076BE"/>
<rect x="18.875" y="304.622" width="17.2637" height="43.7785" transform="rotate(180 18.875 304.622)" fill="#0076BE"/>
<line x1="9.68119" y1="60.5233" x2="9.68119" y2="6.13181" stroke="#0076BE" stroke-width="2.65324"/>
<line x1="36.3711" y1="377.586" x2="7.79525" y2="377.586" stroke="#0076BE" stroke-width="2.65324"/>
<line x1="8.82422" y1="7.45844" x2="20.6199" y2="7.45844" stroke="#0076BE" stroke-width="2.65324"/>
<line x1="20.6211" y1="7.45844" x2="52.0764" y2="7.45844" stroke="#0076BE" stroke-width="2.65324" stroke-dasharray="5.31 5.31"/>
<line x1="146.131" y1="6.13184" x2="319.135" y2="6.13184" stroke="#0076BE" stroke-width="2.65324" stroke-dasharray="11.94 11.94"/>
<line x1="311.271" y1="377.586" x2="535.39" y2="377.586" stroke="#0076BE" stroke-width="2.65324" stroke-dasharray="9.29 9.29"/>
<line x1="10.0406" y1="377.586" x2="10.0406" y2="301.969" stroke="#0076BE" stroke-width="2.65324" stroke-dasharray="5.31 5.31"/>
<line x1="8.57272" y1="73.7896" x2="8.57271" y2="126.854" stroke="#0076BE" stroke-width="2.65324" stroke-dasharray="5.31 5.31"/>
<rect x="462.748" y="14.0915" width="13.2662" height="56.9703" transform="rotate(-90 462.748 14.0915)" fill="#0076BE"/>
<line x1="588.616" y1="6.13184" x2="588.616" y2="49.9104" stroke="#0076BE" stroke-width="2.65324"/>
<line x1="588.616" y1="57.8701" x2="588.616" y2="101.649" stroke="#0076BE" stroke-width="2.65324" stroke-dasharray="5.31 5.31"/>
<line x1="545.613" y1="7.45847" x2="519.663" y2="7.45847" stroke="#0076BE" stroke-width="2.65324"/>
<line x1="565.273" y1="7.45844" x2="588.865" y2="7.45845" stroke="#0076BE" stroke-width="2.65324"/>
<defs>
<linearGradient id="paint0_linear_729_1084" x1="305.307" y1="352.191" x2="299.64" y2="36.9776" gradientUnits="userSpaceOnUse">
<stop stop-color="#0076BE" stop-opacity="0.22"/>
<stop offset="1" stop-color="#2B2A2B" stop-opacity="0"/>
</linearGradient>
</defs>
</svg>
