<svg width="600" height="326" viewBox="0 0 600 326" fill="none" xmlns="http://www.w3.org/2000/svg">
<rect x="28.8407" y="24.3242" width="538.609" height="270.631" fill="url(#paint0_linear_729_1233)" stroke="#0076BE" stroke-width="5.30649"/>
<line x1="26.9606" y1="25.6508" x2="26.9606" y2="175.006" stroke="#0076BE" stroke-width="0.663311"/>
<line x1="43.3297" y1="25.6508" x2="43.3297" y2="175.006" stroke="#0076BE" stroke-width="0.663311"/>
<line x1="59.6969" y1="25.6508" x2="59.6969" y2="175.006" stroke="#0076BE" stroke-width="0.663311"/>
<line x1="76.0641" y1="25.6508" x2="76.0641" y2="175.006" stroke="#0076BE" stroke-width="0.663311"/>
<line x1="92.4293" y1="25.6508" x2="92.4293" y2="175.006" stroke="#0076BE" stroke-width="0.663311"/>
<line x1="108.796" y1="25.6508" x2="108.796" y2="175.006" stroke="#0076BE" stroke-width="0.663311"/>
<line x1="125.166" y1="25.6508" x2="125.166" y2="175.006" stroke="#0076BE" stroke-width="0.663311"/>
<line x1="141.533" y1="25.6508" x2="141.533" y2="175.006" stroke="#0076BE" stroke-width="0.663311"/>
<line x1="157.9" y1="25.6508" x2="157.9" y2="175.006" stroke="#0076BE" stroke-width="0.663311"/>
<line x1="174.269" y1="25.6508" x2="174.269" y2="175.006" stroke="#0076BE" stroke-width="0.663311"/>
<line x1="190.634" y1="25.6508" x2="190.634" y2="175.006" stroke="#0076BE" stroke-width="0.663311"/>
<line x1="207.002" y1="25.6508" x2="207.002" y2="175.006" stroke="#0076BE" stroke-width="0.663311"/>
<line x1="223.367" y1="25.6508" x2="223.367" y2="175.006" stroke="#0076BE" stroke-width="0.663311"/>
<line x1="239.738" y1="25.6508" x2="239.738" y2="175.006" stroke="#0076BE" stroke-width="0.663311"/>
<line x1="256.103" y1="25.6508" x2="256.103" y2="175.006" stroke="#0076BE" stroke-width="0.663311"/>
<line x1="256.103" y1="25.6508" x2="256.103" y2="175.006" stroke="#0076BE" stroke-width="0.663311"/>
<line x1="272.47" y1="25.6508" x2="272.47" y2="175.006" stroke="#0076BE" stroke-width="0.663311"/>
<line x1="288.839" y1="25.6508" x2="288.839" y2="175.006" stroke="#0076BE" stroke-width="0.663311"/>
<line x1="305.207" y1="25.6508" x2="305.207" y2="175.006" stroke="#0076BE" stroke-width="0.663311"/>
<line x1="321.572" y1="25.6508" x2="321.572" y2="175.006" stroke="#0076BE" stroke-width="0.663311"/>
<line x1="337.939" y1="25.6508" x2="337.939" y2="175.006" stroke="#0076BE" stroke-width="0.663311"/>
<line x1="354.308" y1="25.6508" x2="354.308" y2="175.006" stroke="#0076BE" stroke-width="0.663311"/>
<line x1="370.675" y1="25.6508" x2="370.675" y2="175.006" stroke="#0076BE" stroke-width="0.663311"/>
<line x1="387.041" y1="25.6508" x2="387.041" y2="175.006" stroke="#0076BE" stroke-width="0.663311"/>
<line x1="403.412" y1="25.6508" x2="403.412" y2="175.006" stroke="#0076BE" stroke-width="0.663311"/>
<line x1="419.777" y1="25.6508" x2="419.777" y2="175.006" stroke="#0076BE" stroke-width="0.663311"/>
<line x1="435.119" y1="25.6508" x2="435.119" y2="297.608" stroke="#0076BE" stroke-width="0.663311"/>
<line x1="451.486" y1="25.6508" x2="451.486" y2="297.608" stroke="#0076BE" stroke-width="0.663311"/>
<line x1="467.855" y1="25.6508" x2="467.855" y2="297.608" stroke="#0076BE" stroke-width="0.663311"/>
<line x1="484.222" y1="25.6508" x2="484.222" y2="297.608" stroke="#0076BE" stroke-width="0.663311"/>
<line x1="500.588" y1="25.6508" x2="500.587" y2="297.608" stroke="#0076BE" stroke-width="0.663311"/>
<line x1="516.955" y1="25.6508" x2="516.955" y2="297.608" stroke="#0076BE" stroke-width="0.663311"/>
<line x1="533.324" y1="25.6508" x2="533.324" y2="297.608" stroke="#0076BE" stroke-width="0.663311"/>
<line x1="549.691" y1="25.6508" x2="549.691" y2="297.608" stroke="#0076BE" stroke-width="0.663311"/>
<line x1="566.056" y1="25.6508" x2="566.056" y2="297.608" stroke="#0076BE" stroke-width="0.663311"/>
<line x1="26.6289" y1="25.3192" x2="566.122" y2="25.3192" stroke="#0076BE" stroke-width="0.663311"/>
<line x1="26.6289" y1="41.9149" x2="566.122" y2="41.9149" stroke="#0076BE" stroke-width="0.663311"/>
<line x1="26.6289" y1="58.5106" x2="566.122" y2="58.5106" stroke="#0076BE" stroke-width="0.663311"/>
<line x1="26.6289" y1="75.1038" x2="566.122" y2="75.1038" stroke="#0076BE" stroke-width="0.663311"/>
<line x1="26.6289" y1="91.6995" x2="566.122" y2="91.6995" stroke="#0076BE" stroke-width="0.663311"/>
<line x1="26.6289" y1="108.295" x2="566.122" y2="108.295" stroke="#0076BE" stroke-width="0.663311"/>
<line x1="26.6289" y1="124.891" x2="566.122" y2="124.891" stroke="#0076BE" stroke-width="0.663311"/>
<line x1="26.6289" y1="141.484" x2="566.122" y2="141.484" stroke="#0076BE" stroke-width="0.663311"/>
<line x1="26.6289" y1="158.08" x2="566.122" y2="158.08" stroke="#0076BE" stroke-width="0.663311"/>
<line x1="26.6289" y1="174.676" x2="566.122" y2="174.676" stroke="#0076BE" stroke-width="0.663311"/>
<line x1="26.9606" y1="175.17" x2="26.9606" y2="297.608" stroke="#0076BE" stroke-width="0.663311"/>
<line x1="43.3297" y1="175.171" x2="43.3297" y2="297.608" stroke="#0076BE" stroke-width="0.663311"/>
<line x1="59.6969" y1="175.171" x2="59.6969" y2="297.608" stroke="#0076BE" stroke-width="0.663311"/>
<line x1="76.0641" y1="175.171" x2="76.0641" y2="297.608" stroke="#0076BE" stroke-width="0.663311"/>
<line x1="92.4313" y1="175.171" x2="92.4313" y2="297.608" stroke="#0076BE" stroke-width="0.663311"/>
<line x1="108.8" y1="175.171" x2="108.8" y2="297.608" stroke="#0076BE" stroke-width="0.663311"/>
<line x1="125.166" y1="175.171" x2="125.166" y2="297.608" stroke="#0076BE" stroke-width="0.663311"/>
<line x1="141.533" y1="175.171" x2="141.533" y2="297.608" stroke="#0076BE" stroke-width="0.663311"/>
<line x1="157.9" y1="175.171" x2="157.9" y2="297.608" stroke="#0076BE" stroke-width="0.663311"/>
<line x1="174.269" y1="175.171" x2="174.269" y2="297.608" stroke="#0076BE" stroke-width="0.663311"/>
<line x1="190.634" y1="175.171" x2="190.634" y2="297.608" stroke="#0076BE" stroke-width="0.663311"/>
<line x1="207.002" y1="175.171" x2="207.002" y2="297.608" stroke="#0076BE" stroke-width="0.663311"/>
<line x1="223.371" y1="175.171" x2="223.371" y2="297.608" stroke="#0076BE" stroke-width="0.663311"/>
<line x1="239.738" y1="175.171" x2="239.738" y2="297.608" stroke="#0076BE" stroke-width="0.663311"/>
<line x1="256.101" y1="175.171" x2="256.101" y2="297.608" stroke="#0076BE" stroke-width="0.663311"/>
<line x1="256.103" y1="175.17" x2="256.103" y2="297.608" stroke="#0076BE" stroke-width="0.663311"/>
<line x1="272.47" y1="175.17" x2="272.47" y2="297.608" stroke="#0076BE" stroke-width="0.663311"/>
<line x1="288.839" y1="175.17" x2="288.839" y2="297.608" stroke="#0076BE" stroke-width="0.663311"/>
<line x1="305.207" y1="175.17" x2="305.207" y2="297.608" stroke="#0076BE" stroke-width="0.663311"/>
<line x1="321.574" y1="175.17" x2="321.574" y2="297.608" stroke="#0076BE" stroke-width="0.663311"/>
<line x1="337.943" y1="175.17" x2="337.943" y2="297.608" stroke="#0076BE" stroke-width="0.663311"/>
<line x1="354.308" y1="175.17" x2="354.308" y2="297.608" stroke="#0076BE" stroke-width="0.663311"/>
<line x1="370.675" y1="175.17" x2="370.675" y2="297.608" stroke="#0076BE" stroke-width="0.663311"/>
<line x1="387.041" y1="175.17" x2="387.041" y2="297.608" stroke="#0076BE" stroke-width="0.663311"/>
<line x1="403.412" y1="175.17" x2="403.412" y2="297.608" stroke="#0076BE" stroke-width="0.663311"/>
<line x1="419.777" y1="175.17" x2="419.777" y2="297.608" stroke="#0076BE" stroke-width="0.663311"/>
<line x1="26.6289" y1="174.839" x2="566.122" y2="174.839" stroke="#0076BE" stroke-width="0.663311"/>
<line x1="26.6289" y1="191.435" x2="566.122" y2="191.435" stroke="#0076BE" stroke-width="0.663311"/>
<line x1="26.6289" y1="208.03" x2="566.122" y2="208.03" stroke="#0076BE" stroke-width="0.663311"/>
<line x1="26.6289" y1="224.624" x2="566.122" y2="224.624" stroke="#0076BE" stroke-width="0.663311"/>
<line x1="26.6289" y1="241.219" x2="566.122" y2="241.219" stroke="#0076BE" stroke-width="0.663311"/>
<line x1="26.6289" y1="257.815" x2="566.122" y2="257.815" stroke="#0076BE" stroke-width="0.663311"/>
<line x1="26.6289" y1="274.411" x2="566.122" y2="274.411" stroke="#0076BE" stroke-width="0.663311"/>
<rect x="582.027" y="260.238" width="17.2637" height="37.1133" fill="#0076BE"/>
<line x1="590.357" y1="320.046" x2="561.782" y2="320.046" stroke="#0076BE" stroke-width="2.65324"/>
<line x1="591.378" y1="260.238" x2="591.378" y2="223.125" stroke="#0076BE" stroke-width="2.65324" stroke-dasharray="5.31 5.31"/>
<line x1="589.897" y1="286.105" x2="589.897" y2="320.969" stroke="#0076BE" stroke-width="2.65324"/>
<rect x="0.980469" y="42.0568" width="17.2637" height="37.1133" fill="#0076BE"/>
<rect x="26.9316" y="325.467" width="11.2465" height="56.9703" transform="rotate(-90 26.9316 325.467)" fill="#0076BE"/>
<rect x="19.2051" y="257.989" width="17.2637" height="37.1133" transform="rotate(180 19.2051 257.989)" fill="#0076BE"/>
<line x1="10.0113" y1="51.054" x2="10.0113" y2="4.94356" stroke="#0076BE" stroke-width="2.65324"/>
<line x1="36.7012" y1="320.046" x2="8.12533" y2="320.046" stroke="#0076BE" stroke-width="2.65324"/>
<line x1="9.1543" y1="5.86625" x2="20.95" y2="5.86625" stroke="#0076BE" stroke-width="2.65324"/>
<line x1="20.9473" y1="5.86625" x2="52.4026" y2="5.86625" stroke="#0076BE" stroke-width="2.65324" stroke-dasharray="5.31 5.31"/>
<line x1="146.463" y1="4.74155" x2="319.467" y2="4.74155" stroke="#0076BE" stroke-width="2.65324" stroke-dasharray="11.94 11.94"/>
<line x1="311.602" y1="319.642" x2="535.72" y2="319.642" stroke="#0076BE" stroke-width="2.65324" stroke-dasharray="9.29 9.29"/>
<line x1="10.3706" y1="319.844" x2="10.3706" y2="255.739" stroke="#0076BE" stroke-width="2.65324" stroke-dasharray="5.31 5.31"/>
<line x1="8.90279" y1="62.3005" x2="8.90279" y2="107.286" stroke="#0076BE" stroke-width="2.65324" stroke-dasharray="5.31 5.31"/>
<rect x="463.078" y="11.6914" width="11.2465" height="56.9703" transform="rotate(-90 463.078 11.6914)" fill="#0076BE"/>
<line x1="588.948" y1="4.94348" x2="588.948" y2="42.0568" stroke="#0076BE" stroke-width="2.65324"/>
<line x1="588.948" y1="48.8047" x2="588.948" y2="85.918" stroke="#0076BE" stroke-width="2.65324" stroke-dasharray="5.31 5.31"/>
<line x1="545.943" y1="6.2701" x2="519.993" y2="6.27011" stroke="#0076BE" stroke-width="2.65324"/>
<line x1="565.604" y1="5.86625" x2="589.195" y2="5.86625" stroke="#0076BE" stroke-width="2.65324"/>
<defs>
<linearGradient id="paint0_linear_729_1233" x1="305.639" y1="288.866" x2="301.926" y2="33.723" gradientUnits="userSpaceOnUse">
<stop stop-color="#0076BE" stop-opacity="0.22"/>
<stop offset="1" stop-color="#2B2A2B" stop-opacity="0"/>
</linearGradient>
</defs>
</svg>
