<svg width="616" height="332" viewBox="0 0 616 332" fill="none" xmlns="http://www.w3.org/2000/svg">
<rect x="29.122" y="29.8895" width="554.287" height="270.631" fill="url(#paint0_linear_729_1395)" stroke="#0076BE" stroke-width="5.30649"/>
<line x1="27.2496" y1="31.2162" x2="27.2496" y2="180.572" stroke="#0076BE" stroke-width="0.663311"/>
<line x1="44.0895" y1="31.2162" x2="44.0895" y2="180.572" stroke="#0076BE" stroke-width="0.663311"/>
<line x1="60.9254" y1="31.2162" x2="60.9254" y2="180.572" stroke="#0076BE" stroke-width="0.663311"/>
<line x1="77.7633" y1="31.2162" x2="77.7633" y2="180.572" stroke="#0076BE" stroke-width="0.663311"/>
<line x1="94.607" y1="31.2162" x2="94.607" y2="180.572" stroke="#0076BE" stroke-width="0.663311"/>
<line x1="111.447" y1="31.2162" x2="111.447" y2="180.572" stroke="#0076BE" stroke-width="0.663311"/>
<line x1="128.281" y1="31.2162" x2="128.281" y2="180.572" stroke="#0076BE" stroke-width="0.663311"/>
<line x1="145.121" y1="31.2162" x2="145.121" y2="180.572" stroke="#0076BE" stroke-width="0.663311"/>
<line x1="161.961" y1="31.2162" x2="161.961" y2="180.572" stroke="#0076BE" stroke-width="0.663311"/>
<line x1="178.8" y1="31.2162" x2="178.8" y2="180.572" stroke="#0076BE" stroke-width="0.663311"/>
<line x1="195.638" y1="31.2162" x2="195.638" y2="180.572" stroke="#0076BE" stroke-width="0.663311"/>
<line x1="212.478" y1="31.2162" x2="212.478" y2="180.572" stroke="#0076BE" stroke-width="0.663311"/>
<line x1="229.318" y1="31.2162" x2="229.318" y2="180.572" stroke="#0076BE" stroke-width="0.663311"/>
<line x1="246.158" y1="31.2162" x2="246.158" y2="180.572" stroke="#0076BE" stroke-width="0.663311"/>
<line x1="262.996" y1="31.2162" x2="262.996" y2="180.572" stroke="#0076BE" stroke-width="0.663311"/>
<line x1="263" y1="31.2162" x2="263" y2="180.572" stroke="#0076BE" stroke-width="0.663311"/>
<line x1="279.839" y1="31.2162" x2="279.839" y2="180.572" stroke="#0076BE" stroke-width="0.663311"/>
<line x1="296.677" y1="31.2162" x2="296.677" y2="180.572" stroke="#0076BE" stroke-width="0.663311"/>
<line x1="313.517" y1="31.2162" x2="313.517" y2="180.572" stroke="#0076BE" stroke-width="0.663311"/>
<line x1="330.357" y1="31.2162" x2="330.357" y2="180.572" stroke="#0076BE" stroke-width="0.663311"/>
<line x1="347.197" y1="31.2162" x2="347.197" y2="180.572" stroke="#0076BE" stroke-width="0.663311"/>
<line x1="364.035" y1="31.2162" x2="364.035" y2="180.572" stroke="#0076BE" stroke-width="0.663311"/>
<line x1="380.875" y1="31.2162" x2="380.875" y2="180.572" stroke="#0076BE" stroke-width="0.663311"/>
<line x1="397.714" y1="31.2162" x2="397.714" y2="180.572" stroke="#0076BE" stroke-width="0.663311"/>
<line x1="414.552" y1="31.2162" x2="414.552" y2="180.572" stroke="#0076BE" stroke-width="0.663311"/>
<line x1="431.39" y1="31.2162" x2="431.39" y2="180.572" stroke="#0076BE" stroke-width="0.663311"/>
<line x1="447.173" y1="31.2162" x2="447.173" y2="303.174" stroke="#0076BE" stroke-width="0.663311"/>
<line x1="464.013" y1="31.2162" x2="464.013" y2="303.174" stroke="#0076BE" stroke-width="0.663311"/>
<line x1="480.849" y1="31.2162" x2="480.849" y2="303.174" stroke="#0076BE" stroke-width="0.663311"/>
<line x1="497.687" y1="31.2162" x2="497.687" y2="303.174" stroke="#0076BE" stroke-width="0.663311"/>
<line x1="514.531" y1="31.2162" x2="514.531" y2="303.174" stroke="#0076BE" stroke-width="0.663311"/>
<line x1="531.371" y1="31.2162" x2="531.371" y2="303.174" stroke="#0076BE" stroke-width="0.663311"/>
<line x1="548.209" y1="31.2162" x2="548.209" y2="303.174" stroke="#0076BE" stroke-width="0.663311"/>
<line x1="565.048" y1="31.2162" x2="565.048" y2="303.174" stroke="#0076BE" stroke-width="0.663311"/>
<line x1="581.888" y1="31.2162" x2="581.888" y2="303.174" stroke="#0076BE" stroke-width="0.663311"/>
<line x1="26.918" y1="30.8845" x2="581.962" y2="30.8845" stroke="#0076BE" stroke-width="0.663311"/>
<line x1="26.918" y1="47.4802" x2="581.962" y2="47.4802" stroke="#0076BE" stroke-width="0.663311"/>
<line x1="26.918" y1="64.0759" x2="581.962" y2="64.0759" stroke="#0076BE" stroke-width="0.663311"/>
<line x1="26.918" y1="80.6691" x2="581.962" y2="80.6691" stroke="#0076BE" stroke-width="0.663311"/>
<line x1="26.918" y1="97.2648" x2="581.962" y2="97.2648" stroke="#0076BE" stroke-width="0.663311"/>
<line x1="26.918" y1="113.86" x2="581.962" y2="113.86" stroke="#0076BE" stroke-width="0.663311"/>
<line x1="26.918" y1="130.456" x2="581.962" y2="130.456" stroke="#0076BE" stroke-width="0.663311"/>
<line x1="26.918" y1="147.049" x2="581.962" y2="147.049" stroke="#0076BE" stroke-width="0.663311"/>
<line x1="26.918" y1="163.645" x2="581.962" y2="163.645" stroke="#0076BE" stroke-width="0.663311"/>
<line x1="26.918" y1="180.241" x2="581.962" y2="180.241" stroke="#0076BE" stroke-width="0.663311"/>
<line x1="27.2496" y1="180.736" x2="27.2496" y2="303.174" stroke="#0076BE" stroke-width="0.663311"/>
<line x1="44.0895" y1="180.736" x2="44.0895" y2="303.174" stroke="#0076BE" stroke-width="0.663311"/>
<line x1="60.9254" y1="180.736" x2="60.9254" y2="303.174" stroke="#0076BE" stroke-width="0.663311"/>
<line x1="77.7633" y1="180.736" x2="77.7633" y2="303.174" stroke="#0076BE" stroke-width="0.663311"/>
<line x1="94.607" y1="180.736" x2="94.607" y2="303.174" stroke="#0076BE" stroke-width="0.663311"/>
<line x1="111.447" y1="180.736" x2="111.447" y2="303.174" stroke="#0076BE" stroke-width="0.663311"/>
<line x1="128.281" y1="180.736" x2="128.281" y2="303.174" stroke="#0076BE" stroke-width="0.663311"/>
<line x1="145.121" y1="180.736" x2="145.121" y2="303.174" stroke="#0076BE" stroke-width="0.663311"/>
<line x1="161.961" y1="180.736" x2="161.961" y2="303.174" stroke="#0076BE" stroke-width="0.663311"/>
<line x1="178.8" y1="180.736" x2="178.8" y2="303.174" stroke="#0076BE" stroke-width="0.663311"/>
<line x1="195.638" y1="180.736" x2="195.638" y2="303.174" stroke="#0076BE" stroke-width="0.663311"/>
<line x1="212.478" y1="180.736" x2="212.478" y2="303.174" stroke="#0076BE" stroke-width="0.663311"/>
<line x1="229.318" y1="180.736" x2="229.318" y2="303.174" stroke="#0076BE" stroke-width="0.663311"/>
<line x1="246.158" y1="180.736" x2="246.158" y2="303.174" stroke="#0076BE" stroke-width="0.663311"/>
<line x1="262.996" y1="180.736" x2="262.996" y2="303.174" stroke="#0076BE" stroke-width="0.663311"/>
<line x1="263" y1="180.736" x2="263" y2="303.174" stroke="#0076BE" stroke-width="0.663311"/>
<line x1="279.839" y1="180.736" x2="279.839" y2="303.174" stroke="#0076BE" stroke-width="0.663311"/>
<line x1="296.677" y1="180.736" x2="296.677" y2="303.174" stroke="#0076BE" stroke-width="0.663311"/>
<line x1="313.517" y1="180.736" x2="313.517" y2="303.174" stroke="#0076BE" stroke-width="0.663311"/>
<line x1="330.357" y1="180.736" x2="330.357" y2="303.174" stroke="#0076BE" stroke-width="0.663311"/>
<line x1="347.197" y1="180.736" x2="347.197" y2="303.174" stroke="#0076BE" stroke-width="0.663311"/>
<line x1="364.035" y1="180.736" x2="364.035" y2="303.174" stroke="#0076BE" stroke-width="0.663311"/>
<line x1="380.875" y1="180.736" x2="380.875" y2="303.174" stroke="#0076BE" stroke-width="0.663311"/>
<line x1="397.714" y1="180.736" x2="397.714" y2="303.174" stroke="#0076BE" stroke-width="0.663311"/>
<line x1="414.552" y1="180.736" x2="414.552" y2="303.174" stroke="#0076BE" stroke-width="0.663311"/>
<line x1="431.39" y1="180.736" x2="431.39" y2="303.174" stroke="#0076BE" stroke-width="0.663311"/>
<line x1="26.918" y1="180.404" x2="581.962" y2="180.404" stroke="#0076BE" stroke-width="0.663311"/>
<line x1="26.918" y1="197" x2="581.962" y2="197" stroke="#0076BE" stroke-width="0.663311"/>
<line x1="26.918" y1="213.596" x2="581.962" y2="213.596" stroke="#0076BE" stroke-width="0.663311"/>
<line x1="26.918" y1="230.189" x2="581.962" y2="230.189" stroke="#0076BE" stroke-width="0.663311"/>
<line x1="26.918" y1="246.784" x2="581.962" y2="246.784" stroke="#0076BE" stroke-width="0.663311"/>
<line x1="26.918" y1="263.38" x2="581.962" y2="263.38" stroke="#0076BE" stroke-width="0.663311"/>
<line x1="26.918" y1="279.976" x2="581.962" y2="279.976" stroke="#0076BE" stroke-width="0.663311"/>
<rect x="598.326" y="265.803" width="17.2461" height="43.7785" fill="#0076BE"/>
<line x1="606.902" y1="325.612" x2="577.503" y2="325.612" stroke="#0076BE" stroke-width="2.65324"/>
<line x1="607.994" y1="265.803" x2="607.994" y2="228.69" stroke="#0076BE" stroke-width="2.65324" stroke-dasharray="5.31 5.31"/>
<line x1="606.393" y1="291.669" x2="606.393" y2="326.533" stroke="#0076BE" stroke-width="2.65324"/>
<rect x="0.537109" y="47.6227" width="17.2461" height="43.7785" fill="#0076BE"/>
<rect x="27.2363" y="331.033" width="11.2465" height="58.6124" transform="rotate(-90 27.2363 331.033)" fill="#0076BE"/>
<rect x="19.2852" y="263.553" width="17.2461" height="43.7785" transform="rotate(180 19.2852 263.553)" fill="#0076BE"/>
<line x1="9.86869" y1="56.6188" x2="9.86869" y2="10.5083" stroke="#0076BE" stroke-width="2.65324"/>
<line x1="37.2871" y1="325.612" x2="7.88758" y2="325.612" stroke="#0076BE" stroke-width="2.65324"/>
<line x1="8.94141" y1="11.4307" x2="21.0771" y2="11.4307" stroke="#0076BE" stroke-width="2.65324"/>
<line x1="21.082" y1="11.4307" x2="53.444" y2="11.4307" stroke="#0076BE" stroke-width="2.65324" stroke-dasharray="5.31 5.31"/>
<line x1="150.213" y1="10.3066" x2="328.204" y2="10.3066" stroke="#0076BE" stroke-width="2.65324" stroke-dasharray="11.94 11.94"/>
<line x1="320.113" y1="325.208" x2="550.692" y2="325.208" stroke="#0076BE" stroke-width="2.65324" stroke-dasharray="9.29 9.29"/>
<line x1="10.2339" y1="325.41" x2="10.2339" y2="261.305" stroke="#0076BE" stroke-width="2.65324" stroke-dasharray="5.31 5.31"/>
<line x1="8.65084" y1="67.8666" x2="8.65084" y2="112.852" stroke="#0076BE" stroke-width="2.65324" stroke-dasharray="5.31 5.31"/>
<rect x="475.955" y="17.2556" width="17.2461" height="43.7785" transform="rotate(-90 475.955 17.2556)" fill="#0076BE"/>
<line x1="605.415" y1="10.5085" x2="605.414" y2="47.6218" stroke="#0076BE" stroke-width="2.65324"/>
<line x1="605.415" y1="54.37" x2="605.414" y2="91.4833" stroke="#0076BE" stroke-width="2.65324" stroke-dasharray="5.31 5.31"/>
<line x1="561.209" y1="11.8352" x2="534.51" y2="11.8352" stroke="#0076BE" stroke-width="2.65324"/>
<line x1="581.434" y1="11.4308" x2="605.705" y2="11.4308" stroke="#0076BE" stroke-width="2.65324"/>
<defs>
<linearGradient id="paint0_linear_729_1395" x1="313.975" y1="294.431" x2="310.367" y2="39.2852" gradientUnits="userSpaceOnUse">
<stop stop-color="#0076BE" stop-opacity="0.22"/>
<stop offset="1" stop-color="#2B2A2B" stop-opacity="0"/>
</linearGradient>
</defs>
</svg>
