<svg width="998" height="206" viewBox="0 0 998 206" fill="none" xmlns="http://www.w3.org/2000/svg">
<rect x="23.8779" y="18.8495" width="949.862" height="160.521" stroke="#0076BE" stroke-width="5.30649"/>
<line x1="22.8863" y1="21.5027" x2="22.8863" y2="176.718" stroke="#0076BE" stroke-width="0.663311"/>
<line x1="40.1324" y1="21.5027" x2="40.1324" y2="176.718" stroke="#0076BE" stroke-width="0.663311"/>
<line x1="57.3785" y1="21.5027" x2="57.3785" y2="176.718" stroke="#0076BE" stroke-width="0.663311"/>
<line x1="74.6246" y1="21.5027" x2="74.6246" y2="176.718" stroke="#0076BE" stroke-width="0.663311"/>
<line x1="91.8688" y1="21.5027" x2="91.8688" y2="176.718" stroke="#0076BE" stroke-width="0.663311"/>
<line x1="109.115" y1="21.5027" x2="109.115" y2="176.718" stroke="#0076BE" stroke-width="0.663311"/>
<line x1="126.365" y1="21.5027" x2="126.365" y2="176.718" stroke="#0076BE" stroke-width="0.663311"/>
<line x1="143.611" y1="21.5027" x2="143.611" y2="176.718" stroke="#0076BE" stroke-width="0.663311"/>
<line x1="160.857" y1="21.5027" x2="160.857" y2="176.718" stroke="#0076BE" stroke-width="0.663311"/>
<line x1="178.103" y1="21.5027" x2="178.103" y2="176.718" stroke="#0076BE" stroke-width="0.663311"/>
<line x1="195.347" y1="21.5027" x2="195.347" y2="176.718" stroke="#0076BE" stroke-width="0.663311"/>
<line x1="212.593" y1="21.5027" x2="212.593" y2="176.718" stroke="#0076BE" stroke-width="0.663311"/>
<line x1="229.839" y1="21.5027" x2="229.839" y2="176.718" stroke="#0076BE" stroke-width="0.663311"/>
<line x1="247.086" y1="21.5027" x2="247.086" y2="176.718" stroke="#0076BE" stroke-width="0.663311"/>
<line x1="264.332" y1="21.5027" x2="264.332" y2="176.718" stroke="#0076BE" stroke-width="0.663311"/>
<line x1="264.326" y1="21.5027" x2="264.326" y2="176.717" stroke="#0076BE" stroke-width="0.663311"/>
<line x1="281.572" y1="21.5027" x2="281.572" y2="176.717" stroke="#0076BE" stroke-width="0.663311"/>
<line x1="298.818" y1="21.5027" x2="298.818" y2="176.717" stroke="#0076BE" stroke-width="0.663311"/>
<line x1="316.062" y1="21.5027" x2="316.062" y2="176.717" stroke="#0076BE" stroke-width="0.663311"/>
<line x1="333.308" y1="21.5027" x2="333.308" y2="176.717" stroke="#0076BE" stroke-width="0.663311"/>
<line x1="350.554" y1="21.5027" x2="350.554" y2="176.717" stroke="#0076BE" stroke-width="0.663311"/>
<line x1="367.804" y1="21.5027" x2="367.804" y2="176.717" stroke="#0076BE" stroke-width="0.663311"/>
<line x1="385.05" y1="21.5027" x2="385.05" y2="176.717" stroke="#0076BE" stroke-width="0.663311"/>
<line x1="402.296" y1="21.5027" x2="402.296" y2="176.717" stroke="#0076BE" stroke-width="0.663311"/>
<line x1="419.541" y1="21.5027" x2="419.541" y2="176.717" stroke="#0076BE" stroke-width="0.663311"/>
<line x1="436.787" y1="21.5027" x2="436.787" y2="176.717" stroke="#0076BE" stroke-width="0.663311"/>
<line x1="454.033" y1="21.5027" x2="454.033" y2="176.717" stroke="#0076BE" stroke-width="0.663311"/>
<line x1="471.279" y1="21.5027" x2="471.279" y2="176.717" stroke="#0076BE" stroke-width="0.663311"/>
<line x1="488.525" y1="21.5027" x2="488.525" y2="176.717" stroke="#0076BE" stroke-width="0.663311"/>
<line x1="505.771" y1="21.5027" x2="505.771" y2="176.717" stroke="#0076BE" stroke-width="0.663311"/>
<line x1="505.775" y1="21.5027" x2="505.775" y2="176.717" stroke="#0076BE" stroke-width="0.663311"/>
<line x1="523.021" y1="21.5027" x2="523.021" y2="176.717" stroke="#0076BE" stroke-width="0.663311"/>
<line x1="540.267" y1="21.5027" x2="540.267" y2="176.717" stroke="#0076BE" stroke-width="0.663311"/>
<line x1="557.511" y1="21.5027" x2="557.511" y2="176.717" stroke="#0076BE" stroke-width="0.663311"/>
<line x1="574.757" y1="21.5027" x2="574.757" y2="176.717" stroke="#0076BE" stroke-width="0.663311"/>
<line x1="592.004" y1="21.5027" x2="592.004" y2="176.717" stroke="#0076BE" stroke-width="0.663311"/>
<line x1="609.252" y1="21.5027" x2="609.252" y2="176.717" stroke="#0076BE" stroke-width="0.663311"/>
<line x1="626.5" y1="21.5027" x2="626.5" y2="176.717" stroke="#0076BE" stroke-width="0.663311"/>
<line x1="643.746" y1="21.5027" x2="643.746" y2="176.717" stroke="#0076BE" stroke-width="0.663311"/>
<line x1="660.99" y1="21.5027" x2="660.99" y2="176.717" stroke="#0076BE" stroke-width="0.663311"/>
<line x1="678.236" y1="21.5027" x2="678.236" y2="176.717" stroke="#0076BE" stroke-width="0.663311"/>
<line x1="695.482" y1="21.5027" x2="695.482" y2="176.717" stroke="#0076BE" stroke-width="0.663311"/>
<line x1="712.728" y1="21.5027" x2="712.728" y2="176.717" stroke="#0076BE" stroke-width="0.663311"/>
<line x1="729.974" y1="21.5027" x2="729.974" y2="176.717" stroke="#0076BE" stroke-width="0.663311"/>
<line x1="747.22" y1="21.5027" x2="747.22" y2="176.717" stroke="#0076BE" stroke-width="0.663311"/>
<line x1="747.218" y1="21.5027" x2="747.218" y2="176.717" stroke="#0076BE" stroke-width="0.663311"/>
<line x1="764.464" y1="21.5027" x2="764.464" y2="176.717" stroke="#0076BE" stroke-width="0.663311"/>
<line x1="781.711" y1="21.5027" x2="781.711" y2="176.717" stroke="#0076BE" stroke-width="0.663311"/>
<line x1="798.955" y1="21.5027" x2="798.955" y2="176.717" stroke="#0076BE" stroke-width="0.663311"/>
<line x1="816.201" y1="21.5027" x2="816.201" y2="176.717" stroke="#0076BE" stroke-width="0.663311"/>
<line x1="833.447" y1="21.5027" x2="833.447" y2="176.717" stroke="#0076BE" stroke-width="0.663311"/>
<line x1="850.695" y1="21.5027" x2="850.695" y2="176.717" stroke="#0076BE" stroke-width="0.663311"/>
<line x1="867.943" y1="21.5027" x2="867.943" y2="176.717" stroke="#0076BE" stroke-width="0.663311"/>
<line x1="885.189" y1="21.5027" x2="885.189" y2="176.717" stroke="#0076BE" stroke-width="0.663311"/>
<line x1="902.433" y1="21.5027" x2="902.433" y2="176.717" stroke="#0076BE" stroke-width="0.663311"/>
<line x1="919.679" y1="21.5027" x2="919.679" y2="176.717" stroke="#0076BE" stroke-width="0.663311"/>
<line x1="936.925" y1="21.5027" x2="936.925" y2="176.717" stroke="#0076BE" stroke-width="0.663311"/>
<line x1="954.171" y1="21.5027" x2="954.172" y2="176.717" stroke="#0076BE" stroke-width="0.663311"/>
<line x1="971.418" y1="21.5027" x2="971.418" y2="176.717" stroke="#0076BE" stroke-width="0.663311"/>
<line x1="22.5547" y1="21.1711" x2="971.09" y2="21.1711" stroke="#0076BE" stroke-width="0.663311"/>
<line x1="22.5547" y1="38.4172" x2="971.09" y2="38.4172" stroke="#0076BE" stroke-width="0.663311"/>
<line x1="22.5547" y1="55.6633" x2="971.09" y2="55.6633" stroke="#0076BE" stroke-width="0.663311"/>
<line x1="22.5547" y1="72.9093" x2="971.09" y2="72.9093" stroke="#0076BE" stroke-width="0.663311"/>
<line x1="22.5547" y1="90.1554" x2="971.09" y2="90.1554" stroke="#0076BE" stroke-width="0.663311"/>
<line x1="22.5547" y1="107.402" x2="971.09" y2="107.402" stroke="#0076BE" stroke-width="0.663311"/>
<line x1="22.5547" y1="124.648" x2="971.09" y2="124.648" stroke="#0076BE" stroke-width="0.663311"/>
<line x1="22.5547" y1="141.894" x2="971.09" y2="141.894" stroke="#0076BE" stroke-width="0.663311"/>
<line x1="22.5547" y1="159.14" x2="971.09" y2="159.14" stroke="#0076BE" stroke-width="0.663311"/>
<line x1="22.5547" y1="176.386" x2="971.09" y2="176.386" stroke="#0076BE" stroke-width="0.663311"/>
<line x1="6.63131" y1="124.979" x2="6.63131" y2="199.27" stroke="#0076BE" stroke-width="2.65324"/>
<line x1="5.30469" y1="199.27" x2="62.3494" y2="199.27" stroke="#0076BE" stroke-width="2.65324"/>
<line x1="860.977" y1="199.27" x2="990.986" y2="199.27" stroke="#0076BE" stroke-width="2.65324"/>
<line x1="990.986" y1="200.597" x2="990.986" y2="143.552" stroke="#0076BE" stroke-width="2.65324"/>
<line x1="6.63477" y1="1.60343" x2="91.5386" y2="1.60343" stroke="#0076BE" stroke-width="2.65324" stroke-dasharray="10.61 10.61"/>
<line x1="397.99" y1="199.27" x2="482.894" y2="199.27" stroke="#0076BE" stroke-width="2.65324" stroke-dasharray="10.61 10.61"/>
<line x1="676.58" y1="1.60343" x2="761.484" y2="1.60343" stroke="#0076BE" stroke-width="2.65324" stroke-dasharray="10.61 10.61"/>
<line x1="990.989" y1="2.93005" x2="990.989" y2="98.4469" stroke="#0076BE" stroke-width="2.65324" stroke-dasharray="10.61 10.61"/>
<line x1="6.63432" y1="42.7288" x2="6.63432" y2="0.276848" stroke="#0076BE" stroke-width="2.65324" stroke-dasharray="10.61 10.61"/>
<line x1="62.3535" y1="199.27" x2="147.257" y2="199.27" stroke="#0076BE" stroke-width="2.65324" stroke-dasharray="10.61 10.61"/>
<line x1="990.99" y1="143.552" x2="990.99" y2="58.6482" stroke="#0076BE" stroke-width="2.65324" stroke-dasharray="10.61 10.61"/>
<rect x="900.775" y="205.903" width="13.2662" height="43.7785" transform="rotate(-90 900.775 205.903)" fill="#0076BE"/>
<rect y="22.8295" width="13.2662" height="43.7785" fill="#0076BE"/>
<rect x="984.354" y="74.5677" width="13.2662" height="43.7785" fill="#0076BE"/>
<line x1="940.576" y1="1.60355" x2="992.314" y2="1.60355" stroke="#0076BE" stroke-width="2.65324"/>
<line x1="371.455" y1="1.60355" x2="526.67" y2="1.60355" stroke="#0076BE" stroke-width="2.65324"/>
</svg>
