<svg width="616" height="332" viewBox="0 0 616 332" fill="none" xmlns="http://www.w3.org/2000/svg">
<rect x="29.4501" y="30.1376" width="554.287" height="270.631" fill="url(#paint0_linear_729_1508)" stroke="#0076BE" stroke-width="5.30649"/>
<line x1="27.5836" y1="31.4644" x2="27.5836" y2="180.82" stroke="#0076BE" stroke-width="0.663311"/>
<line x1="44.4235" y1="31.4644" x2="44.4234" y2="180.82" stroke="#0076BE" stroke-width="0.663311"/>
<line x1="61.2594" y1="31.4644" x2="61.2594" y2="180.82" stroke="#0076BE" stroke-width="0.663311"/>
<line x1="78.0973" y1="31.4644" x2="78.0973" y2="180.82" stroke="#0076BE" stroke-width="0.663311"/>
<line x1="94.941" y1="31.4644" x2="94.941" y2="180.82" stroke="#0076BE" stroke-width="0.663311"/>
<line x1="111.781" y1="31.4644" x2="111.781" y2="180.82" stroke="#0076BE" stroke-width="0.663311"/>
<line x1="128.615" y1="31.4644" x2="128.615" y2="180.82" stroke="#0076BE" stroke-width="0.663311"/>
<line x1="145.455" y1="31.4644" x2="145.455" y2="180.82" stroke="#0076BE" stroke-width="0.663311"/>
<line x1="162.295" y1="31.4644" x2="162.295" y2="180.82" stroke="#0076BE" stroke-width="0.663311"/>
<line x1="179.134" y1="31.4644" x2="179.134" y2="180.82" stroke="#0076BE" stroke-width="0.663311"/>
<line x1="195.972" y1="31.4644" x2="195.972" y2="180.82" stroke="#0076BE" stroke-width="0.663311"/>
<line x1="212.812" y1="31.4644" x2="212.812" y2="180.82" stroke="#0076BE" stroke-width="0.663311"/>
<line x1="229.652" y1="31.4644" x2="229.652" y2="180.82" stroke="#0076BE" stroke-width="0.663311"/>
<line x1="246.492" y1="31.4644" x2="246.492" y2="180.82" stroke="#0076BE" stroke-width="0.663311"/>
<line x1="263.33" y1="31.4644" x2="263.33" y2="180.82" stroke="#0076BE" stroke-width="0.663311"/>
<line x1="263.332" y1="31.4644" x2="263.332" y2="180.82" stroke="#0076BE" stroke-width="0.663311"/>
<line x1="280.171" y1="31.4644" x2="280.171" y2="180.82" stroke="#0076BE" stroke-width="0.663311"/>
<line x1="297.009" y1="31.4644" x2="297.009" y2="180.82" stroke="#0076BE" stroke-width="0.663311"/>
<line x1="313.849" y1="31.4644" x2="313.849" y2="180.82" stroke="#0076BE" stroke-width="0.663311"/>
<line x1="330.689" y1="31.4644" x2="330.689" y2="180.82" stroke="#0076BE" stroke-width="0.663311"/>
<line x1="347.529" y1="31.4644" x2="347.529" y2="180.82" stroke="#0076BE" stroke-width="0.663311"/>
<line x1="364.367" y1="31.4644" x2="364.367" y2="180.82" stroke="#0076BE" stroke-width="0.663311"/>
<line x1="381.207" y1="31.4644" x2="381.207" y2="180.82" stroke="#0076BE" stroke-width="0.663311"/>
<line x1="398.046" y1="31.4644" x2="398.046" y2="180.82" stroke="#0076BE" stroke-width="0.663311"/>
<line x1="414.884" y1="31.4644" x2="414.884" y2="180.82" stroke="#0076BE" stroke-width="0.663311"/>
<line x1="431.722" y1="31.4644" x2="431.722" y2="180.82" stroke="#0076BE" stroke-width="0.663311"/>
<line x1="447.505" y1="31.4644" x2="447.505" y2="303.422" stroke="#0076BE" stroke-width="0.663311"/>
<line x1="464.345" y1="31.4644" x2="464.345" y2="303.422" stroke="#0076BE" stroke-width="0.663311"/>
<line x1="481.181" y1="31.4644" x2="481.181" y2="303.422" stroke="#0076BE" stroke-width="0.663311"/>
<line x1="498.021" y1="31.4644" x2="498.021" y2="303.422" stroke="#0076BE" stroke-width="0.663311"/>
<line x1="514.863" y1="31.4644" x2="514.863" y2="303.422" stroke="#0076BE" stroke-width="0.663311"/>
<line x1="531.703" y1="31.4644" x2="531.703" y2="303.422" stroke="#0076BE" stroke-width="0.663311"/>
<line x1="548.541" y1="31.4644" x2="548.541" y2="303.422" stroke="#0076BE" stroke-width="0.663311"/>
<line x1="565.38" y1="31.4644" x2="565.38" y2="303.422" stroke="#0076BE" stroke-width="0.663311"/>
<line x1="582.22" y1="31.4644" x2="582.22" y2="303.422" stroke="#0076BE" stroke-width="0.663311"/>
<line x1="27.252" y1="31.1327" x2="582.296" y2="31.1327" stroke="#0076BE" stroke-width="0.663311"/>
<line x1="27.252" y1="47.7284" x2="582.296" y2="47.7284" stroke="#0076BE" stroke-width="0.663311"/>
<line x1="27.252" y1="64.3241" x2="582.296" y2="64.3241" stroke="#0076BE" stroke-width="0.663311"/>
<line x1="27.252" y1="80.9172" x2="582.296" y2="80.9172" stroke="#0076BE" stroke-width="0.663311"/>
<line x1="27.252" y1="97.5129" x2="582.296" y2="97.5129" stroke="#0076BE" stroke-width="0.663311"/>
<line x1="27.252" y1="114.109" x2="582.296" y2="114.109" stroke="#0076BE" stroke-width="0.663311"/>
<line x1="27.252" y1="130.705" x2="582.296" y2="130.705" stroke="#0076BE" stroke-width="0.663311"/>
<line x1="27.252" y1="147.298" x2="582.296" y2="147.298" stroke="#0076BE" stroke-width="0.663311"/>
<line x1="27.252" y1="163.893" x2="582.296" y2="163.893" stroke="#0076BE" stroke-width="0.663311"/>
<line x1="27.252" y1="180.489" x2="582.296" y2="180.489" stroke="#0076BE" stroke-width="0.663311"/>
<line x1="27.5836" y1="180.984" x2="27.5836" y2="303.422" stroke="#0076BE" stroke-width="0.663311"/>
<line x1="44.4235" y1="180.984" x2="44.4234" y2="303.422" stroke="#0076BE" stroke-width="0.663311"/>
<line x1="61.2594" y1="180.984" x2="61.2594" y2="303.422" stroke="#0076BE" stroke-width="0.663311"/>
<line x1="78.0973" y1="180.984" x2="78.0973" y2="303.422" stroke="#0076BE" stroke-width="0.663311"/>
<line x1="94.941" y1="180.984" x2="94.941" y2="303.422" stroke="#0076BE" stroke-width="0.663311"/>
<line x1="111.781" y1="180.984" x2="111.781" y2="303.422" stroke="#0076BE" stroke-width="0.663311"/>
<line x1="128.615" y1="180.984" x2="128.615" y2="303.422" stroke="#0076BE" stroke-width="0.663311"/>
<line x1="145.455" y1="180.984" x2="145.455" y2="303.422" stroke="#0076BE" stroke-width="0.663311"/>
<line x1="162.295" y1="180.984" x2="162.295" y2="303.422" stroke="#0076BE" stroke-width="0.663311"/>
<line x1="179.134" y1="180.984" x2="179.134" y2="303.422" stroke="#0076BE" stroke-width="0.663311"/>
<line x1="195.972" y1="180.984" x2="195.972" y2="303.422" stroke="#0076BE" stroke-width="0.663311"/>
<line x1="212.812" y1="180.984" x2="212.812" y2="303.422" stroke="#0076BE" stroke-width="0.663311"/>
<line x1="229.652" y1="180.984" x2="229.652" y2="303.422" stroke="#0076BE" stroke-width="0.663311"/>
<line x1="246.492" y1="180.984" x2="246.492" y2="303.422" stroke="#0076BE" stroke-width="0.663311"/>
<line x1="263.33" y1="180.984" x2="263.33" y2="303.422" stroke="#0076BE" stroke-width="0.663311"/>
<line x1="263.332" y1="180.984" x2="263.332" y2="303.422" stroke="#0076BE" stroke-width="0.663311"/>
<line x1="280.171" y1="180.984" x2="280.171" y2="303.422" stroke="#0076BE" stroke-width="0.663311"/>
<line x1="297.009" y1="180.984" x2="297.009" y2="303.422" stroke="#0076BE" stroke-width="0.663311"/>
<line x1="313.849" y1="180.984" x2="313.849" y2="303.422" stroke="#0076BE" stroke-width="0.663311"/>
<line x1="330.689" y1="180.984" x2="330.689" y2="303.422" stroke="#0076BE" stroke-width="0.663311"/>
<line x1="347.529" y1="180.984" x2="347.529" y2="303.422" stroke="#0076BE" stroke-width="0.663311"/>
<line x1="364.367" y1="180.984" x2="364.367" y2="303.422" stroke="#0076BE" stroke-width="0.663311"/>
<line x1="381.207" y1="180.984" x2="381.207" y2="303.422" stroke="#0076BE" stroke-width="0.663311"/>
<line x1="398.046" y1="180.984" x2="398.046" y2="303.422" stroke="#0076BE" stroke-width="0.663311"/>
<line x1="414.884" y1="180.984" x2="414.884" y2="303.422" stroke="#0076BE" stroke-width="0.663311"/>
<line x1="431.722" y1="180.984" x2="431.722" y2="303.422" stroke="#0076BE" stroke-width="0.663311"/>
<line x1="27.252" y1="180.652" x2="582.296" y2="180.652" stroke="#0076BE" stroke-width="0.663311"/>
<line x1="27.252" y1="197.248" x2="582.296" y2="197.248" stroke="#0076BE" stroke-width="0.663311"/>
<line x1="27.252" y1="213.844" x2="582.296" y2="213.844" stroke="#0076BE" stroke-width="0.663311"/>
<line x1="27.252" y1="230.437" x2="582.296" y2="230.437" stroke="#0076BE" stroke-width="0.663311"/>
<line x1="27.252" y1="247.033" x2="582.296" y2="247.033" stroke="#0076BE" stroke-width="0.663311"/>
<line x1="27.252" y1="263.628" x2="582.296" y2="263.628" stroke="#0076BE" stroke-width="0.663311"/>
<line x1="27.252" y1="280.224" x2="582.296" y2="280.224" stroke="#0076BE" stroke-width="0.663311"/>
<rect x="598.656" y="266.051" width="17.2461" height="43.7785" fill="#0076BE"/>
<line x1="607.23" y1="325.861" x2="577.831" y2="325.861" stroke="#0076BE" stroke-width="2.65324"/>
<line x1="608.322" y1="266.051" x2="608.322" y2="228.938" stroke="#0076BE" stroke-width="2.65324" stroke-dasharray="5.31 5.31"/>
<line x1="606.721" y1="291.918" x2="606.721" y2="326.782" stroke="#0076BE" stroke-width="2.65324"/>
<rect x="0.865234" y="47.8711" width="17.2461" height="43.7785" fill="#0076BE"/>
<rect x="27.5645" y="331.281" width="17.2461" height="43.7785" transform="rotate(-90 27.5645 331.281)" fill="#0076BE"/>
<rect x="19.6133" y="263.802" width="17.7613" height="37.1133" transform="rotate(180 19.6133 263.802)" fill="#0076BE"/>
<line x1="10.1949" y1="56.8674" x2="10.1949" y2="10.757" stroke="#0076BE" stroke-width="2.65324"/>
<line x1="37.6152" y1="325.861" x2="8.2157" y2="325.861" stroke="#0076BE" stroke-width="2.65324"/>
<line x1="9.26953" y1="11.6792" x2="21.4053" y2="11.6792" stroke="#0076BE" stroke-width="2.65324"/>
<line x1="21.4102" y1="11.6792" x2="53.7721" y2="11.6792" stroke="#0076BE" stroke-width="2.65324" stroke-dasharray="5.31 5.31"/>
<line x1="150.541" y1="10.5547" x2="328.532" y2="10.5547" stroke="#0076BE" stroke-width="2.65324" stroke-dasharray="11.94 11.94"/>
<line x1="320.441" y1="325.457" x2="551.02" y2="325.457" stroke="#0076BE" stroke-width="2.65324" stroke-dasharray="9.29 9.29"/>
<line x1="10.562" y1="325.659" x2="10.5621" y2="261.554" stroke="#0076BE" stroke-width="2.65324" stroke-dasharray="5.31 5.31"/>
<line x1="8.97897" y1="68.1152" x2="8.97896" y2="113.101" stroke="#0076BE" stroke-width="2.65324" stroke-dasharray="5.31 5.31"/>
<rect x="476.283" y="17.5037" width="17.2461" height="43.7785" transform="rotate(-90 476.283 17.5037)" fill="#0076BE"/>
<line x1="605.743" y1="10.7566" x2="605.743" y2="47.8699" stroke="#0076BE" stroke-width="2.65324"/>
<line x1="605.743" y1="54.6184" x2="605.743" y2="91.7317" stroke="#0076BE" stroke-width="2.65324" stroke-dasharray="5.31 5.31"/>
<line x1="561.537" y1="12.0832" x2="534.839" y2="12.0832" stroke="#0076BE" stroke-width="2.65324"/>
<line x1="581.762" y1="11.6791" x2="606.033" y2="11.6791" stroke="#0076BE" stroke-width="2.65324"/>
<defs>
<linearGradient id="paint0_linear_729_1508" x1="314.303" y1="294.679" x2="310.695" y2="39.5334" gradientUnits="userSpaceOnUse">
<stop stop-color="#0076BE" stop-opacity="0.22"/>
<stop offset="1" stop-color="#2B2A2B" stop-opacity="0"/>
</linearGradient>
</defs>
</svg>
