<svg width="754" height="140" viewBox="0 0 754 140" fill="none" xmlns="http://www.w3.org/2000/svg">
<rect x="17.0357" y="12.7788" width="718.99" height="108.86" stroke="#0076BE" stroke-width="3.59869"/>
<line x1="4.90749" y1="84.7526" x2="4.90749" y2="135.134" stroke="#0076BE" stroke-width="1.79935"/>
<line x1="4.00781" y1="135.134" x2="38.0638" y2="135.134" stroke="#0076BE" stroke-width="1.79935"/>
<line x1="650.857" y1="135.355" x2="749.233" y2="135.355" stroke="#0076BE" stroke-width="1.79935"/>
<line x1="749.253" y1="136.255" x2="749.253" y2="97.64" stroke="#0076BE" stroke-width="1.79935"/>
<line x1="4.79883" y1="1.08305" x2="55.4868" y2="1.08305" stroke="#0076BE" stroke-width="1.79935" stroke-dasharray="7.2 7.2"/>
<line x1="238.439" y1="135.134" x2="289.127" y2="135.134" stroke="#0076BE" stroke-width="1.79935" stroke-dasharray="7.2 7.2"/>
<line x1="404.758" y1="1.08299" x2="455.446" y2="1.08299" stroke="#0076BE" stroke-width="1.79935" stroke-dasharray="7.2 7.2"/>
<line x1="749.212" y1="2.02216" x2="749.212" y2="66.3803" stroke="#0076BE" stroke-width="1.79935" stroke-dasharray="7.2 7.2"/>
<line x1="4.69017" y1="28.9729" x2="4.69017" y2="0.183376" stroke="#0076BE" stroke-width="1.79935" stroke-dasharray="7.2 7.2"/>
<line x1="38.0625" y1="135.134" x2="88.7504" y2="135.134" stroke="#0076BE" stroke-width="1.79935" stroke-dasharray="7.2 7.2"/>
<line x1="749.253" y1="97.64" x2="749.253" y2="39.7176" stroke="#0076BE" stroke-width="1.79935" stroke-dasharray="7.2 7.2"/>
<rect x="681.197" y="139.932" width="9.19402" height="33.0985" transform="rotate(-90 681.197 139.932)" fill="#0076BE"/>
<rect x="0.839844" y="15.4778" width="7.91999" height="29.6892" fill="#0076BE"/>
<rect x="743.717" y="50.7505" width="10.1134" height="29.4209" fill="#0076BE"/>
<line x1="710.617" y1="1.12254" x2="750.151" y2="1.12254" stroke="#0076BE" stroke-width="1.79935"/>
<line x1="222.602" y1="1.08299" x2="315.265" y2="1.08299" stroke="#0076BE" stroke-width="1.79935"/>
</svg>
