<svg width="754" height="141" viewBox="0 0 754 141" fill="none" xmlns="http://www.w3.org/2000/svg">
<rect x="17.3482" y="13.3141" width="719.051" height="108.568" stroke="#0076BE" stroke-width="3.59869"/>
<line x1="16.3577" y1="15.3596" x2="16.3577" y2="120.621" stroke="#0076BE" stroke-width="0.449836"/>
<line x1="28.053" y1="15.3596" x2="28.053" y2="120.621" stroke="#0076BE" stroke-width="0.449836"/>
<line x1="39.7484" y1="15.3596" x2="39.7484" y2="120.621" stroke="#0076BE" stroke-width="0.449836"/>
<line x1="51.4456" y1="15.3596" x2="51.4456" y2="120.621" stroke="#0076BE" stroke-width="0.449836"/>
<line x1="63.1409" y1="15.3596" x2="63.1409" y2="120.621" stroke="#0076BE" stroke-width="0.449836"/>
<line x1="74.8362" y1="15.3596" x2="74.8362" y2="120.621" stroke="#0076BE" stroke-width="0.449836"/>
<line x1="86.5316" y1="15.3596" x2="86.5316" y2="120.621" stroke="#0076BE" stroke-width="0.449836"/>
<line x1="98.2269" y1="15.3596" x2="98.2269" y2="120.621" stroke="#0076BE" stroke-width="0.449836"/>
<line x1="109.922" y1="15.3596" x2="109.922" y2="120.621" stroke="#0076BE" stroke-width="0.449836"/>
<line x1="121.619" y1="15.3596" x2="121.619" y2="120.621" stroke="#0076BE" stroke-width="0.449836"/>
<line x1="133.315" y1="15.3596" x2="133.315" y2="120.621" stroke="#0076BE" stroke-width="0.449836"/>
<line x1="145.012" y1="15.3596" x2="145.012" y2="120.621" stroke="#0076BE" stroke-width="0.449836"/>
<line x1="156.707" y1="15.3596" x2="156.707" y2="120.621" stroke="#0076BE" stroke-width="0.449836"/>
<line x1="168.403" y1="15.3596" x2="168.403" y2="120.621" stroke="#0076BE" stroke-width="0.449836"/>
<line x1="180.098" y1="15.3596" x2="180.098" y2="120.621" stroke="#0076BE" stroke-width="0.449836"/>
<line x1="180.096" y1="15.3596" x2="180.096" y2="120.621" stroke="#0076BE" stroke-width="0.449836"/>
<line x1="191.791" y1="15.3596" x2="191.791" y2="120.621" stroke="#0076BE" stroke-width="0.449836"/>
<line x1="203.487" y1="15.3596" x2="203.487" y2="120.621" stroke="#0076BE" stroke-width="0.449836"/>
<line x1="215.184" y1="15.3596" x2="215.184" y2="120.621" stroke="#0076BE" stroke-width="0.449836"/>
<line x1="226.879" y1="15.3596" x2="226.879" y2="120.621" stroke="#0076BE" stroke-width="0.449836"/>
<line x1="238.575" y1="15.3596" x2="238.575" y2="120.621" stroke="#0076BE" stroke-width="0.449836"/>
<line x1="250.27" y1="15.3596" x2="250.27" y2="120.621" stroke="#0076BE" stroke-width="0.449836"/>
<line x1="261.965" y1="15.3596" x2="261.965" y2="120.621" stroke="#0076BE" stroke-width="0.449836"/>
<line x1="273.66" y1="15.3596" x2="273.66" y2="120.621" stroke="#0076BE" stroke-width="0.449836"/>
<line x1="285.358" y1="15.3596" x2="285.358" y2="120.621" stroke="#0076BE" stroke-width="0.449836"/>
<line x1="297.053" y1="15.3596" x2="297.053" y2="120.621" stroke="#0076BE" stroke-width="0.449836"/>
<line x1="308.75" y1="15.3596" x2="308.75" y2="120.621" stroke="#0076BE" stroke-width="0.449836"/>
<line x1="320.446" y1="15.3596" x2="320.446" y2="120.621" stroke="#0076BE" stroke-width="0.449836"/>
<line x1="332.141" y1="15.3596" x2="332.141" y2="120.621" stroke="#0076BE" stroke-width="0.449836"/>
<line x1="343.836" y1="15.3596" x2="343.836" y2="120.621" stroke="#0076BE" stroke-width="0.449836"/>
<line x1="343.84" y1="15.3596" x2="343.84" y2="120.621" stroke="#0076BE" stroke-width="0.449836"/>
<line x1="355.535" y1="15.3596" x2="355.535" y2="120.621" stroke="#0076BE" stroke-width="0.449836"/>
<line x1="367.231" y1="15.3596" x2="367.231" y2="120.621" stroke="#0076BE" stroke-width="0.449836"/>
<line x1="378.926" y1="15.3596" x2="378.926" y2="120.621" stroke="#0076BE" stroke-width="0.449836"/>
<line x1="390.623" y1="15.3596" x2="390.623" y2="120.621" stroke="#0076BE" stroke-width="0.449836"/>
<line x1="402.319" y1="15.3596" x2="402.319" y2="120.621" stroke="#0076BE" stroke-width="0.449836"/>
<line x1="414.014" y1="15.3596" x2="414.014" y2="120.621" stroke="#0076BE" stroke-width="0.449836"/>
<line x1="425.709" y1="15.3596" x2="425.709" y2="120.621" stroke="#0076BE" stroke-width="0.449836"/>
<line x1="437.405" y1="15.3596" x2="437.405" y2="120.621" stroke="#0076BE" stroke-width="0.449836"/>
<line x1="449.102" y1="15.3596" x2="449.102" y2="120.621" stroke="#0076BE" stroke-width="0.449836"/>
<line x1="460.797" y1="15.3596" x2="460.797" y2="120.621" stroke="#0076BE" stroke-width="0.449836"/>
<line x1="472.494" y1="15.3596" x2="472.494" y2="120.621" stroke="#0076BE" stroke-width="0.449836"/>
<line x1="484.19" y1="15.3596" x2="484.19" y2="120.621" stroke="#0076BE" stroke-width="0.449836"/>
<line x1="495.885" y1="15.3596" x2="495.885" y2="120.621" stroke="#0076BE" stroke-width="0.449836"/>
<line x1="507.58" y1="15.3596" x2="507.58" y2="120.621" stroke="#0076BE" stroke-width="0.449836"/>
<line x1="507.578" y1="15.3596" x2="507.578" y2="120.621" stroke="#0076BE" stroke-width="0.449836"/>
<line x1="519.274" y1="15.3596" x2="519.274" y2="120.621" stroke="#0076BE" stroke-width="0.449836"/>
<line x1="530.969" y1="15.3596" x2="530.969" y2="120.621" stroke="#0076BE" stroke-width="0.449836"/>
<line x1="542.666" y1="15.3596" x2="542.666" y2="120.621" stroke="#0076BE" stroke-width="0.449836"/>
<line x1="554.362" y1="15.3596" x2="554.362" y2="120.621" stroke="#0076BE" stroke-width="0.449836"/>
<line x1="566.057" y1="15.3596" x2="566.057" y2="120.621" stroke="#0076BE" stroke-width="0.449836"/>
<line x1="577.752" y1="15.3596" x2="577.752" y2="120.621" stroke="#0076BE" stroke-width="0.449836"/>
<line x1="589.448" y1="15.3596" x2="589.448" y2="120.621" stroke="#0076BE" stroke-width="0.449836"/>
<line x1="601.143" y1="15.3596" x2="601.143" y2="120.621" stroke="#0076BE" stroke-width="0.449836"/>
<line x1="612.84" y1="15.3596" x2="612.84" y2="120.621" stroke="#0076BE" stroke-width="0.449836"/>
<line x1="624.535" y1="15.3596" x2="624.535" y2="120.621" stroke="#0076BE" stroke-width="0.449836"/>
<line x1="636.233" y1="15.3596" x2="636.233" y2="120.621" stroke="#0076BE" stroke-width="0.449836"/>
<line x1="647.928" y1="15.3596" x2="647.928" y2="120.621" stroke="#0076BE" stroke-width="0.449836"/>
<line x1="659.623" y1="15.3596" x2="659.623" y2="120.621" stroke="#0076BE" stroke-width="0.449836"/>
<line x1="589.481" y1="13.3535" x2="589.481" y2="120.924" stroke="#0076BE" stroke-width="0.449836"/>
<line x1="601.176" y1="13.3535" x2="601.176" y2="120.924" stroke="#0076BE" stroke-width="0.449836"/>
<line x1="612.871" y1="13.3535" x2="612.871" y2="120.924" stroke="#0076BE" stroke-width="0.449836"/>
<line x1="624.569" y1="13.3535" x2="624.569" y2="120.924" stroke="#0076BE" stroke-width="0.449836"/>
<line x1="636.264" y1="13.3535" x2="636.264" y2="120.924" stroke="#0076BE" stroke-width="0.449836"/>
<line x1="647.959" y1="13.3535" x2="647.959" y2="120.924" stroke="#0076BE" stroke-width="0.449836"/>
<line x1="659.655" y1="13.3535" x2="659.655" y2="120.924" stroke="#0076BE" stroke-width="0.449836"/>
<line x1="671.35" y1="13.3535" x2="671.35" y2="120.924" stroke="#0076BE" stroke-width="0.449836"/>
<line x1="683.047" y1="13.3535" x2="683.047" y2="120.924" stroke="#0076BE" stroke-width="0.449836"/>
<line x1="694.742" y1="13.3535" x2="694.742" y2="120.924" stroke="#0076BE" stroke-width="0.449836"/>
<line x1="706.44" y1="13.3535" x2="706.44" y2="120.924" stroke="#0076BE" stroke-width="0.449836"/>
<line x1="718.135" y1="13.3535" x2="718.135" y2="120.924" stroke="#0076BE" stroke-width="0.449836"/>
<line x1="729.83" y1="13.3535" x2="729.83" y2="120.924" stroke="#0076BE" stroke-width="0.449836"/>
<line x1="16.1328" y1="15.1347" x2="735.441" y2="15.1347" stroke="#0076BE" stroke-width="0.449836"/>
<line x1="16.1328" y1="26.8305" x2="735.441" y2="26.8305" stroke="#0076BE" stroke-width="0.449836"/>
<line x1="16.1328" y1="38.5262" x2="735.441" y2="38.5262" stroke="#0076BE" stroke-width="0.449836"/>
<line x1="16.1328" y1="50.2219" x2="735.441" y2="50.2219" stroke="#0076BE" stroke-width="0.449836"/>
<line x1="16.1328" y1="61.9177" x2="735.441" y2="61.9177" stroke="#0076BE" stroke-width="0.449836"/>
<line x1="16.1328" y1="73.6134" x2="735.441" y2="73.6134" stroke="#0076BE" stroke-width="0.449836"/>
<line x1="16.1328" y1="85.3092" x2="735.441" y2="85.3092" stroke="#0076BE" stroke-width="0.449836"/>
<line x1="16.1328" y1="97.0049" x2="735.441" y2="97.0049" stroke="#0076BE" stroke-width="0.449836"/>
<line x1="16.1328" y1="108.701" x2="735.441" y2="108.701" stroke="#0076BE" stroke-width="0.449836"/>
<line x1="16.1328" y1="120.396" x2="735.441" y2="120.396" stroke="#0076BE" stroke-width="0.449836"/>
<line x1="5.33717" y1="85.5341" x2="5.33717" y2="135.916" stroke="#0076BE" stroke-width="1.79935"/>
<line x1="4.4375" y1="135.916" x2="43.1234" y2="135.916" stroke="#0076BE" stroke-width="1.79935"/>
<line x1="650.857" y1="135.654" x2="749.233" y2="135.654" stroke="#0076BE" stroke-width="1.79935"/>
<line x1="749.253" y1="136.553" x2="749.253" y2="97.9386" stroke="#0076BE" stroke-width="1.79935"/>
<line x1="5.33789" y1="1.86449" x2="62.9169" y2="1.86449" stroke="#0076BE" stroke-width="1.79935" stroke-dasharray="7.2 7.2"/>
<line x1="270.742" y1="135.916" x2="328.321" y2="135.916" stroke="#0076BE" stroke-width="1.79935" stroke-dasharray="7.2 7.2"/>
<line x1="459.674" y1="1.86449" x2="517.253" y2="1.86449" stroke="#0076BE" stroke-width="1.79935" stroke-dasharray="7.2 7.2"/>
<line x1="748.294" y1="2.3208" x2="748.294" y2="67.5983" stroke="#0076BE" stroke-width="1.79935" stroke-dasharray="7.2 7.2"/>
<line x1="5.33861" y1="29.7544" x2="5.33861" y2="0.96487" stroke="#0076BE" stroke-width="1.79935" stroke-dasharray="7.2 7.2"/>
<line x1="43.125" y1="135.916" x2="100.704" y2="135.916" stroke="#0076BE" stroke-width="1.79935" stroke-dasharray="7.2 7.2"/>
<line x1="749.253" y1="97.9386" x2="749.253" y2="40.9357" stroke="#0076BE" stroke-width="1.79935" stroke-dasharray="7.2 7.2"/>
<rect x="680.277" y="140.231" width="9.19402" height="33.0985" transform="rotate(-90 680.277 140.231)" fill="#0076BE"/>
<rect x="0.839844" y="16.2593" width="8.99673" height="29.6892" fill="#0076BE"/>
<rect x="743.717" y="51.0491" width="10.1134" height="30.3403" fill="#0076BE"/>
<line x1="710.617" y1="1.42113" x2="750.151" y2="1.42113" stroke="#0076BE" stroke-width="1.79935"/>
<line x1="252.748" y1="1.86449" x2="358.01" y2="1.86449" stroke="#0076BE" stroke-width="1.79935"/>
</svg>
