<svg width="1897" height="1134" viewBox="0 0 1897 1134" fill="none" xmlns="http://www.w3.org/2000/svg">
<line x1="670.408" y1="7.35313" x2="863.775" y2="7.35313" stroke="#0076BE" stroke-width="2.65117" stroke-dasharray="10.6 10.6"/>
<line x1="1889.65" y1="6.62793" x2="1889.65" y2="115.326" stroke="#0076BE" stroke-width="2.65117" stroke-dasharray="9.28 9.28"/>
<line x1="1260.75" y1="7.3583" x2="1145.94" y2="7.3583" stroke="#0076BE" stroke-width="2.65117" stroke-dasharray="9.28 9.28"/>
<rect x="1303.73" width="13.2558" height="43.7443" transform="rotate(90 1303.73 0)" fill="#0076BE"/>
<rect x="1745.16" width="13.2558" height="43.7443" transform="rotate(90 1745.16 0)" fill="#0076BE"/>
<rect x="1896.28" y="159.07" width="13.2558" height="43.7443" transform="rotate(-180 1896.28 159.07)" fill="#0076BE"/>
<line x1="1888.32" y1="7.95351" x2="1832.65" y2="7.95351" stroke="#0076BE" stroke-width="2.65117"/>
<line x1="1788.9" y1="7.95351" x2="1583.44" y2="7.95351" stroke="#0076BE" stroke-width="2.65117" stroke-dasharray="5.3 5.3"/>
<line x1="1490.65" y1="7.95351" x2="1298.44" y2="7.95351" stroke="#0076BE" stroke-width="2.65117"/>
<line x1="6.89062" y1="7.35801" x2="124.723" y2="7.35801" stroke="#0076BE" stroke-width="2.65117"/>
<line x1="124.723" y1="7.35801" x2="242.555" y2="7.35801" stroke="#0076BE" stroke-width="2.65117" stroke-dasharray="9.28 9.28"/>
<line x1="8.64707" y1="94.1162" x2="8.64707" y2="6.62771" stroke="#0076BE" stroke-width="2.65117" stroke-dasharray="9.28 9.28"/>
<line x1="8.22324" y1="218.53" x2="8.22324" y2="110.806" stroke="#0076BE" stroke-width="2.65117" stroke-dasharray="9.28 9.28"/>
<line x1="8.22324" y1="1008.5" x2="8.22324" y2="900.773" stroke="#0076BE" stroke-width="2.65117" stroke-dasharray="9.28 9.28"/>
<line x1="8.22324" y1="663.845" x2="8.22324" y2="556.121" stroke="#0076BE" stroke-width="2.65117" stroke-dasharray="9.28 9.28"/>
<line x1="186.844" y1="1126.02" x2="301.655" y2="1126.02" stroke="#0076BE" stroke-width="2.65117" stroke-dasharray="9.28 9.28"/>
<rect x="0.693359" y="90.8569" width="13.2558" height="43.7443" fill="#0076BE"/>
<rect x="0.693359" y="515.043" width="13.2558" height="43.7443" fill="#0076BE"/>
<rect x="112.043" y="1132.05" width="13.2558" height="43.7443" transform="rotate(-90 112.043 1132.05)" fill="#0076BE"/>
<rect x="634.311" y="1132.04" width="13.2558" height="43.7443" transform="rotate(-90 634.311 1132.04)" fill="#0076BE"/>
<rect x="1739.86" y="1133.37" width="13.2558" height="43.7443" transform="rotate(-90 1739.86 1133.37)" fill="#0076BE"/>
<line x1="8.21739" y1="1127.34" x2="8.21739" y2="991.267" stroke="#0076BE" stroke-width="2.65117"/>
<line x1="6.51758" y1="1126.01" x2="121.329" y2="1126.01" stroke="#0076BE" stroke-width="2.65117"/>
<line x1="1889.65" y1="1128.07" x2="1560.91" y2="1128.07" stroke="#0076BE" stroke-width="2.65117"/>
<line x1="1454.86" y1="1128.07" x2="1175.16" y2="1128.07" stroke="#0076BE" stroke-width="2.65117" stroke-dasharray="9.28 9.28"/>
<line x1="1887" y1="731.528" x2="1887" y2="623.804" stroke="#0076BE" stroke-width="2.65117" stroke-dasharray="9.28 9.28"/>
<line x1="1888.32" y1="360.91" x2="1888.32" y2="253.186" stroke="#0076BE" stroke-width="2.65117" stroke-dasharray="9.28 9.28"/>
<rect x="1894.95" y="796.735" width="13.2558" height="43.7443" transform="rotate(180 1894.95 796.735)" fill="#0076BE"/>
<rect x="1894.95" y="1071.07" width="13.2558" height="43.7443" transform="rotate(180 1894.95 1071.07)" fill="#0076BE"/>
<line x1="1888.32" y1="1126.75" x2="1888.32" y2="1043.23" stroke="#0076BE" stroke-width="2.65117"/>
<line x1="1888.32" y1="913.327" x2="1888.32" y2="796.676" stroke="#0076BE" stroke-width="2.65117"/>
<line x1="440.787" y1="1125.42" x2="809.299" y2="1125.42" stroke="#0076BE" stroke-width="2.65117" stroke-dasharray="10.6 10.6"/>
<rect x="24.5541" y="23.8607" width="1849.19" height="1088.3" stroke="#0076BE" stroke-width="2.65117"/>
</svg>
