<svg width="593" height="241" viewBox="0 0 593 241" fill="none" xmlns="http://www.w3.org/2000/svg">
<rect x="22.3976" y="22.3976" width="549.205" height="196.205" stroke="#0076BE" stroke-width="4.79512"/>
<rect x="579" y="181" width="13.35" height="44.31" fill="#0076BE"/>
<line x1="589" y1="234.335" x2="567" y2="234.335" stroke="#0076BE" stroke-width="2.67"/>
<line x1="587.636" y1="221" x2="587.636" y2="235" stroke="#0076BE" stroke-width="2.67"/>
<rect y="28.0002" width="13.35" height="44.31" fill="#0076BE"/>
<rect x="26" y="241" width="13.35" height="44.31" transform="rotate(-90 26 241)" fill="#0076BE"/>
<line x1="6.665" y1="32.3" x2="6.665" y2="5.30005" stroke="#0076BE" stroke-width="2.67"/>
<line x1="32.3008" y1="234.335" x2="5.30078" y2="234.335" stroke="#0076BE" stroke-width="2.67"/>
<line x1="152.668" y1="6.25069" x2="160.859" y2="6.25069" stroke="#0076BE" stroke-width="2.67"/>
<line x1="6" y1="6.665" x2="47" y2="6.665" stroke="#0076BE" stroke-width="2.67" stroke-dasharray="4.8 4.8"/>
<line x1="249.215" y1="6.665" x2="369.348" y2="6.665" stroke="#0076BE" stroke-width="2.67" stroke-dasharray="10.79 10.79"/>
<line x1="363.885" y1="234.061" x2="519.511" y2="234.061" stroke="#0076BE" stroke-width="2.67" stroke-dasharray="8.39 8.39"/>
<line x1="6.665" y1="234" x2="6.665" y2="204" stroke="#0076BE" stroke-width="2.67" stroke-dasharray="4.8 4.8"/>
<rect x="497" y="14.0005" width="13.35" height="44.31" transform="rotate(-90 497 14.0005)" fill="#0076BE"/>
<line x1="587.335" y1="5.30005" x2="587.335" y2="30.3" stroke="#0076BE" stroke-width="2.67"/>
<line x1="587.335" y1="31.0002" x2="587.335" y2="56.0002" stroke="#0076BE" stroke-width="2.67" stroke-dasharray="4.8 4.8"/>
<line x1="558" y1="6.835" x2="539" y2="6.835" stroke="#0076BE" stroke-width="2.67"/>
<line x1="570" y1="6.665" x2="588" y2="6.665" stroke="#0076BE" stroke-width="2.67"/>
</svg>
