<svg width="345" height="201" viewBox="0 0 345 201" fill="none" xmlns="http://www.w3.org/2000/svg">
<rect x="18" y="19" width="309" height="164" stroke="#0076BE" stroke-width="4"/>
<rect x="335" y="152" width="10" height="33" fill="#0076BE"/>
<line x1="340" y1="196" x2="325" y2="196" stroke="#0076BE" stroke-width="2"/>
<line x1="340" y1="185" x2="340" y2="197" stroke="#0076BE" stroke-width="2"/>
<rect y="24" width="10" height="33" fill="#0076BE"/>
<rect x="17" y="201" width="10" height="33" transform="rotate(-90 17 201)" fill="#0076BE"/>
<line x1="5" y1="28" x2="5" y2="6" stroke="#0076BE" stroke-width="2"/>
<line x1="20" y1="196" x2="4" y2="196" stroke="#0076BE" stroke-width="2"/>
<line x1="4" y1="6" x2="10.8327" y2="6" stroke="#0076BE" stroke-width="2"/>
<line x1="10" y1="6" x2="28.2205" y2="6" stroke="#0076BE" stroke-width="2" stroke-dasharray="4 4"/>
<line x1="84" y1="6" x2="184" y2="6" stroke="#0076BE" stroke-width="2" stroke-dasharray="9 9"/>
<line x1="179" y1="196" x2="309" y2="196" stroke="#0076BE" stroke-width="2" stroke-dasharray="7 7"/>
<line x1="5" y1="195.712" x2="5" y2="170.585" stroke="#0076BE" stroke-width="2" stroke-dasharray="4 4"/>
<rect x="267" y="10" width="10" height="33" transform="rotate(-90 267 10)" fill="#0076BE"/>
<line x1="340" y1="5" x2="340" y2="25" stroke="#0076BE" stroke-width="2"/>
<line x1="340" y1="27" x2="340" y2="47" stroke="#0076BE" stroke-width="2" stroke-dasharray="4 4"/>
<line x1="315" y1="6" x2="300" y2="6" stroke="#0076BE" stroke-width="2"/>
<line x1="327" y1="6" x2="340" y2="6" stroke="#0076BE" stroke-width="2"/>
</svg>
