<svg width="984" height="188" viewBox="0 0 984 188" fill="none" xmlns="http://www.w3.org/2000/svg">
<rect x="22.4138" y="16.4138" width="935.172" height="146.172" stroke="#0076BE" stroke-width="4.82762"/>
<line x1="6.35925" y1="113.449" x2="6.35925" y2="181.036" stroke="#0076BE" stroke-width="2.41381"/>
<line x1="5.15234" y1="181.035" x2="50.8382" y2="181.035" stroke="#0076BE" stroke-width="2.41381"/>
<line x1="874.441" y1="181.035" x2="978.563" y2="181.035" stroke="#0076BE" stroke-width="2.41381"/>
<line x1="978.416" y1="182.242" x2="978.416" y2="130.345" stroke="#0076BE" stroke-width="2.41381"/>
<line x1="6.21484" y1="1.20716" x2="74.2124" y2="1.20716" stroke="#0076BE" stroke-width="2.41381" stroke-dasharray="9.66 9.66"/>
<line x1="319.643" y1="181.035" x2="387.64" y2="181.035" stroke="#0076BE" stroke-width="2.41381" stroke-dasharray="9.66 9.66"/>
<line x1="542.758" y1="1.20716" x2="610.755" y2="1.20716" stroke="#0076BE" stroke-width="2.41381" stroke-dasharray="9.66 9.66"/>
<line x1="978.707" y1="2.41406" x2="978.707" y2="89.3113" stroke="#0076BE" stroke-width="2.41381" stroke-dasharray="9.66 9.66"/>
<line x1="6.07044" y1="38.6211" x2="6.07044" y2="0.000114441" stroke="#0076BE" stroke-width="2.41381" stroke-dasharray="9.66 9.66"/>
<line x1="50.8379" y1="181.035" x2="118.835" y2="181.035" stroke="#0076BE" stroke-width="2.41381" stroke-dasharray="9.66 9.66"/>
<line x1="978.418" y1="130.346" x2="978.418" y2="53.1037" stroke="#0076BE" stroke-width="2.41381" stroke-dasharray="9.66 9.66"/>
<rect x="906.314" y="187.07" width="12.0691" height="35.0612" transform="rotate(-90 906.314 187.07)" fill="#0076BE"/>
<rect x="0.902344" y="20.5176" width="10.6246" height="39.8279" fill="#0076BE"/>
<rect x="973.25" y="67.5859" width="10.6246" height="39.8279" fill="#0076BE"/>
<line x1="938.188" y1="1.20716" x2="979.624" y2="1.20716" stroke="#0076BE" stroke-width="2.41381"/>
<line x1="298.393" y1="1.20716" x2="422.701" y2="1.20716" stroke="#0076BE" stroke-width="2.41381"/>
</svg>
