<svg width="548" height="750" viewBox="0 0 548 750" fill="none" xmlns="http://www.w3.org/2000/svg">
<path d="M23.1619 23.3376H525.376V726.554H23.1619V23.3376Z" fill="url(#paint0_linear_912_1016)" stroke="#0076BE" stroke-width="4.82762"/>
<line x1="26.2373" y1="26.1113" x2="26.2373" y2="172.108" stroke="#0076BE" stroke-width="0.603453"/>
<line x1="42.79" y1="26.1113" x2="42.79" y2="172.108" stroke="#0076BE" stroke-width="0.603453"/>
<line x1="59.3408" y1="26.1113" x2="59.3408" y2="172.108" stroke="#0076BE" stroke-width="0.603453"/>
<line x1="75.8916" y1="26.1113" x2="75.8916" y2="172.108" stroke="#0076BE" stroke-width="0.603453"/>
<line x1="92.4424" y1="26.1113" x2="92.4423" y2="172.108" stroke="#0076BE" stroke-width="0.603453"/>
<line x1="108.995" y1="26.1113" x2="108.995" y2="172.108" stroke="#0076BE" stroke-width="0.603453"/>
<line x1="125.548" y1="26.1113" x2="125.548" y2="172.108" stroke="#0076BE" stroke-width="0.603453"/>
<line x1="142.101" y1="26.1113" x2="142.101" y2="172.108" stroke="#0076BE" stroke-width="0.603453"/>
<line x1="158.651" y1="26.1113" x2="158.651" y2="172.108" stroke="#0076BE" stroke-width="0.603453"/>
<line x1="175.202" y1="26.1113" x2="175.202" y2="172.108" stroke="#0076BE" stroke-width="0.603453"/>
<line x1="191.755" y1="26.1113" x2="191.755" y2="172.108" stroke="#0076BE" stroke-width="0.603453"/>
<line x1="208.306" y1="26.1113" x2="208.306" y2="172.108" stroke="#0076BE" stroke-width="0.603453"/>
<line x1="224.858" y1="26.1113" x2="224.858" y2="172.108" stroke="#0076BE" stroke-width="0.603453"/>
<line x1="241.409" y1="26.1113" x2="241.409" y2="172.108" stroke="#0076BE" stroke-width="0.603453"/>
<line x1="257.96" y1="26.1113" x2="257.96" y2="172.108" stroke="#0076BE" stroke-width="0.603453"/>
<line x1="257.962" y1="26.1113" x2="257.962" y2="172.108" stroke="#0076BE" stroke-width="0.603453"/>
<line x1="274.515" y1="26.1113" x2="274.515" y2="172.108" stroke="#0076BE" stroke-width="0.603453"/>
<line x1="291.065" y1="26.1113" x2="291.065" y2="172.108" stroke="#0076BE" stroke-width="0.603453"/>
<line x1="307.616" y1="26.1113" x2="307.616" y2="172.108" stroke="#0076BE" stroke-width="0.603453"/>
<line x1="324.169" y1="26.1113" x2="324.169" y2="172.108" stroke="#0076BE" stroke-width="0.603453"/>
<line x1="340.72" y1="26.1113" x2="340.72" y2="172.108" stroke="#0076BE" stroke-width="0.603453"/>
<line x1="357.272" y1="26.1113" x2="357.272" y2="172.108" stroke="#0076BE" stroke-width="0.603453"/>
<line x1="373.825" y1="26.1113" x2="373.825" y2="172.108" stroke="#0076BE" stroke-width="0.603453"/>
<line x1="390.376" y1="26.1113" x2="390.376" y2="172.108" stroke="#0076BE" stroke-width="0.603453"/>
<line x1="406.927" y1="26.1113" x2="406.927" y2="172.108" stroke="#0076BE" stroke-width="0.603453"/>
<line x1="423.479" y1="26.1113" x2="423.479" y2="172.108" stroke="#0076BE" stroke-width="0.603453"/>
<line x1="25.9355" y1="25.8096" x2="525.197" y2="25.8096" stroke="#0076BE" stroke-width="0.603453"/>
<line x1="25.9355" y1="42.0323" x2="525.197" y2="42.0323" stroke="#0076BE" stroke-width="0.603453"/>
<line x1="25.9355" y1="58.253" x2="525.197" y2="58.253" stroke="#0076BE" stroke-width="0.603453"/>
<line x1="25.9355" y1="74.4756" x2="525.197" y2="74.4756" stroke="#0076BE" stroke-width="0.603453"/>
<line x1="25.9355" y1="90.6963" x2="525.197" y2="90.6963" stroke="#0076BE" stroke-width="0.603453"/>
<line x1="25.9355" y1="106.919" x2="525.197" y2="106.919" stroke="#0076BE" stroke-width="0.603453"/>
<line x1="25.9355" y1="123.14" x2="525.197" y2="123.14" stroke="#0076BE" stroke-width="0.603453"/>
<line x1="25.9355" y1="139.362" x2="525.197" y2="139.362" stroke="#0076BE" stroke-width="0.603453"/>
<line x1="25.9355" y1="155.585" x2="525.197" y2="155.585" stroke="#0076BE" stroke-width="0.603453"/>
<line x1="25.9355" y1="171.808" x2="525.197" y2="171.808" stroke="#0076BE" stroke-width="0.603453"/>
<line x1="26.2353" y1="170.316" x2="26.2353" y2="723.423" stroke="#0076BE" stroke-width="0.603453"/>
<line x1="42.7881" y1="170.316" x2="42.788" y2="723.423" stroke="#0076BE" stroke-width="0.603453"/>
<line x1="59.3388" y1="170.316" x2="59.3388" y2="723.423" stroke="#0076BE" stroke-width="0.603453"/>
<line x1="75.8896" y1="170.316" x2="75.8896" y2="723.423" stroke="#0076BE" stroke-width="0.603453"/>
<line x1="92.4424" y1="170.316" x2="92.4423" y2="723.423" stroke="#0076BE" stroke-width="0.603453"/>
<line x1="108.993" y1="170.316" x2="108.993" y2="723.423" stroke="#0076BE" stroke-width="0.603453"/>
<line x1="125.546" y1="170.316" x2="125.546" y2="723.423" stroke="#0076BE" stroke-width="0.603453"/>
<line x1="142.099" y1="170.316" x2="142.099" y2="723.423" stroke="#0076BE" stroke-width="0.603453"/>
<line x1="158.649" y1="170.316" x2="158.649" y2="723.423" stroke="#0076BE" stroke-width="0.603453"/>
<line x1="175.2" y1="170.316" x2="175.2" y2="723.423" stroke="#0076BE" stroke-width="0.603453"/>
<line x1="191.753" y1="170.316" x2="191.753" y2="723.423" stroke="#0076BE" stroke-width="0.603453"/>
<line x1="208.304" y1="170.316" x2="208.304" y2="723.423" stroke="#0076BE" stroke-width="0.603453"/>
<line x1="224.856" y1="170.316" x2="224.856" y2="723.423" stroke="#0076BE" stroke-width="0.603453"/>
<line x1="241.407" y1="170.316" x2="241.407" y2="723.423" stroke="#0076BE" stroke-width="0.603453"/>
<line x1="257.958" y1="170.316" x2="257.958" y2="723.423" stroke="#0076BE" stroke-width="0.603453"/>
<line x1="257.96" y1="170.316" x2="257.96" y2="723.423" stroke="#0076BE" stroke-width="0.603453"/>
<line x1="274.513" y1="170.316" x2="274.513" y2="723.423" stroke="#0076BE" stroke-width="0.603453"/>
<line x1="291.063" y1="170.316" x2="291.063" y2="723.423" stroke="#0076BE" stroke-width="0.603453"/>
<line x1="307.614" y1="170.316" x2="307.614" y2="723.423" stroke="#0076BE" stroke-width="0.603453"/>
<line x1="324.167" y1="170.316" x2="324.167" y2="723.423" stroke="#0076BE" stroke-width="0.603453"/>
<line x1="340.718" y1="170.316" x2="340.718" y2="723.423" stroke="#0076BE" stroke-width="0.603453"/>
<line x1="357.27" y1="170.316" x2="357.27" y2="723.423" stroke="#0076BE" stroke-width="0.603453"/>
<line x1="373.823" y1="170.316" x2="373.823" y2="723.423" stroke="#0076BE" stroke-width="0.603453"/>
<line x1="390.374" y1="170.316" x2="390.374" y2="723.423" stroke="#0076BE" stroke-width="0.603453"/>
<line x1="406.925" y1="170.316" x2="406.925" y2="723.423" stroke="#0076BE" stroke-width="0.603453"/>
<line x1="423.478" y1="170.316" x2="423.478" y2="723.423" stroke="#0076BE" stroke-width="0.603453"/>
<line x1="439.603" y1="26.1113" x2="439.603" y2="725.077" stroke="#0076BE" stroke-width="0.603453"/>
<line x1="456.155" y1="26.1113" x2="456.155" y2="725.077" stroke="#0076BE" stroke-width="0.603453"/>
<line x1="472.706" y1="26.1113" x2="472.706" y2="725.077" stroke="#0076BE" stroke-width="0.603453"/>
<line x1="489.257" y1="26.1113" x2="489.257" y2="725.077" stroke="#0076BE" stroke-width="0.603453"/>
<line x1="505.81" y1="26.1113" x2="505.81" y2="725.077" stroke="#0076BE" stroke-width="0.603453"/>
<line x1="522.36" y1="26.1113" x2="522.36" y2="725.077" stroke="#0076BE" stroke-width="0.603453"/>
<line x1="25.6426" y1="171.966" x2="525.196" y2="171.966" stroke="#0076BE" stroke-width="0.603453"/>
<line x1="25.6426" y1="188.189" x2="525.196" y2="188.189" stroke="#0076BE" stroke-width="0.603453"/>
<line x1="25.6426" y1="204.409" x2="525.196" y2="204.409" stroke="#0076BE" stroke-width="0.603453"/>
<line x1="25.6426" y1="220.632" x2="525.196" y2="220.632" stroke="#0076BE" stroke-width="0.603453"/>
<line x1="25.6426" y1="236.853" x2="525.196" y2="236.853" stroke="#0076BE" stroke-width="0.603453"/>
<line x1="25.6426" y1="253.075" x2="525.196" y2="253.075" stroke="#0076BE" stroke-width="0.603453"/>
<line x1="25.6426" y1="269.296" x2="525.196" y2="269.296" stroke="#0076BE" stroke-width="0.603453"/>
<line x1="25.6426" y1="285.519" x2="525.196" y2="285.519" stroke="#0076BE" stroke-width="0.603453"/>
<line x1="25.6426" y1="301.741" x2="525.196" y2="301.741" stroke="#0076BE" stroke-width="0.603453"/>
<line x1="25.6426" y1="317.964" x2="525.196" y2="317.964" stroke="#0076BE" stroke-width="0.603453"/>
<line x1="24.7188" y1="333.808" x2="525.195" y2="333.808" stroke="#0076BE" stroke-width="0.603453"/>
<line x1="24.7188" y1="350.028" x2="525.195" y2="350.028" stroke="#0076BE" stroke-width="0.603453"/>
<line x1="24.7188" y1="366.251" x2="525.195" y2="366.251" stroke="#0076BE" stroke-width="0.603453"/>
<line x1="24.7188" y1="382.474" x2="525.195" y2="382.474" stroke="#0076BE" stroke-width="0.603453"/>
<line x1="24.7188" y1="398.694" x2="525.195" y2="398.694" stroke="#0076BE" stroke-width="0.603453"/>
<line x1="24.7188" y1="414.915" x2="525.195" y2="414.915" stroke="#0076BE" stroke-width="0.603453"/>
<line x1="24.7188" y1="431.138" x2="525.195" y2="431.138" stroke="#0076BE" stroke-width="0.603453"/>
<line x1="24.7188" y1="447.36" x2="525.195" y2="447.36" stroke="#0076BE" stroke-width="0.603453"/>
<line x1="24.7188" y1="463.583" x2="525.195" y2="463.583" stroke="#0076BE" stroke-width="0.603453"/>
<line x1="24.0293" y1="480.343" x2="524.506" y2="480.343" stroke="#0076BE" stroke-width="0.603453"/>
<line x1="24.0293" y1="496.564" x2="524.506" y2="496.564" stroke="#0076BE" stroke-width="0.603453"/>
<line x1="24.0293" y1="512.786" x2="524.506" y2="512.786" stroke="#0076BE" stroke-width="0.603453"/>
<line x1="24.0293" y1="529.009" x2="524.506" y2="529.009" stroke="#0076BE" stroke-width="0.603453"/>
<line x1="24.0293" y1="545.23" x2="524.506" y2="545.23" stroke="#0076BE" stroke-width="0.603453"/>
<line x1="24.0293" y1="561.45" x2="524.506" y2="561.45" stroke="#0076BE" stroke-width="0.603453"/>
<line x1="24.0293" y1="577.673" x2="524.506" y2="577.673" stroke="#0076BE" stroke-width="0.603453"/>
<line x1="24.0293" y1="593.896" x2="524.506" y2="593.896" stroke="#0076BE" stroke-width="0.603453"/>
<line x1="24.0293" y1="610.118" x2="524.506" y2="610.118" stroke="#0076BE" stroke-width="0.603453"/>
<line x1="23.3398" y1="626.882" x2="525.195" y2="626.882" stroke="#0076BE" stroke-width="0.603453"/>
<line x1="23.3398" y1="643.105" x2="525.195" y2="643.105" stroke="#0076BE" stroke-width="0.603453"/>
<line x1="23.3398" y1="659.327" x2="525.195" y2="659.327" stroke="#0076BE" stroke-width="0.603453"/>
<line x1="23.3398" y1="675.544" x2="525.195" y2="675.544" stroke="#0076BE" stroke-width="0.603453"/>
<line x1="23.3398" y1="691.767" x2="525.195" y2="691.767" stroke="#0076BE" stroke-width="0.603453"/>
<line x1="23.3398" y1="707.989" x2="525.195" y2="707.989" stroke="#0076BE" stroke-width="0.603453"/>
<line x1="23.3398" y1="724.212" x2="525.195" y2="724.212" stroke="#0076BE" stroke-width="0.603453"/>
<rect x="534.969" y="675.799" width="12.9678" height="42.7938" fill="#0076BE"/>
<line x1="540.512" y1="743.14" x2="521.019" y2="743.141" stroke="#0076BE" stroke-width="2.41381"/>
<line x1="541.785" y1="675.799" x2="541.785" y2="633.005" stroke="#0076BE" stroke-width="2.41381" stroke-dasharray="4.83 4.83"/>
<line x1="541.719" y1="705.625" x2="541.719" y2="744.529" stroke="#0076BE" stroke-width="2.41381"/>
<rect y="49.4531" width="12.9678" height="42.7938" fill="#0076BE"/>
<rect x="19.4941" y="749.715" width="12.9678" height="42.7938" transform="rotate(-90 19.4941 749.715)" fill="#0076BE"/>
<rect x="13.6895" y="347.711" width="12.9678" height="42.7938" transform="rotate(180 13.6895 347.711)" fill="#0076BE"/>
<line x1="6.57434" y1="59.8262" x2="6.57434" y2="6.65807" stroke="#0076BE" stroke-width="2.41381"/>
<line x1="26.2227" y1="743.14" x2="4.95748" y2="743.141" stroke="#0076BE" stroke-width="2.41381"/>
<line x1="6.39245" y1="670.611" x2="6.39246" y2="744.528" stroke="#0076BE" stroke-width="2.41381"/>
<line x1="6.13867" y1="8.04505" x2="14.9992" y2="8.04505" stroke="#0076BE" stroke-width="2.41381"/>
<line x1="15" y1="8.04505" x2="38.628" y2="8.04505" stroke="#0076BE" stroke-width="2.41381" stroke-dasharray="4.83 4.83"/>
<line x1="109.281" y1="6.74817" x2="239.235" y2="6.74817" stroke="#0076BE" stroke-width="2.41381" stroke-dasharray="10.86 10.86"/>
<line x1="333.18" y1="743.32" x2="501.529" y2="743.32" stroke="#0076BE" stroke-width="2.41381" stroke-dasharray="8.45 8.45"/>
<line x1="6.57434" y1="419.035" x2="6.57435" y2="345.119" stroke="#0076BE" stroke-width="2.41381" stroke-dasharray="4.83 4.83"/>
<line x1="6.16198" y1="72.793" x2="6.16198" y2="124.664" stroke="#0076BE" stroke-width="2.41381" stroke-dasharray="4.83 4.83"/>
<line x1="129.979" y1="745.914" x2="153.606" y2="745.914" stroke="#0076BE" stroke-width="2.41381" stroke-dasharray="4.83 4.83"/>
<rect x="446.961" y="13.1426" width="12.9678" height="42.7938" transform="rotate(-90 446.961 13.1426)" fill="#0076BE"/>
<line x1="541.719" y1="332.15" x2="541.719" y2="374.944" stroke="#0076BE" stroke-width="2.41381"/>
<line x1="541.719" y1="382.727" x2="541.719" y2="425.52" stroke="#0076BE" stroke-width="2.41381" stroke-dasharray="4.83 4.83"/>
<line x1="509.205" y1="6.56823" x2="489.712" y2="6.56824" stroke="#0076BE" stroke-width="2.41381"/>
<line x1="523.975" y1="6.74817" x2="541.696" y2="6.74818" stroke="#0076BE" stroke-width="2.41381"/>
<line x1="542.147" y1="127.258" x2="542.147" y2="5.36021" stroke="#0076BE" stroke-width="2.41381"/>
<defs>
<linearGradient id="paint0_linear_912_1016" x1="281.255" y1="706.534" x2="255.072" y2="52.7587" gradientUnits="userSpaceOnUse">
<stop stop-color="#0076BE" stop-opacity="0.22"/>
<stop offset="1" stop-color="#2B2A2B" stop-opacity="0"/>
</linearGradient>
</defs>
</svg>
