<svg width="908" height="188" viewBox="0 0 908 188" fill="none" xmlns="http://www.w3.org/2000/svg">
<rect x="21.7244" y="16.8962" width="864.144" height="146.036" stroke="#0076BE" stroke-width="4.82762"/>
<line x1="20.8193" y1="19.3105" x2="20.8193" y2="160.519" stroke="#0076BE" stroke-width="0.603453"/>
<line x1="36.5088" y1="19.3105" x2="36.5088" y2="160.519" stroke="#0076BE" stroke-width="0.603453"/>
<line x1="52.1982" y1="19.3105" x2="52.1982" y2="160.519" stroke="#0076BE" stroke-width="0.603453"/>
<line x1="67.8877" y1="19.3105" x2="67.8877" y2="160.519" stroke="#0076BE" stroke-width="0.603453"/>
<line x1="83.5791" y1="19.3105" x2="83.5791" y2="160.519" stroke="#0076BE" stroke-width="0.603453"/>
<line x1="99.2685" y1="19.3105" x2="99.2685" y2="160.519" stroke="#0076BE" stroke-width="0.603453"/>
<line x1="114.958" y1="19.3105" x2="114.958" y2="160.519" stroke="#0076BE" stroke-width="0.603453"/>
<line x1="130.647" y1="19.3105" x2="130.647" y2="160.519" stroke="#0076BE" stroke-width="0.603453"/>
<line x1="146.337" y1="19.3105" x2="146.337" y2="160.519" stroke="#0076BE" stroke-width="0.603453"/>
<line x1="162.026" y1="19.3105" x2="162.026" y2="160.519" stroke="#0076BE" stroke-width="0.603453"/>
<line x1="177.718" y1="19.3105" x2="177.718" y2="160.519" stroke="#0076BE" stroke-width="0.603453"/>
<line x1="193.407" y1="19.3105" x2="193.407" y2="160.519" stroke="#0076BE" stroke-width="0.603453"/>
<line x1="209.097" y1="19.3105" x2="209.097" y2="160.519" stroke="#0076BE" stroke-width="0.603453"/>
<line x1="224.786" y1="19.3105" x2="224.786" y2="160.519" stroke="#0076BE" stroke-width="0.603453"/>
<line x1="240.476" y1="19.3105" x2="240.476" y2="160.519" stroke="#0076BE" stroke-width="0.603453"/>
<line x1="240.476" y1="19.3105" x2="240.476" y2="160.519" stroke="#0076BE" stroke-width="0.603453"/>
<line x1="256.165" y1="19.3105" x2="256.165" y2="160.519" stroke="#0076BE" stroke-width="0.603453"/>
<line x1="271.854" y1="19.3105" x2="271.854" y2="160.519" stroke="#0076BE" stroke-width="0.603453"/>
<line x1="287.544" y1="19.3105" x2="287.544" y2="160.519" stroke="#0076BE" stroke-width="0.603453"/>
<line x1="303.235" y1="19.3105" x2="303.235" y2="160.519" stroke="#0076BE" stroke-width="0.603453"/>
<line x1="318.925" y1="19.3105" x2="318.925" y2="160.519" stroke="#0076BE" stroke-width="0.603453"/>
<line x1="334.614" y1="19.3105" x2="334.614" y2="160.519" stroke="#0076BE" stroke-width="0.603453"/>
<line x1="350.304" y1="19.3105" x2="350.304" y2="160.519" stroke="#0076BE" stroke-width="0.603453"/>
<line x1="365.993" y1="19.3105" x2="365.993" y2="160.519" stroke="#0076BE" stroke-width="0.603453"/>
<line x1="381.683" y1="19.3105" x2="381.683" y2="160.519" stroke="#0076BE" stroke-width="0.603453"/>
<line x1="397.374" y1="19.3105" x2="397.374" y2="160.519" stroke="#0076BE" stroke-width="0.603453"/>
<line x1="413.063" y1="19.3105" x2="413.063" y2="160.519" stroke="#0076BE" stroke-width="0.603453"/>
<line x1="428.753" y1="19.3105" x2="428.753" y2="160.519" stroke="#0076BE" stroke-width="0.603453"/>
<line x1="444.442" y1="19.3105" x2="444.442" y2="160.519" stroke="#0076BE" stroke-width="0.603453"/>
<line x1="460.132" y1="19.3105" x2="460.132" y2="160.519" stroke="#0076BE" stroke-width="0.603453"/>
<line x1="460.132" y1="19.3105" x2="460.132" y2="160.519" stroke="#0076BE" stroke-width="0.603453"/>
<line x1="475.821" y1="19.3105" x2="475.821" y2="160.519" stroke="#0076BE" stroke-width="0.603453"/>
<line x1="491.511" y1="19.3105" x2="491.511" y2="160.519" stroke="#0076BE" stroke-width="0.603453"/>
<line x1="507.2" y1="19.3105" x2="507.2" y2="160.519" stroke="#0076BE" stroke-width="0.603453"/>
<line x1="522.892" y1="19.3105" x2="522.892" y2="160.519" stroke="#0076BE" stroke-width="0.603453"/>
<line x1="538.581" y1="19.3105" x2="538.581" y2="160.519" stroke="#0076BE" stroke-width="0.603453"/>
<line x1="554.27" y1="19.3105" x2="554.27" y2="160.519" stroke="#0076BE" stroke-width="0.603453"/>
<line x1="569.96" y1="19.3105" x2="569.96" y2="160.519" stroke="#0076BE" stroke-width="0.603453"/>
<line x1="585.649" y1="19.3105" x2="585.649" y2="160.519" stroke="#0076BE" stroke-width="0.603453"/>
<line x1="601.339" y1="19.3105" x2="601.339" y2="160.519" stroke="#0076BE" stroke-width="0.603453"/>
<line x1="617.03" y1="19.3105" x2="617.03" y2="160.519" stroke="#0076BE" stroke-width="0.603453"/>
<line x1="632.72" y1="19.3105" x2="632.72" y2="160.519" stroke="#0076BE" stroke-width="0.603453"/>
<line x1="648.409" y1="19.3105" x2="648.409" y2="160.519" stroke="#0076BE" stroke-width="0.603453"/>
<line x1="664.099" y1="19.3105" x2="664.099" y2="160.519" stroke="#0076BE" stroke-width="0.603453"/>
<line x1="679.788" y1="19.3105" x2="679.788" y2="160.519" stroke="#0076BE" stroke-width="0.603453"/>
<line x1="679.79" y1="19.3105" x2="679.79" y2="160.519" stroke="#0076BE" stroke-width="0.603453"/>
<line x1="695.479" y1="19.3105" x2="695.479" y2="160.519" stroke="#0076BE" stroke-width="0.603453"/>
<line x1="711.169" y1="19.3105" x2="711.169" y2="160.519" stroke="#0076BE" stroke-width="0.603453"/>
<line x1="726.858" y1="19.3105" x2="726.858" y2="160.519" stroke="#0076BE" stroke-width="0.603453"/>
<line x1="742.55" y1="19.3105" x2="742.55" y2="160.519" stroke="#0076BE" stroke-width="0.603453"/>
<line x1="758.239" y1="19.3105" x2="758.239" y2="160.519" stroke="#0076BE" stroke-width="0.603453"/>
<line x1="773.929" y1="19.3105" x2="773.929" y2="160.519" stroke="#0076BE" stroke-width="0.603453"/>
<line x1="789.618" y1="19.3105" x2="789.618" y2="160.519" stroke="#0076BE" stroke-width="0.603453"/>
<line x1="805.308" y1="19.3105" x2="805.308" y2="160.519" stroke="#0076BE" stroke-width="0.603453"/>
<line x1="820.997" y1="19.3105" x2="820.997" y2="160.519" stroke="#0076BE" stroke-width="0.603453"/>
<line x1="836.688" y1="19.3105" x2="836.688" y2="160.519" stroke="#0076BE" stroke-width="0.603453"/>
<line x1="852.378" y1="19.3105" x2="852.378" y2="160.519" stroke="#0076BE" stroke-width="0.603453"/>
<line x1="868.067" y1="19.3105" x2="868.067" y2="160.519" stroke="#0076BE" stroke-width="0.603453"/>
<line x1="883.757" y1="19.3105" x2="883.757" y2="160.519" stroke="#0076BE" stroke-width="0.603453"/>
<line x1="20.5176" y1="19.0088" x2="883.455" y2="19.0088" stroke="#0076BE" stroke-width="0.603453"/>
<line x1="20.5176" y1="34.6983" x2="883.455" y2="34.6983" stroke="#0076BE" stroke-width="0.603453"/>
<line x1="20.5176" y1="50.3877" x2="883.455" y2="50.3877" stroke="#0076BE" stroke-width="0.603453"/>
<line x1="20.5176" y1="66.0772" x2="883.455" y2="66.0772" stroke="#0076BE" stroke-width="0.603453"/>
<line x1="20.5176" y1="81.7686" x2="883.455" y2="81.7686" stroke="#0076BE" stroke-width="0.603453"/>
<line x1="20.5176" y1="97.458" x2="883.455" y2="97.458" stroke="#0076BE" stroke-width="0.603453"/>
<line x1="20.5176" y1="113.147" x2="883.455" y2="113.147" stroke="#0076BE" stroke-width="0.603453"/>
<line x1="20.5176" y1="128.837" x2="883.455" y2="128.837" stroke="#0076BE" stroke-width="0.603453"/>
<line x1="20.5176" y1="144.526" x2="883.455" y2="144.526" stroke="#0076BE" stroke-width="0.603453"/>
<line x1="20.5176" y1="160.216" x2="883.455" y2="160.216" stroke="#0076BE" stroke-width="0.603453"/>
<line x1="6.03503" y1="113.449" x2="6.03503" y2="181.036" stroke="#0076BE" stroke-width="2.41381"/>
<line x1="4.82812" y1="181.035" x2="56.7251" y2="181.035" stroke="#0076BE" stroke-width="2.41381"/>
<line x1="783.281" y1="181.035" x2="901.558" y2="181.035" stroke="#0076BE" stroke-width="2.41381"/>
<line x1="901.559" y1="182.242" x2="901.559" y2="130.345" stroke="#0076BE" stroke-width="2.41381"/>
<line x1="6.0332" y1="1.20716" x2="83.2752" y2="1.20716" stroke="#0076BE" stroke-width="2.41381" stroke-dasharray="9.66 9.66"/>
<line x1="362.07" y1="181.035" x2="439.312" y2="181.035" stroke="#0076BE" stroke-width="2.41381" stroke-dasharray="9.66 9.66"/>
<line x1="615.52" y1="1.20716" x2="692.761" y2="1.20716" stroke="#0076BE" stroke-width="2.41381" stroke-dasharray="9.66 9.66"/>
<line x1="901.557" y1="2.41406" x2="901.557" y2="89.3113" stroke="#0076BE" stroke-width="2.41381" stroke-dasharray="9.66 9.66"/>
<line x1="6.03333" y1="38.6211" x2="6.03333" y2="0.000114441" stroke="#0076BE" stroke-width="2.41381" stroke-dasharray="9.66 9.66"/>
<line x1="56.7227" y1="181.035" x2="133.965" y2="181.035" stroke="#0076BE" stroke-width="2.41381" stroke-dasharray="9.66 9.66"/>
<line x1="901.557" y1="130.346" x2="901.557" y2="53.1037" stroke="#0076BE" stroke-width="2.41381" stroke-dasharray="9.66 9.66"/>
<rect x="819.488" y="187.07" width="12.0691" height="39.8279" transform="rotate(-90 819.488 187.07)" fill="#0076BE"/>
<rect y="20.5176" width="12.0691" height="39.8279" fill="#0076BE"/>
<rect x="895.523" y="67.5859" width="12.0691" height="39.8279" fill="#0076BE"/>
<line x1="855.695" y1="1.20716" x2="902.765" y2="1.20716" stroke="#0076BE" stroke-width="2.41381"/>
<line x1="337.934" y1="1.20716" x2="479.142" y2="1.20716" stroke="#0076BE" stroke-width="2.41381"/>
</svg>
