<svg width="592" height="348" viewBox="0 0 592 348" fill="none" xmlns="http://www.w3.org/2000/svg">
<rect x="32.4792" y="18.8913" width="528.764" height="297.511" stroke="#0076BE" stroke-width="5.1967"/>
<rect x="574.236" y="111.131" width="16.8893" height="42.8728" fill="#0076BE"/>
<line x1="583.33" y1="339.784" x2="557.347" y2="339.784" stroke="#0076BE" stroke-width="2.59835"/>
<line x1="583.33" y1="255.34" x2="583.33" y2="159.201" stroke="#0076BE" stroke-width="2.59835" stroke-dasharray="5.2 5.2"/>
<line x1="584.629" y1="324.195" x2="584.629" y2="341.085" stroke="#0076BE" stroke-width="2.59835"/>
<rect y="15.8516" width="12.9917" height="42.8728" fill="#0076BE"/>
<rect x="27.2832" y="347.578" width="14.2909" height="42.8728" transform="rotate(-90 27.2832 347.578)" fill="#0076BE"/>
<line x1="6.152" y1="19.1797" x2="6.152" y2="2.05457" stroke="#0076BE" stroke-width="2.59835"/>
<line x1="27.2832" y1="339.784" x2="6.49641" y2="339.784" stroke="#0076BE" stroke-width="2.59835"/>
<line x1="17.627" y1="1.70864" x2="41.2985" y2="1.70864" stroke="#0076BE" stroke-width="2.59835" stroke-dasharray="5.2 5.2"/>
<line x1="109.482" y1="1.71059" x2="239.676" y2="1.71059" stroke="#0076BE" stroke-width="2.59835" stroke-dasharray="11.69 11.69"/>
<line x1="233.85" y1="341.084" x2="402.742" y2="341.084" stroke="#0076BE" stroke-width="2.59835" stroke-dasharray="9.09 9.09"/>
<line x1="6.49575" y1="341.084" x2="6.49575" y2="312.502" stroke="#0076BE" stroke-width="2.59835" stroke-dasharray="5.2 5.2"/>
<line x1="6.49449" y1="73.5117" x2="6.49448" y2="255.396" stroke="#0076BE" stroke-width="2.59835" stroke-dasharray="9.09 9.09"/>
<line x1="582.03" y1="3.29883" x2="582.03" y2="18.8889" stroke="#0076BE" stroke-width="2.59835"/>
<line x1="582.03" y1="18.8906" x2="582.03" y2="34.4807" stroke="#0076BE" stroke-width="2.59835" stroke-dasharray="5.2 5.2"/>
<line x1="540.455" y1="3.29917" x2="514.472" y2="3.29918" stroke="#0076BE" stroke-width="2.59835"/>
<line x1="561.244" y1="3.30043" x2="584.629" y2="3.30044" stroke="#0076BE" stroke-width="2.59835"/>
</svg>
