<svg width="592" height="387" viewBox="0 0 592 387" fill="none" xmlns="http://www.w3.org/2000/svg">
<path d="M26.8171 29.364H565.974V361.953H26.8171V29.364Z" fill="url(#paint0_linear_739_69276)" stroke="#0076BE" stroke-width="5.1967"/>
<line x1="29.0767" y1="28.6973" x2="29.0767" y2="185.855" stroke="#0076BE" stroke-width="0.649587"/>
<line x1="46.8951" y1="28.6973" x2="46.8951" y2="185.855" stroke="#0076BE" stroke-width="0.649587"/>
<line x1="64.7096" y1="28.6973" x2="64.7095" y2="185.855" stroke="#0076BE" stroke-width="0.649587"/>
<line x1="82.526" y1="28.6973" x2="82.526" y2="185.855" stroke="#0076BE" stroke-width="0.649587"/>
<line x1="100.342" y1="28.6973" x2="100.342" y2="185.855" stroke="#0076BE" stroke-width="0.649587"/>
<line x1="118.163" y1="28.6973" x2="118.163" y2="185.855" stroke="#0076BE" stroke-width="0.649587"/>
<line x1="135.981" y1="28.6973" x2="135.981" y2="185.855" stroke="#0076BE" stroke-width="0.649587"/>
<line x1="153.797" y1="28.6973" x2="153.797" y2="185.855" stroke="#0076BE" stroke-width="0.649587"/>
<line x1="171.612" y1="28.6973" x2="171.612" y2="185.855" stroke="#0076BE" stroke-width="0.649587"/>
<line x1="189.43" y1="28.6973" x2="189.43" y2="185.855" stroke="#0076BE" stroke-width="0.649587"/>
<line x1="207.249" y1="28.6973" x2="207.249" y2="185.855" stroke="#0076BE" stroke-width="0.649587"/>
<line x1="225.065" y1="28.6973" x2="225.065" y2="185.855" stroke="#0076BE" stroke-width="0.649587"/>
<line x1="242.881" y1="28.6973" x2="242.881" y2="185.855" stroke="#0076BE" stroke-width="0.649587"/>
<line x1="260.696" y1="28.6973" x2="260.696" y2="185.855" stroke="#0076BE" stroke-width="0.649587"/>
<line x1="278.514" y1="28.6973" x2="278.514" y2="185.855" stroke="#0076BE" stroke-width="0.649587"/>
<line x1="278.516" y1="28.6973" x2="278.516" y2="185.855" stroke="#0076BE" stroke-width="0.649587"/>
<line x1="296.335" y1="28.6973" x2="296.335" y2="185.855" stroke="#0076BE" stroke-width="0.649587"/>
<line x1="314.151" y1="28.6973" x2="314.151" y2="185.855" stroke="#0076BE" stroke-width="0.649587"/>
<line x1="331.965" y1="28.6973" x2="331.965" y2="185.855" stroke="#0076BE" stroke-width="0.649587"/>
<line x1="349.784" y1="28.6973" x2="349.784" y2="185.855" stroke="#0076BE" stroke-width="0.649587"/>
<line x1="367.602" y1="28.6973" x2="367.602" y2="185.855" stroke="#0076BE" stroke-width="0.649587"/>
<line x1="385.42" y1="28.6973" x2="385.421" y2="185.855" stroke="#0076BE" stroke-width="0.649587"/>
<line x1="403.237" y1="28.6973" x2="403.237" y2="185.855" stroke="#0076BE" stroke-width="0.649587"/>
<line x1="421.051" y1="28.6973" x2="421.051" y2="185.855" stroke="#0076BE" stroke-width="0.649587"/>
<line x1="438.87" y1="28.6973" x2="438.87" y2="185.855" stroke="#0076BE" stroke-width="0.649587"/>
<line x1="456.688" y1="28.6973" x2="456.688" y2="185.855" stroke="#0076BE" stroke-width="0.649587"/>
<line x1="28.752" y1="28.3725" x2="566.182" y2="28.3725" stroke="#0076BE" stroke-width="0.649587"/>
<line x1="28.752" y1="45.8354" x2="566.182" y2="45.8354" stroke="#0076BE" stroke-width="0.649587"/>
<line x1="28.752" y1="63.2963" x2="566.182" y2="63.2963" stroke="#0076BE" stroke-width="0.649587"/>
<line x1="28.752" y1="80.7592" x2="566.182" y2="80.7592" stroke="#0076BE" stroke-width="0.649587"/>
<line x1="28.752" y1="98.2182" x2="566.182" y2="98.2182" stroke="#0076BE" stroke-width="0.649587"/>
<line x1="28.752" y1="115.683" x2="566.182" y2="115.683" stroke="#0076BE" stroke-width="0.649587"/>
<line x1="28.752" y1="133.144" x2="566.182" y2="133.144" stroke="#0076BE" stroke-width="0.649587"/>
<line x1="28.752" y1="150.607" x2="566.182" y2="150.607" stroke="#0076BE" stroke-width="0.649587"/>
<line x1="28.752" y1="168.07" x2="566.182" y2="168.07" stroke="#0076BE" stroke-width="0.649587"/>
<line x1="28.752" y1="185.533" x2="566.182" y2="185.533" stroke="#0076BE" stroke-width="0.649587"/>
<line x1="29.0807" y1="97.9902" x2="29.0806" y2="363.756" stroke="#0076BE" stroke-width="0.649587"/>
<line x1="46.899" y1="97.9902" x2="46.899" y2="363.756" stroke="#0076BE" stroke-width="0.649587"/>
<line x1="64.7154" y1="97.9902" x2="64.7154" y2="363.756" stroke="#0076BE" stroke-width="0.649587"/>
<line x1="82.5299" y1="97.9902" x2="82.5299" y2="363.756" stroke="#0076BE" stroke-width="0.649587"/>
<line x1="100.348" y1="97.9902" x2="100.348" y2="363.756" stroke="#0076BE" stroke-width="0.649587"/>
<line x1="118.167" y1="97.9902" x2="118.167" y2="363.756" stroke="#0076BE" stroke-width="0.649587"/>
<line x1="135.985" y1="97.9902" x2="135.985" y2="363.756" stroke="#0076BE" stroke-width="0.649587"/>
<line x1="153.801" y1="97.9902" x2="153.801" y2="363.756" stroke="#0076BE" stroke-width="0.649587"/>
<line x1="171.616" y1="97.9902" x2="171.616" y2="363.756" stroke="#0076BE" stroke-width="0.649587"/>
<line x1="189.434" y1="97.9902" x2="189.434" y2="363.756" stroke="#0076BE" stroke-width="0.649587"/>
<line x1="207.253" y1="97.9902" x2="207.253" y2="363.756" stroke="#0076BE" stroke-width="0.649587"/>
<line x1="225.069" y1="97.9902" x2="225.069" y2="363.756" stroke="#0076BE" stroke-width="0.649587"/>
<line x1="242.885" y1="97.9902" x2="242.885" y2="363.756" stroke="#0076BE" stroke-width="0.649587"/>
<line x1="260.7" y1="97.9902" x2="260.7" y2="363.756" stroke="#0076BE" stroke-width="0.649587"/>
<line x1="278.518" y1="97.9902" x2="278.518" y2="363.756" stroke="#0076BE" stroke-width="0.649587"/>
<line x1="278.516" y1="97.9902" x2="278.516" y2="363.756" stroke="#0076BE" stroke-width="0.649587"/>
<line x1="296.335" y1="97.9902" x2="296.335" y2="363.756" stroke="#0076BE" stroke-width="0.649587"/>
<line x1="314.151" y1="97.9902" x2="314.151" y2="363.756" stroke="#0076BE" stroke-width="0.649587"/>
<line x1="331.965" y1="97.9902" x2="331.965" y2="363.756" stroke="#0076BE" stroke-width="0.649587"/>
<line x1="349.784" y1="97.9902" x2="349.784" y2="363.756" stroke="#0076BE" stroke-width="0.649587"/>
<line x1="367.602" y1="97.9902" x2="367.602" y2="363.756" stroke="#0076BE" stroke-width="0.649587"/>
<line x1="385.42" y1="97.9902" x2="385.421" y2="363.756" stroke="#0076BE" stroke-width="0.649587"/>
<line x1="403.237" y1="97.9902" x2="403.237" y2="363.756" stroke="#0076BE" stroke-width="0.649587"/>
<line x1="421.051" y1="97.9902" x2="421.051" y2="363.756" stroke="#0076BE" stroke-width="0.649587"/>
<line x1="438.87" y1="97.9902" x2="438.87" y2="363.756" stroke="#0076BE" stroke-width="0.649587"/>
<line x1="456.686" y1="97.9902" x2="456.686" y2="363.756" stroke="#0076BE" stroke-width="0.649587"/>
<line x1="474.049" y1="28.6992" x2="474.049" y2="364.55" stroke="#0076BE" stroke-width="0.649587"/>
<line x1="491.868" y1="28.6992" x2="491.868" y2="364.55" stroke="#0076BE" stroke-width="0.649587"/>
<line x1="509.684" y1="28.6992" x2="509.684" y2="364.55" stroke="#0076BE" stroke-width="0.649587"/>
<line x1="527.499" y1="28.6992" x2="527.499" y2="364.55" stroke="#0076BE" stroke-width="0.649587"/>
<line x1="545.317" y1="28.6992" x2="545.317" y2="364.55" stroke="#0076BE" stroke-width="0.649587"/>
<line x1="563.135" y1="28.6992" x2="563.135" y2="364.55" stroke="#0076BE" stroke-width="0.649587"/>
<line x1="28.4375" y1="185.705" x2="566.182" y2="185.704" stroke="#0076BE" stroke-width="0.649587"/>
<line x1="28.4375" y1="203.167" x2="566.182" y2="203.167" stroke="#0076BE" stroke-width="0.649587"/>
<line x1="28.4375" y1="220.628" x2="566.182" y2="220.628" stroke="#0076BE" stroke-width="0.649587"/>
<line x1="28.4375" y1="238.089" x2="566.182" y2="238.089" stroke="#0076BE" stroke-width="0.649587"/>
<line x1="28.4375" y1="255.552" x2="566.182" y2="255.552" stroke="#0076BE" stroke-width="0.649587"/>
<line x1="28.4375" y1="273.015" x2="566.182" y2="273.015" stroke="#0076BE" stroke-width="0.649587"/>
<line x1="28.4375" y1="290.476" x2="566.182" y2="290.476" stroke="#0076BE" stroke-width="0.649587"/>
<line x1="28.4375" y1="307.939" x2="566.182" y2="307.939" stroke="#0076BE" stroke-width="0.649587"/>
<line x1="28.4375" y1="325.402" x2="566.182" y2="325.402" stroke="#0076BE" stroke-width="0.649587"/>
<line x1="28.4375" y1="342.865" x2="566.182" y2="342.865" stroke="#0076BE" stroke-width="0.649587"/>
<rect x="578.002" y="307.127" width="13.9592" height="46.0655" fill="#0076BE"/>
<line x1="583.969" y1="379.618" x2="562.985" y2="379.618" stroke="#0076BE" stroke-width="2.59835"/>
<line x1="585.339" y1="307.127" x2="585.339" y2="261.061" stroke="#0076BE" stroke-width="2.59835" stroke-dasharray="5.2 5.2"/>
<line x1="585.268" y1="339.232" x2="585.268" y2="381.11" stroke="#0076BE" stroke-width="2.59835"/>
<rect x="0.835938" y="53.8281" width="13.9592" height="46.0655" fill="#0076BE"/>
<rect x="23.1191" y="386.693" width="13.9592" height="46.0655" transform="rotate(-90 23.1191 386.693)" fill="#0076BE"/>
<line x1="7.91372" y1="64.9902" x2="7.91371" y2="7.75739" stroke="#0076BE" stroke-width="2.59835"/>
<line x1="30.3594" y1="379.618" x2="7.46846" y2="379.618" stroke="#0076BE" stroke-width="2.59835"/>
<line x1="9.01597" y1="301.541" x2="9.01597" y2="381.109" stroke="#0076BE" stroke-width="2.59835"/>
<line x1="7.44336" y1="9.25161" x2="16.9812" y2="9.25161" stroke="#0076BE" stroke-width="2.59835"/>
<line x1="16.9805" y1="9.25161" x2="42.4148" y2="9.25161" stroke="#0076BE" stroke-width="2.59835" stroke-dasharray="5.2 5.2"/>
<line x1="118.471" y1="7.85708" x2="258.36" y2="7.85708" stroke="#0076BE" stroke-width="2.59835" stroke-dasharray="11.69 11.69"/>
<line x1="360.783" y1="379.81" x2="542.003" y2="379.81" stroke="#0076BE" stroke-width="2.59835" stroke-dasharray="9.09 9.09"/>
<line x1="7.4691" y1="78.9551" x2="7.4691" y2="134.792" stroke="#0076BE" stroke-width="2.59835" stroke-dasharray="5.2 5.2"/>
<line x1="142.049" y1="382.601" x2="167.483" y2="382.601" stroke="#0076BE" stroke-width="2.59835" stroke-dasharray="5.2 5.2"/>
<rect x="481.967" y="14.7402" width="13.9592" height="46.0655" transform="rotate(-90 481.967 14.7402)" fill="#0076BE"/>
<line x1="548.973" y1="7.66441" x2="527.989" y2="7.66441" stroke="#0076BE" stroke-width="2.59835"/>
<line x1="564.867" y1="7.85708" x2="583.943" y2="7.85708" stroke="#0076BE" stroke-width="2.59835"/>
<line x1="584.429" y1="137.582" x2="584.429" y2="6.36526" stroke="#0076BE" stroke-width="2.59835"/>
<defs>
<linearGradient id="paint0_linear_739_69276" x1="303.895" y1="353.849" x2="298.338" y2="41.5517" gradientUnits="userSpaceOnUse">
<stop stop-color="#0076BE" stop-opacity="0.22"/>
<stop offset="1" stop-color="#2B2A2B" stop-opacity="0"/>
</linearGradient>
</defs>
</svg>
