<svg width="1005" height="208" viewBox="0 0 1005 208" fill="none" xmlns="http://www.w3.org/2000/svg">
<rect x="24.0444" y="18.7582" width="956.336" height="161.615" stroke="#0076BE" stroke-width="5.34266"/>
<line x1="23.0449" y1="21.4307" x2="23.0448" y2="177.703" stroke="#0076BE" stroke-width="0.667832"/>
<line x1="40.4081" y1="21.4307" x2="40.4081" y2="177.703" stroke="#0076BE" stroke-width="0.667832"/>
<line x1="57.7734" y1="21.4307" x2="57.7734" y2="177.703" stroke="#0076BE" stroke-width="0.667832"/>
<line x1="75.1367" y1="21.4307" x2="75.1366" y2="177.703" stroke="#0076BE" stroke-width="0.667832"/>
<line x1="92.4999" y1="21.4307" x2="92.4999" y2="177.703" stroke="#0076BE" stroke-width="0.667832"/>
<line x1="109.865" y1="21.4307" x2="109.865" y2="177.703" stroke="#0076BE" stroke-width="0.667832"/>
<line x1="127.226" y1="21.4307" x2="127.226" y2="177.703" stroke="#0076BE" stroke-width="0.667832"/>
<line x1="144.59" y1="21.4307" x2="144.59" y2="177.703" stroke="#0076BE" stroke-width="0.667832"/>
<line x1="161.953" y1="21.4307" x2="161.953" y2="177.703" stroke="#0076BE" stroke-width="0.667832"/>
<line x1="179.318" y1="21.4307" x2="179.318" y2="177.703" stroke="#0076BE" stroke-width="0.667832"/>
<line x1="196.682" y1="21.4307" x2="196.682" y2="177.703" stroke="#0076BE" stroke-width="0.667832"/>
<line x1="214.045" y1="21.4307" x2="214.045" y2="177.703" stroke="#0076BE" stroke-width="0.667832"/>
<line x1="231.41" y1="21.4307" x2="231.41" y2="177.703" stroke="#0076BE" stroke-width="0.667832"/>
<line x1="248.773" y1="21.4307" x2="248.773" y2="177.703" stroke="#0076BE" stroke-width="0.667832"/>
<line x1="266.137" y1="21.4307" x2="266.137" y2="177.703" stroke="#0076BE" stroke-width="0.667832"/>
<line x1="266.135" y1="21.4307" x2="266.135" y2="177.703" stroke="#0076BE" stroke-width="0.667832"/>
<line x1="283.498" y1="21.4307" x2="283.498" y2="177.703" stroke="#0076BE" stroke-width="0.667832"/>
<line x1="300.863" y1="21.4307" x2="300.863" y2="177.703" stroke="#0076BE" stroke-width="0.667832"/>
<line x1="318.226" y1="21.4307" x2="318.227" y2="177.703" stroke="#0076BE" stroke-width="0.667832"/>
<line x1="335.59" y1="21.4307" x2="335.59" y2="177.703" stroke="#0076BE" stroke-width="0.667832"/>
<line x1="352.955" y1="21.4307" x2="352.955" y2="177.703" stroke="#0076BE" stroke-width="0.667832"/>
<line x1="370.316" y1="21.4307" x2="370.316" y2="177.703" stroke="#0076BE" stroke-width="0.667832"/>
<line x1="387.68" y1="21.4307" x2="387.68" y2="177.703" stroke="#0076BE" stroke-width="0.667832"/>
<line x1="405.043" y1="21.4307" x2="405.043" y2="177.703" stroke="#0076BE" stroke-width="0.667832"/>
<line x1="422.408" y1="21.4307" x2="422.408" y2="177.703" stroke="#0076BE" stroke-width="0.667832"/>
<line x1="439.771" y1="21.4307" x2="439.771" y2="177.703" stroke="#0076BE" stroke-width="0.667832"/>
<line x1="457.135" y1="21.4307" x2="457.135" y2="177.703" stroke="#0076BE" stroke-width="0.667832"/>
<line x1="474.5" y1="21.4307" x2="474.5" y2="177.703" stroke="#0076BE" stroke-width="0.667832"/>
<line x1="491.863" y1="21.4307" x2="491.863" y2="177.703" stroke="#0076BE" stroke-width="0.667832"/>
<line x1="509.226" y1="21.4307" x2="509.227" y2="177.703" stroke="#0076BE" stroke-width="0.667832"/>
<line x1="509.225" y1="21.4307" x2="509.225" y2="177.703" stroke="#0076BE" stroke-width="0.667832"/>
<line x1="526.588" y1="21.4307" x2="526.588" y2="177.703" stroke="#0076BE" stroke-width="0.667832"/>
<line x1="543.953" y1="21.4307" x2="543.953" y2="177.703" stroke="#0076BE" stroke-width="0.667832"/>
<line x1="561.316" y1="21.4307" x2="561.316" y2="177.703" stroke="#0076BE" stroke-width="0.667832"/>
<line x1="578.68" y1="21.4307" x2="578.68" y2="177.703" stroke="#0076BE" stroke-width="0.667832"/>
<line x1="596.045" y1="21.4307" x2="596.045" y2="177.703" stroke="#0076BE" stroke-width="0.667832"/>
<line x1="613.406" y1="21.4307" x2="613.406" y2="177.703" stroke="#0076BE" stroke-width="0.667832"/>
<line x1="630.769" y1="21.4307" x2="630.769" y2="177.703" stroke="#0076BE" stroke-width="0.667832"/>
<line x1="648.133" y1="21.4307" x2="648.133" y2="177.703" stroke="#0076BE" stroke-width="0.667832"/>
<line x1="665.498" y1="21.4307" x2="665.498" y2="177.703" stroke="#0076BE" stroke-width="0.667832"/>
<line x1="682.861" y1="21.4307" x2="682.861" y2="177.703" stroke="#0076BE" stroke-width="0.667832"/>
<line x1="700.225" y1="21.4307" x2="700.225" y2="177.703" stroke="#0076BE" stroke-width="0.667832"/>
<line x1="717.59" y1="21.4307" x2="717.59" y2="177.703" stroke="#0076BE" stroke-width="0.667832"/>
<line x1="734.953" y1="21.4307" x2="734.953" y2="177.703" stroke="#0076BE" stroke-width="0.667832"/>
<line x1="752.316" y1="21.4307" x2="752.316" y2="177.703" stroke="#0076BE" stroke-width="0.667832"/>
<line x1="752.318" y1="21.4307" x2="752.318" y2="177.703" stroke="#0076BE" stroke-width="0.667832"/>
<line x1="769.682" y1="21.4307" x2="769.682" y2="177.703" stroke="#0076BE" stroke-width="0.667832"/>
<line x1="787.047" y1="21.4307" x2="787.047" y2="177.703" stroke="#0076BE" stroke-width="0.667832"/>
<line x1="804.41" y1="21.4307" x2="804.41" y2="177.703" stroke="#0076BE" stroke-width="0.667832"/>
<line x1="821.773" y1="21.4307" x2="821.773" y2="177.703" stroke="#0076BE" stroke-width="0.667832"/>
<line x1="839.137" y1="21.4307" x2="839.137" y2="177.703" stroke="#0076BE" stroke-width="0.667832"/>
<line x1="856.5" y1="21.4307" x2="856.5" y2="177.703" stroke="#0076BE" stroke-width="0.667832"/>
<line x1="873.863" y1="21.4307" x2="873.863" y2="177.703" stroke="#0076BE" stroke-width="0.667832"/>
<line x1="891.226" y1="21.4307" x2="891.227" y2="177.703" stroke="#0076BE" stroke-width="0.667832"/>
<line x1="908.592" y1="21.4307" x2="908.592" y2="177.703" stroke="#0076BE" stroke-width="0.667832"/>
<line x1="925.955" y1="21.4307" x2="925.955" y2="177.703" stroke="#0076BE" stroke-width="0.667832"/>
<line x1="943.318" y1="21.4307" x2="943.318" y2="177.703" stroke="#0076BE" stroke-width="0.667832"/>
<line x1="960.684" y1="21.4307" x2="960.684" y2="177.703" stroke="#0076BE" stroke-width="0.667832"/>
<line x1="978.047" y1="21.4307" x2="978.047" y2="177.703" stroke="#0076BE" stroke-width="0.667832"/>
<line x1="22.7109" y1="21.0967" x2="977.711" y2="21.0967" stroke="#0076BE" stroke-width="0.667832"/>
<line x1="22.7109" y1="38.461" x2="977.711" y2="38.461" stroke="#0076BE" stroke-width="0.667832"/>
<line x1="22.7109" y1="55.8233" x2="977.711" y2="55.8233" stroke="#0076BE" stroke-width="0.667832"/>
<line x1="22.7109" y1="73.1876" x2="977.711" y2="73.1876" stroke="#0076BE" stroke-width="0.667832"/>
<line x1="22.7109" y1="90.5508" x2="977.711" y2="90.5508" stroke="#0076BE" stroke-width="0.667832"/>
<line x1="22.7109" y1="107.915" x2="977.711" y2="107.915" stroke="#0076BE" stroke-width="0.667832"/>
<line x1="22.7109" y1="125.279" x2="977.711" y2="125.279" stroke="#0076BE" stroke-width="0.667832"/>
<line x1="22.7109" y1="142.642" x2="977.711" y2="142.642" stroke="#0076BE" stroke-width="0.667832"/>
<line x1="22.7109" y1="160.006" x2="977.711" y2="160.006" stroke="#0076BE" stroke-width="0.667832"/>
<line x1="22.7109" y1="177.37" x2="977.711" y2="177.37" stroke="#0076BE" stroke-width="0.667832"/>
<line x1="6.67746" y1="125.612" x2="6.67746" y2="200.41" stroke="#0076BE" stroke-width="2.67133"/>
<line x1="5.3418" y1="200.408" x2="62.7754" y2="200.408" stroke="#0076BE" stroke-width="2.67133"/>
<line x1="866.848" y1="200.408" x2="997.743" y2="200.408" stroke="#0076BE" stroke-width="2.67133"/>
<line x1="997.742" y1="201.744" x2="997.742" y2="144.311" stroke="#0076BE" stroke-width="2.67133"/>
<line x1="6.67578" y1="1.3948" x2="92.1583" y2="1.3948" stroke="#0076BE" stroke-width="2.67133" stroke-dasharray="10.69 10.69"/>
<line x1="400.697" y1="200.408" x2="486.18" y2="200.408" stroke="#0076BE" stroke-width="2.67133" stroke-dasharray="10.69 10.69"/>
<line x1="681.188" y1="1.3948" x2="766.67" y2="1.3948" stroke="#0076BE" stroke-width="2.67133" stroke-dasharray="10.69 10.69"/>
<line x1="997.738" y1="2.73047" x2="997.738" y2="98.8983" stroke="#0076BE" stroke-width="2.67133" stroke-dasharray="10.69 10.69"/>
<line x1="6.67801" y1="42.8008" x2="6.67801" y2="0.0595169" stroke="#0076BE" stroke-width="2.67133" stroke-dasharray="10.69 10.69"/>
<line x1="62.7734" y1="200.408" x2="148.256" y2="200.408" stroke="#0076BE" stroke-width="2.67133" stroke-dasharray="10.69 10.69"/>
<line x1="997.739" y1="144.312" x2="997.739" y2="58.829" stroke="#0076BE" stroke-width="2.67133" stroke-dasharray="10.69 10.69"/>
<rect x="906.914" y="207.088" width="13.3566" height="44.0769" transform="rotate(-90 906.914 207.088)" fill="#0076BE"/>
<rect y="22.7656" width="13.3566" height="44.0769" fill="#0076BE"/>
<rect x="991.062" y="74.8574" width="13.3566" height="44.0769" fill="#0076BE"/>
<line x1="946.986" y1="1.3948" x2="999.077" y2="1.3948" stroke="#0076BE" stroke-width="2.67133"/>
<line x1="373.988" y1="1.3948" x2="530.261" y2="1.3948" stroke="#0076BE" stroke-width="2.67133"/>
</svg>
