<svg width="620" height="133" viewBox="0 0 620 133" fill="none" xmlns="http://www.w3.org/2000/svg">
<rect x="2.67133" y="2.7807" width="614.406" height="126.888" stroke="#0076BE" stroke-width="5.34266"/>
<line x1="1.65423" y1="5.4502" x2="1.65422" y2="132.338" stroke="#0076BE" stroke-width="0.667832"/>
<line x1="18.8339" y1="5.4502" x2="18.8339" y2="132.338" stroke="#0076BE" stroke-width="0.667832"/>
<line x1="36.0097" y1="5.4502" x2="36.0097" y2="132.338" stroke="#0076BE" stroke-width="0.667832"/>
<line x1="53.1913" y1="5.4502" x2="53.1913" y2="132.338" stroke="#0076BE" stroke-width="0.667832"/>
<line x1="70.3671" y1="5.4502" x2="70.3671" y2="132.338" stroke="#0076BE" stroke-width="0.667832"/>
<line x1="87.5468" y1="5.4502" x2="87.5468" y2="132.338" stroke="#0076BE" stroke-width="0.667832"/>
<line x1="104.725" y1="5.4502" x2="104.725" y2="132.338" stroke="#0076BE" stroke-width="0.667832"/>
<line x1="121.902" y1="5.4502" x2="121.902" y2="132.338" stroke="#0076BE" stroke-width="0.667832"/>
<line x1="139.082" y1="5.4502" x2="139.082" y2="132.338" stroke="#0076BE" stroke-width="0.667832"/>
<line x1="156.262" y1="5.4502" x2="156.262" y2="132.338" stroke="#0076BE" stroke-width="0.667832"/>
<line x1="173.441" y1="5.4502" x2="173.441" y2="132.338" stroke="#0076BE" stroke-width="0.667832"/>
<line x1="190.617" y1="5.4502" x2="190.617" y2="132.338" stroke="#0076BE" stroke-width="0.667832"/>
<line x1="207.799" y1="5.4502" x2="207.799" y2="132.338" stroke="#0076BE" stroke-width="0.667832"/>
<line x1="224.976" y1="5.4502" x2="224.976" y2="132.338" stroke="#0076BE" stroke-width="0.667832"/>
<line x1="242.156" y1="5.4502" x2="242.156" y2="132.338" stroke="#0076BE" stroke-width="0.667832"/>
<line x1="242.156" y1="5.4502" x2="242.156" y2="132.338" stroke="#0076BE" stroke-width="0.667832"/>
<line x1="259.336" y1="5.4502" x2="259.336" y2="132.338" stroke="#0076BE" stroke-width="0.667832"/>
<line x1="276.512" y1="5.4502" x2="276.512" y2="132.338" stroke="#0076BE" stroke-width="0.667832"/>
<line x1="293.693" y1="5.4502" x2="293.693" y2="132.338" stroke="#0076BE" stroke-width="0.667832"/>
<line x1="310.869" y1="5.4502" x2="310.869" y2="132.338" stroke="#0076BE" stroke-width="0.667832"/>
<line x1="328.049" y1="5.4502" x2="328.049" y2="132.338" stroke="#0076BE" stroke-width="0.667832"/>
<line x1="345.226" y1="5.4502" x2="345.227" y2="132.338" stroke="#0076BE" stroke-width="0.667832"/>
<line x1="362.404" y1="5.4502" x2="362.404" y2="132.338" stroke="#0076BE" stroke-width="0.667832"/>
<line x1="379.584" y1="5.4502" x2="379.584" y2="132.338" stroke="#0076BE" stroke-width="0.667832"/>
<line x1="396.764" y1="5.4502" x2="396.764" y2="132.338" stroke="#0076BE" stroke-width="0.667832"/>
<line x1="413.939" y1="5.4502" x2="413.939" y2="132.338" stroke="#0076BE" stroke-width="0.667832"/>
<line x1="431.119" y1="5.4502" x2="431.119" y2="132.338" stroke="#0076BE" stroke-width="0.667832"/>
<line x1="448.297" y1="5.4502" x2="448.297" y2="132.338" stroke="#0076BE" stroke-width="0.667832"/>
<line x1="465.478" y1="5.4502" x2="465.478" y2="132.338" stroke="#0076BE" stroke-width="0.667832"/>
<line x1="482.654" y1="5.4502" x2="482.654" y2="132.338" stroke="#0076BE" stroke-width="0.667832"/>
<line x1="482.652" y1="5.4502" x2="482.652" y2="132.338" stroke="#0076BE" stroke-width="0.667832"/>
<line x1="499.832" y1="5.4502" x2="499.832" y2="132.338" stroke="#0076BE" stroke-width="0.667832"/>
<line x1="517.008" y1="5.4502" x2="517.008" y2="132.338" stroke="#0076BE" stroke-width="0.667832"/>
<line x1="534.189" y1="5.4502" x2="534.189" y2="132.338" stroke="#0076BE" stroke-width="0.667832"/>
<line x1="551.365" y1="5.4502" x2="551.365" y2="132.338" stroke="#0076BE" stroke-width="0.667832"/>
<line x1="568.545" y1="5.4502" x2="568.545" y2="132.338" stroke="#0076BE" stroke-width="0.667832"/>
<line x1="585.723" y1="5.4502" x2="585.723" y2="132.338" stroke="#0076BE" stroke-width="0.667832"/>
<line x1="602.9" y1="5.4502" x2="602.9" y2="132.338" stroke="#0076BE" stroke-width="0.667832"/>
<line x1="1.32031" y1="5.11628" x2="614.462" y2="5.11628" stroke="#0076BE" stroke-width="0.667832"/>
<line x1="1.32031" y1="22.4805" x2="614.462" y2="22.4805" stroke="#0076BE" stroke-width="0.667832"/>
<line x1="1.32031" y1="39.8438" x2="614.462" y2="39.8438" stroke="#0076BE" stroke-width="0.667832"/>
<line x1="1.32031" y1="57.2071" x2="614.462" y2="57.2071" stroke="#0076BE" stroke-width="0.667832"/>
<line x1="1.32031" y1="74.5704" x2="614.462" y2="74.5704" stroke="#0076BE" stroke-width="0.667832"/>
<line x1="1.32031" y1="91.9346" x2="614.462" y2="91.9346" stroke="#0076BE" stroke-width="0.667832"/>
<line x1="1.32031" y1="109.299" x2="614.462" y2="109.299" stroke="#0076BE" stroke-width="0.667832"/>
<line x1="1.32031" y1="126.662" x2="614.462" y2="126.662" stroke="#0076BE" stroke-width="0.667832"/>
</svg>
