<svg width="1910" height="903" viewBox="0 0 1910 903" fill="none" xmlns="http://www.w3.org/2000/svg">
<line x1="901.021" y1="8.19363" x2="1161.17" y2="8.19363" stroke="#0076BE" stroke-width="2.67133" stroke-dasharray="10.69 10.69"/>
<line x1="1900.63" y1="7.45801" x2="1900.63" y2="116.983" stroke="#0076BE" stroke-width="2.67133" stroke-dasharray="9.35 9.35"/>
<line x1="1695.22" y1="8.19504" x2="1540.76" y2="8.19504" stroke="#0076BE" stroke-width="2.67133" stroke-dasharray="9.35 9.35"/>
<rect x="1753.05" y="0.780273" width="17.3636" height="44.0769" transform="rotate(90 1753.05 0.780273)" fill="#0076BE"/>
<rect x="1910" y="161.06" width="17.3636" height="44.0769" transform="rotate(-180 1910 161.06)" fill="#0076BE"/>
<line x1="1900.38" y1="8.79367" x2="1745.92" y2="8.79367" stroke="#0076BE" stroke-width="2.67133"/>
<line x1="9.67383" y1="8.19363" x2="168.201" y2="8.19363" stroke="#0076BE" stroke-width="2.67133"/>
<line x1="166.865" y1="8.19363" x2="325.392" y2="8.19363" stroke="#0076BE" stroke-width="2.67133" stroke-dasharray="9.35 9.35"/>
<line x1="11.1468" y1="95.6123" x2="11.1468" y2="7.45844" stroke="#0076BE" stroke-width="2.67133" stroke-dasharray="9.35 9.35"/>
<line x1="10.5745" y1="220.973" x2="10.5745" y2="112.43" stroke="#0076BE" stroke-width="2.67133" stroke-dasharray="9.35 9.35"/>
<line x1="10.5745" y1="777.863" x2="10.5745" y2="669.32" stroke="#0076BE" stroke-width="2.67133" stroke-dasharray="9.35 9.35"/>
<line x1="250.441" y1="896.276" x2="404.903" y2="896.276" stroke="#0076BE" stroke-width="2.67133" stroke-dasharray="9.35 9.35"/>
<rect y="92.3281" width="17.3636" height="44.0769" fill="#0076BE"/>
<rect x="149.803" y="902.354" width="17.3636" height="44.0769" transform="rotate(-90 149.803 902.354)" fill="#0076BE"/>
<line x1="10.5686" y1="897.608" x2="10.5686" y2="760.501" stroke="#0076BE" stroke-width="2.67133"/>
<line x1="7.83789" y1="896.273" x2="162.3" y2="896.273" stroke="#0076BE" stroke-width="2.67133"/>
<line x1="1899.3" y1="898.347" x2="1580.07" y2="898.347" stroke="#0076BE" stroke-width="2.67133" stroke-dasharray="9.35 9.35"/>
<line x1="1897.96" y1="737.871" x2="1897.96" y2="629.328" stroke="#0076BE" stroke-width="2.67133" stroke-dasharray="9.35 9.35"/>
<rect x="1908.22" y="803.575" width="17.3636" height="44.0769" transform="rotate(180 1908.22 803.575)" fill="#0076BE"/>
<line x1="1899.75" y1="899.684" x2="1899.75" y2="803.516" stroke="#0076BE" stroke-width="2.67133"/>
<line x1="592.092" y1="896.276" x2="852.238" y2="896.276" stroke="#0076BE" stroke-width="2.67133" stroke-dasharray="10.69 10.69"/>
</svg>
