<svg width="885" height="208" viewBox="0 0 885 208" fill="none" xmlns="http://www.w3.org/2000/svg">
<rect x="24.8334" y="18.7582" width="838.797" height="161.615" stroke="#0076BE" stroke-width="5.34266"/>
<line x1="6.8259" y1="125.612" x2="6.8259" y2="200.41" stroke="#0076BE" stroke-width="2.67133"/>
<line x1="5.49023" y1="200.408" x2="56.0501" y2="200.408" stroke="#0076BE" stroke-width="2.67133"/>
<line x1="763.891" y1="200.408" x2="879.12" y2="200.408" stroke="#0076BE" stroke-width="2.67133"/>
<line x1="878.959" y1="201.744" x2="878.959" y2="144.311" stroke="#0076BE" stroke-width="2.67133"/>
<line x1="6.66797" y1="1.3948" x2="81.9199" y2="1.3948" stroke="#0076BE" stroke-width="2.67133" stroke-dasharray="10.69 10.69"/>
<line x1="353.535" y1="200.408" x2="428.787" y2="200.408" stroke="#0076BE" stroke-width="2.67133" stroke-dasharray="10.69 10.69"/>
<line x1="600.451" y1="1.3948" x2="675.703" y2="1.3948" stroke="#0076BE" stroke-width="2.67133" stroke-dasharray="10.69 10.69"/>
<line x1="879.279" y1="2.73047" x2="879.279" y2="98.8983" stroke="#0076BE" stroke-width="2.67133" stroke-dasharray="10.69 10.69"/>
<line x1="6.50809" y1="42.8008" x2="6.50809" y2="0.0595169" stroke="#0076BE" stroke-width="2.67133" stroke-dasharray="10.69 10.69"/>
<line x1="56.0527" y1="200.408" x2="131.305" y2="200.408" stroke="#0076BE" stroke-width="2.67133" stroke-dasharray="10.69 10.69"/>
<line x1="878.959" y1="144.312" x2="878.959" y2="58.829" stroke="#0076BE" stroke-width="2.67133" stroke-dasharray="10.69 10.69"/>
<rect x="799.164" y="207.088" width="13.3566" height="38.8018" transform="rotate(-90 799.164 207.088)" fill="#0076BE"/>
<rect x="0.789062" y="22.7656" width="11.7581" height="44.0769" fill="#0076BE"/>
<rect x="873.242" y="74.8564" width="11.7581" height="44.0769" fill="#0076BE"/>
<line x1="834.439" y1="1.3948" x2="880.296" y2="1.3948" stroke="#0076BE" stroke-width="2.67133"/>
<line x1="330.016" y1="1.3948" x2="467.586" y2="1.3948" stroke="#0076BE" stroke-width="2.67133"/>
</svg>
