<svg width="998" height="169" viewBox="0 0 998 169" fill="none" xmlns="http://www.w3.org/2000/svg">
<rect x="24.5516" y="18.8382" width="949.118" height="125.93" stroke="#0076BE" stroke-width="5.30233"/>
<line x1="23.556" y1="21.4897" x2="23.556" y2="143.443" stroke="#0076BE" stroke-width="0.662792"/>
<line x1="40.7884" y1="21.4897" x2="40.7884" y2="143.443" stroke="#0076BE" stroke-width="0.662792"/>
<line x1="58.0208" y1="21.4897" x2="58.0208" y2="143.443" stroke="#0076BE" stroke-width="0.662792"/>
<line x1="75.2552" y1="21.4897" x2="75.2552" y2="143.443" stroke="#0076BE" stroke-width="0.662792"/>
<line x1="92.4857" y1="21.4897" x2="92.4857" y2="143.443" stroke="#0076BE" stroke-width="0.662792"/>
<line x1="109.718" y1="21.4897" x2="109.718" y2="143.443" stroke="#0076BE" stroke-width="0.662792"/>
<line x1="126.951" y1="21.4897" x2="126.951" y2="143.443" stroke="#0076BE" stroke-width="0.662792"/>
<line x1="144.185" y1="21.4897" x2="144.185" y2="143.443" stroke="#0076BE" stroke-width="0.662792"/>
<line x1="161.417" y1="21.4897" x2="161.417" y2="143.443" stroke="#0076BE" stroke-width="0.662792"/>
<line x1="178.65" y1="21.4897" x2="178.65" y2="143.443" stroke="#0076BE" stroke-width="0.662792"/>
<line x1="195.882" y1="21.4897" x2="195.882" y2="143.443" stroke="#0076BE" stroke-width="0.662792"/>
<line x1="213.113" y1="21.4897" x2="213.113" y2="143.443" stroke="#0076BE" stroke-width="0.662792"/>
<line x1="230.347" y1="21.4897" x2="230.347" y2="143.443" stroke="#0076BE" stroke-width="0.662792"/>
<line x1="247.579" y1="21.4897" x2="247.579" y2="143.443" stroke="#0076BE" stroke-width="0.662792"/>
<line x1="264.812" y1="21.4897" x2="264.812" y2="143.443" stroke="#0076BE" stroke-width="0.662792"/>
<line x1="264.812" y1="21.4902" x2="264.812" y2="143.444" stroke="#0076BE" stroke-width="0.662792"/>
<line x1="282.044" y1="21.4902" x2="282.044" y2="143.444" stroke="#0076BE" stroke-width="0.662792"/>
<line x1="299.277" y1="21.4902" x2="299.277" y2="143.444" stroke="#0076BE" stroke-width="0.662792"/>
<line x1="316.511" y1="21.4902" x2="316.511" y2="143.444" stroke="#0076BE" stroke-width="0.662792"/>
<line x1="333.742" y1="21.4902" x2="333.742" y2="143.444" stroke="#0076BE" stroke-width="0.662792"/>
<line x1="350.974" y1="21.4902" x2="350.974" y2="143.444" stroke="#0076BE" stroke-width="0.662792"/>
<line x1="368.206" y1="21.4902" x2="368.206" y2="143.444" stroke="#0076BE" stroke-width="0.662792"/>
<line x1="385.441" y1="21.4902" x2="385.441" y2="143.444" stroke="#0076BE" stroke-width="0.662792"/>
<line x1="402.673" y1="21.4902" x2="402.673" y2="143.444" stroke="#0076BE" stroke-width="0.662792"/>
<line x1="419.906" y1="21.4902" x2="419.906" y2="143.444" stroke="#0076BE" stroke-width="0.662792"/>
<line x1="437.138" y1="21.4902" x2="437.138" y2="143.444" stroke="#0076BE" stroke-width="0.662792"/>
<line x1="454.37" y1="21.4902" x2="454.37" y2="143.444" stroke="#0076BE" stroke-width="0.662792"/>
<line x1="471.603" y1="21.4902" x2="471.603" y2="143.444" stroke="#0076BE" stroke-width="0.662792"/>
<line x1="488.835" y1="21.4902" x2="488.835" y2="143.444" stroke="#0076BE" stroke-width="0.662792"/>
<line x1="506.068" y1="21.4902" x2="506.068" y2="143.444" stroke="#0076BE" stroke-width="0.662792"/>
<line x1="506.07" y1="21.4902" x2="506.07" y2="143.444" stroke="#0076BE" stroke-width="0.662792"/>
<line x1="523.302" y1="21.4902" x2="523.302" y2="143.444" stroke="#0076BE" stroke-width="0.662792"/>
<line x1="540.535" y1="21.4902" x2="540.535" y2="143.444" stroke="#0076BE" stroke-width="0.662792"/>
<line x1="557.769" y1="21.4902" x2="557.769" y2="143.444" stroke="#0076BE" stroke-width="0.662792"/>
<line x1="574.999" y1="21.4902" x2="574.999" y2="143.444" stroke="#0076BE" stroke-width="0.662792"/>
<line x1="592.232" y1="21.4902" x2="592.232" y2="143.444" stroke="#0076BE" stroke-width="0.662792"/>
<line x1="609.464" y1="21.4902" x2="609.464" y2="143.444" stroke="#0076BE" stroke-width="0.662792"/>
<line x1="626.699" y1="21.4902" x2="626.699" y2="143.444" stroke="#0076BE" stroke-width="0.662792"/>
<line x1="643.931" y1="21.4902" x2="643.931" y2="143.444" stroke="#0076BE" stroke-width="0.662792"/>
<line x1="661.163" y1="21.4902" x2="661.163" y2="143.444" stroke="#0076BE" stroke-width="0.662792"/>
<line x1="678.396" y1="21.4902" x2="678.396" y2="143.444" stroke="#0076BE" stroke-width="0.662792"/>
<line x1="695.628" y1="21.4902" x2="695.628" y2="143.444" stroke="#0076BE" stroke-width="0.662792"/>
<line x1="712.861" y1="21.4902" x2="712.861" y2="143.444" stroke="#0076BE" stroke-width="0.662792"/>
<line x1="730.093" y1="21.4902" x2="730.093" y2="143.444" stroke="#0076BE" stroke-width="0.662792"/>
<line x1="747.326" y1="21.4902" x2="747.326" y2="143.444" stroke="#0076BE" stroke-width="0.662792"/>
<line x1="747.324" y1="21.4902" x2="747.324" y2="143.444" stroke="#0076BE" stroke-width="0.662792"/>
<line x1="764.556" y1="21.4902" x2="764.556" y2="143.444" stroke="#0076BE" stroke-width="0.662792"/>
<line x1="781.788" y1="21.4902" x2="781.788" y2="143.444" stroke="#0076BE" stroke-width="0.662792"/>
<line x1="799.023" y1="21.4902" x2="799.023" y2="143.444" stroke="#0076BE" stroke-width="0.662792"/>
<line x1="816.253" y1="21.4902" x2="816.253" y2="143.444" stroke="#0076BE" stroke-width="0.662792"/>
<line x1="833.486" y1="21.4902" x2="833.486" y2="143.444" stroke="#0076BE" stroke-width="0.662792"/>
<line x1="850.718" y1="21.4902" x2="850.718" y2="143.444" stroke="#0076BE" stroke-width="0.662792"/>
<line x1="867.952" y1="21.4902" x2="867.953" y2="143.444" stroke="#0076BE" stroke-width="0.662792"/>
<line x1="885.185" y1="21.4902" x2="885.185" y2="143.444" stroke="#0076BE" stroke-width="0.662792"/>
<line x1="902.417" y1="21.4902" x2="902.417" y2="143.444" stroke="#0076BE" stroke-width="0.662792"/>
<line x1="919.65" y1="21.4902" x2="919.65" y2="143.444" stroke="#0076BE" stroke-width="0.662792"/>
<line x1="936.882" y1="21.4902" x2="936.882" y2="143.444" stroke="#0076BE" stroke-width="0.662792"/>
<line x1="954.115" y1="21.4902" x2="954.115" y2="143.444" stroke="#0076BE" stroke-width="0.662792"/>
<line x1="971.347" y1="21.4902" x2="971.347" y2="143.444" stroke="#0076BE" stroke-width="0.662792"/>
<line x1="23.2246" y1="21.1584" x2="971.017" y2="21.1583" stroke="#0076BE" stroke-width="0.662792"/>
<line x1="23.2246" y1="38.3908" x2="971.017" y2="38.3908" stroke="#0076BE" stroke-width="0.662792"/>
<line x1="23.2246" y1="55.6237" x2="971.017" y2="55.6237" stroke="#0076BE" stroke-width="0.662792"/>
<line x1="23.2246" y1="72.8561" x2="971.017" y2="72.8561" stroke="#0076BE" stroke-width="0.662792"/>
<line x1="23.2246" y1="90.089" x2="971.017" y2="90.089" stroke="#0076BE" stroke-width="0.662792"/>
<line x1="23.2246" y1="107.321" x2="971.017" y2="107.321" stroke="#0076BE" stroke-width="0.662792"/>
<line x1="23.2246" y1="124.554" x2="971.017" y2="124.554" stroke="#0076BE" stroke-width="0.662792"/>
<line x1="23.2246" y1="141.787" x2="971.017" y2="141.787" stroke="#0076BE" stroke-width="0.662792"/>
<line x1="7.31972" y1="87.769" x2="7.31973" y2="162.002" stroke="#0076BE" stroke-width="2.65117"/>
<line x1="5.99414" y1="162.002" x2="62.9942" y2="162.002" stroke="#0076BE" stroke-width="2.65117"/>
<line x1="860.996" y1="162.002" x2="990.903" y2="162.002" stroke="#0076BE" stroke-width="2.65117"/>
<line x1="990.901" y1="163.327" x2="990.901" y2="106.327" stroke="#0076BE" stroke-width="2.65117"/>
<line x1="7.32031" y1="1.60606" x2="92.1576" y2="1.60606" stroke="#0076BE" stroke-width="2.65117" stroke-dasharray="10.6 10.6"/>
<line x1="398.367" y1="162.002" x2="483.205" y2="162.002" stroke="#0076BE" stroke-width="2.65117" stroke-dasharray="10.6 10.6"/>
<line x1="676.74" y1="1.60606" x2="761.578" y2="1.60606" stroke="#0076BE" stroke-width="2.65117" stroke-dasharray="10.6 10.6"/>
<line x1="990.904" y1="2.93164" x2="990.904" y2="98.3736" stroke="#0076BE" stroke-width="2.65117" stroke-dasharray="10.6 10.6"/>
<line x1="7.31895" y1="42.6987" x2="7.31895" y2="0.280067" stroke="#0076BE" stroke-width="2.65117" stroke-dasharray="10.6 10.6"/>
<line x1="62.9941" y1="162.002" x2="147.831" y2="162.002" stroke="#0076BE" stroke-width="2.65117" stroke-dasharray="10.6 10.6"/>
<line x1="990.903" y1="143.443" x2="990.903" y2="58.606" stroke="#0076BE" stroke-width="2.65117" stroke-dasharray="10.6 10.6"/>
<rect x="900.762" y="168.63" width="13.2558" height="43.7443" transform="rotate(-90 900.762 168.63)" fill="#0076BE"/>
<rect x="0.691406" y="22.8154" width="13.2558" height="43.7443" fill="#0076BE"/>
<rect x="984.275" y="74.5132" width="13.2558" height="43.7443" fill="#0076BE"/>
<line x1="940.531" y1="1.60606" x2="992.229" y2="1.60606" stroke="#0076BE" stroke-width="2.65117"/>
<line x1="371.855" y1="1.60606" x2="526.949" y2="1.60606" stroke="#0076BE" stroke-width="2.65117"/>
</svg>
