<svg width="346" height="289" viewBox="0 0 346 289" fill="none" xmlns="http://www.w3.org/2000/svg">
<rect x="18" y="17.0854" width="310" height="63.3818" fill="url(#paint0_linear_377_4585)" stroke="#0076BE" stroke-width="4"/>
<line x1="20.25" y1="19.1083" x2="20.25" y2="82.4673" stroke="#0076BE" stroke-width="0.5"/>
<line x1="33.0137" y1="19.1083" x2="33.0137" y2="82.4673" stroke="#0076BE" stroke-width="0.5"/>
<line x1="45.7773" y1="19.1083" x2="45.7773" y2="82.4673" stroke="#0076BE" stroke-width="0.5"/>
<line x1="58.541" y1="19.1083" x2="58.541" y2="82.4673" stroke="#0076BE" stroke-width="0.5"/>
<line x1="71.3047" y1="19.1083" x2="71.3047" y2="82.4673" stroke="#0076BE" stroke-width="0.5"/>
<line x1="84.0684" y1="19.1083" x2="84.0684" y2="82.4673" stroke="#0076BE" stroke-width="0.5"/>
<line x1="96.832" y1="19.1083" x2="96.832" y2="82.4673" stroke="#0076BE" stroke-width="0.5"/>
<line x1="109.596" y1="19.1083" x2="109.596" y2="82.4673" stroke="#0076BE" stroke-width="0.5"/>
<line x1="122.359" y1="19.1083" x2="122.359" y2="82.4673" stroke="#0076BE" stroke-width="0.5"/>
<line x1="135.123" y1="19.1083" x2="135.123" y2="82.4673" stroke="#0076BE" stroke-width="0.5"/>
<line x1="147.887" y1="19.1083" x2="147.887" y2="82.4673" stroke="#0076BE" stroke-width="0.5"/>
<line x1="160.65" y1="19.1083" x2="160.65" y2="82.4673" stroke="#0076BE" stroke-width="0.5"/>
<line x1="173.414" y1="19.1083" x2="173.414" y2="82.4673" stroke="#0076BE" stroke-width="0.5"/>
<line x1="186.178" y1="19.1083" x2="186.178" y2="82.4673" stroke="#0076BE" stroke-width="0.5"/>
<line x1="198.94" y1="19.1083" x2="198.94" y2="82.4673" stroke="#0076BE" stroke-width="0.5"/>
<line x1="198.941" y1="19.1083" x2="198.941" y2="82.4673" stroke="#0076BE" stroke-width="0.5"/>
<line x1="211.705" y1="19.1083" x2="211.705" y2="82.4673" stroke="#0076BE" stroke-width="0.5"/>
<line x1="224.469" y1="19.1083" x2="224.469" y2="82.4673" stroke="#0076BE" stroke-width="0.5"/>
<line x1="237.232" y1="19.1083" x2="237.232" y2="82.4673" stroke="#0076BE" stroke-width="0.5"/>
<line x1="249.996" y1="19.1083" x2="249.996" y2="82.4673" stroke="#0076BE" stroke-width="0.5"/>
<line x1="262.76" y1="19.1083" x2="262.76" y2="82.4673" stroke="#0076BE" stroke-width="0.5"/>
<line x1="275.523" y1="19.1083" x2="275.523" y2="82.4673" stroke="#0076BE" stroke-width="0.5"/>
<line x1="288.287" y1="19.1083" x2="288.287" y2="82.4673" stroke="#0076BE" stroke-width="0.5"/>
<line x1="301.051" y1="19.1083" x2="301.051" y2="82.4673" stroke="#0076BE" stroke-width="0.5"/>
<line x1="313.814" y1="19.1083" x2="313.814" y2="82.4673" stroke="#0076BE" stroke-width="0.5"/>
<line x1="326.578" y1="19.1083" x2="326.578" y2="82.4673" stroke="#0076BE" stroke-width="0.5"/>
<line x1="20" y1="19.0946" x2="327" y2="19.0946" stroke="#0076BE" stroke-width="0.5"/>
<line x1="20" y1="31.6752" x2="327" y2="31.6752" stroke="#0076BE" stroke-width="0.5"/>
<line x1="20" y1="44.2557" x2="327" y2="44.2557" stroke="#0076BE" stroke-width="0.5"/>
<line x1="20" y1="56.8364" x2="327" y2="56.8364" stroke="#0076BE" stroke-width="0.5"/>
<line x1="20" y1="69.417" x2="327" y2="69.417" stroke="#0076BE" stroke-width="0.5"/>
<line x1="20" y1="81.9974" x2="327" y2="81.9974" stroke="#0076BE" stroke-width="0.5"/>
<rect x="18" y="80.4445" width="310" height="63.3818" fill="url(#paint1_linear_377_4585)" stroke="#0076BE" stroke-width="4"/>
<line x1="20.25" y1="82.4673" x2="20.25" y2="145.826" stroke="#0076BE" stroke-width="0.5"/>
<line x1="33.0137" y1="82.4673" x2="33.0137" y2="145.826" stroke="#0076BE" stroke-width="0.5"/>
<line x1="45.7773" y1="82.4673" x2="45.7773" y2="145.826" stroke="#0076BE" stroke-width="0.5"/>
<line x1="58.541" y1="82.4673" x2="58.541" y2="145.826" stroke="#0076BE" stroke-width="0.5"/>
<line x1="71.3047" y1="82.4673" x2="71.3047" y2="145.826" stroke="#0076BE" stroke-width="0.5"/>
<line x1="84.0684" y1="82.4673" x2="84.0684" y2="145.826" stroke="#0076BE" stroke-width="0.5"/>
<line x1="96.832" y1="82.4673" x2="96.832" y2="145.826" stroke="#0076BE" stroke-width="0.5"/>
<line x1="109.596" y1="82.4673" x2="109.596" y2="145.826" stroke="#0076BE" stroke-width="0.5"/>
<line x1="122.359" y1="82.4673" x2="122.359" y2="145.826" stroke="#0076BE" stroke-width="0.5"/>
<line x1="135.123" y1="82.4673" x2="135.123" y2="145.826" stroke="#0076BE" stroke-width="0.5"/>
<line x1="147.887" y1="82.4673" x2="147.887" y2="145.826" stroke="#0076BE" stroke-width="0.5"/>
<line x1="160.65" y1="82.4673" x2="160.65" y2="145.826" stroke="#0076BE" stroke-width="0.5"/>
<line x1="173.414" y1="82.4673" x2="173.414" y2="145.826" stroke="#0076BE" stroke-width="0.5"/>
<line x1="186.178" y1="82.4673" x2="186.178" y2="145.826" stroke="#0076BE" stroke-width="0.5"/>
<line x1="198.94" y1="82.4673" x2="198.94" y2="145.826" stroke="#0076BE" stroke-width="0.5"/>
<line x1="198.941" y1="82.4673" x2="198.941" y2="145.826" stroke="#0076BE" stroke-width="0.5"/>
<line x1="211.705" y1="82.4673" x2="211.705" y2="145.826" stroke="#0076BE" stroke-width="0.5"/>
<line x1="224.469" y1="82.4673" x2="224.469" y2="145.826" stroke="#0076BE" stroke-width="0.5"/>
<line x1="237.232" y1="82.4673" x2="237.232" y2="145.826" stroke="#0076BE" stroke-width="0.5"/>
<line x1="249.996" y1="82.4673" x2="249.996" y2="145.826" stroke="#0076BE" stroke-width="0.5"/>
<line x1="262.76" y1="82.4673" x2="262.76" y2="145.826" stroke="#0076BE" stroke-width="0.5"/>
<line x1="275.523" y1="82.4673" x2="275.523" y2="145.826" stroke="#0076BE" stroke-width="0.5"/>
<line x1="288.287" y1="82.4673" x2="288.287" y2="145.826" stroke="#0076BE" stroke-width="0.5"/>
<line x1="301.051" y1="82.4673" x2="301.051" y2="145.826" stroke="#0076BE" stroke-width="0.5"/>
<line x1="313.814" y1="82.4673" x2="313.814" y2="145.826" stroke="#0076BE" stroke-width="0.5"/>
<line x1="326.578" y1="82.4673" x2="326.578" y2="145.826" stroke="#0076BE" stroke-width="0.5"/>
<line x1="20" y1="82.4535" x2="327" y2="82.4535" stroke="#0076BE" stroke-width="0.5"/>
<line x1="20" y1="95.0341" x2="327" y2="95.0341" stroke="#0076BE" stroke-width="0.5"/>
<line x1="20" y1="107.615" x2="327" y2="107.615" stroke="#0076BE" stroke-width="0.5"/>
<line x1="20" y1="120.195" x2="327" y2="120.195" stroke="#0076BE" stroke-width="0.5"/>
<line x1="20" y1="132.776" x2="327" y2="132.776" stroke="#0076BE" stroke-width="0.5"/>
<line x1="20" y1="145.356" x2="327" y2="145.356" stroke="#0076BE" stroke-width="0.5"/>
<rect x="335.534" y="239.005" width="10" height="33.188" fill="#0076BE"/>
<line x1="340" y1="283.1" x2="325" y2="283.1" stroke="#0076BE" stroke-width="2"/>
<line x1="341" y1="247.402" x2="341" y2="284.613" stroke="#0076BE" stroke-width="2"/>
<line x1="341" y1="62.3533" x2="341" y2="158.9" stroke="#0076BE" stroke-width="2"/>
<rect y="21.8641" width="10" height="33.188" fill="#0076BE"/>
<rect x="16.0322" y="288.135" width="10.057" height="33" transform="rotate(-90 16.0322 288.135)" fill="#0076BE"/>
<line x1="4.7334" y1="27.2659" x2="4.7334" y2="4.65159" stroke="#0076BE" stroke-width="2"/>
<line x1="95" y1="283.601" x2="4" y2="283.601" stroke="#0076BE" stroke-width="2"/>
<line x1="3.7334" y1="4.90845" x2="10.5661" y2="4.90845" stroke="#0076BE" stroke-width="2"/>
<line x1="10.5664" y1="4.90845" x2="28.7869" y2="4.90845" stroke="#0076BE" stroke-width="2" stroke-dasharray="4 4"/>
<line x1="130" y1="5.03418" x2="184" y2="5.03418" stroke="#0076BE" stroke-width="2" stroke-dasharray="9 9"/>
<line x1="178.927" y1="281.605" x2="308.747" y2="281.605" stroke="#0076BE" stroke-width="2" stroke-dasharray="7 7"/>
<line x1="4.7334" y1="282.988" x2="4.7334" y2="257.861" stroke="#0076BE" stroke-width="2" stroke-dasharray="4 4"/>
<line x1="5" y1="166.946" x2="5" y2="81.4616" stroke="#0076BE" stroke-width="2" stroke-dasharray="4 4"/>
<rect x="268.669" y="10.057" width="10.057" height="33" transform="rotate(-90 268.669 10.057)" fill="#0076BE"/>
<line x1="340.811" y1="4.90283" x2="340.811" y2="25.6326" stroke="#0076BE" stroke-width="2"/>
<line x1="340.811" y1="25.6335" x2="340.811" y2="46.3633" stroke="#0076BE" stroke-width="2" stroke-dasharray="4 4"/>
<line x1="317" y1="5.02283" x2="224" y2="5.02284" stroke="#0076BE" stroke-width="2"/>
<line x1="328.057" y1="3.90186" x2="341.722" y2="3.90186" stroke="#0076BE" stroke-width="2"/>
<rect x="18" y="143.803" width="310" height="63.3818" fill="url(#paint2_linear_377_4585)" stroke="#0076BE" stroke-width="4"/>
<line x1="20.25" y1="145.826" x2="20.25" y2="209.185" stroke="#0076BE" stroke-width="0.5"/>
<line x1="33.0137" y1="145.826" x2="33.0137" y2="209.185" stroke="#0076BE" stroke-width="0.5"/>
<line x1="45.7773" y1="145.826" x2="45.7773" y2="209.185" stroke="#0076BE" stroke-width="0.5"/>
<line x1="58.541" y1="145.826" x2="58.541" y2="209.185" stroke="#0076BE" stroke-width="0.5"/>
<line x1="71.3047" y1="145.826" x2="71.3047" y2="209.185" stroke="#0076BE" stroke-width="0.5"/>
<line x1="84.0684" y1="145.826" x2="84.0684" y2="209.185" stroke="#0076BE" stroke-width="0.5"/>
<line x1="96.832" y1="145.826" x2="96.832" y2="209.185" stroke="#0076BE" stroke-width="0.5"/>
<line x1="109.596" y1="145.826" x2="109.596" y2="209.185" stroke="#0076BE" stroke-width="0.5"/>
<line x1="122.359" y1="145.826" x2="122.359" y2="209.185" stroke="#0076BE" stroke-width="0.5"/>
<line x1="135.123" y1="145.826" x2="135.123" y2="209.185" stroke="#0076BE" stroke-width="0.5"/>
<line x1="147.887" y1="145.826" x2="147.887" y2="209.185" stroke="#0076BE" stroke-width="0.5"/>
<line x1="160.65" y1="145.826" x2="160.65" y2="209.185" stroke="#0076BE" stroke-width="0.5"/>
<line x1="173.414" y1="145.826" x2="173.414" y2="209.185" stroke="#0076BE" stroke-width="0.5"/>
<line x1="186.178" y1="145.826" x2="186.178" y2="209.185" stroke="#0076BE" stroke-width="0.5"/>
<line x1="198.94" y1="145.826" x2="198.94" y2="209.185" stroke="#0076BE" stroke-width="0.5"/>
<line x1="198.941" y1="145.826" x2="198.941" y2="209.185" stroke="#0076BE" stroke-width="0.5"/>
<line x1="211.705" y1="145.826" x2="211.705" y2="209.185" stroke="#0076BE" stroke-width="0.5"/>
<line x1="224.469" y1="145.826" x2="224.469" y2="209.185" stroke="#0076BE" stroke-width="0.5"/>
<line x1="237.232" y1="145.826" x2="237.232" y2="209.185" stroke="#0076BE" stroke-width="0.5"/>
<line x1="249.996" y1="145.826" x2="249.996" y2="209.185" stroke="#0076BE" stroke-width="0.5"/>
<line x1="262.76" y1="145.826" x2="262.76" y2="209.185" stroke="#0076BE" stroke-width="0.5"/>
<line x1="275.523" y1="145.826" x2="275.523" y2="209.185" stroke="#0076BE" stroke-width="0.5"/>
<line x1="288.287" y1="145.826" x2="288.287" y2="209.185" stroke="#0076BE" stroke-width="0.5"/>
<line x1="301.051" y1="145.826" x2="301.051" y2="209.185" stroke="#0076BE" stroke-width="0.5"/>
<line x1="313.814" y1="145.826" x2="313.814" y2="209.185" stroke="#0076BE" stroke-width="0.5"/>
<line x1="326.578" y1="145.826" x2="326.578" y2="209.185" stroke="#0076BE" stroke-width="0.5"/>
<line x1="20" y1="145.812" x2="327" y2="145.812" stroke="#0076BE" stroke-width="0.5"/>
<line x1="20" y1="158.393" x2="327" y2="158.393" stroke="#0076BE" stroke-width="0.5"/>
<line x1="20" y1="170.974" x2="327" y2="170.974" stroke="#0076BE" stroke-width="0.5"/>
<line x1="20" y1="183.554" x2="327" y2="183.554" stroke="#0076BE" stroke-width="0.5"/>
<line x1="20" y1="196.135" x2="327" y2="196.135" stroke="#0076BE" stroke-width="0.5"/>
<line x1="20" y1="208.715" x2="327" y2="208.715" stroke="#0076BE" stroke-width="0.5"/>
<rect x="18" y="207.162" width="310" height="63.3818" fill="url(#paint3_linear_377_4585)" stroke="#0076BE" stroke-width="4"/>
<line x1="20.25" y1="209.185" x2="20.25" y2="272.544" stroke="#0076BE" stroke-width="0.5"/>
<line x1="33.0137" y1="209.185" x2="33.0137" y2="272.544" stroke="#0076BE" stroke-width="0.5"/>
<line x1="45.7773" y1="209.185" x2="45.7773" y2="272.544" stroke="#0076BE" stroke-width="0.5"/>
<line x1="58.541" y1="209.185" x2="58.541" y2="272.544" stroke="#0076BE" stroke-width="0.5"/>
<line x1="71.3047" y1="209.185" x2="71.3047" y2="272.544" stroke="#0076BE" stroke-width="0.5"/>
<line x1="84.0684" y1="209.185" x2="84.0684" y2="272.544" stroke="#0076BE" stroke-width="0.5"/>
<line x1="96.832" y1="209.185" x2="96.832" y2="272.544" stroke="#0076BE" stroke-width="0.5"/>
<line x1="109.596" y1="209.185" x2="109.596" y2="272.544" stroke="#0076BE" stroke-width="0.5"/>
<line x1="122.359" y1="209.185" x2="122.359" y2="272.544" stroke="#0076BE" stroke-width="0.5"/>
<line x1="135.123" y1="209.185" x2="135.123" y2="272.544" stroke="#0076BE" stroke-width="0.5"/>
<line x1="147.887" y1="209.185" x2="147.887" y2="272.544" stroke="#0076BE" stroke-width="0.5"/>
<line x1="160.65" y1="209.185" x2="160.65" y2="272.544" stroke="#0076BE" stroke-width="0.5"/>
<line x1="173.414" y1="209.185" x2="173.414" y2="272.544" stroke="#0076BE" stroke-width="0.5"/>
<line x1="186.178" y1="209.185" x2="186.178" y2="272.544" stroke="#0076BE" stroke-width="0.5"/>
<line x1="198.94" y1="209.185" x2="198.94" y2="272.544" stroke="#0076BE" stroke-width="0.5"/>
<line x1="198.941" y1="209.185" x2="198.941" y2="272.544" stroke="#0076BE" stroke-width="0.5"/>
<line x1="211.705" y1="209.185" x2="211.705" y2="272.544" stroke="#0076BE" stroke-width="0.5"/>
<line x1="224.469" y1="209.185" x2="224.469" y2="272.544" stroke="#0076BE" stroke-width="0.5"/>
<line x1="237.232" y1="209.185" x2="237.232" y2="272.544" stroke="#0076BE" stroke-width="0.5"/>
<line x1="249.996" y1="209.185" x2="249.996" y2="272.544" stroke="#0076BE" stroke-width="0.5"/>
<line x1="262.76" y1="209.185" x2="262.76" y2="272.544" stroke="#0076BE" stroke-width="0.5"/>
<line x1="275.523" y1="209.185" x2="275.523" y2="272.544" stroke="#0076BE" stroke-width="0.5"/>
<line x1="288.287" y1="209.185" x2="288.287" y2="272.544" stroke="#0076BE" stroke-width="0.5"/>
<line x1="301.051" y1="209.185" x2="301.051" y2="272.544" stroke="#0076BE" stroke-width="0.5"/>
<line x1="313.814" y1="209.185" x2="313.814" y2="272.544" stroke="#0076BE" stroke-width="0.5"/>
<line x1="326.578" y1="209.185" x2="326.578" y2="272.544" stroke="#0076BE" stroke-width="0.5"/>
<line x1="20" y1="209.172" x2="327" y2="209.172" stroke="#0076BE" stroke-width="0.5"/>
<line x1="20" y1="221.752" x2="327" y2="221.752" stroke="#0076BE" stroke-width="0.5"/>
<line x1="20" y1="234.333" x2="327" y2="234.333" stroke="#0076BE" stroke-width="0.5"/>
<line x1="20" y1="246.913" x2="327" y2="246.913" stroke="#0076BE" stroke-width="0.5"/>
<line x1="20" y1="259.494" x2="327" y2="259.494" stroke="#0076BE" stroke-width="0.5"/>
<line x1="20" y1="272.075" x2="327" y2="272.075" stroke="#0076BE" stroke-width="0.5"/>
<defs>
<linearGradient id="paint0_linear_377_4585" x1="177.326" y1="80.3323" x2="176.943" y2="18.0176" gradientUnits="userSpaceOnUse">
<stop stop-color="#0076BE" stop-opacity="0.22"/>
<stop offset="1" stop-color="#2B2A2B" stop-opacity="0"/>
</linearGradient>
<linearGradient id="paint1_linear_377_4585" x1="177.326" y1="143.691" x2="176.943" y2="81.3766" gradientUnits="userSpaceOnUse">
<stop stop-color="#0076BE" stop-opacity="0.22"/>
<stop offset="1" stop-color="#2B2A2B" stop-opacity="0"/>
</linearGradient>
<linearGradient id="paint2_linear_377_4585" x1="177.326" y1="207.05" x2="176.943" y2="144.736" gradientUnits="userSpaceOnUse">
<stop stop-color="#0076BE" stop-opacity="0.22"/>
<stop offset="1" stop-color="#2B2A2B" stop-opacity="0"/>
</linearGradient>
<linearGradient id="paint3_linear_377_4585" x1="177.326" y1="270.409" x2="176.943" y2="208.095" gradientUnits="userSpaceOnUse">
<stop stop-color="#0076BE" stop-opacity="0.22"/>
<stop offset="1" stop-color="#2B2A2B" stop-opacity="0"/>
</linearGradient>
</defs>
</svg>
