<svg width="752" height="155" viewBox="0 0 752 155" fill="none" xmlns="http://www.w3.org/2000/svg">
<rect x="18" y="14" width="716" height="121" stroke="#0076BE" stroke-width="4"/>
<line x1="17.25" y1="16" x2="17.25" y2="133" stroke="#0076BE" stroke-width="0.5"/>
<line x1="30.25" y1="16" x2="30.25" y2="133" stroke="#0076BE" stroke-width="0.5"/>
<line x1="43.25" y1="16" x2="43.25" y2="133" stroke="#0076BE" stroke-width="0.5"/>
<line x1="56.25" y1="16" x2="56.25" y2="133" stroke="#0076BE" stroke-width="0.5"/>
<line x1="69.25" y1="16" x2="69.25" y2="133" stroke="#0076BE" stroke-width="0.5"/>
<line x1="82.25" y1="16" x2="82.25" y2="133" stroke="#0076BE" stroke-width="0.5"/>
<line x1="95.25" y1="16" x2="95.25" y2="133" stroke="#0076BE" stroke-width="0.5"/>
<line x1="108.25" y1="16" x2="108.25" y2="133" stroke="#0076BE" stroke-width="0.5"/>
<line x1="121.25" y1="16" x2="121.25" y2="133" stroke="#0076BE" stroke-width="0.5"/>
<line x1="134.25" y1="16" x2="134.25" y2="133" stroke="#0076BE" stroke-width="0.5"/>
<line x1="147.25" y1="16" x2="147.25" y2="133" stroke="#0076BE" stroke-width="0.5"/>
<line x1="160.25" y1="16" x2="160.25" y2="133" stroke="#0076BE" stroke-width="0.5"/>
<line x1="173.25" y1="16" x2="173.25" y2="133" stroke="#0076BE" stroke-width="0.5"/>
<line x1="186.25" y1="16" x2="186.25" y2="133" stroke="#0076BE" stroke-width="0.5"/>
<line x1="199.25" y1="16" x2="199.25" y2="133" stroke="#0076BE" stroke-width="0.5"/>
<line x1="199.25" y1="16" x2="199.25" y2="133" stroke="#0076BE" stroke-width="0.5"/>
<line x1="212.25" y1="16" x2="212.25" y2="133" stroke="#0076BE" stroke-width="0.5"/>
<line x1="225.25" y1="16" x2="225.25" y2="133" stroke="#0076BE" stroke-width="0.5"/>
<line x1="238.25" y1="16" x2="238.25" y2="133" stroke="#0076BE" stroke-width="0.5"/>
<line x1="251.25" y1="16" x2="251.25" y2="133" stroke="#0076BE" stroke-width="0.5"/>
<line x1="264.25" y1="16" x2="264.25" y2="133" stroke="#0076BE" stroke-width="0.5"/>
<line x1="277.25" y1="16" x2="277.25" y2="133" stroke="#0076BE" stroke-width="0.5"/>
<line x1="290.25" y1="16" x2="290.25" y2="133" stroke="#0076BE" stroke-width="0.5"/>
<line x1="303.25" y1="16" x2="303.25" y2="133" stroke="#0076BE" stroke-width="0.5"/>
<line x1="316.25" y1="16" x2="316.25" y2="133" stroke="#0076BE" stroke-width="0.5"/>
<line x1="329.25" y1="16" x2="329.25" y2="133" stroke="#0076BE" stroke-width="0.5"/>
<line x1="342.25" y1="16" x2="342.25" y2="133" stroke="#0076BE" stroke-width="0.5"/>
<line x1="355.25" y1="16" x2="355.25" y2="133" stroke="#0076BE" stroke-width="0.5"/>
<line x1="368.25" y1="16" x2="368.25" y2="133" stroke="#0076BE" stroke-width="0.5"/>
<line x1="381.25" y1="16" x2="381.25" y2="133" stroke="#0076BE" stroke-width="0.5"/>
<line x1="381.25" y1="16" x2="381.25" y2="133" stroke="#0076BE" stroke-width="0.5"/>
<line x1="394.25" y1="16" x2="394.25" y2="133" stroke="#0076BE" stroke-width="0.5"/>
<line x1="407.25" y1="16" x2="407.25" y2="133" stroke="#0076BE" stroke-width="0.5"/>
<line x1="420.25" y1="16" x2="420.25" y2="133" stroke="#0076BE" stroke-width="0.5"/>
<line x1="433.25" y1="16" x2="433.25" y2="133" stroke="#0076BE" stroke-width="0.5"/>
<line x1="446.25" y1="16" x2="446.25" y2="133" stroke="#0076BE" stroke-width="0.5"/>
<line x1="459.25" y1="16" x2="459.25" y2="133" stroke="#0076BE" stroke-width="0.5"/>
<line x1="472.25" y1="16" x2="472.25" y2="133" stroke="#0076BE" stroke-width="0.5"/>
<line x1="485.25" y1="16" x2="485.25" y2="133" stroke="#0076BE" stroke-width="0.5"/>
<line x1="498.25" y1="16" x2="498.25" y2="133" stroke="#0076BE" stroke-width="0.5"/>
<line x1="511.25" y1="16" x2="511.25" y2="133" stroke="#0076BE" stroke-width="0.5"/>
<line x1="524.25" y1="16" x2="524.25" y2="133" stroke="#0076BE" stroke-width="0.5"/>
<line x1="537.25" y1="16" x2="537.25" y2="133" stroke="#0076BE" stroke-width="0.5"/>
<line x1="550.25" y1="16" x2="550.25" y2="133" stroke="#0076BE" stroke-width="0.5"/>
<line x1="563.25" y1="16" x2="563.25" y2="133" stroke="#0076BE" stroke-width="0.5"/>
<line x1="563.25" y1="16" x2="563.25" y2="133" stroke="#0076BE" stroke-width="0.5"/>
<line x1="576.25" y1="16" x2="576.25" y2="133" stroke="#0076BE" stroke-width="0.5"/>
<line x1="589.25" y1="16" x2="589.25" y2="133" stroke="#0076BE" stroke-width="0.5"/>
<line x1="602.25" y1="16" x2="602.25" y2="133" stroke="#0076BE" stroke-width="0.5"/>
<line x1="615.25" y1="16" x2="615.25" y2="133" stroke="#0076BE" stroke-width="0.5"/>
<line x1="628.25" y1="16" x2="628.25" y2="133" stroke="#0076BE" stroke-width="0.5"/>
<line x1="641.25" y1="16" x2="641.25" y2="133" stroke="#0076BE" stroke-width="0.5"/>
<line x1="654.25" y1="16" x2="654.25" y2="133" stroke="#0076BE" stroke-width="0.5"/>
<line x1="667.25" y1="16" x2="667.25" y2="133" stroke="#0076BE" stroke-width="0.5"/>
<line x1="680.25" y1="16" x2="680.25" y2="133" stroke="#0076BE" stroke-width="0.5"/>
<line x1="693.25" y1="16" x2="693.25" y2="133" stroke="#0076BE" stroke-width="0.5"/>
<line x1="706.25" y1="16" x2="706.25" y2="133" stroke="#0076BE" stroke-width="0.5"/>
<line x1="719.25" y1="16" x2="719.25" y2="133" stroke="#0076BE" stroke-width="0.5"/>
<line x1="732.25" y1="16" x2="732.25" y2="133" stroke="#0076BE" stroke-width="0.5"/>
<line x1="17" y1="15.75" x2="732" y2="15.75" stroke="#0076BE" stroke-width="0.5"/>
<line x1="17" y1="28.75" x2="732" y2="28.75" stroke="#0076BE" stroke-width="0.5"/>
<line x1="17" y1="41.75" x2="732" y2="41.75" stroke="#0076BE" stroke-width="0.5"/>
<line x1="17" y1="54.75" x2="732" y2="54.75" stroke="#0076BE" stroke-width="0.5"/>
<line x1="17" y1="67.75" x2="732" y2="67.75" stroke="#0076BE" stroke-width="0.5"/>
<line x1="17" y1="80.75" x2="732" y2="80.75" stroke="#0076BE" stroke-width="0.5"/>
<line x1="17" y1="93.75" x2="732" y2="93.75" stroke="#0076BE" stroke-width="0.5"/>
<line x1="17" y1="106.75" x2="732" y2="106.75" stroke="#0076BE" stroke-width="0.5"/>
<line x1="17" y1="119.75" x2="732" y2="119.75" stroke="#0076BE" stroke-width="0.5"/>
<line x1="17" y1="132.75" x2="732" y2="132.75" stroke="#0076BE" stroke-width="0.5"/>
<line x1="5" y1="94" x2="5" y2="150" stroke="#0076BE" stroke-width="2"/>
<line x1="4" y1="150" x2="47" y2="150" stroke="#0076BE" stroke-width="2"/>
<line x1="649" y1="150" x2="747" y2="150" stroke="#0076BE" stroke-width="2"/>
<line x1="747" y1="151" x2="747" y2="108" stroke="#0076BE" stroke-width="2"/>
<line x1="5" y1="1" x2="69" y2="1" stroke="#0076BE" stroke-width="2" stroke-dasharray="8 8"/>
<line x1="300" y1="150" x2="364" y2="150" stroke="#0076BE" stroke-width="2" stroke-dasharray="8 8"/>
<line x1="510" y1="1" x2="574" y2="1" stroke="#0076BE" stroke-width="2" stroke-dasharray="8 8"/>
<line x1="747" y1="2" x2="747" y2="74" stroke="#0076BE" stroke-width="2" stroke-dasharray="8 8"/>
<line x1="5" y1="32" x2="5" stroke="#0076BE" stroke-width="2" stroke-dasharray="8 8"/>
<line x1="47" y1="150" x2="111" y2="150" stroke="#0076BE" stroke-width="2" stroke-dasharray="8 8"/>
<line x1="747" y1="108" x2="747" y2="44" stroke="#0076BE" stroke-width="2" stroke-dasharray="8 8"/>
<rect x="679" y="155" width="10" height="33" transform="rotate(-90 679 155)" fill="#0076BE"/>
<rect y="17" width="10" height="33" fill="#0076BE"/>
<rect x="742" y="56" width="10" height="33" fill="#0076BE"/>
<line x1="709" y1="1" x2="748" y2="1" stroke="#0076BE" stroke-width="2"/>
<line x1="280" y1="1" x2="397" y2="1" stroke="#0076BE" stroke-width="2"/>
</svg>
