<svg width="593" height="347" viewBox="0 0 593 347" fill="none" xmlns="http://www.w3.org/2000/svg">
<rect x="22.3976" y="21.3976" width="549.205" height="75.2049" fill="url(#paint0_linear_534_9767)" stroke="#0076BE" stroke-width="4.79512"/>
<line x1="24.4052" y1="22.8921" x2="24.4052" y2="98.8456" stroke="#0076BE" stroke-width="0.59939"/>
<line x1="40.9481" y1="22.8921" x2="40.9481" y2="98.8456" stroke="#0076BE" stroke-width="0.59939"/>
<line x1="57.4872" y1="22.8921" x2="57.4872" y2="98.8456" stroke="#0076BE" stroke-width="0.59939"/>
<line x1="74.0302" y1="22.8921" x2="74.0302" y2="98.8456" stroke="#0076BE" stroke-width="0.59939"/>
<line x1="90.5712" y1="22.8921" x2="90.5712" y2="98.8456" stroke="#0076BE" stroke-width="0.59939"/>
<line x1="107.114" y1="22.8921" x2="107.114" y2="98.8456" stroke="#0076BE" stroke-width="0.59939"/>
<line x1="123.653" y1="22.8921" x2="123.653" y2="98.8456" stroke="#0076BE" stroke-width="0.59939"/>
<line x1="140.196" y1="22.8921" x2="140.196" y2="98.8456" stroke="#0076BE" stroke-width="0.59939"/>
<line x1="156.737" y1="22.8921" x2="156.737" y2="98.8456" stroke="#0076BE" stroke-width="0.59939"/>
<line x1="173.28" y1="22.8921" x2="173.28" y2="98.8456" stroke="#0076BE" stroke-width="0.59939"/>
<line x1="189.821" y1="22.8921" x2="189.821" y2="98.8456" stroke="#0076BE" stroke-width="0.59939"/>
<line x1="206.362" y1="22.8921" x2="206.362" y2="98.8456" stroke="#0076BE" stroke-width="0.59939"/>
<line x1="222.903" y1="22.8921" x2="222.903" y2="98.8456" stroke="#0076BE" stroke-width="0.59939"/>
<line x1="239.446" y1="22.8921" x2="239.446" y2="98.8456" stroke="#0076BE" stroke-width="0.59939"/>
<line x1="255.985" y1="22.8921" x2="255.985" y2="98.8456" stroke="#0076BE" stroke-width="0.59939"/>
<line x1="255.989" y1="22.8926" x2="255.989" y2="98.8461" stroke="#0076BE" stroke-width="0.59939"/>
<line x1="272.532" y1="22.8926" x2="272.532" y2="98.8461" stroke="#0076BE" stroke-width="0.59939"/>
<line x1="289.071" y1="22.8926" x2="289.071" y2="98.8461" stroke="#0076BE" stroke-width="0.59939"/>
<line x1="305.616" y1="22.8926" x2="305.616" y2="98.8461" stroke="#0076BE" stroke-width="0.59939"/>
<line x1="322.155" y1="22.8926" x2="322.155" y2="98.8461" stroke="#0076BE" stroke-width="0.59939"/>
<line x1="338.698" y1="22.8926" x2="338.698" y2="98.8461" stroke="#0076BE" stroke-width="0.59939"/>
<line x1="355.239" y1="22.8926" x2="355.239" y2="98.8461" stroke="#0076BE" stroke-width="0.59939"/>
<line x1="371.782" y1="22.8926" x2="371.782" y2="98.8461" stroke="#0076BE" stroke-width="0.59939"/>
<line x1="388.321" y1="22.8926" x2="388.321" y2="98.8461" stroke="#0076BE" stroke-width="0.59939"/>
<line x1="404.862" y1="22.8926" x2="404.862" y2="98.8461" stroke="#0076BE" stroke-width="0.59939"/>
<line x1="421.405" y1="22.8926" x2="421.405" y2="98.8461" stroke="#0076BE" stroke-width="0.59939"/>
<line x1="388.3" y1="20" x2="388.3" y2="95.9536" stroke="#0076BE" stroke-width="0.59939"/>
<line x1="404.843" y1="20" x2="404.843" y2="95.9536" stroke="#0076BE" stroke-width="0.59939"/>
<line x1="421.382" y1="20" x2="421.382" y2="95.9536" stroke="#0076BE" stroke-width="0.59939"/>
<line x1="437.927" y1="20" x2="437.927" y2="95.9536" stroke="#0076BE" stroke-width="0.59939"/>
<line x1="454.466" y1="20" x2="454.466" y2="95.9536" stroke="#0076BE" stroke-width="0.59939"/>
<line x1="471.009" y1="20" x2="471.009" y2="95.9536" stroke="#0076BE" stroke-width="0.59939"/>
<line x1="487.55" y1="20" x2="487.55" y2="95.9536" stroke="#0076BE" stroke-width="0.59939"/>
<line x1="504.093" y1="20" x2="504.093" y2="95.9536" stroke="#0076BE" stroke-width="0.59939"/>
<line x1="520.632" y1="20" x2="520.632" y2="95.9536" stroke="#0076BE" stroke-width="0.59939"/>
<line x1="537.175" y1="20" x2="537.175" y2="95.9536" stroke="#0076BE" stroke-width="0.59939"/>
<line x1="553.716" y1="20" x2="553.716" y2="95.9536" stroke="#0076BE" stroke-width="0.59939"/>
<line x1="24.1055" y1="22.8766" x2="570" y2="22.8766" stroke="#0076BE" stroke-width="0.59939"/>
<line x1="24.1055" y1="37.9576" x2="570" y2="37.9576" stroke="#0076BE" stroke-width="0.59939"/>
<line x1="24.1055" y1="53.0392" x2="570" y2="53.0392" stroke="#0076BE" stroke-width="0.59939"/>
<line x1="24.1055" y1="68.1207" x2="570" y2="68.1207" stroke="#0076BE" stroke-width="0.59939"/>
<line x1="24.1055" y1="83.2018" x2="570" y2="83.2018" stroke="#0076BE" stroke-width="0.59939"/>
<line x1="24.1055" y1="98.2828" x2="570" y2="98.2828" stroke="#0076BE" stroke-width="0.59939"/>
<rect x="22.3976" y="96.3976" width="549.205" height="76.2049" fill="url(#paint1_linear_534_9767)" stroke="#0076BE" stroke-width="4.79512"/>
<line x1="24.4091" y1="98.8447" x2="24.4091" y2="174.798" stroke="#0076BE" stroke-width="0.59939"/>
<line x1="40.952" y1="98.8447" x2="40.952" y2="174.798" stroke="#0076BE" stroke-width="0.59939"/>
<line x1="57.4911" y1="98.8447" x2="57.4911" y2="174.798" stroke="#0076BE" stroke-width="0.59939"/>
<line x1="74.0341" y1="98.8447" x2="74.0341" y2="174.798" stroke="#0076BE" stroke-width="0.59939"/>
<line x1="90.5751" y1="98.8447" x2="90.5751" y2="174.798" stroke="#0076BE" stroke-width="0.59939"/>
<line x1="107.118" y1="98.8447" x2="107.118" y2="174.798" stroke="#0076BE" stroke-width="0.59939"/>
<line x1="123.659" y1="98.8447" x2="123.659" y2="174.798" stroke="#0076BE" stroke-width="0.59939"/>
<line x1="140.2" y1="98.8447" x2="140.2" y2="174.798" stroke="#0076BE" stroke-width="0.59939"/>
<line x1="156.741" y1="98.8447" x2="156.741" y2="174.798" stroke="#0076BE" stroke-width="0.59939"/>
<line x1="173.284" y1="98.8447" x2="173.284" y2="174.798" stroke="#0076BE" stroke-width="0.59939"/>
<line x1="189.825" y1="98.8447" x2="189.825" y2="174.798" stroke="#0076BE" stroke-width="0.59939"/>
<line x1="206.366" y1="98.8447" x2="206.366" y2="174.798" stroke="#0076BE" stroke-width="0.59939"/>
<line x1="222.907" y1="98.8447" x2="222.907" y2="174.798" stroke="#0076BE" stroke-width="0.59939"/>
<line x1="239.45" y1="98.8447" x2="239.45" y2="174.798" stroke="#0076BE" stroke-width="0.59939"/>
<line x1="255.989" y1="98.8447" x2="255.989" y2="174.798" stroke="#0076BE" stroke-width="0.59939"/>
<line x1="255.991" y1="98.8447" x2="255.991" y2="174.798" stroke="#0076BE" stroke-width="0.59939"/>
<line x1="272.534" y1="98.8447" x2="272.534" y2="174.798" stroke="#0076BE" stroke-width="0.59939"/>
<line x1="289.073" y1="98.8447" x2="289.073" y2="174.798" stroke="#0076BE" stroke-width="0.59939"/>
<line x1="305.618" y1="98.8447" x2="305.618" y2="174.798" stroke="#0076BE" stroke-width="0.59939"/>
<line x1="322.157" y1="98.8447" x2="322.157" y2="174.798" stroke="#0076BE" stroke-width="0.59939"/>
<line x1="338.7" y1="98.8447" x2="338.7" y2="174.798" stroke="#0076BE" stroke-width="0.59939"/>
<line x1="355.241" y1="98.8447" x2="355.241" y2="174.798" stroke="#0076BE" stroke-width="0.59939"/>
<line x1="371.782" y1="98.8447" x2="371.782" y2="174.798" stroke="#0076BE" stroke-width="0.59939"/>
<line x1="388.323" y1="98.8447" x2="388.323" y2="174.798" stroke="#0076BE" stroke-width="0.59939"/>
<line x1="404.864" y1="98.8447" x2="404.864" y2="174.798" stroke="#0076BE" stroke-width="0.59939"/>
<line x1="421.407" y1="98.8447" x2="421.407" y2="174.798" stroke="#0076BE" stroke-width="0.59939"/>
<line x1="421.3" y1="95" x2="421.3" y2="170.954" stroke="#0076BE" stroke-width="0.59939"/>
<line x1="437.843" y1="95" x2="437.843" y2="170.954" stroke="#0076BE" stroke-width="0.59939"/>
<line x1="454.382" y1="95" x2="454.382" y2="170.954" stroke="#0076BE" stroke-width="0.59939"/>
<line x1="470.927" y1="95" x2="470.927" y2="170.954" stroke="#0076BE" stroke-width="0.59939"/>
<line x1="487.466" y1="95" x2="487.466" y2="170.954" stroke="#0076BE" stroke-width="0.59939"/>
<line x1="504.009" y1="95" x2="504.009" y2="170.954" stroke="#0076BE" stroke-width="0.59939"/>
<line x1="520.55" y1="95" x2="520.55" y2="170.954" stroke="#0076BE" stroke-width="0.59939"/>
<line x1="537.091" y1="95" x2="537.091" y2="170.954" stroke="#0076BE" stroke-width="0.59939"/>
<line x1="553.632" y1="95" x2="553.632" y2="170.954" stroke="#0076BE" stroke-width="0.59939"/>
<line x1="586.716" y1="95" x2="586.716" y2="170.954" stroke="#0076BE" stroke-width="0.59939"/>
<line x1="24.1094" y1="98.8292" x2="570" y2="98.8292" stroke="#0076BE" stroke-width="0.59939"/>
<line x1="24.1094" y1="113.91" x2="570" y2="113.91" stroke="#0076BE" stroke-width="0.59939"/>
<line x1="24.1094" y1="128.992" x2="570" y2="128.992" stroke="#0076BE" stroke-width="0.59939"/>
<line x1="24.1094" y1="144.073" x2="570" y2="144.073" stroke="#0076BE" stroke-width="0.59939"/>
<line x1="24.1094" y1="159.154" x2="570" y2="159.154" stroke="#0076BE" stroke-width="0.59939"/>
<line x1="24.1094" y1="174.236" x2="570" y2="174.236" stroke="#0076BE" stroke-width="0.59939"/>
<rect x="579" y="285" width="13.35" height="44.31" fill="#0076BE"/>
<line x1="586" y1="339.199" x2="560" y2="339.199" stroke="#0076BE" stroke-width="2.39756"/>
<line x1="587.335" y1="297" x2="587.335" y2="340.4" stroke="#0076BE" stroke-width="2.67"/>
<line x1="587.335" y1="75" x2="587.335" y2="190" stroke="#0076BE" stroke-width="2.67"/>
<rect x="0.191406" y="26.1956" width="13.35" height="44.31" fill="#0076BE"/>
<rect x="18.9688" y="346.396" width="13.35" height="44.31" transform="rotate(-90 18.9688 346.396)" fill="#0076BE"/>
<line x1="6.665" y1="33" x2="6.665" y2="5.89043" stroke="#0076BE" stroke-width="2.67"/>
<line x1="121.301" y1="339.335" x2="5.30078" y2="339.335" stroke="#0076BE" stroke-width="2.67"/>
<line x1="5.33008" y1="5.80122" x2="14.3301" y2="5.80122" stroke="#0076BE" stroke-width="2.39756"/>
<line x1="11.8867" y1="5.94503" x2="34.8867" y2="5.94503" stroke="#0076BE" stroke-width="2.67" stroke-dasharray="4.8 4.8"/>
<line x1="166.67" y1="5.94503" x2="236.653" y2="5.94503" stroke="#0076BE" stroke-width="2.67" stroke-dasharray="10.79 10.79"/>
<line x1="230.076" y1="339.065" x2="398.322" y2="339.065" stroke="#0076BE" stroke-width="2.67" stroke-dasharray="8.39 8.39"/>
<line x1="6.665" y1="339.226" x2="6.665" y2="309.104" stroke="#0076BE" stroke-width="2.67" stroke-dasharray="4.8 4.8"/>
<line x1="6.665" y1="200.117" x2="6.665" y2="97.6397" stroke="#0076BE" stroke-width="2.67" stroke-dasharray="4.8 4.8"/>
<rect x="461" y="14.0002" width="13.35" height="44.31" transform="rotate(-90 461 14.0002)" fill="#0076BE"/>
<line x1="587.655" y1="6" x2="587.655" y2="31" stroke="#0076BE" stroke-width="2.67"/>
<line x1="587.655" y1="31" x2="587.655" y2="56" stroke="#0076BE" stroke-width="2.67" stroke-dasharray="4.8 4.8"/>
<line x1="546" y1="6.335" x2="383" y2="6.33501" stroke="#0076BE" stroke-width="2.67"/>
<line x1="565" y1="5.94503" x2="589" y2="5.94503" stroke="#0076BE" stroke-width="2.67"/>
<rect x="22.3976" y="172.398" width="549.205" height="76.2049" fill="url(#paint2_linear_534_9767)" stroke="#0076BE" stroke-width="4.79512"/>
<line x1="24.4052" y1="174.798" x2="24.4052" y2="250.752" stroke="#0076BE" stroke-width="0.59939"/>
<line x1="40.9481" y1="174.798" x2="40.9481" y2="250.752" stroke="#0076BE" stroke-width="0.59939"/>
<line x1="57.4872" y1="174.798" x2="57.4872" y2="250.752" stroke="#0076BE" stroke-width="0.59939"/>
<line x1="74.0302" y1="174.798" x2="74.0302" y2="250.752" stroke="#0076BE" stroke-width="0.59939"/>
<line x1="90.5712" y1="174.798" x2="90.5712" y2="250.752" stroke="#0076BE" stroke-width="0.59939"/>
<line x1="107.114" y1="174.798" x2="107.114" y2="250.752" stroke="#0076BE" stroke-width="0.59939"/>
<line x1="123.653" y1="174.798" x2="123.653" y2="250.752" stroke="#0076BE" stroke-width="0.59939"/>
<line x1="140.196" y1="174.798" x2="140.196" y2="250.752" stroke="#0076BE" stroke-width="0.59939"/>
<line x1="156.737" y1="174.798" x2="156.737" y2="250.752" stroke="#0076BE" stroke-width="0.59939"/>
<line x1="173.28" y1="174.798" x2="173.28" y2="250.752" stroke="#0076BE" stroke-width="0.59939"/>
<line x1="189.821" y1="174.798" x2="189.821" y2="250.752" stroke="#0076BE" stroke-width="0.59939"/>
<line x1="206.362" y1="174.798" x2="206.362" y2="250.752" stroke="#0076BE" stroke-width="0.59939"/>
<line x1="222.903" y1="174.798" x2="222.903" y2="250.752" stroke="#0076BE" stroke-width="0.59939"/>
<line x1="239.446" y1="174.798" x2="239.446" y2="250.752" stroke="#0076BE" stroke-width="0.59939"/>
<line x1="255.985" y1="174.798" x2="255.985" y2="250.752" stroke="#0076BE" stroke-width="0.59939"/>
<line x1="255.987" y1="174.798" x2="255.987" y2="250.752" stroke="#0076BE" stroke-width="0.59939"/>
<line x1="272.53" y1="174.798" x2="272.53" y2="250.752" stroke="#0076BE" stroke-width="0.59939"/>
<line x1="289.069" y1="174.798" x2="289.069" y2="250.752" stroke="#0076BE" stroke-width="0.59939"/>
<line x1="305.614" y1="174.798" x2="305.614" y2="250.752" stroke="#0076BE" stroke-width="0.59939"/>
<line x1="322.153" y1="174.798" x2="322.153" y2="250.752" stroke="#0076BE" stroke-width="0.59939"/>
<line x1="338.696" y1="174.798" x2="338.696" y2="250.752" stroke="#0076BE" stroke-width="0.59939"/>
<line x1="355.237" y1="174.798" x2="355.237" y2="250.752" stroke="#0076BE" stroke-width="0.59939"/>
<line x1="371.78" y1="174.798" x2="371.78" y2="250.752" stroke="#0076BE" stroke-width="0.59939"/>
<line x1="388.319" y1="174.798" x2="388.319" y2="250.752" stroke="#0076BE" stroke-width="0.59939"/>
<line x1="404.86" y1="174.798" x2="404.86" y2="250.752" stroke="#0076BE" stroke-width="0.59939"/>
<line x1="421.403" y1="174.798" x2="421.403" y2="250.752" stroke="#0076BE" stroke-width="0.59939"/>
<line x1="421.3" y1="174" x2="421.3" y2="249.954" stroke="#0076BE" stroke-width="0.59939"/>
<line x1="437.843" y1="174" x2="437.843" y2="249.954" stroke="#0076BE" stroke-width="0.59939"/>
<line x1="454.382" y1="174" x2="454.382" y2="249.954" stroke="#0076BE" stroke-width="0.59939"/>
<line x1="470.927" y1="174" x2="470.927" y2="249.954" stroke="#0076BE" stroke-width="0.59939"/>
<line x1="487.466" y1="174" x2="487.466" y2="249.954" stroke="#0076BE" stroke-width="0.59939"/>
<line x1="504.009" y1="174" x2="504.009" y2="249.954" stroke="#0076BE" stroke-width="0.59939"/>
<line x1="520.55" y1="174" x2="520.55" y2="249.954" stroke="#0076BE" stroke-width="0.59939"/>
<line x1="537.093" y1="174" x2="537.093" y2="249.954" stroke="#0076BE" stroke-width="0.59939"/>
<line x1="553.632" y1="174" x2="553.632" y2="249.954" stroke="#0076BE" stroke-width="0.59939"/>
<line x1="24.1055" y1="174.783" x2="569" y2="174.783" stroke="#0076BE" stroke-width="0.59939"/>
<line x1="24.1055" y1="189.864" x2="569" y2="189.864" stroke="#0076BE" stroke-width="0.59939"/>
<line x1="24.1055" y1="204.946" x2="569" y2="204.946" stroke="#0076BE" stroke-width="0.59939"/>
<line x1="24.1055" y1="220.027" x2="569" y2="220.027" stroke="#0076BE" stroke-width="0.59939"/>
<line x1="24.1055" y1="235.109" x2="569" y2="235.109" stroke="#0076BE" stroke-width="0.59939"/>
<line x1="24.1055" y1="250.19" x2="569" y2="250.19" stroke="#0076BE" stroke-width="0.59939"/>
<rect x="22.3976" y="248.398" width="549.205" height="75.2049" fill="url(#paint3_linear_534_9767)" stroke="#0076BE" stroke-width="4.79512"/>
<line x1="24.2997" y1="251" x2="24.2997" y2="326" stroke="#0076BE" stroke-width="0.59939"/>
<line x1="41.2997" y1="251" x2="41.2997" y2="326" stroke="#0076BE" stroke-width="0.59939"/>
<line x1="57.2997" y1="251" x2="57.2997" y2="326" stroke="#0076BE" stroke-width="0.59939"/>
<line x1="74.2997" y1="251" x2="74.2997" y2="326" stroke="#0076BE" stroke-width="0.59939"/>
<line x1="90.2997" y1="251" x2="90.2997" y2="326" stroke="#0076BE" stroke-width="0.59939"/>
<line x1="107.3" y1="251" x2="107.3" y2="326" stroke="#0076BE" stroke-width="0.59939"/>
<line x1="123.3" y1="251" x2="123.3" y2="326" stroke="#0076BE" stroke-width="0.59939"/>
<line x1="140.3" y1="251" x2="140.3" y2="326" stroke="#0076BE" stroke-width="0.59939"/>
<line x1="156.3" y1="251" x2="156.3" y2="326" stroke="#0076BE" stroke-width="0.59939"/>
<line x1="173.3" y1="251" x2="173.3" y2="326" stroke="#0076BE" stroke-width="0.59939"/>
<line x1="190.3" y1="251" x2="190.3" y2="326" stroke="#0076BE" stroke-width="0.59939"/>
<line x1="206.3" y1="251" x2="206.3" y2="326" stroke="#0076BE" stroke-width="0.59939"/>
<line x1="223.3" y1="251" x2="223.3" y2="326" stroke="#0076BE" stroke-width="0.59939"/>
<line x1="239.3" y1="251" x2="239.3" y2="326" stroke="#0076BE" stroke-width="0.59939"/>
<line x1="255.987" y1="250.752" x2="255.987" y2="326" stroke="#0076BE" stroke-width="0.59939"/>
<line x1="272.53" y1="250.752" x2="272.53" y2="326" stroke="#0076BE" stroke-width="0.59939"/>
<line x1="289.069" y1="250.752" x2="289.069" y2="326" stroke="#0076BE" stroke-width="0.59939"/>
<line x1="305.614" y1="250.752" x2="305.614" y2="326" stroke="#0076BE" stroke-width="0.59939"/>
<line x1="322.153" y1="250.752" x2="322.153" y2="326" stroke="#0076BE" stroke-width="0.59939"/>
<line x1="338.696" y1="250.752" x2="338.696" y2="326" stroke="#0076BE" stroke-width="0.59939"/>
<line x1="355.237" y1="250.752" x2="355.237" y2="326" stroke="#0076BE" stroke-width="0.59939"/>
<line x1="371.78" y1="250.752" x2="371.78" y2="326" stroke="#0076BE" stroke-width="0.59939"/>
<line x1="388.319" y1="250.752" x2="388.319" y2="326" stroke="#0076BE" stroke-width="0.59939"/>
<line x1="404.86" y1="250.752" x2="404.86" y2="326" stroke="#0076BE" stroke-width="0.59939"/>
<line x1="421.403" y1="250.752" x2="421.403" y2="326" stroke="#0076BE" stroke-width="0.59939"/>
<line x1="421.3" y1="246" x2="421.3" y2="321.954" stroke="#0076BE" stroke-width="0.59939"/>
<line x1="437.843" y1="246" x2="437.843" y2="321.954" stroke="#0076BE" stroke-width="0.59939"/>
<line x1="454.382" y1="246" x2="454.382" y2="321.954" stroke="#0076BE" stroke-width="0.59939"/>
<line x1="470.927" y1="246" x2="470.927" y2="321.954" stroke="#0076BE" stroke-width="0.59939"/>
<line x1="487.466" y1="246" x2="487.466" y2="321.954" stroke="#0076BE" stroke-width="0.59939"/>
<line x1="504.009" y1="246" x2="504.009" y2="321.954" stroke="#0076BE" stroke-width="0.59939"/>
<line x1="520.55" y1="246" x2="520.55" y2="321.954" stroke="#0076BE" stroke-width="0.59939"/>
<line x1="537.093" y1="246" x2="537.093" y2="321.954" stroke="#0076BE" stroke-width="0.59939"/>
<line x1="553.632" y1="246" x2="553.632" y2="321.954" stroke="#0076BE" stroke-width="0.59939"/>
<line x1="586.716" y1="246" x2="586.716" y2="321.954" stroke="#0076BE" stroke-width="0.59939"/>
<line x1="24.1055" y1="250.736" x2="570" y2="250.736" stroke="#0076BE" stroke-width="0.59939"/>
<line x1="24.1055" y1="265.817" x2="570" y2="265.818" stroke="#0076BE" stroke-width="0.59939"/>
<line x1="24.1055" y1="280.899" x2="570" y2="280.899" stroke="#0076BE" stroke-width="0.59939"/>
<line x1="24.1055" y1="295.98" x2="570" y2="295.98" stroke="#0076BE" stroke-width="0.59939"/>
<line x1="24.1055" y1="311.061" x2="570" y2="311.061" stroke="#0076BE" stroke-width="0.59939"/>
<defs>
<linearGradient id="paint0_linear_534_9767" x1="304.633" y1="96.4653" x2="304.326" y2="22.4797" gradientUnits="userSpaceOnUse">
<stop stop-color="#0076BE" stop-opacity="0.22"/>
<stop offset="1" stop-color="#2B2A2B" stop-opacity="0"/>
</linearGradient>
<linearGradient id="paint1_linear_534_9767" x1="304.633" y1="172.434" x2="304.318" y2="97.5233" gradientUnits="userSpaceOnUse">
<stop stop-color="#0076BE" stop-opacity="0.22"/>
<stop offset="1" stop-color="#2B2A2B" stop-opacity="0"/>
</linearGradient>
<linearGradient id="paint2_linear_534_9767" x1="304.633" y1="248.434" x2="304.318" y2="173.523" gradientUnits="userSpaceOnUse">
<stop stop-color="#0076BE" stop-opacity="0.22"/>
<stop offset="1" stop-color="#2B2A2B" stop-opacity="0"/>
</linearGradient>
<linearGradient id="paint3_linear_534_9767" x1="304.633" y1="323.465" x2="304.326" y2="249.48" gradientUnits="userSpaceOnUse">
<stop stop-color="#0076BE" stop-opacity="0.22"/>
<stop offset="1" stop-color="#2B2A2B" stop-opacity="0"/>
</linearGradient>
</defs>
</svg>
