<svg width="259" height="216" viewBox="0 0 259 216" fill="none" xmlns="http://www.w3.org/2000/svg">
<rect x="11.0671" y="11.0671" width="237.866" height="49.8657" fill="url(#paint0_linear_538_12687)" stroke="#0076BE" stroke-width="2.13427"/>
<rect x="11.0671" y="59.0671" width="237.866" height="48.8657" fill="url(#paint1_linear_538_12687)" stroke="#0076BE" stroke-width="2.13427"/>
<rect x="252" y="128" width="7" height="26" fill="#0076BE"/>
<line x1="256" y1="212.775" x2="245" y2="212.775" stroke="#0076BE" stroke-width="1.55"/>
<line x1="256.775" y1="184.5" x2="256.775" y2="213.5" stroke="#0076BE" stroke-width="1.55"/>
<line x1="256.775" y1="33" x2="256.775" y2="84.5142" stroke="#0076BE" stroke-width="1.55"/>
<rect y="15" width="7" height="26" fill="#0076BE"/>
<rect x="10" y="216" width="7" height="26" transform="rotate(-90 10 216)" fill="#0076BE"/>
<line x1="3.225" y1="21" x2="3.225" y2="3" stroke="#0076BE" stroke-width="1.55"/>
<line x1="70.4004" y1="212.775" x2="2.40039" y2="212.775" stroke="#0076BE" stroke-width="1.55"/>
<line x1="2.44922" y1="3.225" x2="9.44922" y2="3.225" stroke="#0076BE" stroke-width="1.55"/>
<line x1="80.6367" y1="3.37734" x2="90.3585" y2="3.37734" stroke="#0076BE" stroke-width="1.55" stroke-dasharray="2.13 2.13"/>
<line x1="144.363" y1="3.44448" x2="173.176" y2="3.44448" stroke="#0076BE" stroke-width="1.55" stroke-dasharray="4.8 4.8"/>
<line x1="134" y1="212.825" x2="233" y2="212.825" stroke="#0076BE" stroke-width="1.55" stroke-dasharray="3.73 3.73"/>
<line x1="3.225" y1="213" x2="3.225" y2="194" stroke="#0076BE" stroke-width="1.55" stroke-dasharray="2.13 2.13"/>
<line x1="3.225" y1="126" x2="3.225" y2="61" stroke="#0076BE" stroke-width="1.55" stroke-dasharray="2.13 2.13"/>
<rect x="218.352" y="7.36572" width="7" height="26" transform="rotate(-90 218.352 7.36572)" fill="#0076BE"/>
<line x1="256.775" y1="3.61572" x2="256.775" y2="14.6764" stroke="#0076BE" stroke-width="1.55"/>
<line x1="256.775" y1="13.677" x2="256.775" y2="24.7377" stroke="#0076BE" stroke-width="1.55" stroke-dasharray="2.13 2.13"/>
<line x1="244" y1="3.77524" x2="194" y2="3.77525" stroke="#0076BE" stroke-width="1.55"/>
<line x1="250.27" y1="3.225" x2="257.561" y2="3.225" stroke="#0076BE" stroke-width="1.55"/>
<rect x="11.0671" y="108.067" width="237.866" height="48.8657" fill="url(#paint2_linear_538_12687)" stroke="#0076BE" stroke-width="2.13427"/>
<rect x="11.0671" y="156.067" width="237.866" height="48.8657" fill="url(#paint3_linear_538_12687)" stroke="#0076BE" stroke-width="2.13427"/>
<line x1="12.1926" y1="10.1953" x2="12.1926" y2="58.9993" stroke="#0076BE" stroke-width="0.385138"/>
<line x1="22.0226" y1="10.1953" x2="22.0226" y2="58.9993" stroke="#0076BE" stroke-width="0.385138"/>
<line x1="31.8566" y1="10.1953" x2="31.8566" y2="58.9993" stroke="#0076BE" stroke-width="0.385138"/>
<line x1="41.6887" y1="10.1953" x2="41.6887" y2="58.9993" stroke="#0076BE" stroke-width="0.385138"/>
<line x1="51.5187" y1="10.1953" x2="51.5187" y2="58.9993" stroke="#0076BE" stroke-width="0.385138"/>
<line x1="61.3488" y1="10.1953" x2="61.3488" y2="58.9993" stroke="#0076BE" stroke-width="0.385138"/>
<line x1="71.1828" y1="10.1953" x2="71.1828" y2="58.9993" stroke="#0076BE" stroke-width="0.385138"/>
<line x1="81.0129" y1="10.1953" x2="81.0129" y2="58.9993" stroke="#0076BE" stroke-width="0.385138"/>
<line x1="90.843" y1="10.1953" x2="90.843" y2="58.9993" stroke="#0076BE" stroke-width="0.385138"/>
<line x1="100.679" y1="10.1953" x2="100.679" y2="58.9993" stroke="#0076BE" stroke-width="0.385138"/>
<line x1="110.509" y1="10.1953" x2="110.509" y2="58.9993" stroke="#0076BE" stroke-width="0.385138"/>
<line x1="120.339" y1="10.1953" x2="120.339" y2="58.9993" stroke="#0076BE" stroke-width="0.385138"/>
<line x1="130.171" y1="10.1953" x2="130.171" y2="58.9993" stroke="#0076BE" stroke-width="0.385138"/>
<line x1="140.003" y1="10.1953" x2="140.003" y2="58.9993" stroke="#0076BE" stroke-width="0.385138"/>
<line x1="149.833" y1="10.1953" x2="149.833" y2="58.9993" stroke="#0076BE" stroke-width="0.385138"/>
<line x1="149.835" y1="10.1953" x2="149.835" y2="58.9993" stroke="#0076BE" stroke-width="0.385138"/>
<line x1="159.667" y1="10.1953" x2="159.667" y2="58.9993" stroke="#0076BE" stroke-width="0.385138"/>
<line x1="169.499" y1="10.1953" x2="169.499" y2="58.9993" stroke="#0076BE" stroke-width="0.385138"/>
<line x1="179.331" y1="10.1953" x2="179.331" y2="58.9993" stroke="#0076BE" stroke-width="0.385138"/>
<line x1="189.161" y1="10.1953" x2="189.161" y2="58.9993" stroke="#0076BE" stroke-width="0.385138"/>
<line x1="198.991" y1="10.1953" x2="198.991" y2="58.9993" stroke="#0076BE" stroke-width="0.385138"/>
<line x1="208.825" y1="10.1953" x2="208.825" y2="58.9993" stroke="#0076BE" stroke-width="0.385138"/>
<line x1="218.655" y1="10.1953" x2="218.655" y2="58.9993" stroke="#0076BE" stroke-width="0.385138"/>
<line x1="228.487" y1="10.1953" x2="228.487" y2="58.9993" stroke="#0076BE" stroke-width="0.385138"/>
<line x1="238.321" y1="10.1953" x2="238.321" y2="58.9993" stroke="#0076BE" stroke-width="0.385138"/>
<line x1="249.193" y1="10" x2="249.193" y2="59" stroke="#0076BE" stroke-width="0.385138"/>
<line x1="12" y1="10.1846" x2="248.475" y2="10.1846" stroke="#0076BE" stroke-width="0.385138"/>
<line x1="12" y1="19.8753" x2="248.475" y2="19.8753" stroke="#0076BE" stroke-width="0.385138"/>
<line x1="12" y1="29.5655" x2="248.475" y2="29.5655" stroke="#0076BE" stroke-width="0.385138"/>
<line x1="12" y1="39.2564" x2="248.475" y2="39.2564" stroke="#0076BE" stroke-width="0.385138"/>
<line x1="12" y1="48.9468" x2="248.475" y2="48.9468" stroke="#0076BE" stroke-width="0.385138"/>
<line x1="12" y1="58.637" x2="248.475" y2="58.637" stroke="#0076BE" stroke-width="0.385138"/>
<line x1="12.1926" y1="58.999" x2="12.1926" y2="107.803" stroke="#0076BE" stroke-width="0.385138"/>
<line x1="22.0226" y1="58.999" x2="22.0226" y2="107.803" stroke="#0076BE" stroke-width="0.385138"/>
<line x1="31.8566" y1="58.999" x2="31.8566" y2="107.803" stroke="#0076BE" stroke-width="0.385138"/>
<line x1="41.6887" y1="58.999" x2="41.6887" y2="107.803" stroke="#0076BE" stroke-width="0.385138"/>
<line x1="51.5187" y1="58.999" x2="51.5187" y2="107.803" stroke="#0076BE" stroke-width="0.385138"/>
<line x1="61.3488" y1="58.999" x2="61.3488" y2="107.803" stroke="#0076BE" stroke-width="0.385138"/>
<line x1="71.1828" y1="58.999" x2="71.1828" y2="107.803" stroke="#0076BE" stroke-width="0.385138"/>
<line x1="81.0129" y1="58.999" x2="81.0129" y2="107.803" stroke="#0076BE" stroke-width="0.385138"/>
<line x1="90.843" y1="58.999" x2="90.843" y2="107.803" stroke="#0076BE" stroke-width="0.385138"/>
<line x1="100.679" y1="58.999" x2="100.679" y2="107.803" stroke="#0076BE" stroke-width="0.385138"/>
<line x1="110.509" y1="58.999" x2="110.509" y2="107.803" stroke="#0076BE" stroke-width="0.385138"/>
<line x1="120.339" y1="58.999" x2="120.339" y2="107.803" stroke="#0076BE" stroke-width="0.385138"/>
<line x1="130.171" y1="58.999" x2="130.171" y2="107.803" stroke="#0076BE" stroke-width="0.385138"/>
<line x1="140.003" y1="58.999" x2="140.003" y2="107.803" stroke="#0076BE" stroke-width="0.385138"/>
<line x1="149.833" y1="58.999" x2="149.833" y2="107.803" stroke="#0076BE" stroke-width="0.385138"/>
<line x1="149.835" y1="58.9993" x2="149.835" y2="107.803" stroke="#0076BE" stroke-width="0.385138"/>
<line x1="159.667" y1="58.9993" x2="159.667" y2="107.803" stroke="#0076BE" stroke-width="0.385138"/>
<line x1="169.499" y1="58.9993" x2="169.499" y2="107.803" stroke="#0076BE" stroke-width="0.385138"/>
<line x1="179.331" y1="58.9993" x2="179.331" y2="107.803" stroke="#0076BE" stroke-width="0.385138"/>
<line x1="189.161" y1="58.9993" x2="189.161" y2="107.803" stroke="#0076BE" stroke-width="0.385138"/>
<line x1="198.991" y1="58.9993" x2="198.991" y2="107.803" stroke="#0076BE" stroke-width="0.385138"/>
<line x1="208.825" y1="58.9993" x2="208.825" y2="107.803" stroke="#0076BE" stroke-width="0.385138"/>
<line x1="218.655" y1="58.9993" x2="218.655" y2="107.803" stroke="#0076BE" stroke-width="0.385138"/>
<line x1="228.487" y1="58.9993" x2="228.487" y2="107.803" stroke="#0076BE" stroke-width="0.385138"/>
<line x1="238.321" y1="58.9993" x2="238.321" y2="107.803" stroke="#0076BE" stroke-width="0.385138"/>
<line x1="249.193" y1="59" x2="249.193" y2="108" stroke="#0076BE" stroke-width="0.385138"/>
<line x1="12" y1="58.9886" x2="248.475" y2="58.9886" stroke="#0076BE" stroke-width="0.385138"/>
<line x1="12" y1="68.6795" x2="248.475" y2="68.6795" stroke="#0076BE" stroke-width="0.385138"/>
<line x1="12" y1="78.3697" x2="248.475" y2="78.3697" stroke="#0076BE" stroke-width="0.385138"/>
<line x1="12" y1="88.0604" x2="248.475" y2="88.0604" stroke="#0076BE" stroke-width="0.385138"/>
<line x1="12" y1="97.7508" x2="248.475" y2="97.7508" stroke="#0076BE" stroke-width="0.385138"/>
<line x1="12" y1="107.441" x2="248.475" y2="107.441" stroke="#0076BE" stroke-width="0.385138"/>
<line x1="12.1926" y1="107.803" x2="12.1926" y2="156.607" stroke="#0076BE" stroke-width="0.385138"/>
<line x1="22.0226" y1="107.803" x2="22.0226" y2="156.607" stroke="#0076BE" stroke-width="0.385138"/>
<line x1="31.8566" y1="107.803" x2="31.8566" y2="156.607" stroke="#0076BE" stroke-width="0.385138"/>
<line x1="41.6887" y1="107.803" x2="41.6887" y2="156.607" stroke="#0076BE" stroke-width="0.385138"/>
<line x1="51.5187" y1="107.803" x2="51.5187" y2="156.607" stroke="#0076BE" stroke-width="0.385138"/>
<line x1="61.3488" y1="107.803" x2="61.3488" y2="156.607" stroke="#0076BE" stroke-width="0.385138"/>
<line x1="71.1828" y1="107.803" x2="71.1828" y2="156.607" stroke="#0076BE" stroke-width="0.385138"/>
<line x1="81.0129" y1="107.803" x2="81.0129" y2="156.607" stroke="#0076BE" stroke-width="0.385138"/>
<line x1="90.843" y1="107.803" x2="90.843" y2="156.607" stroke="#0076BE" stroke-width="0.385138"/>
<line x1="100.679" y1="107.803" x2="100.679" y2="156.607" stroke="#0076BE" stroke-width="0.385138"/>
<line x1="110.509" y1="107.803" x2="110.509" y2="156.607" stroke="#0076BE" stroke-width="0.385138"/>
<line x1="120.339" y1="107.803" x2="120.339" y2="156.607" stroke="#0076BE" stroke-width="0.385138"/>
<line x1="130.171" y1="107.803" x2="130.171" y2="156.607" stroke="#0076BE" stroke-width="0.385138"/>
<line x1="140.003" y1="107.803" x2="140.003" y2="156.607" stroke="#0076BE" stroke-width="0.385138"/>
<line x1="149.833" y1="107.803" x2="149.833" y2="156.607" stroke="#0076BE" stroke-width="0.385138"/>
<line x1="149.835" y1="107.803" x2="149.835" y2="156.607" stroke="#0076BE" stroke-width="0.385138"/>
<line x1="159.667" y1="107.803" x2="159.667" y2="156.607" stroke="#0076BE" stroke-width="0.385138"/>
<line x1="169.499" y1="107.803" x2="169.499" y2="156.607" stroke="#0076BE" stroke-width="0.385138"/>
<line x1="179.331" y1="107.803" x2="179.331" y2="156.607" stroke="#0076BE" stroke-width="0.385138"/>
<line x1="189.161" y1="107.803" x2="189.161" y2="156.607" stroke="#0076BE" stroke-width="0.385138"/>
<line x1="198.991" y1="107.803" x2="198.991" y2="156.607" stroke="#0076BE" stroke-width="0.385138"/>
<line x1="208.825" y1="107.803" x2="208.825" y2="156.607" stroke="#0076BE" stroke-width="0.385138"/>
<line x1="218.655" y1="107.803" x2="218.655" y2="156.607" stroke="#0076BE" stroke-width="0.385138"/>
<line x1="228.487" y1="107.803" x2="228.487" y2="156.607" stroke="#0076BE" stroke-width="0.385138"/>
<line x1="238.321" y1="107.803" x2="238.321" y2="156.607" stroke="#0076BE" stroke-width="0.385138"/>
<line x1="248.154" y1="107.803" x2="248.154" y2="156.607" stroke="#0076BE" stroke-width="0.385138"/>
<line x1="12" y1="107.793" x2="248.475" y2="107.793" stroke="#0076BE" stroke-width="0.385138"/>
<line x1="12" y1="117.483" x2="248.475" y2="117.483" stroke="#0076BE" stroke-width="0.385138"/>
<line x1="12" y1="127.174" x2="248.475" y2="127.174" stroke="#0076BE" stroke-width="0.385138"/>
<line x1="12" y1="136.865" x2="248.475" y2="136.865" stroke="#0076BE" stroke-width="0.385138"/>
<line x1="12" y1="146.555" x2="248.475" y2="146.555" stroke="#0076BE" stroke-width="0.385138"/>
<line x1="12" y1="156.245" x2="248.475" y2="156.245" stroke="#0076BE" stroke-width="0.385138"/>
<line x1="12.1926" y1="156.607" x2="12.1926" y2="205.411" stroke="#0076BE" stroke-width="0.385138"/>
<line x1="22.0226" y1="156.607" x2="22.0226" y2="205.411" stroke="#0076BE" stroke-width="0.385138"/>
<line x1="31.8566" y1="156.607" x2="31.8566" y2="205.411" stroke="#0076BE" stroke-width="0.385138"/>
<line x1="41.6887" y1="156.607" x2="41.6887" y2="205.411" stroke="#0076BE" stroke-width="0.385138"/>
<line x1="51.5187" y1="156.607" x2="51.5187" y2="205.411" stroke="#0076BE" stroke-width="0.385138"/>
<line x1="61.3488" y1="156.607" x2="61.3488" y2="205.411" stroke="#0076BE" stroke-width="0.385138"/>
<line x1="71.1828" y1="156.607" x2="71.1828" y2="205.411" stroke="#0076BE" stroke-width="0.385138"/>
<line x1="81.0129" y1="156.607" x2="81.0129" y2="205.411" stroke="#0076BE" stroke-width="0.385138"/>
<line x1="90.843" y1="156.607" x2="90.843" y2="205.411" stroke="#0076BE" stroke-width="0.385138"/>
<line x1="100.679" y1="156.607" x2="100.679" y2="205.411" stroke="#0076BE" stroke-width="0.385138"/>
<line x1="110.509" y1="156.607" x2="110.509" y2="205.411" stroke="#0076BE" stroke-width="0.385138"/>
<line x1="120.339" y1="156.607" x2="120.339" y2="205.411" stroke="#0076BE" stroke-width="0.385138"/>
<line x1="130.171" y1="156.607" x2="130.171" y2="205.411" stroke="#0076BE" stroke-width="0.385138"/>
<line x1="140.003" y1="156.607" x2="140.003" y2="205.411" stroke="#0076BE" stroke-width="0.385138"/>
<line x1="149.833" y1="156.607" x2="149.833" y2="205.411" stroke="#0076BE" stroke-width="0.385138"/>
<line x1="149.835" y1="156.607" x2="149.835" y2="205.411" stroke="#0076BE" stroke-width="0.385138"/>
<line x1="159.667" y1="156.607" x2="159.667" y2="205.411" stroke="#0076BE" stroke-width="0.385138"/>
<line x1="169.499" y1="156.607" x2="169.499" y2="205.411" stroke="#0076BE" stroke-width="0.385138"/>
<line x1="179.331" y1="156.607" x2="179.331" y2="205.411" stroke="#0076BE" stroke-width="0.385138"/>
<line x1="189.161" y1="156.607" x2="189.161" y2="205.411" stroke="#0076BE" stroke-width="0.385138"/>
<line x1="198.991" y1="156.607" x2="198.991" y2="205.411" stroke="#0076BE" stroke-width="0.385138"/>
<line x1="208.825" y1="156.607" x2="208.825" y2="205.411" stroke="#0076BE" stroke-width="0.385138"/>
<line x1="218.655" y1="156.607" x2="218.655" y2="205.411" stroke="#0076BE" stroke-width="0.385138"/>
<line x1="228.487" y1="156.607" x2="228.487" y2="205.411" stroke="#0076BE" stroke-width="0.385138"/>
<line x1="238.321" y1="156.607" x2="238.321" y2="205.411" stroke="#0076BE" stroke-width="0.385138"/>
<line x1="248.154" y1="156.607" x2="248.154" y2="205.411" stroke="#0076BE" stroke-width="0.385138"/>
<line x1="12" y1="156.596" x2="248.475" y2="156.596" stroke="#0076BE" stroke-width="0.385138"/>
<line x1="12" y1="166.287" x2="248.475" y2="166.287" stroke="#0076BE" stroke-width="0.385138"/>
<line x1="12" y1="175.978" x2="248.475" y2="175.978" stroke="#0076BE" stroke-width="0.385138"/>
<line x1="12" y1="185.668" x2="248.475" y2="185.668" stroke="#0076BE" stroke-width="0.385138"/>
<line x1="12" y1="195.359" x2="248.475" y2="195.359" stroke="#0076BE" stroke-width="0.385138"/>
<line x1="12" y1="205.049" x2="248.475" y2="205.049" stroke="#0076BE" stroke-width="0.385138"/>
<defs>
<linearGradient id="paint0_linear_538_12687" x1="133.307" y1="60.3525" x2="133.008" y2="12.2629" gradientUnits="userSpaceOnUse">
<stop stop-color="#0076BE" stop-opacity="0.22"/>
<stop offset="1" stop-color="#2B2A2B" stop-opacity="0"/>
</linearGradient>
<linearGradient id="paint1_linear_538_12687" x1="133.307" y1="107.384" x2="133.019" y2="60.2193" gradientUnits="userSpaceOnUse">
<stop stop-color="#0076BE" stop-opacity="0.22"/>
<stop offset="1" stop-color="#2B2A2B" stop-opacity="0"/>
</linearGradient>
<linearGradient id="paint2_linear_538_12687" x1="133.307" y1="156.384" x2="133.019" y2="109.219" gradientUnits="userSpaceOnUse">
<stop stop-color="#0076BE" stop-opacity="0.22"/>
<stop offset="1" stop-color="#2B2A2B" stop-opacity="0"/>
</linearGradient>
<linearGradient id="paint3_linear_538_12687" x1="133.307" y1="204.384" x2="133.019" y2="157.219" gradientUnits="userSpaceOnUse">
<stop stop-color="#0076BE" stop-opacity="0.22"/>
<stop offset="1" stop-color="#2B2A2B" stop-opacity="0"/>
</linearGradient>
</defs>
</svg>
