<svg width="126" height="126" viewBox="0 0 126 126" fill="none" xmlns="http://www.w3.org/2000/svg">
<path d="M121.197 63.0078C121.197 95.5294 94.9886 121.853 62.7085 121.853C30.4284 121.853 4.22003 95.5294 4.22003 63.0078C4.22003 30.4862 30.4284 4.16242 62.7085 4.16242C94.9886 4.16242 121.197 30.4862 121.197 63.0078Z" stroke="#0076BE" stroke-width="8.28382"/>
<ellipse cx="62.9171" cy="62.7973" rx="6.47181" ry="6.50868" fill="#0076BE"/>
<path fill-rule="evenodd" clip-rule="evenodd" d="M84.3542 64.7173L82.7024 64.59C82.7426 64.0681 82.7631 63.5402 82.7631 63.0072C82.7631 62.4742 82.7426 61.9464 82.7024 61.4244L84.3542 61.2971C84.3977 61.8614 84.4198 62.4317 84.4198 63.0072C84.4198 63.5827 84.3977 64.153 84.3542 64.7173ZM83.8277 57.9212L82.2157 58.3036C81.9702 57.2688 81.6455 56.265 81.2483 55.299L82.7806 54.669C83.2106 55.7146 83.5621 56.8012 83.8277 57.9212ZM81.2375 51.6204L79.8224 52.482C79.2726 51.579 78.6541 50.7227 77.9741 49.9205L79.2379 48.8492C79.9735 49.717 80.6426 50.6433 81.2375 51.6204ZM76.832 46.4228L75.7501 47.6776C74.9532 46.9905 74.1023 46.3653 73.2048 45.8095L74.0772 44.401C75.0488 45.0028 75.9697 45.6794 76.832 46.4228ZM71.0392 42.8369L70.3999 44.3654C69.4367 43.9626 68.4357 43.6332 67.4037 43.3842L67.7923 41.7736C68.9108 42.0435 69.9955 42.4005 71.0392 42.8369ZM64.418 41.2384C63.8537 41.1941 63.2835 41.1716 62.708 41.1716C62.1325 41.1716 61.5622 41.1941 60.998 41.2384L61.1274 42.8901C61.6486 42.8492 62.1757 42.8284 62.708 42.8284C63.2402 42.8284 63.7673 42.8492 64.2885 42.8901L64.418 41.2384ZM57.6236 41.7736L58.0122 43.3842C56.9802 43.6332 55.9792 43.9626 55.016 44.3654L54.3768 42.8369C55.4204 42.4005 56.5051 42.0435 57.6236 41.7736ZM51.3387 44.401L52.2111 45.8095C51.3137 46.3653 50.4627 46.9905 49.6658 47.6776L48.5839 46.4228C49.4462 45.6794 50.3671 45.0028 51.3387 44.401ZM46.178 48.8492L47.4418 49.9205C46.7618 50.7227 46.1433 51.579 45.5935 52.482L44.1784 51.6204C44.7733 50.6433 45.4425 49.717 46.178 48.8492ZM42.6353 54.669L44.1676 55.299C43.7704 56.265 43.4457 57.2688 43.2002 58.3036L41.5882 57.9212C41.8539 56.8012 42.2054 55.7147 42.6353 54.669ZM41.0617 61.2971C41.0182 61.8614 40.9961 62.4317 40.9961 63.0072C40.9961 63.5827 41.0182 64.153 41.0617 64.7173L42.7136 64.59C42.6734 64.0681 42.6529 63.5402 42.6529 63.0072C42.6529 62.4742 42.6734 61.9464 42.7136 61.4244L41.0617 61.2971ZM41.5882 68.0932L43.2002 67.7108C43.4457 68.7456 43.7704 69.7494 44.1676 70.7154L42.6353 71.3454C42.2054 70.2998 41.8539 69.2132 41.5882 68.0932ZM44.1784 74.3941L45.5935 73.5324C46.1433 74.4355 46.7618 75.2917 47.4418 76.0939L46.178 77.1652C45.4425 76.2975 44.7733 75.3711 44.1784 74.3941ZM48.5839 79.5916L49.6658 78.3368C50.4627 79.024 51.3137 79.6491 52.2111 80.2049L51.3388 81.6134C50.3671 81.0116 49.4462 80.335 48.5839 79.5916ZM54.3768 83.1775C55.4204 83.614 56.5051 83.9709 57.6236 84.2408L58.0122 82.6303C56.9802 82.3812 55.9792 82.0518 55.016 81.649L54.3768 83.1775ZM60.998 84.7761L61.1274 83.1244C61.6486 83.1652 62.1757 83.186 62.708 83.186C63.2402 83.186 63.7673 83.1652 64.2885 83.1244L64.418 84.7761C63.8537 84.8203 63.2835 84.8428 62.708 84.8428C62.1325 84.8428 61.5622 84.8203 60.998 84.7761ZM67.7923 84.2408L67.4037 82.6303C68.4357 82.3812 69.4367 82.0518 70.3999 81.649L71.0392 83.1775C69.9955 83.614 68.9108 83.9709 67.7923 84.2408ZM74.0772 81.6134L73.2048 80.2049C74.1023 79.6491 74.9532 79.0239 75.7501 78.3368L76.832 79.5916C75.9697 80.335 75.0488 81.0116 74.0772 81.6134ZM79.2379 77.1652L77.9741 76.0939C78.6541 75.2917 79.2726 74.4355 79.8224 73.5324L81.2375 74.3941C80.6426 75.3711 79.9735 76.2975 79.2379 77.1652ZM82.7806 71.3454L81.2483 70.7154C81.6455 69.7494 81.9702 68.7456 82.2157 67.7108L83.8277 68.0932C83.5621 69.2132 83.2106 70.2998 82.7806 71.3454Z" fill="#0076BE"/>
<path fill-rule="evenodd" clip-rule="evenodd" d="M97.3242 64.9357L95.6693 64.8564C95.6953 64.3142 95.7084 63.7684 95.7084 63.2194C95.7084 62.6704 95.6953 62.1246 95.6693 61.5824L97.3242 61.5031C97.3514 62.0717 97.3652 62.6439 97.3652 63.2194C97.3652 63.7948 97.3514 64.3671 97.3242 64.9357ZM96.9943 58.0869L95.3549 58.326C95.1963 57.2384 94.9856 56.1681 94.7255 55.1176L96.3337 54.7194C96.6068 55.8222 96.8279 56.9456 96.9943 58.0869ZM95.3465 51.433L93.7851 51.987C93.4189 50.9549 93.0036 49.9463 92.5421 48.9638L94.0416 48.2593C94.5261 49.2906 94.9621 50.3495 95.3465 51.433ZM92.4322 45.2287L91.0087 46.0765C90.4496 45.1376 89.8458 44.2285 89.2004 43.3523L90.5344 42.3698C91.2117 43.2893 91.8453 44.2433 92.4322 45.2287ZM88.367 39.7093L87.1351 40.8171C86.4056 40.0058 85.6372 39.2308 84.8327 38.495L85.9509 37.2725C86.7951 38.0447 87.6016 38.858 88.367 39.7093ZM83.3085 35.083L82.3151 36.4089C81.4439 35.7562 80.5399 35.1455 79.6061 34.5798L80.4645 33.1628C81.445 33.7568 82.394 34.3979 83.3085 35.083ZM77.4454 31.5319L76.731 33.0268C75.7517 32.5588 74.7462 32.1377 73.7172 31.7663L74.2796 30.208C75.3606 30.5981 76.4168 31.0405 77.4454 31.5319ZM70.998 29.2052L70.5933 30.8118C69.5445 30.5476 68.4757 30.3336 67.3896 30.1725L67.6328 28.5337C68.7734 28.7029 69.8961 28.9277 70.998 29.2052ZM64.2172 28.1982L64.1366 29.853C63.5948 29.8266 63.0495 29.8133 62.501 29.8133C61.9524 29.8133 61.4071 29.8266 60.8654 29.853L60.7847 28.1982C61.3533 28.1705 61.9255 28.1565 62.501 28.1565C63.0764 28.1565 63.6486 28.1705 64.2172 28.1982ZM57.3692 28.5337L57.6123 30.1725C56.5262 30.3336 55.4575 30.5476 54.4086 30.8118L54.0039 29.2052C55.1058 28.9277 56.2285 28.7029 57.3692 28.5337ZM50.7223 30.208L51.2847 31.7663C50.2557 32.1377 49.2502 32.5588 48.2709 33.0268L47.5566 31.5319C48.5851 31.0405 49.6413 30.5981 50.7223 30.208ZM44.5374 33.1628C43.5569 33.7568 42.6079 34.3979 41.6934 35.083L42.6868 36.4089C43.558 35.7562 44.462 35.1455 45.3958 34.5798L44.5374 33.1628ZM39.0511 37.2725L40.1692 38.495C39.3647 39.2308 38.5963 40.0058 37.8668 40.8171L36.6349 39.7093C37.4003 38.858 38.2068 38.0447 39.0511 37.2725ZM34.4675 42.3697L35.8015 43.3523C35.1561 44.2285 34.5523 45.1376 33.9932 46.0765L32.5697 45.2287C33.1566 44.2433 33.7902 43.2893 34.4675 42.3697ZM30.9603 48.2593C30.4758 49.2906 30.0399 50.3495 29.6554 51.433L31.2168 51.987C31.583 50.9549 31.9983 49.9463 32.4598 48.9638L30.9603 48.2593ZM28.6682 54.7194L30.2764 55.1176C30.0163 56.1681 29.8056 57.2384 29.647 58.326L28.0076 58.0869C28.174 56.9456 28.3952 55.8222 28.6682 54.7194ZM27.6778 61.503C27.6505 62.0717 27.6367 62.6439 27.6367 63.2194C27.6367 63.7948 27.6505 64.3671 27.6778 64.9357L29.3326 64.8564C29.3066 64.3142 29.2935 63.7684 29.2935 63.2194C29.2935 62.6704 29.3066 62.1246 29.3326 61.5824L27.6778 61.503ZM28.0076 68.3519L29.647 68.1128C29.8056 69.2003 30.0163 70.2707 30.2764 71.3212L28.6682 71.7194C28.3952 70.6166 28.174 69.4932 28.0076 68.3519ZM29.6554 75.0058L31.2168 74.4518C31.583 75.4838 31.9983 76.4925 32.4598 77.475L30.9603 78.1794C30.4758 77.1481 30.0399 76.0892 29.6554 75.0058ZM32.5697 81.2101L33.9932 80.3623C34.5523 81.3012 35.1561 82.2103 35.8015 83.0865L34.4675 84.069C33.7902 83.1495 33.1566 82.1955 32.5697 81.2101ZM36.6349 86.7295L37.8668 85.6217C38.5963 86.4329 39.3647 87.208 40.1692 87.9438L39.0511 89.1663C38.2068 88.3941 37.4003 87.5808 36.6349 86.7295ZM41.6934 91.3558L42.6868 90.0299C43.558 90.6826 44.462 91.2933 45.3958 91.8589L44.5374 93.276C43.5569 92.682 42.6079 92.0409 41.6934 91.3558ZM47.5566 94.9068L48.2709 93.412C49.2502 93.8799 50.2557 94.301 51.2847 94.6724L50.7223 96.2308C49.6413 95.8407 48.5851 95.3983 47.5566 94.9068ZM54.0039 97.2336L54.4086 95.627C55.4574 95.8912 56.5262 96.1052 57.6123 96.2663L57.3692 97.9051C56.2285 97.7359 55.1058 97.5111 54.0039 97.2336ZM60.7847 98.2405L60.8654 96.5857C61.4071 96.6122 61.9524 96.6255 62.501 96.6255C63.0495 96.6255 63.5948 96.6122 64.1365 96.5857L64.2172 98.2405C63.6486 98.2683 63.0764 98.2823 62.501 98.2823C61.9255 98.2823 61.3533 98.2683 60.7847 98.2405ZM67.6327 97.9051L67.3896 96.2663C68.4757 96.1052 69.5445 95.8912 70.5933 95.627L70.998 97.2336C69.8961 97.5111 68.7734 97.7359 67.6327 97.9051ZM74.2796 96.2308L73.7172 94.6724C74.7462 94.301 75.7517 93.8799 76.731 93.412L77.4454 94.9068C76.4168 95.3983 75.3606 95.8407 74.2796 96.2308ZM80.4645 93.276L79.6061 91.8589C80.5399 91.2933 81.4439 90.6826 82.3151 90.0299L83.3085 91.3558C82.394 92.0409 81.445 92.682 80.4645 93.276ZM85.9508 89.1663L84.8327 87.9438C85.6372 87.208 86.4056 86.4329 87.1351 85.6217L88.367 86.7295C87.6016 87.5808 86.7951 88.3941 85.9508 89.1663ZM90.5344 84.069L89.2004 83.0865C89.8458 82.2103 90.4496 81.3012 91.0087 80.3623L92.4322 81.2101C91.8453 82.1955 91.2117 83.1495 90.5344 84.069ZM94.0416 78.1794L92.5421 77.475C93.0036 76.4925 93.4189 75.4838 93.7851 74.4518L95.3465 75.0058C94.962 76.0893 94.5261 77.1481 94.0416 78.1794ZM96.3337 71.7194L94.7255 71.3212C94.9856 70.2707 95.1963 69.2004 95.3549 68.1128L96.9943 68.3519C96.8279 69.4932 96.6068 70.6166 96.3337 71.7194Z" fill="#0076BE"/>
<path fill-rule="evenodd" clip-rule="evenodd" d="M110.694 64.9466L109.038 64.8889C109.058 64.3342 109.067 63.7769 109.067 63.2172C109.067 62.6576 109.058 62.1003 109.038 61.5455L110.694 61.4878C110.714 62.0618 110.724 62.6383 110.724 63.2172C110.724 63.7961 110.714 64.3726 110.694 64.9466ZM110.453 58.0454L108.806 58.2191C108.688 57.1054 108.532 56.0036 108.339 54.9149L109.97 54.625C110.17 55.7521 110.332 56.8927 110.453 58.0454ZM109.245 51.2509L107.639 51.6563C107.366 50.5731 107.055 49.5049 106.708 48.4534L108.281 47.9344C108.64 49.0233 108.962 50.1293 109.245 51.2509ZM107.083 44.6968L105.551 45.3268C105.127 44.2954 104.667 43.2826 104.174 42.2898L105.657 41.5521C106.168 42.5801 106.644 43.6288 107.083 44.6968ZM104.011 38.5174C103.425 37.524 102.805 36.5535 102.153 35.6074L100.789 36.548C101.419 37.4619 102.018 38.3994 102.583 39.3589L104.011 38.5174ZM100.093 32.8365L98.7989 33.8715C98.1037 33.0025 97.3783 32.159 96.6244 31.3426L97.8415 30.2186C98.622 31.0637 99.3729 31.9369 100.093 32.8365ZM95.4104 27.7668L94.276 28.9743C93.4658 28.2131 92.6285 27.4807 91.7658 26.7787L92.8115 25.4937C93.7047 26.2205 94.5715 26.9788 95.4104 27.7668ZM90.0576 23.4112L89.1061 24.7675C88.1971 24.1298 87.2645 23.5239 86.3098 22.9515L87.1619 21.5306C88.1505 22.1235 89.1163 22.7509 90.0576 23.4112ZM84.1392 19.8625L83.3914 21.3409C82.402 20.8404 81.3925 20.3744 80.3644 19.9444L81.0037 18.416C82.0687 18.8614 83.1144 19.3441 84.1392 19.8625ZM77.773 17.2001L77.246 18.7708C76.1964 18.4186 75.1302 18.103 74.0489 17.8254L74.4608 16.2207C75.5811 16.5082 76.6857 16.8352 77.773 17.2001ZM71.0895 15.4843L70.7947 17.1146C69.7071 16.918 68.6064 16.7593 67.4938 16.64L67.6704 14.9927C68.8227 15.1162 69.9629 15.2806 71.0895 15.4843ZM64.2282 14.7476L64.1695 16.4034C63.6151 16.3837 63.0581 16.3738 62.4988 16.3738C61.9395 16.3738 61.3826 16.3837 60.8281 16.4034L60.7695 14.7476C61.3434 14.7273 61.9199 14.717 62.4988 14.717C63.0777 14.717 63.6542 14.7273 64.2282 14.7476ZM57.3272 14.9927L57.5038 16.64C56.3912 16.7593 55.2905 16.918 54.203 17.1146L53.9082 15.4843C55.0347 15.2806 56.1749 15.1162 57.3272 14.9927ZM50.5368 16.2207L50.9487 17.8254C49.8674 18.103 48.8012 18.4186 47.7517 18.7708L47.2246 17.2001C48.312 16.8352 49.4166 16.5082 50.5368 16.2207ZM43.9939 18.416L44.6332 19.9444C43.6051 20.3744 42.5956 20.8404 41.6063 21.3409L40.8584 19.8625C41.8832 19.3441 42.9289 18.8614 43.9939 18.416ZM37.8357 21.5306L38.6878 22.9515C37.7332 23.5239 36.8006 24.1298 35.8916 24.7675L34.9401 23.4113C35.8813 22.7509 36.8471 22.1235 37.8357 21.5306ZM32.1861 25.4937L33.2318 26.7788C32.3691 27.4808 31.5319 28.2131 30.7216 28.9743L29.5872 27.7668C30.4261 26.9788 31.2929 26.2205 32.1861 25.4937ZM27.1562 30.2186L28.3733 31.3427C27.6193 32.159 26.8939 33.0025 26.1988 33.8715L24.9051 32.8365C25.6247 31.9369 26.3756 31.0637 27.1562 30.2186ZM22.8451 35.6074L24.2089 36.548C23.5786 37.4619 22.9799 38.3994 22.4142 39.3589L20.987 38.5175C21.5727 37.5241 22.1926 36.5535 22.8451 35.6074ZM19.3405 41.5522L20.824 42.2899C20.3303 43.2826 19.8707 44.2955 19.4466 45.3268L17.9143 44.6968C18.3534 43.6288 18.8294 42.5801 19.3405 41.5522ZM16.7165 47.9344L18.2898 48.4534C17.943 49.505 17.6321 50.5731 17.3588 51.6563L15.7524 51.251C16.0354 50.1293 16.3573 49.0233 16.7165 47.9344ZM15.0279 54.625L16.6591 54.915C16.4656 56.0036 16.3094 57.1055 16.192 58.2191L14.5444 58.0454C14.6659 56.8927 14.8275 55.7521 15.0279 54.625ZM14.3035 61.4878C14.2835 62.0618 14.2734 62.6383 14.2734 63.2172C14.2734 63.7961 14.2835 64.3727 14.3035 64.9466L15.9593 64.8889C15.94 64.3342 15.9302 63.7769 15.9302 63.2172C15.9302 62.6576 15.9399 62.1003 15.9593 61.5455L14.3035 61.4878ZM14.5444 68.389L16.192 68.2154C16.3094 69.329 16.4656 70.4308 16.6591 71.5195L15.0279 71.8095C14.8275 70.6823 14.6659 69.5417 14.5444 68.389ZM15.7524 75.1835L17.3588 74.7782C17.6321 75.8614 17.943 76.9295 18.2899 77.9811L16.7165 78.5001C16.3573 77.4112 16.0354 76.3051 15.7524 75.1835ZM17.9143 81.7377C18.3534 82.8056 18.8294 83.8544 19.3406 84.8823L20.824 84.1446C20.3303 83.1518 19.8707 82.139 19.4466 81.1076L17.9143 81.7377ZM20.987 87.917L22.4142 87.0756C22.9799 88.0351 23.5787 88.9725 24.209 89.8864L22.8451 90.8271C22.1926 89.881 21.5727 88.9104 20.987 87.917ZM24.9051 93.598L26.1988 92.563C26.8939 93.4319 27.6193 94.2754 28.3733 95.0918L27.1562 96.2159C26.3757 95.3707 25.6247 94.4975 24.9051 93.598ZM29.5873 98.6677L30.7216 97.4601C31.5319 98.2213 32.3692 98.9537 33.2318 99.6557L32.1861 100.941C31.293 100.214 30.4261 99.4557 29.5873 98.6677ZM34.9401 103.023L35.8916 101.667C36.8006 102.305 37.7332 102.91 38.6878 103.483L37.8357 104.904C36.8471 104.311 35.8813 103.684 34.9401 103.023ZM40.8584 106.572L41.6063 105.094C42.5956 105.594 43.6051 106.06 44.6332 106.49L43.9939 108.018C42.9289 107.573 41.8832 107.09 40.8584 106.572ZM47.2246 109.234L47.7517 107.664C48.8012 108.016 49.8674 108.331 50.9487 108.609L50.5369 110.214C49.4166 109.926 48.312 109.599 47.2246 109.234ZM53.9082 110.95L54.203 109.32C55.2905 109.516 56.3913 109.675 57.5039 109.794L57.3272 111.442C56.1749 111.318 55.0348 111.154 53.9082 110.95ZM60.7695 111.687L60.8282 110.031C61.3826 110.051 61.9395 110.061 62.4988 110.061C63.0581 110.061 63.6151 110.051 64.1695 110.031L64.2282 111.687C63.6542 111.707 63.0777 111.717 62.4988 111.717C61.9199 111.717 61.3434 111.707 60.7695 111.687ZM67.6704 111.442L67.4938 109.794C68.6064 109.675 69.7072 109.516 70.7947 109.32L71.0895 110.95C69.9629 111.154 68.8227 111.318 67.6704 111.442ZM74.4608 110.214L74.0489 108.609C75.1302 108.331 76.1964 108.016 77.246 107.664L77.773 109.234C76.6857 109.599 75.5811 109.926 74.4608 110.214ZM81.0037 108.018L80.3644 106.49C81.3925 106.06 82.402 105.594 83.3914 105.094L84.1392 106.572C83.1144 107.09 82.0687 107.573 81.0037 108.018ZM87.1619 104.904L86.3098 103.483C87.2645 102.91 88.1971 102.305 89.1061 101.667L90.0576 103.023C89.1163 103.684 88.1505 104.311 87.1619 104.904ZM92.8115 100.941L91.7658 99.6557C92.6285 98.9537 93.4658 98.2213 94.2761 97.4601L95.4104 98.6676C94.5715 99.4557 93.7047 100.214 92.8115 100.941ZM97.8415 96.2158L96.6244 95.0918C97.3783 94.2754 98.1037 93.4319 98.7989 92.563L100.093 93.598C99.3729 94.4975 98.622 95.3707 97.8415 96.2158ZM102.153 90.827L100.789 89.8864C101.419 88.9725 102.018 88.0351 102.583 87.0756L104.011 87.917C103.425 88.9104 102.805 89.881 102.153 90.827ZM105.657 84.8823L104.174 84.1446C104.667 83.1518 105.127 82.139 105.551 81.1076L107.083 81.7376C106.644 82.8056 106.168 83.8543 105.657 84.8823ZM108.281 78.5L106.708 77.981C107.055 76.9295 107.366 75.8614 107.639 74.7781L109.245 75.1835C108.962 76.3051 108.64 77.4111 108.281 78.5ZM109.97 71.8094L108.339 71.5195C108.532 70.4308 108.688 69.329 108.806 68.2154L110.453 68.389C110.332 69.5417 110.17 70.6823 109.97 71.8094Z" fill="#0076BE"/>
<path d="M62.707 123.055V2.95898" stroke="#0076BE" stroke-width="1.65676"/>
<path d="M122.415 63.0083L3 63.0083" stroke="#0076BE" stroke-width="1.65676"/>
</svg>
