<svg width="147" height="149" viewBox="0 0 147 149" fill="none" xmlns="http://www.w3.org/2000/svg">
<path fill-rule="evenodd" clip-rule="evenodd" d="M146.495 77.7877L131.509 77.1493C131.545 76.2979 131.564 75.441 131.564 74.5788C131.564 73.7166 131.545 72.8596 131.509 72.0083L146.495 71.3699C146.541 72.4338 146.564 73.5036 146.564 74.5788C146.564 75.6539 146.541 76.7237 146.495 77.7877ZM145.948 64.9797L131.072 66.9037C130.851 65.2005 130.559 63.5219 130.197 61.8707L144.85 58.6635C145.304 60.7375 145.671 62.8442 145.948 64.9797ZM143.208 52.4675L128.89 56.9393C128.381 55.3077 127.802 53.7067 127.158 52.1398L141.031 46.4357C141.841 48.4048 142.568 50.4168 143.208 52.4675ZM138.336 40.617L125.013 47.508C124.229 45.9919 123.38 44.514 122.471 43.078L135.146 35.0555C136.286 36.8576 137.351 38.713 138.336 40.617ZM131.485 29.7919L119.553 38.8829C118.519 37.5257 117.428 36.2151 116.282 34.9549L127.381 24.8651C128.818 26.4457 130.188 28.0895 131.485 29.7919ZM122.867 20.3118L112.683 31.3253C111.432 30.1688 110.132 29.067 108.786 28.0235L117.974 16.1674C119.665 17.4778 121.297 18.8609 122.867 20.3118ZM112.74 12.4644L104.62 25.0764C103.193 24.1576 101.724 23.3003 100.218 22.5079L107.202 9.23294C109.099 10.2306 110.946 11.3093 112.74 12.4644ZM101.401 6.50018L95.6135 20.3386C94.0549 19.6867 92.4626 19.1014 90.8401 18.5858L95.3821 4.29003C97.4288 4.9403 99.4366 5.67848 101.401 6.50018ZM89.1929 2.62139L85.933 17.2629C84.2894 16.8969 82.6186 16.6007 80.9233 16.3777L82.8799 1.50584C85.0145 1.78668 87.1202 2.1599 89.1929 2.62139ZM76.4906 0.948778L75.8413 15.9347C74.9936 15.898 74.1404 15.8794 73.2818 15.8794C72.4233 15.8794 71.57 15.898 70.7224 15.9347L70.073 0.948778C71.1369 0.90268 72.2066 0.879395 73.2818 0.879395C74.357 0.879395 75.4267 0.902681 76.4906 0.948778ZM63.6837 1.50584L65.6403 16.3777C63.945 16.6007 62.2742 16.8969 60.6306 17.2629L57.3707 2.62139C59.4434 2.1599 61.5491 1.78667 63.6837 1.50584ZM51.1816 4.29002L55.7236 18.5858C54.101 19.1014 52.5087 19.6867 50.9501 20.3386L45.1623 6.50017C47.127 5.67848 49.1349 4.94029 51.1816 4.29002ZM39.3614 9.23294L46.3454 22.5079C44.8392 23.3003 43.3707 24.1576 41.9437 25.0764L33.8235 12.4644C35.6176 11.3093 37.4651 10.2306 39.3614 9.23294ZM28.5893 16.1674L37.7781 28.0235C36.4316 29.067 35.1311 30.1688 33.8805 31.3253L23.6969 20.3118C25.2662 18.8609 26.8985 17.4778 28.5893 16.1674ZM19.1822 24.8651L30.2815 34.9549C29.1359 36.2152 28.0442 37.5257 27.0101 38.8829L15.0789 29.7919C16.3761 28.0895 17.7453 26.4457 19.1822 24.8651ZM11.4179 35.0555L24.0923 43.078C23.1833 44.514 22.335 45.9919 21.5509 47.508L8.22742 40.617C9.2122 38.713 10.2772 36.8576 11.4179 35.0555ZM5.53261 46.4357L19.4057 52.1398C18.7615 53.7067 18.1828 55.3077 17.6732 56.9393L3.35532 52.4675C3.9958 50.4168 4.723 48.4048 5.53261 46.4357ZM1.71313 58.6635L16.3663 61.8707C16.0049 63.5219 15.7123 65.2005 15.492 66.9036L0.615936 64.9797C0.892119 62.8442 1.25919 60.7375 1.71313 58.6635ZM0.0682146 71.3699C0.0228927 72.4338 0 73.5036 0 74.5788C0 75.6539 0.0228925 76.7237 0.0682141 77.7877L15.0546 77.1493C15.0184 76.2979 15 75.441 15 74.5788C15 73.7165 15.0184 72.8596 15.0546 72.0082L0.0682146 71.3699ZM0.615934 84.1778L15.492 82.2539C15.7123 83.957 16.0049 85.6357 16.3663 87.2869L1.71313 90.494C1.25919 88.42 0.892118 86.3133 0.615934 84.1778ZM3.35532 96.69L17.6732 92.2182C18.1828 93.8498 18.7615 95.4508 19.4057 97.0178L5.53261 102.722C4.723 100.753 3.9958 98.7407 3.35532 96.69ZM8.22741 108.541L21.5509 101.65C22.335 103.166 23.1833 104.644 24.0923 106.08L11.4179 114.102C10.2772 112.3 9.21219 110.445 8.22741 108.541ZM15.0789 119.366L27.0102 110.275C28.0442 111.632 29.1359 112.942 30.2815 114.203L19.1822 124.292C17.7454 122.712 16.3761 121.068 15.0789 119.366ZM23.697 128.846L33.8805 117.832C35.1312 118.989 36.4316 120.091 37.7781 121.134L28.5893 132.99C26.8985 131.68 25.2662 130.297 23.697 128.846ZM33.8235 136.693L41.9437 124.081C43.3707 125 44.8392 125.857 46.3454 126.65L39.3614 139.925C37.4651 138.927 35.6176 137.848 33.8235 136.693ZM45.1623 142.657L50.9501 128.819C52.5087 129.471 54.101 130.056 55.7236 130.572L51.1815 144.868C49.1348 144.217 47.127 143.479 45.1623 142.657ZM57.3707 146.536L60.6306 131.895C62.2742 132.261 63.945 132.557 65.6403 132.78L63.6837 147.652C61.5491 147.371 59.4434 146.998 57.3707 146.536ZM70.073 148.209L70.7224 133.223C71.57 133.26 72.4233 133.278 73.2818 133.278C74.1404 133.278 74.9936 133.26 75.8412 133.223L76.4906 148.209C75.4267 148.255 74.357 148.278 73.2818 148.278C72.2066 148.278 71.1369 148.255 70.073 148.209ZM82.8799 147.652L80.9233 132.78C82.6186 132.557 84.2894 132.261 85.933 131.895L89.1929 146.536C87.1202 146.998 85.0145 147.371 82.8799 147.652ZM95.3821 144.868C97.4287 144.217 99.4366 143.479 101.401 142.657L95.6135 128.819C94.0549 129.471 92.4626 130.056 90.84 130.572L95.3821 144.868ZM107.202 139.925L100.218 126.65C101.724 125.857 103.193 125 104.62 124.081L112.74 136.693C110.946 137.848 109.099 138.927 107.202 139.925ZM117.974 132.99L108.786 121.134C110.132 120.091 111.432 118.989 112.683 117.832L122.867 128.846C121.297 130.297 119.665 131.68 117.974 132.99ZM127.381 124.292L116.282 114.203C117.428 112.942 118.519 111.632 119.553 110.275L131.485 119.366C130.188 121.068 128.818 122.712 127.381 124.292ZM135.146 114.102L122.471 106.08C123.38 104.644 124.229 103.166 125.013 101.65L138.336 108.541C137.351 110.445 136.286 112.3 135.146 114.102ZM141.031 102.722L127.158 97.0178C127.802 95.4508 128.381 93.8498 128.89 92.2182L143.208 96.69C142.568 98.7407 141.841 100.753 141.031 102.722ZM144.85 90.494L130.197 87.2869C130.559 85.6357 130.851 83.957 131.072 82.2539L145.948 84.1778C145.671 86.3133 145.304 88.42 144.85 90.494Z" fill="#D65B34"/>
</svg>
