<svg width="126" height="126" viewBox="0 0 126 126" fill="none" xmlns="http://www.w3.org/2000/svg">
<path d="M121.759 63.0078C121.759 95.5294 95.5511 121.853 63.271 121.853C30.9909 121.853 4.78253 95.5294 4.78253 63.0078C4.78253 30.4862 30.9909 4.16242 63.271 4.16242C95.5511 4.16242 121.759 30.4862 121.759 63.0078Z" stroke="#0076BE" stroke-width="8.28382"/>
<ellipse cx="63.4796" cy="62.7973" rx="6.47181" ry="6.50868" fill="#0076BE"/>
<path d="M63.2695 123.054V2.95825" stroke="#0076BE" stroke-width="1.65676"/>
<path d="M86.1827 117.276L39.5234 6.72754" stroke="#0076BE" stroke-width="1.65676"/>
<path d="M41.0009 115.518L87.6602 4.96973" stroke="#0076BE" stroke-width="1.65676"/>
<path d="M122.978 63.0081L3.5625 63.0081" stroke="#0076BE" stroke-width="1.65676"/>
<path d="M117.922 86.0885L8 39.1633" stroke="#0076BE" stroke-width="1.65676"/>
<path d="M105.539 105.517L21.0996 20.5962" stroke="#0076BE" stroke-width="1.65676"/>
<path d="M21.0997 105.517L105.539 20.5962" stroke="#0076BE" stroke-width="1.65676"/>
<path d="M8.35892 86.5167L118.281 39.5916" stroke="#0076BE" stroke-width="1.65676"/>
</svg>
