<svg width="148" height="149" viewBox="0 0 148 149" fill="none" xmlns="http://www.w3.org/2000/svg">
<path fill-rule="evenodd" clip-rule="evenodd" d="M147.06 77.7877L144.409 77.6748C144.453 76.6484 144.475 75.6163 144.475 74.5788C144.475 73.5413 144.453 72.5091 144.409 71.4828L147.06 71.3699C147.105 72.4338 147.128 73.5036 147.128 74.5788C147.128 75.6539 147.105 76.7237 147.06 77.7877ZM146.512 64.9797L143.881 65.32C143.615 63.261 143.261 61.23 142.823 59.2308L145.415 58.6635C145.869 60.7375 146.236 62.8442 146.512 64.9797ZM143.773 52.4675L141.24 53.2585C140.623 51.2819 139.922 49.3426 139.142 47.4446L141.595 46.4357C142.405 48.4048 143.132 50.4168 143.773 52.4675ZM138.901 40.617L136.544 41.8359C135.595 40.0005 134.568 38.2119 133.468 36.4745L135.71 35.0555C136.851 36.8576 137.916 38.713 138.901 40.617ZM132.049 29.7919L129.939 31.3999C128.688 29.7586 127.368 28.1737 125.983 26.6497L127.946 24.8651C129.383 26.4457 130.752 28.0895 132.049 29.7919ZM123.431 20.3118L121.63 22.2599C120.117 20.861 118.543 19.5277 116.913 18.2645L118.539 16.1674C120.23 17.4778 121.862 18.8609 123.431 20.3118ZM113.305 12.4644L111.868 14.6952C110.139 13.5819 108.359 12.5423 106.531 11.581L107.767 9.23294C109.663 10.2306 111.51 11.3093 113.305 12.4644ZM101.966 6.50017L100.942 8.9479C99.0492 8.15624 97.1148 7.44509 95.1431 6.81865L95.9465 4.29003C97.9932 4.9403 100.001 5.67848 101.966 6.50017ZM89.7574 2.62139L89.1808 5.21115C87.184 4.76656 85.1552 4.40696 83.0983 4.13635L83.4443 1.50584C85.5789 1.78668 87.6847 2.1599 89.7574 2.62139ZM77.0551 0.948779L76.9402 3.59947C75.9146 3.55503 74.8831 3.53257 73.8463 3.53257C72.8094 3.53257 71.778 3.55503 70.7523 3.59947L70.6375 0.948778C71.7014 0.90268 72.7711 0.879395 73.8463 0.879395C74.9214 0.879395 75.9912 0.902681 77.0551 0.948779ZM64.2482 1.50584L64.5943 4.13635C62.5374 4.40696 60.5086 4.76656 58.5118 5.21115L57.9352 2.62139C60.0079 2.1599 62.1136 1.78667 64.2482 1.50584ZM51.746 4.29002L52.5494 6.81865C50.5777 7.44508 48.6434 8.15624 46.7505 8.94789L45.7268 6.50017C47.6915 5.67848 49.6993 4.94029 51.746 4.29002ZM39.9259 9.23294L41.1612 11.581C39.3339 12.5423 37.5534 13.5819 35.8242 14.6952L34.388 12.4644C36.1821 11.3093 38.0296 10.2306 39.9259 9.23294ZM29.1537 16.1674L30.779 18.2645C29.1491 19.5277 27.5755 20.861 26.0626 22.2599L24.2614 20.3118C25.8306 18.8609 27.4629 17.4778 29.1537 16.1674ZM19.7467 24.8651L21.7099 26.6498C20.3245 28.1737 19.0044 29.7586 17.7538 31.3999L15.6434 29.7919C16.9405 28.0895 18.3098 26.4457 19.7467 24.8651ZM11.9824 35.0555L14.2242 36.4745C13.1245 38.2119 12.0978 40.0005 11.1485 41.8359L8.79187 40.617C9.77665 38.713 10.8417 36.8576 11.9824 35.0555ZM6.09706 46.4357L8.55092 47.4446C7.77056 49.3426 7.06963 51.2819 6.4523 53.2585L3.91977 52.4675C4.56025 50.4168 5.28745 48.4048 6.09706 46.4357ZM2.27758 58.6635L4.86941 59.2308C4.43184 61.23 4.07795 63.261 3.81165 65.32L1.18039 64.9797C1.45657 62.8442 1.82365 60.7375 2.27758 58.6635ZM0.632668 71.3699C0.587346 72.4338 0.564453 73.5036 0.564453 74.5788C0.564453 75.6539 0.587346 76.7237 0.632667 77.7877L3.28344 77.6747C3.23972 76.6484 3.21763 75.6163 3.21763 74.5788C3.21763 73.5413 3.23972 72.5091 3.28344 71.4828L0.632668 71.3699ZM1.18039 84.1778L3.81165 83.8375C4.07795 85.8965 4.43184 87.9275 4.86941 89.9267L2.27758 90.494C1.82365 88.42 1.45657 86.3133 1.18039 84.1778ZM3.91977 96.69L6.4523 95.8991C7.06963 97.8756 7.77056 99.815 8.55092 101.713L6.09706 102.722C5.28745 100.753 4.56025 98.7407 3.91977 96.69ZM8.79187 108.541L11.1485 107.322C12.0978 109.157 13.1245 110.946 14.2242 112.683L11.9824 114.102C10.8417 112.3 9.77665 110.445 8.79187 108.541ZM15.6434 119.366L17.7538 117.758C19.0044 119.399 20.3246 120.984 21.7099 122.508L19.7467 124.292C18.3098 122.712 16.9405 121.068 15.6434 119.366ZM24.2614 128.846L26.0627 126.898C27.5755 128.297 29.1492 129.63 30.7791 130.893L29.1538 132.99C27.4629 131.68 25.8306 130.297 24.2614 128.846ZM34.388 136.693L35.8242 134.462C37.5534 135.576 39.3339 136.615 41.1612 137.577L39.9259 139.925C38.0296 138.927 36.1821 137.848 34.388 136.693ZM45.7268 142.657L46.7505 140.21C48.6434 141.001 50.5777 141.712 52.5494 142.339L51.746 144.868C49.6993 144.217 47.6914 143.479 45.7268 142.657ZM57.9351 146.536L58.5117 143.946C60.5086 144.391 62.5374 144.751 64.5943 145.021L64.2482 147.652C62.1136 147.371 60.0079 146.998 57.9351 146.536ZM70.6375 148.209C71.7013 148.255 72.7711 148.278 73.8463 148.278C74.9214 148.278 75.9912 148.255 77.055 148.209L76.9402 145.558C75.9146 145.603 74.8831 145.625 73.8463 145.625C72.8094 145.625 71.778 145.603 70.7523 145.558L70.6375 148.209ZM83.4443 147.652L83.0983 145.021C85.1552 144.751 87.184 144.391 89.1808 143.946L89.7574 146.536C87.6846 146.998 85.5789 147.371 83.4443 147.652ZM95.9465 144.868L95.1431 142.339C97.1148 141.712 99.0492 141.001 100.942 140.21L101.966 142.657C100.001 143.479 97.9932 144.217 95.9465 144.868ZM107.767 139.925L106.531 137.577C108.359 136.615 110.139 135.576 111.868 134.462L113.305 136.693C111.51 137.848 109.663 138.927 107.767 139.925ZM118.539 132.99L116.913 130.893C118.543 129.63 120.117 128.297 121.63 126.898L123.431 128.846C121.862 130.297 120.23 131.68 118.539 132.99ZM127.946 124.292L125.983 122.508C127.368 120.984 128.688 119.399 129.939 117.758L132.049 119.366C130.752 121.068 129.383 122.712 127.946 124.292ZM135.71 114.102L133.468 112.683C134.568 110.946 135.595 109.157 136.544 107.322L138.901 108.541C137.916 110.445 136.851 112.3 135.71 114.102ZM141.595 102.722L139.142 101.713C139.922 99.815 140.623 97.8756 141.24 95.8991L143.773 96.69C143.132 98.7407 142.405 100.753 141.595 102.722ZM145.415 90.494L142.823 89.9267C143.261 87.9275 143.615 85.8965 143.881 83.8375L146.512 84.1778C146.236 86.3133 145.869 88.42 145.415 90.494Z" fill="#D65B34"/>
</svg>
