<svg width="153" height="153" viewBox="0 0 153 153" fill="none" xmlns="http://www.w3.org/2000/svg">
<circle cx="76.9433" cy="76.9453" r="61.2389" stroke="#0076BE" stroke-width="8.28382"/>
<path fill-rule="evenodd" clip-rule="evenodd" d="M99.5392 78.7247L97.8874 78.5964C97.9297 78.0517 97.9513 77.5008 97.9513 76.9446C97.9513 76.3884 97.9297 75.8376 97.8874 75.2929L99.5392 75.1646C99.5848 75.7519 99.608 76.3456 99.608 76.9446C99.608 77.5437 99.5848 78.1374 99.5392 78.7247ZM98.9866 71.6512L97.3753 72.0367C97.1171 70.9575 96.7755 69.9106 96.3578 68.9033L97.8882 68.2686C98.3391 69.356 98.7078 70.4862 98.9866 71.6512ZM96.271 65.1006L94.8592 65.9676C94.2819 65.0275 93.6325 64.1361 92.9187 63.3011L94.178 62.2245C94.9477 63.1249 95.6482 64.0864 96.271 65.1006ZM91.6628 59.7094L90.5863 60.9687C89.7513 60.2549 88.8598 59.6055 87.9197 59.0282L88.7867 57.6163C89.8009 58.2392 90.7624 58.9396 91.6628 59.7094ZM85.6187 55.9992L84.9841 57.5296C83.9767 57.1118 82.9299 56.7703 81.8506 56.512L82.2361 54.9008C83.4012 55.1795 84.5313 55.5482 85.6187 55.9992ZM78.7228 54.3482L78.5944 56C78.0497 55.9576 77.4989 55.9361 76.9427 55.9361C76.3865 55.9361 75.8357 55.9576 75.291 56L75.1626 54.3482C75.75 54.3025 76.3436 54.2793 76.9427 54.2793C77.5418 54.2793 78.1354 54.3025 78.7228 54.3482ZM71.6493 54.9008L72.0348 56.512C70.9555 56.7703 69.9087 57.1118 68.9013 57.5296L68.2667 55.9992C69.3541 55.5482 70.4842 55.1795 71.6493 54.9008ZM65.0987 57.6163L65.9657 59.0282C65.0255 59.6055 64.1341 60.2549 63.2991 60.9687L62.2226 59.7094C63.123 58.9396 64.0845 58.2392 65.0987 57.6163ZM59.7074 62.2245L60.9667 63.3011C60.2529 64.1361 59.6035 65.0275 59.0262 65.9676L57.6144 65.1006C58.2372 64.0864 58.9376 63.1249 59.7074 62.2245ZM55.9972 68.2686L57.5276 68.9033C57.1099 69.9106 56.7683 70.9575 56.5101 72.0367L54.8988 71.6512C55.1776 70.4862 55.5463 69.356 55.9972 68.2686ZM54.3462 75.1646C54.3006 75.7519 54.2773 76.3456 54.2773 76.9446C54.2773 77.5437 54.3006 78.1374 54.3462 78.7247L55.998 78.5964C55.9557 78.0517 55.9341 77.5008 55.9341 76.9446C55.9341 76.3884 55.9557 75.8376 55.998 75.2929L54.3462 75.1646ZM54.8988 82.2381L56.5101 81.8525C56.7683 82.9318 57.1099 83.9787 57.5276 84.986L55.9972 85.6207C55.5463 84.5333 55.1776 83.4031 54.8988 82.2381ZM57.6144 88.7886L59.0262 87.9217C59.6035 88.8618 60.2529 89.7532 60.9667 90.5882L59.7074 91.6648C58.9376 90.7644 58.2372 89.8029 57.6144 88.7886ZM62.2226 94.1799L63.2991 92.9206C64.1341 93.6344 65.0255 94.2838 65.9657 94.8611L65.0987 96.273C64.0845 95.6501 63.123 94.9497 62.2226 94.1799ZM68.2667 97.8901L68.9013 96.3597C69.9087 96.7775 70.9555 97.119 72.0348 97.3772L71.6493 98.9885C70.4842 98.7098 69.3541 98.3411 68.2667 97.8901ZM75.1626 99.5411L75.291 97.8893C75.8357 97.9317 76.3865 97.9532 76.9427 97.9532C77.4989 97.9532 78.0497 97.9317 78.5944 97.8893L78.7228 99.5411C78.1354 99.5868 77.5418 99.61 76.9427 99.61C76.3436 99.61 75.75 99.5868 75.1626 99.5411ZM82.2361 98.9885L81.8506 97.3772C82.9299 97.119 83.9767 96.7775 84.9841 96.3597L85.6187 97.8901C84.5313 98.3411 83.4012 98.7098 82.2361 98.9885ZM88.7867 96.273L87.9197 94.8611C88.8598 94.2838 89.7513 93.6344 90.5863 92.9206L91.6628 94.1799C90.7624 94.9497 89.8009 95.6501 88.7867 96.273ZM94.178 91.6648L92.9187 90.5882C93.6325 89.7532 94.2819 88.8618 94.8592 87.9217L96.271 88.7886C95.6482 89.8029 94.9477 90.7644 94.178 91.6648ZM97.8882 85.6207L96.3578 84.986C96.7755 83.9787 97.1171 82.9318 97.3753 81.8525L98.9866 82.2381C98.7078 83.4031 98.3391 84.5333 97.8882 85.6207Z" fill="#0076BE"/>
<path fill-rule="evenodd" clip-rule="evenodd" d="M113.089 78.754L111.433 78.6829C111.455 78.1797 111.466 77.6736 111.466 77.1648C111.466 76.6561 111.455 76.15 111.433 75.6468L113.089 75.5757C113.111 76.1026 113.123 76.6324 113.123 77.1648C113.123 77.6973 113.111 78.2271 113.089 78.754ZM112.815 72.4113L111.172 72.6256C111.041 71.6164 110.866 70.6209 110.649 69.6412L112.267 69.284C112.494 70.3108 112.677 71.3539 112.815 72.4113ZM111.447 66.2172C111.128 65.2026 110.765 64.2072 110.361 63.2332L108.831 63.8678C109.216 64.7972 109.562 65.747 109.867 66.715L111.447 66.2172ZM109.017 60.3559L107.548 61.1221C107.08 60.2241 106.573 59.3489 106.03 58.4989L107.427 57.6074C107.995 58.498 108.526 59.4149 109.017 60.3559ZM105.603 55.008L104.29 56.0175C103.673 55.2153 103.023 54.4408 102.34 53.6961L103.561 52.5765C104.276 53.3565 104.958 54.1677 105.603 55.008ZM101.316 50.3311C100.536 49.616 99.7245 48.9345 98.8842 48.2888L97.8747 49.6025C98.6769 50.2189 99.4514 50.8696 100.196 51.5523L101.316 50.3311ZM96.2848 46.4654L95.3933 47.8618C94.5433 47.3192 93.6681 46.8126 92.7701 46.3441L93.5363 44.8752C94.4773 45.3661 95.3942 45.8969 96.2848 46.4654ZM90.659 43.5312L90.0244 45.0616C89.095 44.6762 88.1452 44.33 87.1772 44.0251L87.675 42.4448C88.6896 42.7644 89.685 43.1273 90.659 43.5312ZM84.6082 41.6251L84.251 43.2429C83.2713 43.0266 82.2758 42.8516 81.2666 42.72L81.4809 41.0772C82.5383 41.2151 83.5814 41.3984 84.6082 41.6251ZM78.3165 40.8036L78.2454 42.4588C77.7422 42.4372 77.2361 42.4263 76.7273 42.4263C76.2186 42.4263 75.7125 42.4372 75.2093 42.4588L75.1382 40.8036C75.6651 40.781 76.1949 40.7695 76.7273 40.7695C77.2598 40.7695 77.7896 40.781 78.3165 40.8036ZM71.9738 41.0772L72.1881 42.72C71.1789 42.8516 70.1834 43.0266 69.2037 43.2429L68.8465 41.6251C69.8733 41.3984 70.9164 41.2151 71.9738 41.0772ZM65.7797 42.4448L66.2775 44.0251C65.3095 44.33 64.3597 44.6762 63.4303 45.0616L62.7957 43.5312C63.7697 43.1273 64.7651 42.7645 65.7797 42.4448ZM59.9184 44.8752L60.6846 46.3441C59.7866 46.8126 58.9114 47.3192 58.0614 47.8618L57.1699 46.4654C58.0605 45.8969 58.9774 45.3661 59.9184 44.8752ZM54.5705 48.2888L55.58 49.6025C54.7778 50.2189 54.0033 50.8696 53.2586 51.5523L52.139 50.3311C52.919 49.616 53.7302 48.9345 54.5705 48.2888ZM49.8936 52.5765L51.1148 53.6961C50.4321 54.4408 49.7814 55.2153 49.165 56.0175L47.8513 55.008C48.497 54.1677 49.1785 53.3565 49.8936 52.5765ZM46.0279 57.6074L47.4243 58.4989C46.8817 59.3489 46.3751 60.2241 45.9066 61.1221L44.4377 60.3559C44.9286 59.4149 45.4594 58.498 46.0279 57.6074ZM43.0937 63.2332L44.6241 63.8678C44.2387 64.7972 43.8925 65.747 43.5876 66.715L42.0073 66.2172C42.3269 65.2026 42.6898 64.2072 43.0937 63.2332ZM41.1876 69.284L42.8054 69.6412C42.5891 70.6209 42.4141 71.6164 42.2825 72.6256L40.6397 72.4113C40.7776 71.3539 40.9609 70.3108 41.1876 69.284ZM40.3661 75.5757C40.3435 76.1026 40.332 76.6324 40.332 77.1648C40.332 77.6973 40.3435 78.2271 40.3661 78.754L42.0213 78.6829C41.9997 78.1797 41.9888 77.6736 41.9888 77.1648C41.9888 76.6561 41.9997 76.15 42.0213 75.6468L40.3661 75.5757ZM40.6397 81.9184L42.2825 81.7041C42.4141 82.7133 42.5891 83.7088 42.8054 84.6885L41.1876 85.0457C40.9609 84.0189 40.7776 82.9758 40.6397 81.9184ZM42.0073 88.1125L43.5876 87.6147C43.8925 88.5827 44.2387 89.5325 44.6241 90.4619L43.0937 91.0965C42.6898 90.1225 42.327 89.1271 42.0073 88.1125ZM44.4377 93.9738L45.9066 93.2076C46.3751 94.1056 46.8817 94.9808 47.4243 95.8308L46.0279 96.7223C45.4594 95.8317 44.9286 94.9148 44.4377 93.9738ZM47.8513 99.3217L49.165 98.3122C49.7814 99.1144 50.4321 99.8889 51.1148 100.634L49.8936 101.753C49.1785 100.973 48.497 100.162 47.8513 99.3217ZM52.139 103.999L53.2586 102.777C54.0033 103.46 54.7778 104.111 55.58 104.727L54.5705 106.041C53.7302 105.395 52.919 104.714 52.139 103.999ZM57.1699 107.864L58.0614 106.468C58.9114 107.011 59.7866 107.517 60.6846 107.986L59.9184 109.455C58.9774 108.964 58.0605 108.433 57.1699 107.864ZM62.7957 110.798L63.4303 109.268C64.3597 109.653 65.3095 110 66.2775 110.305L65.7797 111.885C64.7651 111.565 63.7697 111.202 62.7957 110.798ZM68.8465 112.705C69.8733 112.931 70.9164 113.115 71.9738 113.253L72.1881 111.61C71.1789 111.478 70.1834 111.303 69.2037 111.087L68.8465 112.705ZM75.1382 113.526L75.2093 111.871C75.7125 111.892 76.2186 111.903 76.7273 111.903C77.2361 111.903 77.7422 111.892 78.2454 111.871L78.3165 113.526C77.7896 113.549 77.2598 113.56 76.7273 113.56C76.1949 113.56 75.6651 113.549 75.1382 113.526ZM81.4809 113.253L81.2666 111.61C82.2758 111.478 83.2713 111.303 84.251 111.087L84.6082 112.705C83.5814 112.931 82.5383 113.115 81.4809 113.253ZM87.675 111.885C88.6896 111.565 89.685 111.202 90.659 110.798L90.0244 109.268C89.095 109.653 88.1452 110 87.1772 110.305L87.675 111.885ZM93.5363 109.455L92.7701 107.986C93.6681 107.517 94.5433 107.011 95.3933 106.468L96.2848 107.864C95.3942 108.433 94.4773 108.964 93.5363 109.455ZM98.8842 106.041L97.8747 104.727C98.6769 104.111 99.4514 103.46 100.196 102.777L101.316 103.999C100.536 104.714 99.7245 105.395 98.8842 106.041ZM103.561 101.753L102.34 100.634C103.023 99.8889 103.673 99.1144 104.29 98.3122L105.603 99.3217C104.958 100.162 104.276 100.973 103.561 101.753ZM107.427 96.7223L106.03 95.8308C106.573 94.9808 107.08 94.1056 107.548 93.2076L109.017 93.9738C108.526 94.9148 107.995 95.8317 107.427 96.7223ZM110.361 91.0965C110.765 90.1225 111.128 89.1271 111.447 88.1125L109.867 87.6147C109.562 88.5827 109.216 89.5325 108.831 90.4619L110.361 91.0965ZM112.267 85.0457L110.649 84.6885C110.866 83.7088 111.041 82.7133 111.172 81.7041L112.815 81.9184C112.677 82.9758 112.494 84.0189 112.267 85.0457Z" fill="#0076BE"/>
<path fill-rule="evenodd" clip-rule="evenodd" d="M127.043 78.8143L125.387 78.761C125.404 78.2307 125.412 77.6981 125.412 77.1635C125.412 76.6289 125.404 76.0964 125.387 75.5661L127.043 75.5127C127.06 76.0608 127.069 76.6111 127.069 77.1635C127.069 77.7159 127.06 78.2662 127.043 78.8143ZM126.83 72.2271L125.181 72.3876C125.078 71.3236 124.94 70.2698 124.769 69.2272L126.404 68.9592C126.581 70.0374 126.723 71.1271 126.83 72.2271ZM125.764 65.7266L124.151 66.1015C123.909 65.0628 123.635 64.037 123.328 63.0251L124.914 62.5447C125.231 63.5913 125.515 64.6524 125.764 65.7266ZM123.855 59.4247L122.305 60.0086C121.929 59.0117 121.522 58.0303 121.084 57.0656L122.593 56.381C123.046 57.3786 123.467 58.3936 123.855 59.4247ZM121.134 53.4277L119.673 54.2099C119.171 53.2719 118.639 52.3521 118.078 51.452L119.484 50.5758C120.064 51.5065 120.614 52.4576 121.134 53.4277ZM117.651 47.8379L116.305 48.804C115.685 47.9403 115.037 47.0976 114.363 46.2774L115.643 45.2256C116.34 46.0736 117.01 46.9448 117.651 47.8379ZM113.47 42.7493L112.261 43.8821C111.534 43.1067 110.783 42.3551 110.007 41.6286L111.14 40.4196C111.942 41.1707 112.719 41.9477 113.47 42.7493ZM108.664 38.2462L107.612 39.5263C106.792 38.8524 105.949 38.2048 105.086 37.5847L106.052 36.2388C106.945 36.8799 107.816 37.5495 108.664 38.2462ZM103.314 34.4059L102.438 35.812C101.537 35.2511 100.618 34.7187 99.6796 34.2163L100.462 32.7558C101.432 33.2754 102.383 33.8259 103.314 34.4059ZM97.5086 31.2967L96.824 32.8054C95.8593 32.3676 94.8779 31.9604 93.881 31.585L94.4648 30.0345C95.496 30.4228 96.511 30.8439 97.5086 31.2967ZM91.3449 28.9757L90.8645 30.5613C89.8526 30.2547 88.8267 29.9802 87.7881 29.7389L88.163 28.1251C89.2372 28.3746 90.2982 28.6586 91.3449 28.9757ZM84.9304 27.4855L84.6624 29.1204C83.6198 28.9496 82.566 28.8118 81.502 28.7082L81.6624 27.0593C82.7625 27.1663 83.8522 27.3088 84.9304 27.4855ZM78.3768 26.8469L78.3235 28.5028C77.7932 28.4857 77.2606 28.4771 76.726 28.4771C76.1914 28.4771 75.6589 28.4857 75.1286 28.5028L75.0752 26.8469C75.6233 26.8292 76.1736 26.8203 76.726 26.8203C77.2784 26.8203 77.8287 26.8292 78.3768 26.8469ZM71.7896 27.0593L71.9501 28.7082C70.8861 28.8118 69.8323 28.9496 68.7897 29.1204L68.5217 27.4855C69.5999 27.3088 70.6896 27.1663 71.7896 27.0593ZM65.2891 28.1251L65.664 29.7389C64.6253 29.9802 63.5995 30.2547 62.5876 30.5613L62.1072 28.9757C63.1538 28.6586 64.2149 28.3746 65.2891 28.1251ZM58.9872 30.0345L59.5711 31.5849C58.5742 31.9604 57.5928 32.3676 56.6281 32.8054L55.9435 31.2967C56.9411 30.8439 57.9561 30.4228 58.9872 30.0345ZM52.9902 32.7558L53.7724 34.2163C52.8344 34.7187 51.9146 35.2511 51.0145 35.812L50.1383 34.4059C51.069 33.8259 52.0201 33.2754 52.9902 32.7558ZM47.4004 36.2388L48.3665 37.5847C47.5028 38.2048 46.6601 38.8524 45.8399 39.5263L44.7881 38.2462C45.6361 37.5495 46.5073 36.8799 47.4004 36.2388ZM42.3118 40.4196L43.4446 41.6286C42.6692 42.3551 41.9176 43.1067 41.1911 43.8821L39.9821 42.7493C40.7332 41.9477 41.5102 41.1707 42.3118 40.4196ZM37.8087 45.2256L39.0888 46.2774C38.4149 47.0976 37.7673 47.9403 37.1472 48.804L35.8013 47.8379C36.4424 46.9448 37.112 46.0736 37.8087 45.2256ZM33.9684 50.5757L35.3745 51.452C34.8136 52.3521 34.2812 53.2718 33.7788 54.2099L32.3183 53.4277C32.8379 52.4576 33.3884 51.5065 33.9684 50.5757ZM30.8592 56.3809L32.3679 57.0656C31.9301 58.0302 31.5229 59.0117 31.1475 60.0086L29.597 59.4247C29.9853 58.3936 30.4064 57.3786 30.8592 56.3809ZM28.5382 62.5447L30.1238 63.0251C29.8172 64.037 29.5427 65.0628 29.3014 66.1015L27.6876 65.7266C27.9371 64.6524 28.2211 63.5913 28.5382 62.5447ZM27.048 68.9592L28.6829 69.2272C28.5121 70.2698 28.3743 71.3236 28.2707 72.3876L26.6218 72.2271C26.7288 71.1271 26.8713 70.0374 27.048 68.9592ZM26.4094 75.5127C26.3917 76.0608 26.3828 76.6111 26.3828 77.1635C26.3828 77.7159 26.3917 78.2662 26.4094 78.8143L28.0653 78.761C28.0482 78.2307 28.0396 77.6981 28.0396 77.1635C28.0396 76.6289 28.0482 76.0964 28.0653 75.5661L26.4094 75.5127ZM26.6218 82.0999L28.2707 81.9395C28.3743 83.0035 28.5121 84.0573 28.6829 85.0999L27.048 85.3679C26.8713 84.2897 26.7288 83.2 26.6218 82.0999ZM27.6876 88.6005L29.3014 88.2256C29.5427 89.2642 29.8172 90.2901 30.1238 91.302L28.5382 91.7824C28.2211 90.7357 27.9371 89.6747 27.6876 88.6005ZM29.597 94.9023L31.1474 94.3185C31.5229 95.3154 31.9301 96.2968 32.3679 97.2614L30.8592 97.9461C30.4064 96.9485 29.9853 95.9335 29.597 94.9023ZM32.3183 100.899L33.7788 100.117C34.2812 101.055 34.8136 101.975 35.3745 102.875L33.9684 103.751C33.3884 102.821 32.8379 101.869 32.3183 100.899ZM35.8013 106.489L37.1472 105.523C37.7673 106.387 38.4149 107.229 39.0888 108.05L37.8087 109.101C37.112 108.253 36.4424 107.382 35.8013 106.489ZM39.9821 111.578L41.1911 110.445C41.9176 111.22 42.6692 111.972 43.4446 112.698L42.3118 113.907C41.5102 113.156 40.7332 112.379 39.9821 111.578ZM44.7881 116.081L45.8399 114.801C46.6601 115.475 47.5028 116.122 48.3665 116.742L47.4004 118.088C46.5073 117.447 45.6361 116.778 44.7881 116.081ZM50.1382 119.921L51.0145 118.515C51.9146 119.076 52.8343 119.608 53.7724 120.111L52.9902 121.571C52.0201 121.052 51.069 120.501 50.1382 119.921ZM55.9434 123.03L56.6281 121.522C57.5927 121.959 58.5742 122.367 59.5711 122.742L58.9872 124.293C57.9561 123.904 56.9411 123.483 55.9434 123.03ZM62.1072 125.351L62.5876 123.766C63.5995 124.072 64.6253 124.347 65.664 124.588L65.2891 126.202C64.2149 125.952 63.1538 125.668 62.1072 125.351ZM68.5217 126.842C69.5999 127.018 70.6896 127.161 71.7896 127.268L71.9501 125.619C70.8861 125.515 69.8323 125.378 68.7897 125.207L68.5217 126.842ZM75.0752 127.48L75.1286 125.824C75.6589 125.841 76.1914 125.85 76.726 125.85C77.2606 125.85 77.7932 125.841 78.3235 125.824L78.3768 127.48C77.8287 127.498 77.2784 127.507 76.726 127.507C76.1736 127.507 75.6233 127.498 75.0752 127.48ZM81.6624 127.268L81.502 125.619C82.566 125.515 83.6198 125.378 84.6624 125.207L84.9304 126.842C83.8522 127.018 82.7625 127.161 81.6624 127.268ZM88.163 126.202L87.7881 124.588C88.8267 124.347 89.8526 124.072 90.8645 123.766L91.3449 125.351C90.2982 125.668 89.2372 125.952 88.163 126.202ZM94.4648 124.293L93.881 122.742C94.8779 122.367 95.8593 121.959 96.8239 121.522L97.5086 123.03C96.511 123.483 95.496 123.904 94.4648 124.293ZM100.462 121.571L99.6796 120.111C100.618 119.608 101.537 119.076 102.438 118.515L103.314 119.921C102.383 120.501 101.432 121.052 100.462 121.571ZM106.052 118.088L105.086 116.742C105.949 116.122 106.792 115.475 107.612 114.801L108.664 116.081C107.816 116.778 106.945 117.447 106.052 118.088ZM111.14 113.907L110.007 112.698C110.783 111.972 111.534 111.22 112.261 110.445L113.47 111.578C112.719 112.379 111.942 113.156 111.14 113.907ZM115.643 109.101C116.34 108.253 117.01 107.382 117.651 106.489L116.305 105.523C115.685 106.387 115.037 107.229 114.363 108.05L115.643 109.101ZM119.484 103.751L118.078 102.875C118.639 101.975 119.171 101.055 119.673 100.117L121.134 100.899C120.614 101.869 120.064 102.821 119.484 103.751ZM122.593 97.9461L121.084 97.2615C121.522 96.2968 121.929 95.3154 122.305 94.3185L123.855 94.9023C123.467 95.9335 123.046 96.9485 122.593 97.9461ZM124.914 91.7824L123.328 91.302C123.635 90.2901 123.909 89.2642 124.151 88.2256L125.764 88.6005C125.515 89.6747 125.231 90.7357 124.914 91.7824ZM126.404 85.3679C126.581 84.2897 126.723 83.2 126.83 82.0999L125.181 81.9395C125.078 83.0035 124.94 84.0573 124.769 85.0999L126.404 85.3679Z" fill="#0076BE"/>
<path d="M76.9434 139.275V14.6152" stroke="#0076BE" stroke-width="1.65676"/>
<path d="M139.273 76.9453L14.6133 76.9453" stroke="#0076BE" stroke-width="1.65676"/>
<path d="M121.067 121.069L32.9199 32.9219" stroke="#0076BE" stroke-width="1.65676"/>
<path d="M32.9189 121.069L121.066 32.9219" stroke="#0076BE" stroke-width="1.65676"/>
<path fill-rule="evenodd" clip-rule="evenodd" d="M152.942 79.5078L150.291 79.4053C150.328 78.4416 150.347 77.4731 150.347 76.5C150.347 75.5269 150.328 74.5584 150.291 73.5947L152.942 73.4922C152.981 74.49 153 75.4927 153 76.5C153 77.5073 152.981 78.51 152.942 79.5078ZM152.477 67.5029L149.841 67.8116C149.615 65.8787 149.314 63.9689 148.941 62.085L151.544 61.5701C151.93 63.522 152.242 65.5006 152.477 67.5029ZM150.146 55.7263L147.592 56.4452C147.066 54.5768 146.468 52.7385 145.802 50.9333L148.291 50.0147C148.981 51.8853 149.601 53.7902 150.146 55.7263ZM145.989 44.4643L143.581 45.5766C142.768 43.8169 141.888 42.0945 140.944 40.4127L143.258 39.1142C144.236 40.8565 145.148 42.641 145.989 44.4643ZM140.115 33.9954L137.91 35.4714C136.833 33.8625 135.694 32.2981 134.497 30.7818L136.58 29.1378C137.819 30.7084 138.999 32.3287 140.115 33.9954ZM132.676 24.5717L130.728 26.3732C129.415 24.9532 128.047 23.5849 126.627 22.2717L128.428 20.3238C129.899 21.6839 131.316 23.1011 132.676 24.5717ZM123.862 16.4204L122.218 18.5029C120.702 17.3059 119.138 16.1671 117.529 15.0899L119.005 12.8852C120.671 14.001 122.292 15.1806 123.862 16.4204ZM113.886 9.7419L112.587 12.0556C110.905 11.1117 109.183 10.2319 107.423 9.41927L108.536 7.01052C110.359 7.85247 112.143 8.76407 113.886 9.7419ZM102.985 4.70891L102.067 7.19799C100.261 6.53179 98.4231 5.93413 96.5547 5.40817L97.2737 2.85425C99.2098 3.39927 101.115 4.01858 102.985 4.70891ZM91.4299 1.4561L90.915 4.05884C89.0311 3.68616 87.1213 3.3851 85.1884 3.15865L85.4971 0.523491C87.4994 0.758063 89.478 1.06996 91.4299 1.4561ZM79.5078 0.0580449L79.4053 2.70924C78.4416 2.67199 77.4731 2.65318 76.5 2.65318C75.5269 2.65318 74.5584 2.67199 73.5947 2.70924L73.4922 0.0580458C74.49 0.0194672 75.4927 0 76.5 0C77.5073 0 78.51 0.0194669 79.5078 0.0580449ZM67.5029 0.523493L67.8116 3.15865C65.8787 3.3851 63.9689 3.68616 62.085 4.05884L61.5701 1.45611C63.522 1.06996 65.5006 0.758067 67.5029 0.523493ZM55.7263 2.85426L56.4452 5.40817C54.5768 5.93414 52.7385 6.5318 50.9333 7.198L50.0147 4.70891C51.8853 4.01859 53.7902 3.39928 55.7263 2.85426ZM44.4643 7.01053L45.5766 9.41928C43.8169 10.2319 42.0945 11.1118 40.4127 12.0556L39.1142 9.74191C40.8565 8.76408 42.641 7.85248 44.4643 7.01053ZM33.9954 12.8853L35.4714 15.09C33.8625 16.1671 32.2981 17.3059 30.7818 18.5029L29.1378 16.4204C30.7084 15.1806 32.3287 14.001 33.9954 12.8853ZM24.5717 20.3238L26.3732 22.2717C24.9532 23.5849 23.5849 24.9532 22.2717 26.3732L20.3238 24.5717C21.6839 23.1011 23.1011 21.684 24.5717 20.3238ZM16.4204 29.1378L18.5029 30.7818C17.3059 32.2981 16.1671 33.8625 15.0899 35.4714L12.8852 33.9954C14.001 32.3288 15.1806 30.7084 16.4204 29.1378ZM9.7419 39.1142L12.0556 40.4127C11.1117 42.0945 10.2319 43.8169 9.41927 45.5766L7.01052 44.4643C7.85247 42.641 8.76407 40.8565 9.7419 39.1142ZM4.70891 50.0147L7.19799 50.9333C6.53179 52.7385 5.93413 54.5769 5.40817 56.4453L2.85425 55.7263C3.39927 53.7902 4.01858 51.8853 4.70891 50.0147ZM1.4561 61.5701L4.05884 62.085C3.68616 63.9689 3.3851 65.8787 3.15865 67.8116L0.523491 67.5029C0.758063 65.5006 1.06996 63.522 1.4561 61.5701ZM0.0580449 73.4922C0.0194669 74.49 0 75.4927 0 76.5C0 77.5073 0.0194671 78.51 0.0580457 79.5078L2.70924 79.4053C2.67199 78.4416 2.65318 77.4731 2.65318 76.5C2.65318 75.5269 2.67199 74.5584 2.70924 73.5947L0.0580449 73.4922ZM0.523493 85.4971L3.15865 85.1884C3.3851 87.1213 3.68616 89.0312 4.05884 90.915L1.45611 91.4299C1.06996 89.478 0.758067 87.4994 0.523493 85.4971ZM2.85426 97.2737L5.40817 96.5548C5.93414 98.4231 6.5318 100.262 7.198 102.067L4.70891 102.985C4.01858 101.115 3.39928 99.2098 2.85426 97.2737ZM7.01053 108.536L9.41928 107.423C10.2319 109.183 11.1118 110.906 12.0556 112.587L9.74191 113.886C8.76408 112.143 7.85248 110.359 7.01053 108.536ZM12.8853 119.005L15.09 117.529C16.1671 119.138 17.3059 120.702 18.5029 122.218L16.4204 123.862C15.1806 122.292 14.001 120.671 12.8853 119.005ZM20.3238 128.428L22.2717 126.627C23.5849 128.047 24.9532 129.415 26.3732 130.728L24.5717 132.676C23.1011 131.316 21.684 129.899 20.3238 128.428ZM29.1378 136.58L30.7818 134.497C32.2981 135.694 33.8625 136.833 35.4714 137.91L33.9954 140.115C32.3288 138.999 30.7084 137.819 29.1378 136.58ZM39.1142 143.258L40.4127 140.944C42.0945 141.888 43.8169 142.768 45.5766 143.581L44.4643 145.989C42.641 145.148 40.8565 144.236 39.1142 143.258ZM50.0147 148.291L50.9333 145.802C52.7385 146.468 54.5769 147.066 56.4453 147.592L55.7263 150.146C53.7902 149.601 51.8853 148.981 50.0147 148.291ZM61.5701 151.544L62.085 148.941C63.9689 149.314 65.8787 149.615 67.8116 149.841L67.5029 152.477C65.5006 152.242 63.522 151.93 61.5701 151.544ZM73.4922 152.942L73.5947 150.291C74.5584 150.328 75.5269 150.347 76.5 150.347C77.4731 150.347 78.4416 150.328 79.4053 150.291L79.5078 152.942C78.51 152.981 77.5073 153 76.5 153C75.4927 153 74.49 152.981 73.4922 152.942ZM85.4971 152.477L85.1884 149.841C87.1213 149.615 89.0312 149.314 90.915 148.941L91.4299 151.544C89.478 151.93 87.4994 152.242 85.4971 152.477ZM97.2737 150.146L96.5548 147.592C98.4231 147.066 100.262 146.468 102.067 145.802L102.985 148.291C101.115 148.981 99.2098 149.601 97.2737 150.146ZM108.536 145.989C110.359 145.148 112.143 144.236 113.886 143.258L112.587 140.944C110.906 141.888 109.183 142.768 107.423 143.581L108.536 145.989ZM119.005 140.115L117.529 137.91C119.138 136.833 120.702 135.694 122.218 134.497L123.862 136.58C122.292 137.819 120.671 138.999 119.005 140.115ZM128.428 132.676L126.627 130.728C128.047 129.415 129.415 128.047 130.728 126.627L132.676 128.428C131.316 129.899 129.899 131.316 128.428 132.676ZM136.58 123.862L134.497 122.218C135.694 120.702 136.833 119.138 137.91 117.529L140.115 119.005C138.999 120.671 137.819 122.292 136.58 123.862ZM143.258 113.886L140.944 112.587C141.888 110.905 142.768 109.183 143.581 107.423L145.989 108.536C145.148 110.359 144.236 112.143 143.258 113.886ZM148.291 102.985L145.802 102.067C146.468 100.261 147.066 98.4231 147.592 96.5547L150.146 97.2737C149.601 99.2098 148.981 101.115 148.291 102.985ZM151.544 91.4299L148.941 90.915C149.314 89.0311 149.615 87.1213 149.841 85.1884L152.477 85.4971C152.242 87.4994 151.93 89.478 151.544 91.4299Z" fill="#0076BE"/>
<circle cx="77.1623" cy="76.7267" r="6.75602" fill="#0076BE"/>
</svg>
