<svg width="616" height="730" viewBox="0 0 616 730" fill="none" xmlns="http://www.w3.org/2000/svg">
<rect x="597.377" y="647.401" width="17.8947" height="46.6266" fill="#0076BE"/>
<line x1="606.016" y1="722.199" x2="576.395" y2="722.199" stroke="#0076BE" stroke-width="2.65117"/>
<line x1="607.126" y1="647.401" x2="607.126" y2="600.775" stroke="#0076BE" stroke-width="2.65117" stroke-dasharray="5.3 5.3"/>
<line x1="605.49" y1="679.897" x2="605.49" y2="723.698" stroke="#0076BE" stroke-width="2.65117"/>
<rect x="0.599609" y="52.5576" width="17.8947" height="46.6266" fill="#0076BE"/>
<rect x="28.875" y="729.351" width="14.1293" height="59.0524" transform="rotate(-90 28.875 729.351)" fill="#0076BE"/>
<rect x="20.8633" y="644.575" width="17.8947" height="46.6266" transform="rotate(180 20.8633 644.575)" fill="#0076BE"/>
<line x1="10.0104" y1="63.8613" x2="10.0104" y2="5.93128" stroke="#0076BE" stroke-width="2.65117"/>
<line x1="39" y1="722.199" x2="9.37977" y2="722.199" stroke="#0076BE" stroke-width="2.65117"/>
<line x1="9.06836" y1="7.43223" x2="21.2952" y2="7.43223" stroke="#0076BE" stroke-width="2.65117"/>
<line x1="21.2949" y1="7.43223" x2="53.8998" y2="7.43223" stroke="#0076BE" stroke-width="2.65117" stroke-dasharray="5.3 5.3"/>
<line x1="151.396" y1="6.01817" x2="330.724" y2="6.01817" stroke="#0076BE" stroke-width="2.65117" stroke-dasharray="11.93 11.93"/>
<line x1="317.072" y1="722.374" x2="549.382" y2="722.374" stroke="#0076BE" stroke-width="2.65117" stroke-dasharray="9.28 9.28"/>
<line x1="11.7545" y1="722.286" x2="11.7545" y2="641.749" stroke="#0076BE" stroke-width="2.65117" stroke-dasharray="5.3 5.3"/>
<line x1="8.76308" y1="77.9902" x2="8.76308" y2="134.507" stroke="#0076BE" stroke-width="2.65117" stroke-dasharray="5.3 5.3"/>
<rect x="479.586" y="14.4092" width="14.1293" height="59.0524" transform="rotate(-90 479.586 14.4092)" fill="#0076BE"/>
<line x1="610.005" y1="5.93164" x2="610.005" y2="52.5583" stroke="#0076BE" stroke-width="2.65117"/>
<line x1="605.595" y1="298.408" x2="605.595" y2="538.606" stroke="#0076BE" stroke-width="2.65117"/>
<line x1="610.005" y1="61.0352" x2="610.005" y2="107.662" stroke="#0076BE" stroke-width="2.65117" stroke-dasharray="5.3 5.3"/>
<line x1="565.479" y1="7.25722" x2="538.579" y2="7.25723" stroke="#0076BE" stroke-width="2.65117"/>
<line x1="585.857" y1="7.43223" x2="610.311" y2="7.43223" stroke="#0076BE" stroke-width="2.65117"/>
</svg>
