<svg width="623" height="286" viewBox="0 0 623 286" fill="none" xmlns="http://www.w3.org/2000/svg">
<rect x="28.2059" y="24.5652" width="562.047" height="235.954" fill="url(#paint0_linear_729_14968)" stroke="#0076BE" stroke-width="5.30233"/>
<line x1="26.3275" y1="25.8896" x2="26.3275" y2="175.128" stroke="#0076BE" stroke-width="0.662792"/>
<line x1="42.683" y1="25.8896" x2="42.683" y2="175.128" stroke="#0076BE" stroke-width="0.662792"/>
<line x1="59.0365" y1="25.8896" x2="59.0365" y2="175.128" stroke="#0076BE" stroke-width="0.662792"/>
<line x1="75.3919" y1="25.8896" x2="75.3919" y2="175.128" stroke="#0076BE" stroke-width="0.662792"/>
<line x1="91.7455" y1="25.8896" x2="91.7455" y2="175.128" stroke="#0076BE" stroke-width="0.662792"/>
<line x1="108.101" y1="25.8896" x2="108.101" y2="175.128" stroke="#0076BE" stroke-width="0.662792"/>
<line x1="124.454" y1="25.8896" x2="124.454" y2="175.128" stroke="#0076BE" stroke-width="0.662792"/>
<line x1="140.81" y1="25.8896" x2="140.81" y2="175.128" stroke="#0076BE" stroke-width="0.662792"/>
<line x1="157.165" y1="25.8896" x2="157.165" y2="175.128" stroke="#0076BE" stroke-width="0.662792"/>
<line x1="173.519" y1="25.8896" x2="173.519" y2="175.128" stroke="#0076BE" stroke-width="0.662792"/>
<line x1="189.874" y1="25.8896" x2="189.874" y2="175.128" stroke="#0076BE" stroke-width="0.662792"/>
<line x1="206.226" y1="25.8896" x2="206.226" y2="175.128" stroke="#0076BE" stroke-width="0.662792"/>
<line x1="222.581" y1="25.8896" x2="222.581" y2="175.128" stroke="#0076BE" stroke-width="0.662792"/>
<line x1="238.935" y1="25.8896" x2="238.935" y2="175.128" stroke="#0076BE" stroke-width="0.662792"/>
<line x1="255.29" y1="25.8896" x2="255.29" y2="175.128" stroke="#0076BE" stroke-width="0.662792"/>
<line x1="255.29" y1="25.8896" x2="255.29" y2="175.128" stroke="#0076BE" stroke-width="0.662792"/>
<line x1="271.646" y1="25.8896" x2="271.646" y2="175.128" stroke="#0076BE" stroke-width="0.662792"/>
<line x1="287.999" y1="25.8896" x2="287.999" y2="175.128" stroke="#0076BE" stroke-width="0.662792"/>
<line x1="304.355" y1="25.8896" x2="304.355" y2="175.128" stroke="#0076BE" stroke-width="0.662792"/>
<line x1="320.708" y1="25.8896" x2="320.708" y2="175.128" stroke="#0076BE" stroke-width="0.662792"/>
<line x1="337.064" y1="25.8896" x2="337.064" y2="175.128" stroke="#0076BE" stroke-width="0.662792"/>
<line x1="353.417" y1="25.8896" x2="353.417" y2="175.128" stroke="#0076BE" stroke-width="0.662792"/>
<line x1="369.773" y1="25.8896" x2="369.773" y2="175.128" stroke="#0076BE" stroke-width="0.662792"/>
<line x1="386.128" y1="25.8896" x2="386.128" y2="175.128" stroke="#0076BE" stroke-width="0.662792"/>
<line x1="402.484" y1="25.8896" x2="402.484" y2="175.128" stroke="#0076BE" stroke-width="0.662792"/>
<line x1="418.837" y1="25.8896" x2="418.837" y2="175.128" stroke="#0076BE" stroke-width="0.662792"/>
<line x1="434.163" y1="25.8896" x2="434.163" y2="260.518" stroke="#0076BE" stroke-width="0.662792"/>
<line x1="450.519" y1="25.8896" x2="450.519" y2="260.518" stroke="#0076BE" stroke-width="0.662792"/>
<line x1="466.872" y1="25.8896" x2="466.872" y2="260.518" stroke="#0076BE" stroke-width="0.662792"/>
<line x1="483.228" y1="25.8896" x2="483.228" y2="260.518" stroke="#0076BE" stroke-width="0.662792"/>
<line x1="499.581" y1="25.8896" x2="499.581" y2="260.518" stroke="#0076BE" stroke-width="0.662792"/>
<line x1="515.937" y1="25.8896" x2="515.937" y2="260.518" stroke="#0076BE" stroke-width="0.662792"/>
<line x1="532.29" y1="25.8896" x2="532.29" y2="260.518" stroke="#0076BE" stroke-width="0.662792"/>
<line x1="548.646" y1="25.8896" x2="548.646" y2="260.518" stroke="#0076BE" stroke-width="0.662792"/>
<line x1="565.001" y1="25.8896" x2="565.001" y2="260.518" stroke="#0076BE" stroke-width="0.662792"/>
<line x1="25.9961" y1="25.5583" x2="591.579" y2="25.5583" stroke="#0076BE" stroke-width="0.662792"/>
<line x1="25.9961" y1="42.1413" x2="591.579" y2="42.1413" stroke="#0076BE" stroke-width="0.662792"/>
<line x1="25.9961" y1="58.7233" x2="591.579" y2="58.7233" stroke="#0076BE" stroke-width="0.662792"/>
<line x1="25.9961" y1="75.3043" x2="591.579" y2="75.3043" stroke="#0076BE" stroke-width="0.662792"/>
<line x1="25.9961" y1="91.8864" x2="591.579" y2="91.8864" stroke="#0076BE" stroke-width="0.662792"/>
<line x1="25.9961" y1="108.469" x2="591.579" y2="108.469" stroke="#0076BE" stroke-width="0.662792"/>
<line x1="25.9961" y1="125.051" x2="591.579" y2="125.051" stroke="#0076BE" stroke-width="0.662792"/>
<line x1="25.9961" y1="141.632" x2="591.579" y2="141.632" stroke="#0076BE" stroke-width="0.662792"/>
<line x1="25.9961" y1="158.215" x2="591.579" y2="158.215" stroke="#0076BE" stroke-width="0.662792"/>
<line x1="25.9961" y1="174.798" x2="591.579" y2="174.798" stroke="#0076BE" stroke-width="0.662792"/>
<line x1="26.3275" y1="175.293" x2="26.3275" y2="260.519" stroke="#0076BE" stroke-width="0.662792"/>
<line x1="42.683" y1="175.293" x2="42.683" y2="260.519" stroke="#0076BE" stroke-width="0.662792"/>
<line x1="59.0365" y1="175.293" x2="59.0365" y2="260.519" stroke="#0076BE" stroke-width="0.662792"/>
<line x1="75.3919" y1="175.293" x2="75.3919" y2="260.519" stroke="#0076BE" stroke-width="0.662792"/>
<line x1="91.7474" y1="175.293" x2="91.7474" y2="260.519" stroke="#0076BE" stroke-width="0.662792"/>
<line x1="108.103" y1="175.293" x2="108.103" y2="260.519" stroke="#0076BE" stroke-width="0.662792"/>
<line x1="124.454" y1="175.293" x2="124.454" y2="260.519" stroke="#0076BE" stroke-width="0.662792"/>
<line x1="140.81" y1="175.293" x2="140.81" y2="260.519" stroke="#0076BE" stroke-width="0.662792"/>
<line x1="157.165" y1="175.293" x2="157.165" y2="260.519" stroke="#0076BE" stroke-width="0.662792"/>
<line x1="173.519" y1="175.293" x2="173.519" y2="260.519" stroke="#0076BE" stroke-width="0.662792"/>
<line x1="189.874" y1="175.293" x2="189.874" y2="260.519" stroke="#0076BE" stroke-width="0.662792"/>
<line x1="206.226" y1="175.293" x2="206.226" y2="260.519" stroke="#0076BE" stroke-width="0.662792"/>
<line x1="222.585" y1="175.293" x2="222.585" y2="260.519" stroke="#0076BE" stroke-width="0.662792"/>
<line x1="238.935" y1="175.293" x2="238.935" y2="260.519" stroke="#0076BE" stroke-width="0.662792"/>
<line x1="255.288" y1="175.293" x2="255.288" y2="260.519" stroke="#0076BE" stroke-width="0.662792"/>
<line x1="255.29" y1="175.293" x2="255.29" y2="260.519" stroke="#0076BE" stroke-width="0.662792"/>
<line x1="271.646" y1="175.293" x2="271.646" y2="260.519" stroke="#0076BE" stroke-width="0.662792"/>
<line x1="287.999" y1="175.293" x2="287.999" y2="260.519" stroke="#0076BE" stroke-width="0.662792"/>
<line x1="304.355" y1="175.293" x2="304.355" y2="260.519" stroke="#0076BE" stroke-width="0.662792"/>
<line x1="320.71" y1="175.293" x2="320.71" y2="260.519" stroke="#0076BE" stroke-width="0.662792"/>
<line x1="337.066" y1="175.293" x2="337.066" y2="260.519" stroke="#0076BE" stroke-width="0.662792"/>
<line x1="353.417" y1="175.293" x2="353.417" y2="260.519" stroke="#0076BE" stroke-width="0.662792"/>
<line x1="369.773" y1="175.293" x2="369.773" y2="260.519" stroke="#0076BE" stroke-width="0.662792"/>
<line x1="386.128" y1="175.293" x2="386.128" y2="260.519" stroke="#0076BE" stroke-width="0.662792"/>
<line x1="402.484" y1="175.293" x2="402.484" y2="260.519" stroke="#0076BE" stroke-width="0.662792"/>
<line x1="418.837" y1="175.293" x2="418.837" y2="260.519" stroke="#0076BE" stroke-width="0.662792"/>
<line x1="25.9961" y1="174.962" x2="587.602" y2="174.962" stroke="#0076BE" stroke-width="0.662792"/>
<line x1="25.9961" y1="191.545" x2="587.602" y2="191.545" stroke="#0076BE" stroke-width="0.662792"/>
<line x1="25.9961" y1="208.128" x2="587.602" y2="208.128" stroke="#0076BE" stroke-width="0.662792"/>
<line x1="25.9961" y1="224.708" x2="587.602" y2="224.708" stroke="#0076BE" stroke-width="0.662792"/>
<line x1="25.9961" y1="241.29" x2="587.602" y2="241.29" stroke="#0076BE" stroke-width="0.662792"/>
<line x1="25.9961" y1="257.873" x2="587.602" y2="257.873" stroke="#0076BE" stroke-width="0.662792"/>
<rect x="604.834" y="219.425" width="17.2326" height="43.7443" fill="#0076BE"/>
<line x1="614.115" y1="279.077" x2="583.627" y2="279.077" stroke="#0076BE" stroke-width="2.65117"/>
<line x1="590.305" y1="260.293" x2="590.305" y2="223.209" stroke="#0076BE" stroke-width="2.65117" stroke-dasharray="5.3 5.3"/>
<line x1="614.113" y1="244.611" x2="614.113" y2="280.402" stroke="#0076BE" stroke-width="2.65117"/>
<rect x="0.369141" y="42.2842" width="17.2502" height="37.0842" fill="#0076BE"/>
<rect x="27.627" y="285.704" width="17.2326" height="43.7443" transform="rotate(-90 27.627 285.704)" fill="#0076BE"/>
<rect x="19.9023" y="215.627" width="17.2502" height="37.0842" transform="rotate(180 19.9023 215.627)" fill="#0076BE"/>
<line x1="9.39512" y1="51.2725" x2="9.39512" y2="5.19812" stroke="#0076BE" stroke-width="2.65117"/>
<line x1="37.3867" y1="277.637" x2="8.83326" y2="277.637" stroke="#0076BE" stroke-width="2.65117"/>
<line x1="8.53516" y1="6.12168" x2="20.3216" y2="6.12168" stroke="#0076BE" stroke-width="2.65117"/>
<line x1="20.3184" y1="6.12168" x2="51.749" y2="6.12168" stroke="#0076BE" stroke-width="2.65117" stroke-dasharray="5.3 5.3"/>
<line x1="145.738" y1="4.99668" x2="318.607" y2="4.99668" stroke="#0076BE" stroke-width="2.65117" stroke-dasharray="11.93 11.93"/>
<line x1="310.748" y1="278.558" x2="534.691" y2="278.558" stroke="#0076BE" stroke-width="2.65117" stroke-dasharray="9.28 9.28"/>
<line x1="11.0768" y1="277.435" x2="11.0768" y2="213.38" stroke="#0076BE" stroke-width="2.65117" stroke-dasharray="5.3 5.3"/>
<line x1="8.28652" y1="62.5107" x2="8.28652" y2="107.461" stroke="#0076BE" stroke-width="2.65117" stroke-dasharray="5.3 5.3"/>
<rect x="462.104" y="11.9414" width="11.2376" height="56.9257" transform="rotate(-90 462.104 11.9414)" fill="#0076BE"/>
<line x1="612.788" y1="4.68066" x2="612.788" y2="41.797" stroke="#0076BE" stroke-width="2.65117"/>
<line x1="612.788" y1="48.4248" x2="612.788" y2="85.5411" stroke="#0076BE" stroke-width="2.65117" stroke-dasharray="5.3 5.3"/>
<line x1="567.719" y1="6.00625" x2="541.207" y2="6.00625" stroke="#0076BE" stroke-width="2.65117"/>
<line x1="587.602" y1="6.00645" x2="612.788" y2="6.00645" stroke="#0076BE" stroke-width="2.65117"/>
<defs>
<linearGradient id="paint0_linear_729_14968" x1="317.046" y1="255.526" x2="314.325" y2="32.4373" gradientUnits="userSpaceOnUse">
<stop stop-color="#0076BE" stop-opacity="0.22"/>
<stop offset="1" stop-color="#2B2A2B" stop-opacity="0"/>
</linearGradient>
</defs>
</svg>
