<svg width="623" height="424" viewBox="0 0 623 424" fill="none" xmlns="http://www.w3.org/2000/svg">
<rect x="604.834" y="357.499" width="17.2326" height="43.7443" fill="#0076BE"/>
<line x1="614.113" y1="417.15" x2="583.625" y2="417.15" stroke="#0076BE" stroke-width="2.65117"/>
<line x1="590.305" y1="260.506" x2="590.305" y2="223.422" stroke="#0076BE" stroke-width="2.65117" stroke-dasharray="5.3 5.3"/>
<line x1="614.113" y1="382.685" x2="614.113" y2="418.475" stroke="#0076BE" stroke-width="2.65117"/>
<rect x="0.367188" y="42.4971" width="17.2502" height="37.0842" fill="#0076BE"/>
<rect x="24.9707" y="423.778" width="17.2326" height="43.7443" transform="rotate(-90 24.9707 423.778)" fill="#0076BE"/>
<rect x="17.25" y="353.7" width="17.2502" height="37.0842" transform="rotate(180 17.25 353.7)" fill="#0076BE"/>
<line x1="9.39317" y1="51.4854" x2="9.39316" y2="5.41101" stroke="#0076BE" stroke-width="2.65117"/>
<line x1="34.7344" y1="415.71" x2="6.18092" y2="415.71" stroke="#0076BE" stroke-width="2.65117"/>
<line x1="8.5332" y1="6.33457" x2="20.3197" y2="6.33457" stroke="#0076BE" stroke-width="2.65117"/>
<line x1="20.3223" y1="6.33457" x2="51.7529" y2="6.33457" stroke="#0076BE" stroke-width="2.65117" stroke-dasharray="5.3 5.3"/>
<line x1="145.736" y1="5.20957" x2="318.605" y2="5.20957" stroke="#0076BE" stroke-width="2.65117" stroke-dasharray="11.93 11.93"/>
<line x1="310.746" y1="416.632" x2="534.689" y2="416.632" stroke="#0076BE" stroke-width="2.65117" stroke-dasharray="9.28 9.28"/>
<line x1="8.42246" y1="415.509" x2="8.42247" y2="351.454" stroke="#0076BE" stroke-width="2.65117" stroke-dasharray="5.3 5.3"/>
<line x1="8.28457" y1="62.7236" x2="8.28457" y2="107.674" stroke="#0076BE" stroke-width="2.65117" stroke-dasharray="5.3 5.3"/>
<rect x="462.105" y="12.1543" width="11.2376" height="56.9257" transform="rotate(-90 462.105 12.1543)" fill="#0076BE"/>
<line x1="612.787" y1="4.89355" x2="612.786" y2="42.0099" stroke="#0076BE" stroke-width="2.65117"/>
<line x1="612.787" y1="48.6377" x2="612.786" y2="85.754" stroke="#0076BE" stroke-width="2.65117" stroke-dasharray="5.3 5.3"/>
<line x1="567.717" y1="6.21914" x2="541.205" y2="6.21914" stroke="#0076BE" stroke-width="2.65117"/>
<line x1="587.6" y1="6.21934" x2="612.786" y2="6.21934" stroke="#0076BE" stroke-width="2.65117"/>
</svg>
